<svg width="89" height="56" viewBox="0 0 89 56" fill="none" xmlns="http://www.w3.org/2000/svg">
<g clip-path="url(#clip0_10_1056)">
<path d="M87.4111 42.7681H83.7206L82.1349 50.05H76.9817L78.5673 42.7681H74.9045L75.8718 37.6148H88.3823L87.4111 42.7681Z" fill="white"/>
<path d="M15.8483 45.7331H7.9202L7.27009 49.1898H9.64851C9.10544 50.1451 8.30867 50.815 7.27009 50.8665C5.22464 50.7635 5.09383 48.4406 5.3832 46.7638C5.70825 44.8809 6.73892 42.6887 8.64166 42.5857C8.99269 42.5899 9.33574 42.6909 9.633 42.8777C9.93027 43.0644 10.1702 43.3297 10.3264 43.6441L15.7214 42.5024C15.1665 39.5334 12.8356 37.3928 9.60491 37.4206H9.55338C4.47148 37.5752 1.0624 41.9871 0.206165 46.8352C-0.1391 48.5509 -0.0311498 50.3271 0.51934 51.9884H13.4104C14.6428 50.0923 15.4726 47.9632 15.8483 45.7331Z" fill="white"/>
<path d="M12.0665 53.574H1.32397C1.54368 53.888 1.79616 54.1776 2.07715 54.4382H11.0279C11.396 54.1774 11.7432 53.8885 12.0665 53.574Z" fill="white"/>
<path d="M6.28708 56H6.36239C7.36781 55.9618 8.35954 55.7541 9.29577 55.3856H3.49243C4.36926 55.7881 5.32228 55.9976 6.28708 56Z" fill="white"/>
<path d="M15.9434 56H21.1006L21.2155 55.3856H16.0583L15.9434 56Z" fill="white"/>
<path d="M24.5137 37.813H19.3525L16.6926 51.9924H21.8538L24.5137 37.813Z" fill="white"/>
<path d="M16.3952 53.574L16.2327 54.4421H21.3938L21.5564 53.574H16.3952Z" fill="white"/>
<path d="M24.1885 53.574L24.022 54.4421H35.6049L35.7674 53.574H24.1885Z" fill="white"/>
<path d="M23.7327 56L35.3156 55.9762L35.4266 55.3856H23.8476L23.7327 56Z" fill="white"/>
<path d="M36.156 51.5127H29.8849L32.4576 37.813H27.1418L24.4819 51.9924H36.0649L36.156 51.5127Z" fill="white"/>
<path d="M45.6103 37.813H40.4531L37.7932 51.9924H42.9504L45.6103 37.813Z" fill="white"/>
<path d="M37.4958 53.574L37.3333 54.4421H42.4905L42.653 53.574H37.4958Z" fill="white"/>
<path d="M37.04 56H42.2012L42.3162 55.3856H37.155L37.04 56Z" fill="white"/>
<path d="M56.4677 51.0965C57.067 49.6067 57.4939 48.0533 57.7401 46.4665L59.4011 37.6188H54.2478L52.5869 46.4665C52.416 47.6056 52.1196 48.7224 51.7029 49.7963C51.6105 50.0324 51.4762 50.25 51.3065 50.4385C51.2228 50.5437 51.119 50.6312 51.0013 50.6961C50.8342 50.8065 50.633 50.8529 50.4344 50.8269C50.3471 50.8155 50.2647 50.7798 50.1966 50.7239C50.092 50.6217 50.0115 50.4976 49.9607 50.3605C49.91 50.2234 49.8904 50.0767 49.9032 49.9311C49.8863 49.8114 49.8863 49.69 49.9032 49.5703L44.6509 50.7595C44.6513 51.0251 44.6725 51.2901 44.7143 51.5523C44.7381 51.7109 44.7777 51.8576 44.8095 52.0082H56.0039C56.1762 51.7136 56.3311 51.4092 56.4677 51.0965Z" fill="white"/>
<path d="M54.8029 53.574H45.3645C45.529 53.8829 45.7271 54.1727 45.9551 54.4382H53.8357C54.179 54.1745 54.5023 53.8856 54.8029 53.574Z" fill="white"/>
<path d="M47.9371 55.7423C48.4481 55.9138 48.9836 56.0009 49.5227 56C50.4645 55.9866 51.3933 55.7773 52.2499 55.3856H47.0967C47.3641 55.5324 47.6456 55.652 47.9371 55.7423Z" fill="white"/>
<path d="M58.3428 56L70.2904 55.9762L70.4014 55.3856H58.4498L58.3428 56Z" fill="white"/>
<path d="M72.7322 42.9464L73.529 37.587L61.5814 37.6148L59.0483 51.9924H71.0356L71.2576 50.815H64.4751L64.8239 48.9599H70.8334L71.7214 44.2109H65.7119L65.9497 42.9464H72.7322Z" fill="white"/>
<path d="M58.6162 54.4421H70.5757L70.7382 53.574H58.7708L58.6162 54.4421Z" fill="white"/>
<path d="M72.3794 55.667C72.2695 55.6707 72.1603 55.6489 72.0603 55.6034C71.9602 55.558 71.872 55.49 71.8026 55.4048C71.7331 55.3196 71.6843 55.2195 71.6599 55.1124C71.6355 55.0052 71.6362 54.8939 71.6619 54.787C71.7139 54.5442 71.8455 54.3258 72.0358 54.1664C72.2261 54.0069 72.4642 53.9156 72.7124 53.907C72.8218 53.9038 72.9305 53.9259 73.0299 53.9717C73.1294 54.0175 73.2169 54.0857 73.2856 54.1709C73.3543 54.2561 73.4023 54.3561 73.426 54.463C73.4497 54.5698 73.4483 54.6808 73.4219 54.787C73.3709 55.0288 73.2407 55.2467 73.0518 55.4061C72.863 55.5655 72.6263 55.6573 72.3794 55.667Z" fill="white"/>
<path d="M76.1372 54.0695L77.3502 54.347C77.2184 54.668 77.0107 54.9521 76.7449 55.1751C76.479 55.3982 76.1631 55.5533 75.8241 55.6274C75.6938 55.6551 75.5609 55.6683 75.4277 55.667C75.2941 55.6676 75.1609 55.6516 75.0313 55.6194C73.9649 55.342 73.9015 54.2955 74.0799 53.3639C74.2781 52.3055 74.7419 51.3422 75.8875 51.0608C76.1485 51.0019 76.4193 51.0019 76.6803 51.0608C76.9748 51.1219 77.2392 51.2825 77.4291 51.5158C77.619 51.749 77.7227 52.0404 77.7229 52.3412L76.4068 52.6187C76.4026 52.5513 76.378 52.4867 76.3362 52.4336C76.2944 52.3805 76.2375 52.3414 76.1729 52.3214C75.6021 52.1906 75.4237 52.9239 75.3405 53.3679C75.2572 53.8119 75.1462 54.4699 75.7845 54.3708C75.8625 54.3511 75.9349 54.3137 75.9961 54.2614C76.0572 54.2092 76.1056 54.1435 76.1372 54.0695Z" fill="white"/>
<path d="M79.4393 55.667C79.1849 55.6791 78.9317 55.6244 78.705 55.5083C78.4782 55.3921 78.2859 55.2186 78.147 55.0051C77.8658 54.5097 77.7809 53.9268 77.9092 53.3719C78.0067 52.7542 78.2822 52.1783 78.702 51.7149C78.8993 51.5017 79.1367 51.3297 79.4006 51.2086C79.6646 51.0875 79.9499 51.0198 80.2401 51.0093C80.4938 51.001 80.7454 51.0579 80.9709 51.1745C81.1965 51.2911 81.3884 51.4635 81.5284 51.6752C81.8082 52.1726 81.8916 52.7566 81.7622 53.3124C81.6672 53.9308 81.3914 54.5073 80.9694 54.9693C80.7734 55.1823 80.5366 55.3538 80.2731 55.4737C80.0096 55.5935 79.7247 55.6592 79.4354 55.667H79.4393ZM79.586 52.4958C79.3764 52.7354 79.2389 53.0295 79.1896 53.3441C79.1245 53.6239 79.1567 53.9175 79.2808 54.1765C79.323 54.2419 79.3822 54.2945 79.452 54.3287C79.5218 54.3629 79.5997 54.3774 79.6772 54.3708C79.7602 54.3696 79.8421 54.3514 79.9177 54.3173C79.9934 54.2833 80.0613 54.234 80.1172 54.1726C80.3254 53.932 80.4626 53.6383 80.5136 53.3243C80.5786 53.0445 80.5465 52.7509 80.4224 52.4918C80.3805 52.4262 80.3214 52.3734 80.2515 52.3391C80.1815 52.3048 80.1035 52.2905 80.026 52.2976C79.9424 52.2998 79.8602 52.3192 79.7845 52.3547C79.7087 52.3902 79.6412 52.4409 79.586 52.5037V52.4958Z" fill="white"/>
<path d="M86.6777 51.1084L85.8215 55.667H84.6323L85.1397 52.9517L84.4103 54.9099H83.5343V52.9517L83.0269 55.667H81.8376L82.6939 51.1084H84.1209L84.2755 53.3441L85.2745 51.1084H86.6777Z" fill="white"/>
<path d="M44.873 16.419C54.6364 15.4003 58.4419 19.071 62.3147 19.2454C63.3179 19.2876 64.2997 18.9476 65.0618 18.2941L76.3712 9.2719C76.3712 9.2719 56.0793 6.73491 36.822 10.5998C36.822 10.5998 60.5626 2.54094 83.899 7.31761C83.899 7.31761 70.6551 22.163 64.1105 22.6426C57.8473 23.1024 51.8973 16.4587 34.8638 20.2285C37.8038 18.0945 41.258 16.7798 44.873 16.419Z" fill="white"/>
<path d="M37.0399 14.005C34.9532 14.8922 33.1256 16.2943 31.7281 18.08C27.8339 19.1731 23.8364 19.8573 19.8003 20.1215L20.4623 18.3773C22.1272 13.3787 26.3727 9.26003 31.3079 7.44053C36.9567 5.33959 44.7857 2.77088 51.9209 1.65699C55.3072 1.15183 58.7672 1.58793 61.9222 2.91755C61.9222 2.91755 42.6253 4.64983 29.1436 10.8456C29.1436 10.8456 57.7441 2.41411 67.9317 4.50316C67.9317 4.50316 62.941 0.174429 54.6244 0.0158674C48.9955 -0.0951257 37.0915 3.51213 29.0246 6.16804C24.7474 7.57924 19.5625 11.9952 17.4972 15.9989L13.8542 23.1342C13.8542 23.1342 20.9895 23.594 33.2027 20.4703C33.2027 20.4703 36.814 14.4053 47.5803 13.01C47.5803 13.01 44.0563 7.73383 24.795 16.3199C28.7636 15.0558 32.8717 14.2811 37.028 14.0129L37.0399 14.005Z" fill="white"/>
<path d="M54.5848 1.23679L52.9041 4.81235L54.3351 4.2772L55.4054 1.23679H54.5848Z" fill="white"/>
<path d="M46.9104 2.26346L45.2336 5.83902L46.6607 5.30388L47.735 2.26346H46.9104Z" fill="white"/>
<path d="M64.0073 25.0963C64.0073 25.0963 51.255 18.8926 39.0101 20.9063C25.7385 23.0905 18.0007 26.6661 5.71216 21.7308C5.71216 21.7308 8.12627 25.6513 19.622 26.6225C33.286 27.776 34.606 19.0868 64.0073 25.0963Z" fill="white"/>
<path d="M21.4653 11.0795L9.74756 14.77L19.4555 13.3628L21.4653 11.0795Z" fill="white"/>
<path d="M20.1888 13.9415L5.51392 18.5596L17.6756 16.7996L20.1888 13.9415Z" fill="white"/>
<path d="M20.185 17.1801L8.46729 20.8667L18.1752 19.4595L20.185 17.1801Z" fill="white"/>
<path d="M63.7537 26.7295C63.7537 26.7295 53.9902 23.8635 45.2297 24.4264C36.4692 24.9893 31.415 26.7295 31.415 26.7295H62.7864" fill="white"/>
</g>
<defs>
<clipPath id="clip0_10_1056">
<rect width="88.3783" height="56" fill="white"/>
</clipPath>
</defs>
</svg>
