<svg width="36" height="11" viewBox="0 0 36 11" fill="none" xmlns="http://www.w3.org/2000/svg">
<g clip-path="url(#clip0_10_1104)">
<path d="M1.12515 9.1101L31.8873 8.03687C32.193 7.74432 32.4805 7.43322 32.748 7.10533L35.1267 4.20751C35.16 4.16695 35.1809 4.11759 35.1867 4.06541C35.1925 4.01323 35.1831 3.96049 35.1595 3.91357C35.1359 3.86666 35.0993 3.8276 35.0539 3.80113C35.0086 3.77467 34.9565 3.76193 34.9041 3.76448L23.0486 4.31816C21.3964 2.09996 19.2744 0.00509644 15.9698 0.00509644H7.51121L7.50858 0.0155922H5.30788L5.56372 0.533404C5.70931 0.828782 5.93468 1.0775 6.21433 1.25141C6.49397 1.42532 6.81672 1.51747 7.14603 1.51742L5.9757 4.84384C5.80625 5.32477 5.50075 5.74612 5.09632 6.05668C4.6919 6.36724 4.20596 6.55363 3.69759 6.5932L1.20474 6.78782C1.09558 6.79638 0.989924 6.83028 0.896159 6.88683C0.802393 6.94337 0.723106 7.02101 0.664601 7.11356C0.606095 7.20612 0.569982 7.31105 0.55913 7.42C0.548279 7.52896 0.56299 7.63895 0.60209 7.74122L1.12515 9.1101ZM15.9698 0.796246C18.8125 0.796246 20.6691 2.54342 22.0987 4.3772L15.8933 4.68333L15.2329 0.797121L15.9698 0.796246ZM10.6273 0.796246H14.6648L15.3296 4.71001L9.14292 5.01615L10.6273 0.796246Z" fill="white"/>
<path d="M1.34399 9.68171L1.53249 10.1746C1.60434 10.3854 1.74034 10.5683 1.92144 10.6979C2.10253 10.8275 2.31964 10.8971 2.54231 10.8971H24.7693C27.1064 10.8966 29.3737 10.1006 31.1982 8.63996L1.34399 9.68171Z" fill="white"/>
</g>
<defs>
<clipPath id="clip0_10_1104">
<rect width="34.633" height="10.8929" fill="white" transform="translate(0.556152 0.00509644)"/>
</clipPath>
</defs>
</svg>
