<svg width="48" height="48" viewBox="0 0 48 48" fill="none" xmlns="http://www.w3.org/2000/svg" xmlns:xlink="http://www.w3.org/1999/xlink">
<path d="M23.256,45.121C35.084,45.121 44.756,35.449 44.756,23.621L41.756,23.621C41.756,33.793 33.427,42.121 23.256,42.121L23.256,45.121ZM44.756,23.621C44.756,11.793 35.084,2.121 23.256,2.121L23.256,5.121C33.427,5.121 41.756,13.45 41.756,23.621L44.756,23.621ZM23.256,2.121C11.427,2.121 1.756,11.793 1.756,23.621L4.756,23.621C4.756,13.45 13.084,5.121 23.256,5.121L23.256,2.121ZM1.756,23.621C1.756,35.449 11.427,45.121 23.256,45.121L23.256,42.121C13.084,42.121 4.756,33.793 4.756,23.621L1.756,23.621Z" fill="#FFFFFF"/>
<line x1="15.256" y1="22.121" x2="31.256" y2="22.121" stroke="#FFFFFF" stroke-width="1.5" stroke-miterlimit="3.999327" stroke-linecap="round" stroke-linejoin="round"/>
<line x1="21.756" y1="15.621" x2="21.756" y2="31.621" stroke="#FFFFFF" stroke-width="1.5" stroke-miterlimit="3.999327" stroke-linecap="round" stroke-linejoin="round"/>
</svg>
