<svg width="48" height="48" viewBox="0 0 48 48" fill="none" xmlns="http://www.w3.org/2000/svg" xmlns:xlink="http://www.w3.org/1999/xlink">
<path d="M32.797,7.12L32.797,4C32.797,3.18 32.117,2.5 31.297,2.5C30.477,2.5 29.797,3.18 29.797,4L29.797,7L16.797,7L16.797,4C16.797,3.18 16.117,2.5 15.297,2.5C14.477,2.5 13.797,3.18 13.797,4L13.797,7.12C8.397,7.62 5.777,10.84 5.377,15.62C5.337,16.2 5.817,16.68 6.377,16.68L40.217,16.68C40.797,16.68 41.277,16.18 41.217,15.62C40.817,10.84 38.197,7.62 32.797,7.12Z" fill="#0C0507"/>
<path d="M39.297,19.68L7.297,19.68C6.197,19.68 5.297,20.58 5.297,21.68L5.297,34C5.297,40 8.297,44 15.297,44L25.157,44C26.537,44 27.497,42.66 27.057,41.36C26.657,40.2 26.317,38.92 26.317,38C26.317,31.94 31.257,27 37.317,27C37.897,27 38.477,27.04 39.037,27.14C40.237,27.32 41.317,26.38 41.317,25.18L41.317,21.7C41.297,20.58 40.397,19.68 39.297,19.68ZM17.717,35.42C17.517,35.6 17.297,35.74 17.057,35.84C16.817,35.94 16.557,36 16.297,36C16.037,36 15.777,35.94 15.537,35.84C15.297,35.74 15.077,35.6 14.877,35.42C14.517,35.04 14.297,34.52 14.297,34C14.297,33.88 14.317,33.74 14.337,33.62C14.357,33.48 14.397,33.36 14.457,33.24C14.497,33.12 14.557,33 14.637,32.88C14.697,32.78 14.797,32.68 14.877,32.58C15.077,32.4 15.297,32.26 15.537,32.16C16.017,31.96 16.577,31.96 17.057,32.16C17.297,32.26 17.517,32.4 17.717,32.58C17.797,32.68 17.897,32.78 17.957,32.88C18.037,33 18.097,33.12 18.137,33.24C18.197,33.36 18.237,33.48 18.257,33.62C18.277,33.74 18.297,33.88 18.297,34C18.297,34.52 18.077,35.04 17.717,35.42ZM17.717,28.42C17.517,28.6 17.297,28.74 17.057,28.84C16.817,28.94 16.557,29 16.297,29C16.037,29 15.777,28.94 15.537,28.84C15.277,28.74 15.077,28.6 14.877,28.42C14.517,28.04 14.297,27.52 14.297,27C14.297,26.48 14.517,25.96 14.877,25.58C15.077,25.4 15.297,25.26 15.537,25.16C16.017,24.96 16.577,24.96 17.057,25.16C17.297,25.26 17.517,25.4 17.717,25.58C17.797,25.68 17.897,25.78 17.957,25.88C18.037,26 18.097,26.12 18.137,26.24C18.197,26.36 18.237,26.48 18.257,26.6C18.277,26.74 18.297,26.88 18.297,27C18.297,27.52 18.077,28.04 17.717,28.42ZM24.717,28.42C24.337,28.78 23.837,29 23.297,29C23.037,29 22.777,28.94 22.537,28.84C22.277,28.74 22.077,28.6 21.877,28.42C21.517,28.04 21.297,27.52 21.297,27C21.297,26.88 21.317,26.74 21.337,26.6C21.357,26.48 21.397,26.36 21.457,26.24C21.497,26.12 21.557,26 21.637,25.88C21.717,25.78 21.797,25.68 21.877,25.58C22.617,24.84 23.957,24.84 24.717,25.58C24.797,25.68 24.877,25.78 24.957,25.88C25.037,26 25.097,26.12 25.137,26.24C25.197,26.36 25.237,26.48 25.257,26.6C25.277,26.74 25.297,26.88 25.297,27C25.297,27.52 25.077,28.04 24.717,28.42Z" fill="#0C0507"/>
<path d="M42.957,32.34C39.837,29.22 34.757,29.22 31.637,32.34C28.517,35.46 28.517,40.54 31.637,43.66C34.757,46.78 39.837,46.78 42.957,43.66C46.077,40.54 46.077,35.46 42.957,32.34ZM41.437,39.12C41.177,39.4 40.797,39.56 40.377,39.56L38.897,39.56L38.897,41.12C38.897,41.54 38.737,41.9 38.457,42.18C38.177,42.46 37.817,42.62 37.397,42.62C36.577,42.62 35.897,41.94 35.897,41.12L35.897,39.56L34.397,39.56C33.577,39.56 32.897,38.9 32.897,38.06C32.897,37.24 33.577,36.56 34.397,36.56L35.897,36.56L35.897,35.14C35.897,34.32 36.557,33.64 37.397,33.64C38.217,33.64 38.897,34.32 38.897,35.14L38.897,36.56L40.377,36.56C41.217,36.56 41.877,37.24 41.877,38.06C41.877,38.48 41.717,38.86 41.437,39.12Z" fill="#0C0507"/>
</svg>
