<svg width="30" height="32" viewBox="0 0 30 32" fill="none" xmlns="http://www.w3.org/2000/svg" xmlns:xlink="http://www.w3.org/1999/xlink">
<path d="M20.052,5.068L20.052,3.161C20.052,2.66 19.636,2.244 19.135,2.244C18.634,2.244 18.218,2.66 18.218,3.161L18.218,4.995L10.272,4.995L10.272,3.161C10.272,2.66 9.856,2.244 9.355,2.244C8.854,2.244 8.438,2.66 8.438,3.161L8.438,5.068C5.137,5.374 3.536,7.342 3.291,10.264C3.267,10.618 3.56,10.912 3.903,10.912L24.587,10.912C24.942,10.912 25.235,10.606 25.199,10.264C24.954,7.342 23.353,5.374 20.052,5.068Z" fill="#0C0507"/>
<path d="M24.026,12.746L4.466,12.746C3.793,12.746 3.243,13.296 3.243,13.969L3.243,21.499C3.243,25.167 5.077,27.612 9.356,27.612L15.383,27.612C16.226,27.612 16.813,26.793 16.544,25.998C16.299,25.289 16.092,24.506 16.092,23.944C16.092,20.24 19.111,17.22 22.815,17.22C23.17,17.22 23.524,17.245 23.867,17.306C24.6,17.416 25.26,16.841 25.26,16.108L25.26,13.981C25.248,13.296 24.698,12.746 24.026,12.746ZM10.835,22.367C10.713,22.477 10.578,22.563 10.431,22.624C10.285,22.685 10.126,22.722 9.967,22.722C9.808,22.722 9.649,22.685 9.502,22.624C9.356,22.563 9.221,22.477 9.099,22.367C8.879,22.135 8.744,21.817 8.744,21.499C8.744,21.426 8.757,21.34 8.769,21.267C8.781,21.181 8.806,21.108 8.842,21.035C8.867,20.961 8.903,20.888 8.952,20.815C8.989,20.753 9.05,20.692 9.099,20.631C9.221,20.521 9.356,20.436 9.502,20.374C9.796,20.252 10.138,20.252 10.431,20.374C10.578,20.436 10.713,20.521 10.835,20.631C10.884,20.692 10.945,20.753 10.982,20.815C11.03,20.888 11.067,20.961 11.092,21.035C11.128,21.108 11.153,21.181 11.165,21.267C11.177,21.34 11.189,21.426 11.189,21.499C11.189,21.817 11.055,22.135 10.835,22.367ZM10.835,18.088C10.713,18.198 10.578,18.284 10.431,18.345C10.285,18.406 10.126,18.443 9.967,18.443C9.808,18.443 9.649,18.406 9.502,18.345C9.343,18.284 9.221,18.198 9.099,18.088C8.879,17.856 8.744,17.538 8.744,17.22C8.744,16.903 8.879,16.585 9.099,16.352C9.221,16.242 9.356,16.157 9.502,16.096C9.796,15.973 10.138,15.973 10.431,16.096C10.578,16.157 10.713,16.242 10.835,16.352C10.884,16.414 10.945,16.475 10.982,16.536C11.03,16.609 11.067,16.683 11.092,16.756C11.128,16.829 11.153,16.903 11.165,16.976C11.177,17.061 11.189,17.147 11.189,17.22C11.189,17.538 11.055,17.856 10.835,18.088ZM15.114,18.088C14.881,18.308 14.576,18.443 14.246,18.443C14.087,18.443 13.928,18.406 13.781,18.345C13.622,18.284 13.5,18.198 13.378,18.088C13.158,17.856 13.023,17.538 13.023,17.22C13.023,17.147 13.035,17.061 13.048,16.976C13.06,16.903 13.084,16.829 13.121,16.756C13.145,16.683 13.182,16.609 13.231,16.536C13.28,16.475 13.329,16.414 13.378,16.352C13.83,15.9 14.649,15.9 15.114,16.352C15.162,16.414 15.211,16.475 15.26,16.536C15.309,16.609 15.346,16.683 15.37,16.756C15.407,16.829 15.431,16.903 15.444,16.976C15.456,17.061 15.468,17.147 15.468,17.22C15.468,17.538 15.334,17.856 15.114,18.088Z" fill="#0C0507"/>
<path d="M26.263,20.485C24.356,18.578 21.25,18.578 19.343,20.485C17.436,22.392 17.436,25.497 19.343,27.404C21.25,29.311 24.356,29.311 26.263,27.404C28.17,25.497 28.17,22.392 26.263,20.485ZM25.334,24.629C25.175,24.8 24.942,24.898 24.686,24.898L23.781,24.898L23.781,25.852C23.781,26.108 23.683,26.329 23.512,26.5C23.341,26.671 23.121,26.769 22.864,26.769C22.363,26.769 21.947,26.353 21.947,25.852L21.947,24.898L21.03,24.898C20.529,24.898 20.114,24.495 20.114,23.981C20.114,23.48 20.529,23.064 21.03,23.064L21.947,23.064L21.947,22.196C21.947,21.695 22.351,21.28 22.864,21.28C23.365,21.28 23.781,21.695 23.781,22.196L23.781,23.064L24.686,23.064C25.199,23.064 25.603,23.48 25.603,23.981C25.603,24.238 25.505,24.47 25.334,24.629Z" fill="#0C0507"/>
</svg>
