<svg width="32" height="30" viewBox="0 0 32 30" fill="none" xmlns="http://www.w3.org/2000/svg" xmlns:xlink="http://www.w3.org/1999/xlink">
<path d="M21.177,4.633L21.177,2.725C21.177,2.224 20.761,1.809 20.26,1.809C19.759,1.809 19.343,2.224 19.343,2.725L19.343,4.559L11.397,4.559L11.397,2.725C11.397,2.224 10.981,1.809 10.48,1.809C9.979,1.809 9.563,2.224 9.563,2.725L9.563,4.633C6.262,4.938 4.661,6.906 4.416,9.828C4.392,10.183 4.685,10.476 5.028,10.476L25.712,10.476C26.067,10.476 26.36,10.17 26.324,9.828C26.079,6.906 24.478,4.938 21.177,4.633Z" fill="#0C0507"/>
<path d="M25.15,12.311L5.59,12.311C4.918,12.311 4.368,12.861 4.368,13.533L4.368,21.064C4.368,24.731 6.201,27.176 10.48,27.176L16.507,27.176C17.351,27.176 17.937,26.357 17.668,25.562C17.424,24.853 17.216,24.071 17.216,23.509C17.216,19.804 20.236,16.785 23.94,16.785C24.294,16.785 24.649,16.809 24.991,16.87C25.725,16.98 26.385,16.406 26.385,15.672L26.385,13.545C26.372,12.861 25.822,12.311 25.15,12.311ZM11.959,21.932C11.837,22.042 11.703,22.127 11.556,22.188C11.409,22.249 11.25,22.286 11.091,22.286C10.932,22.286 10.774,22.249 10.627,22.188C10.48,22.127 10.346,22.042 10.223,21.932C10.003,21.699 9.869,21.381 9.869,21.064C9.869,20.99 9.881,20.905 9.893,20.831C9.906,20.746 9.93,20.672 9.967,20.599C9.991,20.526 10.028,20.452 10.077,20.379C10.113,20.318 10.175,20.257 10.223,20.196C10.346,20.086 10.48,20 10.627,19.939C10.92,19.817 11.263,19.817 11.556,19.939C11.703,20 11.837,20.086 11.959,20.196C12.008,20.257 12.069,20.318 12.106,20.379C12.155,20.452 12.192,20.526 12.216,20.599C12.253,20.672 12.277,20.746 12.289,20.831C12.302,20.905 12.314,20.99 12.314,21.064C12.314,21.381 12.179,21.699 11.959,21.932ZM11.959,17.653C11.837,17.763 11.703,17.848 11.556,17.91C11.409,17.971 11.25,18.007 11.091,18.007C10.932,18.007 10.774,17.971 10.627,17.91C10.468,17.848 10.346,17.763 10.223,17.653C10.003,17.421 9.869,17.103 9.869,16.785C9.869,16.467 10.003,16.149 10.223,15.917C10.346,15.807 10.48,15.721 10.627,15.66C10.92,15.538 11.263,15.538 11.556,15.66C11.703,15.721 11.837,15.807 11.959,15.917C12.008,15.978 12.069,16.039 12.106,16.1C12.155,16.174 12.192,16.247 12.216,16.32C12.253,16.394 12.277,16.467 12.289,16.54C12.302,16.626 12.314,16.712 12.314,16.785C12.314,17.103 12.179,17.421 11.959,17.653ZM16.238,17.653C16.006,17.873 15.7,18.007 15.37,18.007C15.211,18.007 15.052,17.971 14.906,17.91C14.747,17.848 14.624,17.763 14.502,17.653C14.282,17.421 14.148,17.103 14.148,16.785C14.148,16.712 14.16,16.626 14.172,16.54C14.184,16.467 14.209,16.394 14.245,16.32C14.27,16.247 14.307,16.174 14.355,16.1C14.404,16.039 14.453,15.978 14.502,15.917C14.954,15.465 15.774,15.465 16.238,15.917C16.287,15.978 16.336,16.039 16.385,16.1C16.434,16.174 16.47,16.247 16.495,16.32C16.531,16.394 16.556,16.467 16.568,16.54C16.58,16.626 16.593,16.712 16.593,16.785C16.593,17.103 16.458,17.421 16.238,17.653Z" fill="#0C0507"/>
<path d="M27.387,20.049C25.48,18.142 22.375,18.142 20.468,20.049C18.561,21.957 18.561,25.062 20.468,26.969C22.375,28.876 25.48,28.876 27.387,26.969C29.294,25.062 29.294,21.957 27.387,20.049ZM26.458,24.194C26.299,24.365 26.067,24.463 25.81,24.463L24.906,24.463L24.906,25.416C24.906,25.673 24.808,25.893 24.637,26.064C24.465,26.235 24.245,26.333 23.989,26.333C23.487,26.333 23.072,25.917 23.072,25.416L23.072,24.463L22.155,24.463C21.654,24.463 21.238,24.059 21.238,23.546C21.238,23.045 21.654,22.629 22.155,22.629L23.072,22.629L23.072,21.761C23.072,21.26 23.475,20.844 23.989,20.844C24.49,20.844 24.906,21.26 24.906,21.761L24.906,22.629L25.81,22.629C26.324,22.629 26.727,23.045 26.727,23.546C26.727,23.803 26.629,24.035 26.458,24.194Z" fill="#0C0507"/>
</svg>
