<svg width="64" height="64" viewBox="0 0 64 64" fill="none" xmlns="http://www.w3.org/2000/svg" xmlns:xlink="http://www.w3.org/1999/xlink">
<path d="M44.668,9.494L44.668,5.334C44.668,4.241 43.761,3.334 42.668,3.334C41.574,3.334 40.668,4.241 40.668,5.334L40.668,9.334L23.334,9.334L23.334,5.334C23.334,4.241 22.428,3.334 21.334,3.334C20.241,3.334 19.334,4.241 19.334,5.334L19.334,9.494C12.134,10.161 8.641,14.454 8.108,20.827C8.054,21.601 8.694,22.241 9.441,22.241L54.561,22.241C55.334,22.241 55.974,21.574 55.894,20.827C55.361,14.454 51.868,10.161 44.668,9.494Z" fill="#103BE9"/>
<path d="M53.333,26.24L10.667,26.24C9.2,26.24 8,27.44 8,28.907L8,45.334C8,53.334 12,58.667 21.333,58.667L34.48,58.667C36.32,58.667 37.6,56.88 37.013,55.147C36.48,53.6 36.027,51.894 36.027,50.667C36.027,42.587 42.613,36 50.693,36C51.467,36 52.24,36.054 52.987,36.187C54.587,36.427 56.027,35.174 56.027,33.574L56.027,28.934C56,27.44 54.8,26.24 53.333,26.24ZM24.56,47.227C24.293,47.467 24,47.654 23.68,47.787C23.36,47.92 23.013,48 22.667,48C22.32,48 21.973,47.92 21.653,47.787C21.333,47.654 21.04,47.467 20.773,47.227C20.293,46.72 20,46.027 20,45.334C20,45.174 20.027,44.987 20.053,44.827C20.08,44.64 20.133,44.48 20.213,44.32C20.267,44.16 20.347,44 20.453,43.84C20.533,43.707 20.667,43.574 20.773,43.44C21.04,43.2 21.333,43.014 21.653,42.88C22.293,42.614 23.04,42.614 23.68,42.88C24,43.014 24.293,43.2 24.56,43.44C24.667,43.574 24.8,43.707 24.88,43.84C24.987,44 25.067,44.16 25.12,44.32C25.2,44.48 25.253,44.64 25.28,44.827C25.307,44.987 25.333,45.174 25.333,45.334C25.333,46.027 25.04,46.72 24.56,47.227ZM24.56,37.894C24.293,38.134 24,38.32 23.68,38.454C23.36,38.587 23.013,38.667 22.667,38.667C22.32,38.667 21.973,38.587 21.653,38.454C21.307,38.32 21.04,38.134 20.773,37.894C20.293,37.387 20,36.694 20,36C20,35.307 20.293,34.614 20.773,34.107C21.04,33.867 21.333,33.68 21.653,33.547C22.293,33.28 23.04,33.28 23.68,33.547C24,33.68 24.293,33.867 24.56,34.107C24.667,34.24 24.8,34.374 24.88,34.507C24.987,34.667 25.067,34.827 25.12,34.987C25.2,35.147 25.253,35.307 25.28,35.467C25.307,35.654 25.333,35.84 25.333,36C25.333,36.694 25.04,37.387 24.56,37.894ZM33.893,37.894C33.387,38.374 32.72,38.667 32,38.667C31.653,38.667 31.307,38.587 30.987,38.454C30.64,38.32 30.373,38.134 30.107,37.894C29.627,37.387 29.333,36.694 29.333,36C29.333,35.84 29.36,35.654 29.387,35.467C29.413,35.307 29.467,35.147 29.547,34.987C29.6,34.827 29.68,34.667 29.787,34.507C29.893,34.374 30,34.24 30.107,34.107C31.093,33.12 32.88,33.12 33.893,34.107C34,34.24 34.107,34.374 34.213,34.507C34.32,34.667 34.4,34.827 34.453,34.987C34.533,35.147 34.587,35.307 34.613,35.467C34.64,35.654 34.667,35.84 34.667,36C34.667,36.694 34.373,37.387 33.893,37.894Z" fill="#103BE9"/>
<path d="M58.213,43.12C54.053,38.96 47.28,38.96 43.12,43.12C38.96,47.28 38.96,54.053 43.12,58.213C47.28,62.373 54.053,62.373 58.213,58.213C62.373,54.053 62.373,47.28 58.213,43.12ZM56.187,52.16C55.84,52.533 55.333,52.747 54.773,52.747L52.8,52.747L52.8,54.827C52.8,55.387 52.587,55.867 52.213,56.24C51.84,56.613 51.36,56.827 50.8,56.827C49.707,56.827 48.8,55.92 48.8,54.827L48.8,52.747L46.8,52.747C45.707,52.747 44.8,51.867 44.8,50.747C44.8,49.653 45.707,48.747 46.8,48.747L48.8,48.747L48.8,46.853C48.8,45.76 49.68,44.853 50.8,44.853C51.893,44.853 52.8,45.76 52.8,46.853L52.8,48.747L54.773,48.747C55.893,48.747 56.773,49.653 56.773,50.747C56.773,51.307 56.56,51.813 56.187,52.16Z" fill="#103BE9"/>
</svg>
