<svg width="48" height="48" viewBox="0 0 48 48" fill="none" xmlns="http://www.w3.org/2000/svg" xmlns:xlink="http://www.w3.org/1999/xlink">
<path d="M33.5,7.12L33.5,4C33.5,3.18 32.82,2.5 32,2.5C31.18,2.5 30.5,3.18 30.5,4L30.5,7L17.5,7L17.5,4C17.5,3.18 16.82,2.5 16,2.5C15.18,2.5 14.5,3.18 14.5,4L14.5,7.12C9.1,7.62 6.48,10.84 6.08,15.62C6.04,16.2 6.52,16.68 7.08,16.68L40.92,16.68C41.5,16.68 41.98,16.18 41.92,15.62C41.52,10.84 38.9,7.62 33.5,7.12Z" fill="#0C0507"/>
<path d="M40,19.68L8,19.68C6.9,19.68 6,20.58 6,21.68L6,34C6,40 9,44 16,44L25.86,44C27.24,44 28.2,42.66 27.76,41.36C27.36,40.2 27.02,38.92 27.02,38C27.02,31.94 31.96,27 38.02,27C38.6,27 39.18,27.04 39.74,27.14C40.94,27.32 42.02,26.38 42.02,25.18L42.02,21.7C42,20.58 41.1,19.68 40,19.68ZM18.42,35.42C18.22,35.6 18,35.74 17.76,35.84C17.52,35.94 17.26,36 17,36C16.74,36 16.48,35.94 16.24,35.84C16,35.74 15.78,35.6 15.58,35.42C15.22,35.04 15,34.52 15,34C15,33.88 15.02,33.74 15.04,33.62C15.06,33.48 15.1,33.36 15.16,33.24C15.2,33.12 15.26,33 15.34,32.88C15.4,32.78 15.5,32.68 15.58,32.58C15.78,32.4 16,32.26 16.24,32.16C16.72,31.96 17.28,31.96 17.76,32.16C18,32.26 18.22,32.4 18.42,32.58C18.5,32.68 18.6,32.78 18.66,32.88C18.74,33 18.8,33.12 18.84,33.24C18.9,33.36 18.94,33.48 18.96,33.62C18.98,33.74 19,33.88 19,34C19,34.52 18.78,35.04 18.42,35.42ZM18.42,28.42C18.22,28.6 18,28.74 17.76,28.84C17.52,28.94 17.26,29 17,29C16.74,29 16.48,28.94 16.24,28.84C15.98,28.74 15.78,28.6 15.58,28.42C15.22,28.04 15,27.52 15,27C15,26.48 15.22,25.96 15.58,25.58C15.78,25.4 16,25.26 16.24,25.16C16.72,24.96 17.28,24.96 17.76,25.16C18,25.26 18.22,25.4 18.42,25.58C18.5,25.68 18.6,25.78 18.66,25.88C18.74,26 18.8,26.12 18.84,26.24C18.9,26.36 18.94,26.48 18.96,26.6C18.98,26.74 19,26.88 19,27C19,27.52 18.78,28.04 18.42,28.42ZM25.42,28.42C25.04,28.78 24.54,29 24,29C23.74,29 23.48,28.94 23.24,28.84C22.98,28.74 22.78,28.6 22.58,28.42C22.22,28.04 22,27.52 22,27C22,26.88 22.02,26.74 22.04,26.6C22.06,26.48 22.1,26.36 22.16,26.24C22.2,26.12 22.26,26 22.34,25.88C22.42,25.78 22.5,25.68 22.58,25.58C23.32,24.84 24.66,24.84 25.42,25.58C25.5,25.68 25.58,25.78 25.66,25.88C25.74,26 25.8,26.12 25.84,26.24C25.9,26.36 25.94,26.48 25.96,26.6C25.98,26.74 26,26.88 26,27C26,27.52 25.78,28.04 25.42,28.42Z" fill="#0C0507"/>
<path d="M43.66,32.34C40.54,29.22 35.46,29.22 32.34,32.34C29.22,35.46 29.22,40.54 32.34,43.66C35.46,46.78 40.54,46.78 43.66,43.66C46.78,40.54 46.78,35.46 43.66,32.34ZM42.14,39.12C41.88,39.4 41.5,39.56 41.08,39.56L39.6,39.56L39.6,41.12C39.6,41.54 39.44,41.9 39.16,42.18C38.88,42.46 38.52,42.62 38.1,42.62C37.28,42.62 36.6,41.94 36.6,41.12L36.6,39.56L35.1,39.56C34.28,39.56 33.6,38.9 33.6,38.06C33.6,37.24 34.28,36.56 35.1,36.56L36.6,36.56L36.6,35.14C36.6,34.32 37.26,33.64 38.1,33.64C38.92,33.64 39.6,34.32 39.6,35.14L39.6,36.56L41.08,36.56C41.92,36.56 42.58,37.24 42.58,38.06C42.58,38.48 42.42,38.86 42.14,39.12Z" fill="#0C0507"/>
</svg>
