<svg width="320" height="320" viewBox="0 0 320 320" fill="none" xmlns="http://www.w3.org/2000/svg" xmlns:xlink="http://www.w3.org/1999/xlink">
<path d="M122.536,156.465C120.583,154.512 117.417,154.512 115.464,156.465C113.512,158.417 113.512,161.583 115.464,163.536L122.536,156.465ZM202.536,136.869C204.488,134.916 204.488,131.75 202.536,129.798C200.583,127.845 197.417,127.845 195.464,129.798L202.536,136.869ZM144.973,178.902C143.02,176.949 139.854,176.949 137.902,178.902C135.949,180.854 135.949,184.02 137.902,185.973L144.973,178.902ZM153.432,185.973C155.384,184.02 155.384,180.854 153.432,178.902C151.479,176.949 148.313,176.949 146.361,178.902L153.432,185.973ZM141.437,182.437L137.902,185.973L137.902,185.973L141.437,182.437ZM149.896,182.437L153.432,185.973L149.896,182.437ZM115.464,163.536L137.902,185.973L144.973,178.902L122.536,156.465L115.464,163.536ZM153.432,185.973L202.536,136.869L195.464,129.798L146.361,178.902L153.432,185.973ZM137.902,185.973C142.19,190.261 149.143,190.261 153.432,185.973L146.361,178.902C145.977,179.285 145.356,179.285 144.973,178.902L137.902,185.973Z" fill="#103BE9"/>
</svg>
