<svg width="320" height="320" viewBox="0 0 320 320" fill="none" xmlns="http://www.w3.org/2000/svg" xmlns:xlink="http://www.w3.org/1999/xlink">
<path d="M123.536,156.465C121.583,154.513 118.417,154.513 116.464,156.465C114.512,158.418 114.512,161.584 116.464,163.536L123.536,156.465ZM203.536,136.87C205.488,134.917 205.488,131.751 203.536,129.798C201.583,127.846 198.417,127.846 196.464,129.798L203.536,136.87ZM116.464,163.536L138.902,185.973L145.973,178.902L123.536,156.465L116.464,163.536ZM154.432,185.973L203.536,136.87L196.464,129.798L147.361,178.902L154.432,185.973ZM138.902,185.973C143.19,190.262 150.143,190.262 154.432,185.973L147.361,178.902C146.977,179.286 146.356,179.286 145.973,178.902L138.902,185.973Z" fill="#103BE9"/>
</svg>
