<svg width="70" height="70" viewBox="0 0 70 70" fill="none" xmlns="http://www.w3.org/2000/svg" xmlns:xlink="http://www.w3.org/1999/xlink">
<g opacity="0.1">
<path d="M61.25,35C61.25,49.497 49.497,61.25 35,61.25C20.503,61.25 8.75,49.497 8.75,35C8.75,20.503 20.503,8.75 35,8.75C49.497,8.75 61.25,20.503 61.25,35Z" fill="#828282"/>
</g>
<path d="M58.333,35C58.333,47.887 47.887,58.333 35,58.333L35,64.167C51.108,64.167 64.167,51.108 64.167,35L58.333,35ZM35,58.333C22.113,58.333 11.667,47.887 11.667,35L5.833,35C5.833,51.108 18.892,64.167 35,64.167L35,58.333ZM11.667,35C11.667,22.113 22.113,11.667 35,11.667L35,5.833C18.892,5.833 5.833,18.892 5.833,35L11.667,35ZM35,11.667C47.887,11.667 58.333,22.113 58.333,35L64.167,35C64.167,18.892 51.108,5.833 35,5.833L35,11.667Z" fill="#828282"/>
<path d="M26.854,28.563C25.715,27.424 23.868,27.424 22.729,28.563C21.59,29.702 21.59,31.548 22.729,32.687L26.854,28.563ZM44.354,32.687C45.493,31.548 45.493,29.702 44.354,28.563C43.215,27.424 41.368,27.424 40.229,28.563L44.354,32.687ZM22.729,32.687L30.713,40.672L34.838,36.547L26.854,28.563L22.729,32.687ZM36.37,40.672L44.354,32.687L40.229,28.563L32.245,36.547L36.37,40.672ZM30.713,40.672C32.275,42.234 34.808,42.234 36.37,40.672L32.245,36.547C32.961,35.831 34.122,35.831 34.838,36.547L30.713,40.672Z" transform="rotate(180 33.542 35)" fill="#828282"/>
</svg>
