<svg width="48" height="48" viewBox="0 0 48 48" fill="none" xmlns="http://www.w3.org/2000/svg" xmlns:xlink="http://www.w3.org/1999/xlink">
<path d="M13.414,12.586C12.633,11.805 11.367,11.805 10.586,12.586C9.805,13.367 9.805,14.633 10.586,15.414L13.414,12.586ZM37.414,15.414C38.195,14.633 38.195,13.367 37.414,12.586C36.633,11.805 35.367,11.805 34.586,12.586L37.414,15.414ZM25.996,26.833L37.414,15.414L34.586,12.586L23.167,24.004L25.996,26.833ZM10.586,15.414L22.004,26.833L24.833,24.004L13.414,12.586L10.586,15.414ZM23.167,24.004C23.627,23.544 24.373,23.544 24.833,24.004L22.004,26.833C23.107,27.935 24.893,27.935 25.996,26.833L23.167,24.004Z" transform="rotate(0 24 20)" fill="#828282"/>
<path d="M13.414,22.586C12.633,21.805 11.367,21.805 10.586,22.586C9.805,23.367 9.805,24.633 10.586,25.414L13.414,22.586ZM37.414,25.414C38.195,24.633 38.195,23.367 37.414,22.586C36.633,21.805 35.367,21.805 34.586,22.586L37.414,25.414ZM25.916,36.913L37.414,25.414L34.586,22.586L23.087,34.084L25.916,36.913ZM10.586,25.414L22.084,36.913L24.913,34.084L13.414,22.586L10.586,25.414ZM23.087,34.084C23.591,33.58 24.409,33.58 24.913,34.084L22.084,36.913C23.142,37.971 24.858,37.971 25.916,36.913L23.087,34.084Z" transform="rotate(0 24 30)" fill="#828282"/>
</svg>
