<svg width="70" height="70" viewBox="0 0 70 70" fill="none" xmlns="http://www.w3.org/2000/svg" xmlns:xlink="http://www.w3.org/1999/xlink">
<g opacity="0.1">
<path d="M61.25,35C61.25,49.497 49.497,61.25 35,61.25C20.503,61.25 8.75,49.497 8.75,35C8.75,20.503 20.503,8.75 35,8.75C49.497,8.75 61.25,20.503 61.25,35Z" transform="rotate(-360 35 35)" fill="#103BE9"/>
</g>
<path d="M58.333,35C58.333,47.887 47.887,58.333 35,58.333L35,64.167C51.108,64.167 64.167,51.108 64.167,35L58.333,35ZM35,58.333C22.113,58.333 11.667,47.887 11.667,35L5.833,35C5.833,51.108 18.892,64.167 35,64.167L35,58.333ZM11.667,35C11.667,22.113 22.113,11.667 35,11.667L35,5.833C18.892,5.833 5.833,18.892 5.833,35L11.667,35ZM35,11.667C47.887,11.667 58.333,22.113 58.333,35L64.167,35C64.167,18.892 51.108,5.833 35,5.833L35,11.667Z" transform="rotate(-360 35 35)" fill="#103BE9"/>
<path d="M29.771,28.563C28.632,27.424 26.785,27.424 25.646,28.563C24.507,29.702 24.507,31.548 25.646,32.687L29.771,28.563ZM47.271,32.687C48.41,31.548 48.41,29.702 47.271,28.563C46.132,27.424 44.285,27.424 43.146,28.563L47.271,32.687ZM25.646,32.687L33.63,40.672L37.755,36.547L29.771,28.563L25.646,32.687ZM39.286,40.672L47.271,32.687L43.146,28.563L35.162,36.547L39.286,40.672ZM33.63,40.672C35.192,42.234 37.724,42.234 39.286,40.672L35.162,36.547C35.878,35.831 37.039,35.831 37.755,36.547L33.63,40.672Z" transform="rotate(-180 36.458 35)" fill="#103BE9"/>
</svg>
