<svg width="82" height="84" viewBox="0 0 82 84" fill="none" xmlns="http://www.w3.org/2000/svg" xmlns:xlink="http://www.w3.org/1999/xlink">
<g opacity="0.1">
<path d="M71.688,42.109C71.688,59.194 57.839,73.043 40.755,73.043C23.671,73.043 9.821,59.194 9.821,42.109C9.821,25.025 23.671,11.176 40.755,11.176C57.839,11.176 71.688,25.025 71.688,42.109Z" transform="rotate(-360 40.755 42.109)" fill="#103BE9"/>
</g>
<path d="M68.251,42.109C68.251,57.295 55.941,69.606 40.755,69.606L40.755,76.48C59.737,76.48 75.125,61.092 75.125,42.109L68.251,42.109ZM40.755,69.606C25.569,69.606 13.258,57.295 13.258,42.109L6.384,42.109C6.384,61.092 21.772,76.48 40.755,76.48L40.755,69.606ZM13.258,42.109C13.258,26.923 25.569,14.613 40.755,14.613L40.755,7.739C21.772,7.739 6.384,23.127 6.384,42.109L13.258,42.109ZM40.755,14.613C55.941,14.613 68.251,26.923 68.251,42.109L75.125,42.109C75.125,23.127 59.737,7.739 40.755,7.739L40.755,14.613Z" transform="rotate(-360 40.755 42.109)" fill="#103BE9"/>
<path d="M34.593,34.523C33.251,33.18 31.075,33.18 29.732,34.523C28.39,35.865 28.39,38.041 29.732,39.383L34.593,34.523ZM55.216,39.383C56.558,38.041 56.558,35.865 55.216,34.523C53.873,33.18 51.697,33.18 50.355,34.523L55.216,39.383ZM29.732,39.383L39.141,48.792L44.002,43.932L34.593,34.523L29.732,39.383ZM45.807,48.792L55.216,39.383L50.355,34.523L40.946,43.932L45.807,48.792ZM39.141,48.792C40.982,50.633 43.966,50.633 45.807,48.792L40.946,43.932C41.79,43.088 43.158,43.088 44.002,43.932L39.141,48.792Z" transform="rotate(-180 42.474 42.109)" fill="#103BE9"/>
</svg>
