<svg width="44" height="42" viewBox="0 0 44 42" fill="none" xmlns="http://www.w3.org/2000/svg" xmlns:xlink="http://www.w3.org/1999/xlink">
<path d="M12.281,10.624C11.6,9.943 10.496,9.943 9.815,10.624C9.134,11.305 9.134,12.41 9.815,13.091L12.281,10.624ZM33.208,13.091C33.89,12.41 33.89,11.305 33.208,10.624C32.527,9.943 31.423,9.943 30.742,10.624L33.208,13.091ZM23.252,23.047L33.208,13.091L30.742,10.624L20.785,20.581L23.252,23.047ZM9.815,13.091L19.771,23.047L22.238,20.581L12.281,10.624L9.815,13.091ZM20.785,20.581C21.186,20.18 21.837,20.18 22.238,20.581L19.771,23.047C20.733,24.008 22.291,24.008 23.252,23.047L20.785,20.581Z" transform="rotate(0 21.512 17.089)" fill="#828282"/>
<path d="M12.281,19.343C11.6,18.662 10.496,18.662 9.815,19.343C9.134,20.024 9.134,21.128 9.815,21.809L12.281,19.343ZM33.208,21.809C33.89,21.128 33.89,20.024 33.208,19.343C32.527,18.662 31.423,18.662 30.742,19.343L33.208,21.809ZM23.182,31.836L33.208,21.809L30.742,19.343L20.716,29.369L23.182,31.836ZM9.815,21.809L19.841,31.836L22.307,29.369L12.281,19.343L9.815,21.809ZM20.716,29.369C21.155,28.93 21.868,28.93 22.307,29.369L19.841,31.836C20.764,32.758 22.26,32.758 23.182,31.836L20.716,29.369Z" transform="rotate(0 21.512 25.808)" fill="#828282"/>
</svg>
