<svg width="84" height="84" viewBox="0 0 84 84" fill="none" xmlns="http://www.w3.org/2000/svg" xmlns:xlink="http://www.w3.org/1999/xlink">
<g opacity="0.1">
<path d="M72.178,42.109C72.178,59.194 58.329,73.043 41.245,73.043C24.161,73.043 10.311,59.194 10.311,42.109C10.311,25.025 24.161,11.176 41.245,11.176C58.329,11.176 72.178,25.025 72.178,42.109Z" fill="#828282"/>
</g>
<path d="M68.741,42.109C68.741,57.295 56.431,69.606 41.245,69.606L41.245,76.48C60.227,76.48 75.615,61.092 75.615,42.109L68.741,42.109ZM41.245,69.606C26.059,69.606 13.748,57.295 13.748,42.109L6.874,42.109C6.874,61.092 22.262,76.48 41.245,76.48L41.245,69.606ZM13.748,42.109C13.748,26.923 26.059,14.613 41.245,14.613L41.245,7.739C22.262,7.739 6.874,23.127 6.874,42.109L13.748,42.109ZM41.245,14.613C56.431,14.613 68.741,26.923 68.741,42.109L75.615,42.109C75.615,23.127 60.227,7.739 41.245,7.739L41.245,14.613Z" fill="#828282"/>
<path d="M31.645,34.522C30.303,33.18 28.127,33.18 26.784,34.522C25.442,35.864 25.442,38.041 26.784,39.383L31.645,34.522ZM52.268,39.383C53.61,38.041 53.61,35.864 52.268,34.522C50.925,33.18 48.749,33.18 47.407,34.522L52.268,39.383ZM26.784,39.383L36.193,48.792L41.054,43.931L31.645,34.522L26.784,39.383ZM42.859,48.792L52.268,39.383L47.407,34.522L37.998,43.931L42.859,48.792ZM36.193,48.792C38.034,50.632 41.018,50.632 42.859,48.792L37.998,43.931C38.842,43.087 40.21,43.087 41.054,43.931L36.193,48.792Z" transform="rotate(180 39.526 42.108)" fill="#828282"/>
</svg>
