<svg width="412" height="54" viewBox="0 0 412 54" fill="none" xmlns="http://www.w3.org/2000/svg" xmlns:xlink="http://www.w3.org/1999/xlink">
<path d="M27.827,0.691C35.08,0.691 40.882,2.625 45.234,6.494C47.016,8.069 48.287,9.657 49.047,11.26C49.821,12.849 50.207,14.852 50.207,17.27C50.207,19.107 49.558,20.675 48.26,21.974C46.975,23.258 45.414,23.901 43.576,23.901C41.739,23.901 40.171,23.258 38.872,21.974C37.587,20.675 36.945,19.107 36.945,17.27C36.945,16.33 37.131,15.446 37.504,14.617C37.877,13.774 38.395,13.042 39.058,12.42C38.064,10.569 36.717,9.257 35.017,8.483C33.332,7.709 31.211,7.323 28.656,7.323C26.984,7.323 25.43,7.661 23.993,8.338C22.57,9.015 21.333,9.961 20.283,11.177C19.247,12.393 18.356,13.83 17.61,15.487C16.864,17.145 16.305,18.969 15.932,20.958C15.572,22.934 15.393,25.02 15.393,27.217C15.393,29.386 15.614,31.472 16.056,33.475C16.498,35.478 17.14,37.302 17.983,38.946C18.826,40.59 19.814,42.027 20.947,43.256C22.079,44.472 23.378,45.418 24.842,46.095C26.321,46.772 27.868,47.111 29.484,47.111C31.833,47.111 34.016,46.482 36.033,45.225C38.064,43.968 39.742,42.206 41.069,39.941C42.409,37.661 43.245,35.078 43.576,32.19L50.207,33.848C49.876,35.464 49.489,36.97 49.047,38.366C48.605,39.747 48.052,41.129 47.389,42.51C46.726,43.878 45.973,45.114 45.13,46.22C44.288,47.325 43.293,48.354 42.146,49.307C41,50.261 39.735,51.062 38.354,51.711C36.972,52.347 35.391,52.844 33.608,53.203C31.826,53.562 29.899,53.742 27.827,53.742C25.354,53.742 22.991,53.48 20.739,52.955C18.501,52.443 16.47,51.725 14.647,50.799C12.837,49.874 11.165,48.769 9.632,47.484C8.098,46.199 6.772,44.783 5.653,43.235C4.534,41.674 3.581,40.023 2.793,38.283C2.02,36.528 1.439,34.725 1.053,32.874C0.666,31.009 0.472,29.123 0.472,27.217C0.472,25.31 0.666,23.431 1.053,21.58C1.439,19.715 2.02,17.912 2.793,16.171C3.581,14.417 4.534,12.766 5.653,11.219C6.772,9.657 8.098,8.234 9.632,6.95C11.165,5.665 12.837,4.56 14.647,3.634C16.47,2.708 18.501,1.99 20.739,1.479C22.991,0.954 25.354,0.691 27.827,0.691Z" transform="rotate(-2.159 205.755 26.864)" fill="#103BE9" stroke="#FFFFFF" stroke-width="8" stroke-miterlimit="3.999327"/>
<path d="M66.061,15.508C68.492,14.555 71.069,14.078 73.79,14.078C76.512,14.078 79.082,14.555 81.499,15.508C83.931,16.461 86.044,17.795 87.84,19.508C89.636,21.207 91.053,23.307 92.089,25.807C93.139,28.308 93.664,31.03 93.664,33.972C93.664,36.915 93.139,39.637 92.089,42.137C91.053,44.638 89.636,46.745 87.84,48.458C86.044,50.157 83.931,51.483 81.499,52.437C79.082,53.39 76.512,53.866 73.79,53.866C71.069,53.866 68.492,53.39 66.061,52.437C63.643,51.483 61.536,50.157 59.74,48.458C57.958,46.745 56.542,44.638 55.492,42.137C54.456,39.637 53.938,36.915 53.938,33.972C53.938,31.03 54.456,28.308 55.492,25.807C56.542,23.307 57.958,21.207 59.74,19.508C61.536,17.795 63.643,16.461 66.061,15.508ZM73.79,20.71C72.823,20.71 71.96,20.848 71.2,21.124C70.44,21.4 69.742,21.856 69.107,22.492C68.471,23.127 67.946,23.949 67.532,24.958C67.131,25.966 66.814,27.224 66.579,28.729C66.358,30.235 66.247,31.983 66.247,33.972C66.247,35.962 66.358,37.709 66.579,39.215C66.814,40.721 67.131,41.978 67.532,42.987C67.946,43.995 68.471,44.817 69.107,45.453C69.742,46.088 70.44,46.544 71.2,46.821C71.96,47.097 72.823,47.235 73.79,47.235C75.006,47.235 76.063,47.007 76.961,46.551C77.859,46.081 78.639,45.335 79.303,44.313C79.98,43.291 80.484,41.916 80.815,40.189C81.161,38.462 81.333,36.39 81.333,33.972C81.333,31.555 81.161,29.482 80.815,27.755C80.484,26.028 79.98,24.654 79.303,23.632C78.639,22.609 77.859,21.87 76.961,21.414C76.063,20.944 75.006,20.71 73.79,20.71Z" transform="rotate(-2.159 205.755 26.864)" fill="#103BE9" stroke="#FFFFFF" stroke-width="8" stroke-miterlimit="3.999327"/>
<path d="M124.727,13.954C126.662,13.954 128.354,14.216 129.805,14.741C131.255,15.266 132.443,15.992 133.369,16.917C134.295,17.829 135.041,18.997 135.607,20.419C136.187,21.829 136.588,23.348 136.809,24.979C137.044,26.595 137.161,28.446 137.161,30.532L137.161,46.282L141.306,46.282L141.306,52.913L121.412,52.913L121.412,46.282L125.556,46.282L125.556,29.703C125.556,27.521 125.356,25.821 124.955,24.605C124.569,23.39 124.002,22.554 123.256,22.098C122.524,21.642 121.522,21.414 120.251,21.414C119.091,21.414 117.903,21.905 116.687,22.885C115.471,23.866 114.318,25.234 113.226,26.989L113.123,46.282L117.267,46.282L117.267,52.913L97.373,52.913L97.373,46.282L101.518,46.282L101.518,21.414L97.373,21.414L97.373,14.783L110.242,14.783L113.143,20.399C113.654,19.473 114.242,18.644 114.905,17.912C115.582,17.166 116.383,16.489 117.309,15.881C118.248,15.259 119.346,14.783 120.604,14.451C121.861,14.12 123.235,13.954 124.727,13.954Z" transform="rotate(-2.159 205.755 26.864)" fill="#103BE9" stroke="#FFFFFF" stroke-width="8" stroke-miterlimit="3.999327"/>
<path d="M153.74,6.494L157.884,6.494L157.884,14.783L169.489,14.783L169.489,21.414L157.884,21.414L157.884,42.966C157.884,43.906 158.147,44.693 158.672,45.329C159.211,45.964 160.053,46.282 161.2,46.282C162.485,46.282 163.576,45.86 164.474,45.018C165.372,44.161 165.939,42.925 166.174,41.308L171.147,42.137C170.94,43.754 170.539,45.253 169.945,46.634C169.365,48.002 168.605,49.224 167.666,50.302C166.726,51.366 165.559,52.209 164.163,52.83C162.782,53.438 161.241,53.742 159.542,53.742C155.411,53.742 152.165,52.782 149.802,50.862C147.454,48.927 146.279,46.296 146.279,42.966L146.279,21.414L142.135,21.414L142.135,14.783L142.964,14.783C145.091,14.783 146.97,14.175 148.6,12.959C150.231,11.743 151.944,9.588 153.74,6.494Z" transform="rotate(-2.159 205.755 26.864)" fill="#103BE9" stroke="#FFFFFF" stroke-width="8" stroke-miterlimit="3.999327"/>
<path d="M210.106,27.942L210.106,46.282L214.25,46.282L214.25,52.913L201.34,52.913L199.496,48.603C198.087,50.62 196.45,52.001 194.585,52.747C192.734,53.493 190.143,53.866 186.814,53.866C185.087,53.866 183.477,53.562 181.985,52.955C180.507,52.361 179.243,51.545 178.193,50.509C177.157,49.473 176.342,48.23 175.748,46.779C175.167,45.329 174.877,43.774 174.877,42.116C174.877,39.257 175.996,36.887 178.234,35.008C180.472,33.116 183.332,32.169 186.814,32.169C189.618,32.169 191.939,32.439 193.777,32.978C195.614,33.503 197.189,34.345 198.501,35.506L198.501,26.719C198.501,25.476 198.329,24.44 197.983,23.611C197.652,22.768 197.148,22.126 196.471,21.684C195.794,21.228 195.034,20.91 194.191,20.73C193.348,20.551 192.34,20.461 191.165,20.461C190.226,20.461 189.376,20.661 188.617,21.062C189.045,21.96 189.259,22.906 189.259,23.901C189.259,25.738 188.61,27.306 187.311,28.605C186.026,29.89 184.465,30.532 182.628,30.532C180.79,30.532 179.222,29.89 177.923,28.605C176.639,27.306 175.996,25.738 175.996,23.901C175.996,22.961 176.176,22.077 176.535,21.248C176.908,20.419 177.419,19.694 178.069,19.073C178.621,18.492 179.194,17.974 179.789,17.518C180.383,17.049 181.129,16.586 182.027,16.13C182.938,15.66 183.926,15.273 184.99,14.969C186.054,14.665 187.325,14.424 188.803,14.244C190.295,14.051 191.925,13.954 193.694,13.954C195.987,13.954 198.142,14.292 200.159,14.969C202.176,15.646 203.916,16.586 205.382,17.788C206.846,18.99 208,20.468 208.842,22.222C209.684,23.977 210.106,25.883 210.106,27.942ZM198.501,43.712L198.501,40.852C197.645,40.037 196.678,39.353 195.6,38.801C194.536,38.234 193.549,37.951 192.637,37.951C190.675,37.951 189.294,38.283 188.492,38.946C187.691,39.595 187.29,40.652 187.29,42.116C187.29,43.871 187.636,45.163 188.326,45.992C189.017,46.821 190.302,47.235 192.181,47.235C193.245,47.235 194.35,46.897 195.497,46.22C196.657,45.529 197.659,44.693 198.501,43.712Z" transform="rotate(-2.159 205.755 26.864)" fill="#103BE9" stroke="#FFFFFF" stroke-width="8" stroke-miterlimit="3.999327"/>
<path d="M243.926,22.057C242.352,21.076 240.348,20.585 237.916,20.585C236.936,20.585 236.024,20.723 235.18,21C234.338,21.262 233.53,21.718 232.756,22.367C231.996,23.017 231.348,23.839 230.808,24.833C230.27,25.828 229.842,27.092 229.524,28.626C229.206,30.159 229.046,31.9 229.046,33.848C229.046,35.796 229.22,37.53 229.566,39.049C229.91,40.569 230.366,41.813 230.932,42.78C231.514,43.747 232.204,44.541 233.006,45.163C233.82,45.784 234.656,46.227 235.512,46.489C236.37,46.738 237.294,46.862 238.29,46.862C241.204,46.862 243.478,46.302 245.108,45.183C246.752,44.051 248.064,42.31 249.044,39.961L254.558,41.868C254.06,43.208 253.424,44.472 252.65,45.66C251.89,46.834 250.972,47.919 249.894,48.914C248.816,49.908 247.614,50.765 246.288,51.483C244.976,52.188 243.49,52.74 241.834,53.141C240.176,53.542 238.428,53.742 236.59,53.742C233.868,53.742 231.292,53.265 228.86,52.312C226.442,51.359 224.336,50.033 222.54,48.333C220.758,46.62 219.342,44.513 218.292,42.013C217.256,39.512 216.738,36.791 216.738,33.848C216.738,31.486 217.07,29.261 217.732,27.175C218.396,25.089 219.328,23.245 220.53,21.642C221.746,20.04 223.168,18.658 224.798,17.498C226.428,16.337 228.238,15.46 230.228,14.866C232.218,14.258 234.304,13.954 236.486,13.954C238.214,13.954 239.836,14.12 241.356,14.451C242.876,14.769 244.23,15.211 245.418,15.778C246.62,16.33 247.74,17.021 248.776,17.85C249.812,18.679 250.716,19.563 251.49,20.502C252.278,21.428 253.01,22.471 253.686,23.632C254.392,24.723 254.744,25.918 254.744,27.217C254.744,29.054 254.094,30.622 252.796,31.921C251.51,33.206 249.95,33.848 248.112,33.848C246.274,33.848 244.706,33.206 243.408,31.921C242.124,30.622 241.48,29.054 241.48,27.217C241.48,26.194 241.694,25.234 242.124,24.336C242.566,23.438 243.166,22.678 243.926,22.057Z" transform="rotate(-2.159 205.755 26.864)" fill="#103BE9" stroke="#FFFFFF" stroke-width="8" stroke-miterlimit="3.999327"/>
<path d="M270.12,6.494L274.264,6.494L274.264,14.783L285.87,14.783L285.87,21.414L274.264,21.414L274.264,42.966C274.264,43.906 274.528,44.693 275.052,45.329C275.59,45.964 276.434,46.282 277.58,46.282C278.866,46.282 279.956,45.86 280.854,45.018C281.752,44.161 282.318,42.925 282.554,41.308L287.528,42.137C287.32,43.754 286.92,45.253 286.326,46.634C285.746,48.002 284.986,49.224 284.046,50.302C283.106,51.366 281.94,52.209 280.544,52.83C279.162,53.438 277.622,53.742 275.922,53.742C271.792,53.742 268.546,52.782 266.182,50.862C263.834,48.927 262.66,46.296 262.66,42.966L262.66,21.414L258.516,21.414L258.516,14.783L259.344,14.783C261.472,14.783 263.35,14.175 264.98,12.959C266.61,11.743 268.324,9.588 270.12,6.494Z" transform="rotate(-2.159 205.755 26.864)" fill="#103BE9" stroke="#FFFFFF" stroke-width="8" stroke-miterlimit="3.999327"/>
<path d="M313.224,14.783L328.974,14.783L328.974,37.993C328.974,40.175 329.166,41.875 329.554,43.09C329.954,44.306 330.52,45.142 331.252,45.598C331.998,46.054 333.008,46.282 334.278,46.282C335.44,46.282 336.628,45.791 337.842,44.81C339.072,43.83 340.232,42.462 341.324,40.707L341.408,21.414L337.262,21.414L337.262,14.783L353.012,14.783L353.012,46.282L357.156,46.282L357.156,52.913L344.288,52.913L341.386,47.276C339.052,51.587 335.19,53.742 329.802,53.742C327.868,53.742 326.176,53.48 324.726,52.955C323.274,52.43 322.086,51.711 321.16,50.799C320.236,49.874 319.482,48.706 318.902,47.297C318.336,45.874 317.934,44.355 317.7,42.738C317.48,41.108 317.368,39.25 317.368,37.164L317.368,21.414L313.224,21.414L313.224,14.783Z" transform="rotate(-2.159 205.755 26.864)" fill="#103BE9" stroke="#FFFFFF" stroke-width="8" stroke-miterlimit="3.999327"/>
<path d="M372.658,46.302C373.446,46.841 374.634,47.111 376.222,47.111C377.644,47.111 378.798,47.028 379.682,46.862C380.58,46.696 381.258,46.427 381.714,46.054C382.17,45.667 382.474,45.246 382.626,44.79C382.778,44.32 382.854,43.712 382.854,42.966C382.854,42.082 382.618,41.322 382.148,40.687C381.678,40.051 381.044,39.54 380.242,39.153C379.44,38.766 378.522,38.428 377.486,38.138C376.45,37.834 375.358,37.55 374.212,37.288C373.066,37.012 371.918,36.715 370.772,36.397C369.626,36.065 368.534,35.637 367.498,35.112C366.462,34.573 365.542,33.945 364.742,33.226C363.94,32.494 363.304,31.548 362.834,30.387C362.366,29.227 362.13,27.894 362.13,26.388C362.13,25.006 362.296,23.749 362.628,22.616C362.96,21.483 363.402,20.523 363.954,19.736C364.506,18.934 365.204,18.237 366.046,17.643C366.89,17.049 367.766,16.572 368.678,16.213C369.604,15.854 370.64,15.563 371.788,15.342C372.948,15.121 374.066,14.976 375.144,14.907C376.222,14.824 377.396,14.783 378.668,14.783C381.43,14.783 383.842,15.135 385.9,15.84C387.972,16.544 389.602,17.491 390.79,18.679C391.426,19.218 391.916,19.874 392.262,20.647C392.62,21.407 392.8,22.215 392.8,23.072C392.8,24.675 392.234,26.042 391.102,27.175C389.968,28.308 388.6,28.874 386.998,28.874C385.396,28.874 384.028,28.308 382.894,27.175C381.762,26.042 381.196,24.675 381.196,23.072C381.196,22.492 381.278,21.932 381.444,21.393C380.656,20.855 379.468,20.585 377.88,20.585C375.932,20.585 374.474,20.82 373.508,21.29C372.554,21.76 372.078,22.63 372.078,23.901C372.078,24.702 372.278,25.414 372.678,26.035C373.078,26.643 373.624,27.148 374.316,27.548C375.006,27.935 375.808,28.308 376.72,28.667C377.644,29.013 378.626,29.31 379.662,29.558C380.698,29.793 381.762,30.083 382.854,30.429C383.944,30.774 385.008,31.126 386.044,31.486C387.08,31.845 388.054,32.321 388.966,32.915C389.892,33.496 390.7,34.152 391.392,34.884C392.082,35.616 392.628,36.535 393.028,37.64C393.428,38.732 393.63,39.954 393.63,41.308C393.63,43.242 393.304,44.949 392.656,46.427C392.02,47.891 391.164,49.079 390.086,49.991C389.022,50.903 387.696,51.649 386.106,52.229C384.518,52.796 382.868,53.189 381.154,53.411C379.44,53.632 377.534,53.742 375.434,53.742C371.194,53.742 367.774,52.934 365.176,51.317C362.594,49.701 361.302,47.47 361.302,44.624C361.302,43.021 361.868,41.654 363,40.521C364.134,39.388 365.502,38.821 367.104,38.821C368.706,38.821 370.074,39.388 371.206,40.521C372.34,41.654 372.906,43.021 372.906,44.624C372.906,45.204 372.824,45.764 372.658,46.302Z" transform="rotate(-2.159 205.755 26.864)" fill="#103BE9" stroke="#FFFFFF" stroke-width="8" stroke-miterlimit="3.999327"/>
<path d="M399.702,51.4C398.416,50.102 397.774,48.534 397.774,46.696C397.774,44.859 398.416,43.298 399.702,42.013C401,40.714 402.568,40.065 404.406,40.065C406.242,40.065 407.804,40.714 409.088,42.013C410.388,43.298 411.036,44.859 411.036,46.696C411.036,48.534 410.388,50.102 409.088,51.4C407.804,52.685 406.242,53.328 404.406,53.328C402.568,53.328 401,52.685 399.702,51.4ZM399.702,1.81C401,0.512 402.568,-0.138 404.406,-0.138C406.242,-0.138 407.804,0.512 409.088,1.81C410.388,3.095 411.036,4.656 411.036,6.494C411.036,9.423 410.518,13.519 409.482,18.782C408.446,24.032 407.334,28.778 406.146,33.019L402.664,33.019C401.476,28.778 400.364,24.032 399.328,18.782C398.292,13.519 397.774,9.423 397.774,6.494C397.774,4.656 398.416,3.095 399.702,1.81Z" transform="rotate(-2.159 205.755 26.864)" fill="#103BE9" stroke="#FFFFFF" stroke-width="8" stroke-miterlimit="3.999327"/>
</svg>
