<svg width="74" height="56" viewBox="0 0 74 56" fill="none" xmlns="http://www.w3.org/2000/svg" xmlns:xlink="http://www.w3.org/1999/xlink">
<path d="M46.214,38.833L41.511,32.361L46.214,38.833ZM58,0C58,6.312 56.506,12.535 53.64,18.16L67.896,25.423C71.908,17.549 74,8.837 74,0L58,0ZM53.64,18.16C50.774,23.784 46.618,28.65 41.511,32.361L50.916,45.305C58.066,40.11 63.884,33.298 67.896,25.423L53.64,18.16ZM41.511,32.361C36.405,36.071 30.492,38.52 24.257,39.508L26.76,55.311C35.489,53.928 43.766,50.499 50.916,45.305L41.511,32.361ZM24.257,39.508C18.023,40.495 11.643,39.993 5.639,38.042L0.695,53.259C9.1,55.99 18.032,56.693 26.76,55.311L24.257,39.508Z" transform="rotate(0 18 0)" fill="#F9F9F9"/>
</svg>
