<svg width="74" height="56" viewBox="0 0 74 56" fill="none" xmlns="http://www.w3.org/2000/svg" xmlns:xlink="http://www.w3.org/1999/xlink">
<path d="M46.214,38.833L41.512,32.361L46.214,38.833ZM58.001,0.001C58.001,6.313 56.507,12.536 53.641,18.16L67.897,25.424C71.909,17.55 74.001,8.838 74.001,0.001L58.001,0.001ZM53.641,18.16C50.775,23.785 46.619,28.651 41.512,32.361L50.917,45.306C58.066,40.111 63.885,33.298 67.897,25.424L53.641,18.16ZM41.512,32.361C36.405,36.072 30.493,38.521 24.258,39.508L26.761,55.311C35.49,53.929 43.767,50.5 50.917,45.306L41.512,32.361ZM24.258,39.508C18.023,40.496 11.643,39.994 5.64,38.043L0.696,53.26C9.1,55.991 18.032,56.694 26.761,55.311L24.258,39.508Z" transform="rotate(-137.806 18.001 0.001)" fill="#F9F9F9"/>
</svg>
