<svg width="74" height="56" viewBox="0 0 74 56" fill="none" xmlns="http://www.w3.org/2000/svg" xmlns:xlink="http://www.w3.org/1999/xlink">
<path d="M46.214,38.833L41.512,32.361L46.214,38.833ZM58.001,0C58.001,6.312 56.507,12.535 53.641,18.16L67.897,25.423C71.909,17.549 74.001,8.837 74.001,0L58.001,0ZM53.641,18.16C50.775,23.784 46.619,28.65 41.512,32.361L50.917,45.305C58.066,40.11 63.885,33.298 67.897,25.423L53.641,18.16ZM41.512,32.361C36.405,36.071 30.493,38.52 24.258,39.508L26.761,55.311C35.49,53.928 43.767,50.499 50.917,45.305L41.512,32.361ZM24.258,39.508C18.023,40.495 11.643,39.993 5.64,38.042L0.696,53.259C9.1,55.99 18.032,56.693 26.761,55.311L24.258,39.508Z" transform="rotate(356 18.001 0)" fill="#F9F9F9"/>
</svg>
