<svg width="530" height="530" viewBox="0 0 530 530" fill="none" xmlns="http://www.w3.org/2000/svg" xmlns:xlink="http://www.w3.org/1999/xlink">
<g opacity="0.4">
<path d="M357.529,44.167L172.471,44.167C92.088,44.167 44.167,92.088 44.167,172.471L44.167,357.309C44.167,437.913 92.088,485.833 172.471,485.833L357.309,485.833C437.693,485.833 485.613,437.913 485.613,357.529L485.613,172.471C485.833,92.088 437.913,44.167 357.529,44.167Z" fill="#103BE9"/>
</g>
<path d="M234.967,209.79C230.771,209.79 226.575,208.245 223.263,204.932C207.583,189.253 181.967,189.253 166.288,204.932C159.884,211.336 149.283,211.336 142.879,204.932C136.475,198.528 136.475,187.928 142.879,181.524C171.367,153.036 217.963,153.036 246.671,181.524C253.075,187.928 253.075,198.528 246.671,204.932C243.359,208.245 239.163,209.79 234.967,209.79Z" fill="#103BE9"/>
<path d="M295.033,209.79C290.837,209.79 286.641,208.245 283.329,204.932C276.925,198.528 276.925,187.928 283.329,181.524C311.816,153.036 358.412,153.036 387.121,181.524C393.525,187.928 393.525,198.528 387.121,204.932C380.716,211.336 370.116,211.336 363.712,204.932C348.033,189.253 322.416,189.253 306.737,204.932C303.646,208.245 299.45,209.79 295.033,209.79Z" fill="#103BE9"/>
<path d="M265,263.234C205.596,263.234 157.233,311.597 157.233,371.001C157.233,386.459 169.821,399.268 185.279,399.268L344.279,399.268C359.737,399.268 372.325,386.68 372.325,371.001C372.767,311.597 324.404,263.234 265,263.234Z" fill="#103BE9"/>
</svg>
