<svg width="40" height="40" viewBox="0 0 40 40" fill="none" xmlns="http://www.w3.org/2000/svg" xmlns:xlink="http://www.w3.org/1999/xlink">
<path d="M10.62,0L27.38,0C34.66,0 39,4.34 38.98,11.62L38.98,28.38C38.98,35.66 34.64,40 27.36,40L10.62,40C3.34,40 -1,35.66 -1,28.36L-1,11.62C-1,4.34 3.34,0 10.62,0ZM26.425,29.546L19,22.121L11.575,29.546C10.996,30.126 10.034,30.126 9.454,29.546C8.874,28.966 8.874,28.004 9.454,27.424L16.879,20L9.454,12.575C8.874,11.995 8.874,11.034 9.454,10.454C10.034,9.874 10.996,9.874 11.575,10.454L19,17.879L26.425,10.454C27.004,9.874 27.966,9.874 28.546,10.454C29.126,11.034 29.126,11.995 28.546,12.575L21.121,20L28.546,27.424C29.126,28.004 29.126,28.966 28.546,29.546C27.966,30.126 27.004,30.126 26.425,29.546Z" clip-rule="evenodd" fill-rule="evenodd" fill="#828282"/>
</svg>
