<svg width="2880" height="370" viewBox="0 0 2880 370" fill="none" xmlns="http://www.w3.org/2000/svg" xmlns:xlink="http://www.w3.org/1999/xlink">
<path d="M0,67.788L96.839,47.544C249.512,15.627 407.536,19.903 558.26,60.027L632.654,79.831C766.986,115.592 908.716,112.451 1041.332,70.774L1041.332,70.774C1175.918,28.478 1319.846,25.884 1455.868,63.302L1555.754,90.78C1661.182,119.782 1770.654,131.297 1879.81,124.865L2054.94,114.546C2117.5,110.86 2179.6,101.298 2240.38,85.988L2309.36,68.612C2472.48,27.523 2643.34,28.249 2806.1,70.721L2880,90.004L2880,308.032L0,317.004L0,67.788Z" fill="url(#pf_0_10_806)"/>
<path d="M0,146.004L195.995,96.359C315.448,66.101 441.102,71.013 557.828,110.503L617.542,130.705C723.046,166.397 837.818,163.312 941.252,122.003L941.252,122.003C1046.196,80.09 1162.756,77.545 1269.43,114.837L1306.288,127.722C1414.096,165.412 1531.626,164.634 1638.926,125.521L1638.926,125.521C1732.772,91.313 1834.776,86.318 1931.516,111.194L1987.492,125.588C2104.88,155.774 2228.78,148.472 2341.8,104.707L2341.8,104.707C2442.6,65.681 2552.28,55.557 2658.52,75.476L2880,117.004L2880,369.004L0,369.004L0,146.004Z" fill="url(#pf_0_10_807)"/>
<path d="M0,73.004L196.052,113.789C318.532,139.269 445.106,137.635 566.888,109.003L566.888,109.003C668.118,85.202 772.834,80.017 875.92,93.7L953.428,103.989C1042.732,115.843 1133.23,115.575 1222.464,103.192L1274.596,95.957C1384.022,80.772 1495.26,84.847 1603.282,107.997L1603.282,107.997C1735.558,136.346 1872.374,136.031 2004.52,107.074L2008.36,106.235C2108.8,84.222 2212.14,78.403 2314.42,88.998L2416.26,99.546C2484.58,106.621 2553.42,106.64 2621.74,99.604L2880,73.004L2880,369.004L0,369.004L0,73.004Z" fill="url(#pf_0_10_808)"/>
<defs>
<linearGradient id="pf_0_10_806" x1="-151.105" y1="155.512" x2="3497.428" y2="155.512" gradientUnits="userSpaceOnUse">
<stop stop-color="#0052D4" stop-opacity="0.5"/>
<stop offset="0.5" stop-color="#4364F7" stop-opacity="0.5"/>
<stop offset="1" stop-color="#6FB1FC" stop-opacity="0.5"/>
</linearGradient>
<linearGradient id="pf_0_10_807" x1="0" y1="207.004" x2="2880" y2="207.004" gradientUnits="userSpaceOnUse">
<stop stop-color="#0052D4"/>
<stop offset="0.5" stop-color="#4364F7"/>
<stop offset="1" stop-color="#6FB1FC"/>
</linearGradient>
<linearGradient id="pf_0_10_808" x1="0" y1="221.004" x2="2880" y2="221.004" gradientUnits="userSpaceOnUse">
<stop stop-color="#103BE9" stop-opacity="0.8"/>
<stop offset="0.5" stop-color="#4266F6" stop-opacity="0.8"/>
<stop offset="1" stop-color="#6FB1FC" stop-opacity="0.8"/>
</linearGradient>
</defs>
</svg>
