<svg width="702" height="148" viewBox="0 0 702 148" fill="none" xmlns="http://www.w3.org/2000/svg" xmlns:xlink="http://www.w3.org/1999/xlink">
<path d="M693.689,41.444L664.403,41.444L651.821,99.228L610.928,99.228L623.511,41.444L594.445,41.444L602.121,0.551L701.395,0.551L693.689,41.444Z" fill="#FFFFFF"/>
<path d="M125.816,64.967L62.904,64.967L57.746,92.397L76.619,92.397C72.31,99.978 65.987,105.294 57.746,105.703C41.514,104.885 40.476,86.452 42.772,73.146C45.352,58.204 53.53,40.809 68.629,39.991C71.415,40.025 74.137,40.826 76.496,42.308C78.855,43.79 80.759,45.895 81.998,48.39L124.809,39.331C120.406,15.77 101.91,-1.216 76.273,-0.996L75.864,-0.996C35.538,0.231 8.486,35.241 1.691,73.712C-1.049,87.328 -0.192,101.422 4.176,114.605L106.471,114.605C116.251,99.559 122.835,82.664 125.816,64.967Z" fill="#FFFFFF"/>
<path d="M95.807,127.191L10.561,127.191C12.304,129.683 14.308,131.981 16.538,134.049L87.565,134.049C90.485,131.979 93.241,129.687 95.807,127.191Z" fill="#FFFFFF"/>
<path d="M49.944,146.442L50.541,146.442C58.52,146.139 66.389,144.491 73.818,141.566L27.767,141.566C34.725,144.76 42.288,146.423 49.944,146.442Z" fill="#FFFFFF"/>
<path d="M126.57,146.442L167.494,146.442L168.407,141.566L127.483,141.566L126.57,146.442Z" fill="#FFFFFF"/>
<path d="M194.578,2.115L153.623,2.115L132.516,114.634L173.471,114.634L194.578,2.115Z" fill="#FFFFFF"/>
<path d="M130.157,127.191L128.868,134.08L169.823,134.08L171.113,127.191L130.157,127.191Z" fill="#FFFFFF"/>
<path d="M191.999,127.191L190.678,134.08L282.592,134.08L283.881,127.191L191.999,127.191Z" fill="#FFFFFF"/>
<path d="M188.381,146.442L280.295,146.253L281.176,141.566L189.294,141.566L188.381,146.442Z" fill="#FFFFFF"/>
<path d="M286.965,110.827L237.201,110.827L257.616,2.115L215.434,2.115L194.327,114.634L286.241,114.634L286.965,110.827Z" fill="#FFFFFF"/>
<path d="M361.987,2.115L321.063,2.115L299.956,114.634L340.88,114.634L361.987,2.115Z" fill="#FFFFFF"/>
<path d="M297.596,127.191L296.306,134.08L337.23,134.08L338.52,127.191L297.596,127.191Z" fill="#FFFFFF"/>
<path d="M293.979,146.442L334.935,146.442L335.847,141.566L294.892,141.566L293.979,146.442Z" fill="#FFFFFF"/>
<path d="M448.144,107.533C452.9,95.711 456.288,83.384 458.242,70.792L471.422,0.582L430.529,0.582L417.349,70.792C415.993,79.831 413.64,88.693 410.334,97.215C409.601,99.089 408.535,100.815 407.189,102.311C406.524,103.145 405.701,103.84 404.767,104.355C403.441,105.231 401.844,105.6 400.268,105.393C399.575,105.302 398.921,105.019 398.381,104.576C397.551,103.765 396.912,102.78 396.51,101.692C396.107,100.604 395.951,99.44 396.053,98.284C395.919,97.335 395.919,96.371 396.053,95.422L354.374,104.859C354.377,106.966 354.546,109.069 354.878,111.15C355.066,112.408 355.381,113.572 355.633,114.767L444.464,114.767C445.831,112.43 447.06,110.014 448.144,107.533Z" fill="#FFFFFF"/>
<path d="M434.933,127.191L360.036,127.191C361.342,129.643 362.913,131.942 364.723,134.049L427.257,134.049C429.982,131.956 432.547,129.664 434.933,127.191Z" fill="#FFFFFF"/>
<path d="M380.451,144.398C384.506,145.758 388.756,146.449 393.033,146.442C400.507,146.336 407.877,144.675 414.675,141.566L373.782,141.566C375.904,142.732 378.138,143.681 380.451,144.398Z" fill="#FFFFFF"/>
<path d="M463.022,146.442L557.83,146.253L558.711,141.566L463.871,141.566L463.022,146.442Z" fill="#FFFFFF"/>
<path d="M577.206,42.859L583.529,0.33L488.721,0.55L468.621,114.641L563.743,114.641L565.505,105.299L511.684,105.299L514.452,90.577L562.139,90.577L569.185,52.893L521.498,52.893L523.385,42.859L577.206,42.859Z" fill="#FFFFFF"/>
<path d="M465.193,134.08L560.095,134.08L561.385,127.191L466.42,127.191L465.193,134.08Z" fill="#FFFFFF"/>
<path d="M574.407,143.795C573.536,143.824 572.669,143.651 571.875,143.29C571.082,142.929 570.382,142.39 569.831,141.714C569.279,141.038 568.892,140.244 568.698,139.394C568.505,138.543 568.51,137.66 568.714,136.812C569.126,134.885 570.171,133.152 571.681,131.887C573.191,130.622 575.081,129.897 577.05,129.829C577.918,129.803 578.781,129.979 579.57,130.342C580.359,130.705 581.053,131.246 581.598,131.922C582.144,132.599 582.525,133.392 582.713,134.24C582.9,135.088 582.889,135.969 582.68,136.812C582.276,138.731 581.242,140.459 579.743,141.724C578.245,142.989 576.367,143.718 574.407,143.795Z" fill="#FFFFFF"/>
<path d="M604.228,131.119L613.854,133.321C612.808,135.867 611.159,138.122 609.05,139.892C606.941,141.662 604.433,142.893 601.743,143.481C600.71,143.7 599.655,143.806 598.598,143.795C597.538,143.8 596.481,143.673 595.452,143.418C586.991,141.216 586.487,132.912 587.903,125.519C589.476,117.121 593.156,109.477 602.247,107.243C604.318,106.776 606.467,106.776 608.538,107.243C610.875,107.728 612.973,109.003 614.48,110.854C615.987,112.704 616.81,115.017 616.811,117.404L606.368,119.606C606.334,119.071 606.139,118.558 605.807,118.137C605.476,117.716 605.024,117.405 604.512,117.247C599.982,116.208 598.566,122.028 597.906,125.551C597.245,129.074 596.365,134.295 601.429,133.509C602.048,133.353 602.623,133.056 603.108,132.641C603.594,132.227 603.977,131.706 604.228,131.119Z" fill="#FFFFFF"/>
<path d="M630.43,143.801C628.411,143.897 626.402,143.463 624.603,142.541C622.804,141.62 621.278,140.243 620.176,138.548C617.944,134.618 617.27,129.992 618.288,125.588C619.062,120.687 621.248,116.117 624.58,112.439C626.145,110.748 628.029,109.383 630.123,108.422C632.218,107.461 634.482,106.923 636.785,106.84C638.798,106.775 640.795,107.226 642.584,108.152C644.374,109.077 645.897,110.444 647.008,112.125C649.228,116.071 649.89,120.706 648.863,125.116C648.109,130.024 645.921,134.599 642.572,138.265C641.017,139.955 639.138,141.316 637.047,142.267C634.956,143.218 632.695,143.739 630.399,143.801L630.43,143.801ZM631.594,118.636C629.931,120.538 628.84,122.872 628.449,125.368C627.933,127.588 628.188,129.918 629.172,131.974C629.507,132.492 629.977,132.91 630.531,133.181C631.085,133.453 631.703,133.568 632.318,133.515C632.976,133.506 633.626,133.362 634.227,133.091C634.827,132.82 635.366,132.429 635.809,131.942C637.462,130.033 638.551,127.703 638.955,125.211C639.471,122.991 639.216,120.661 638.231,118.605C637.899,118.084 637.43,117.665 636.875,117.393C636.32,117.121 635.701,117.007 635.086,117.063C634.422,117.081 633.77,117.235 633.169,117.517C632.568,117.798 632.032,118.201 631.594,118.699L631.594,118.636Z" fill="#FFFFFF"/>
<path d="M687.869,107.625L681.075,143.799L671.638,143.799L675.664,122.252L669.876,137.792L662.925,137.792L662.925,122.252L658.898,143.799L649.461,143.799L656.256,107.625L667.58,107.625L668.807,125.366L676.734,107.625L687.869,107.625Z" fill="#FFFFFF"/>
</svg>
