<svg width="154" height="54" viewBox="0 0 154 54" fill="none" xmlns="http://www.w3.org/2000/svg" xmlns:xlink="http://www.w3.org/1999/xlink">
<path d="M77.208,32.181C96.36,30.183 103.825,37.383 111.422,37.726C113.389,37.808 115.315,37.142 116.81,35.859L138.995,18.161C138.995,18.161 99.19,13.185 61.415,20.766C61.415,20.766 107.985,4.958 153.762,14.328C153.762,14.328 127.782,43.449 114.944,44.39C102.658,45.292 90.986,32.259 57.573,39.654C63.341,35.468 70.116,32.889 77.208,32.181Z" fill="#103BE9"/>
<path d="M61.842,27.446C57.749,29.187 54.163,31.937 51.422,35.44C43.783,37.584 35.941,38.926 28.024,39.445L29.323,36.023C32.589,26.218 40.917,18.139 50.598,14.569C61.679,10.448 77.036,5.409 91.033,3.224C97.675,2.233 104.463,3.089 110.651,5.697C110.651,5.697 72.798,9.095 46.352,21.249C46.352,21.249 102.456,4.709 122.44,8.807C122.44,8.807 112.65,0.316 96.336,0.005C85.294,-0.213 61.943,6.863 46.119,12.073C37.729,14.841 27.558,23.504 23.506,31.358L16.36,45.354C16.36,45.354 30.357,46.257 54.315,40.129C54.315,40.129 61.399,28.232 82.518,25.495C82.518,25.495 75.605,15.145 37.822,31.988C45.607,29.508 53.665,27.988 61.819,27.462L61.842,27.446Z" fill="#103BE9"/>
<path d="M96.258,2.398L92.961,9.412L95.769,8.363L97.868,2.398L96.258,2.398Z" fill="#103BE9"/>
<path d="M81.204,4.414L77.915,11.428L80.714,10.378L82.822,4.414L81.204,4.414Z" fill="#103BE9"/>
<path d="M114.742,49.203C114.742,49.203 89.726,37.034 65.707,40.984C39.673,45.269 24.494,52.283 0.389,42.602C0.389,42.602 5.124,50.292 27.674,52.197C54.478,54.46 57.067,37.415 114.742,49.203Z" fill="#00AEEF"/>
<path d="M31.29,21.707L8.305,28.946L27.348,26.186L31.29,21.707Z" fill="#103BE9"/>
<path d="M28.787,27.322L0,36.381L23.857,32.929L28.787,27.322Z" fill="#103BE9"/>
<path d="M28.779,33.674L5.793,40.905L24.836,38.145L28.779,33.674Z" fill="#103BE9"/>
<path d="M114.244,52.408C114.244,52.408 95.092,46.786 77.907,47.89C60.722,48.994 50.808,52.408 50.808,52.408L112.347,52.408Z" fill="#00AEEF"/>
</svg>
