<svg width="3848" height="496" viewBox="0 0 3848 496" fill="none" xmlns="http://www.w3.org/2000/svg" xmlns:xlink="http://www.w3.org/1999/xlink">
<path d="M0,91.903L129.388,64.854C333.376,22.211 544.514,27.923 745.898,81.533L845.296,107.994C1024.78,155.774 1214.144,151.577 1391.334,95.892L1391.334,95.892C1571.158,39.38 1763.46,35.914 1945.202,85.91L2078.66,122.622C2219.52,161.373 2365.8,176.758 2511.64,168.164L2745.62,154.377C2829.22,149.452 2912.18,136.676 2993.38,116.22L3085.56,93.004C3303.5,38.105 3531.78,39.074 3749.26,95.822L3848,121.586L3848,412.896L0,424.884L0,91.903Z" fill="url(#pf_0_203_5779)"/>
<path d="M0,196.408L261.872,130.077C421.474,89.65 589.36,96.212 745.32,148.975L825.104,175.966C966.068,223.656 1119.418,219.534 1257.616,164.34L1257.616,164.34C1397.834,108.34 1553.572,104.939 1696.1,154.766L1745.346,171.982C1889.39,222.339 2046.42,221.3 2189.78,169.041L2189.78,169.041C2315.18,123.335 2451.46,116.661 2580.72,149.898L2655.52,169.13C2812.36,209.462 2977.9,199.706 3128.92,141.231L3128.92,141.231C3263.58,89.087 3410.14,75.561 3552.08,102.175L3848,157.661L3848,494.361L0,494.361L0,196.408Z" fill="url(#pf_0_203_5780)"/>
<path d="M0,98.873L261.948,153.366C425.594,187.41 594.71,185.227 757.424,146.971L757.424,146.971C892.68,115.171 1032.592,108.243 1170.326,126.526L1273.886,140.272C1393.208,156.11 1514.122,155.752 1633.348,139.207L1703.002,129.541C1849.206,109.252 1997.834,114.697 2142.16,145.628L2142.16,145.628C2318.9,183.505 2501.7,183.084 2678.26,144.395L2683.38,143.273C2817.6,113.862 2955.66,106.087 3092.32,120.242L3228.4,134.336C3319.66,143.789 3411.66,143.815 3502.94,134.414L3848,98.873L3848,494.361L0,494.361L0,98.873Z" fill="url(#pf_0_203_5781)"/>
<defs>
<linearGradient id="pf_0_203_5779" x1="-201.893" y1="209.112" x2="4672.953" y2="209.112" gradientUnits="userSpaceOnUse">
<stop stop-color="#0052D4" stop-opacity="0.5"/>
<stop offset="0.5" stop-color="#4364F7" stop-opacity="0.5"/>
<stop offset="1" stop-color="#6FB1FC" stop-opacity="0.5"/>
</linearGradient>
<linearGradient id="pf_0_203_5780" x1="0" y1="277.911" x2="3848" y2="277.911" gradientUnits="userSpaceOnUse">
<stop stop-color="#0052D4"/>
<stop offset="0.5" stop-color="#4364F7"/>
<stop offset="1" stop-color="#6FB1FC"/>
</linearGradient>
<linearGradient id="pf_0_203_5781" x1="0" y1="296.617" x2="3848" y2="296.617" gradientUnits="userSpaceOnUse">
<stop stop-color="#103BE9" stop-opacity="0.8"/>
<stop offset="0.5" stop-color="#4266F6" stop-opacity="0.8"/>
<stop offset="1" stop-color="#6FB1FC" stop-opacity="0.8"/>
</linearGradient>
</defs>
</svg>
