<svg width="624" height="212" viewBox="0 0 624 212" fill="none" xmlns="http://www.w3.org/2000/svg" xmlns:xlink="http://www.w3.org/1999/xlink">
<path d="M312.326,130.185C389.802,122.101 420,151.23 450.732,152.614C458.692,152.949 466.482,150.251 472.53,145.065L562.274,73.471C562.274,73.471 401.252,53.339 248.439,84.008C248.439,84.008 436.828,20.058 622.01,57.963C622.01,57.963 516.916,175.766 464.982,179.572C415.281,183.221 368.066,130.5 232.9,160.415C256.23,143.481 283.64,133.048 312.326,130.185Z" fill="#FFFFFF"/>
<path d="M250.169,111.028C233.61,118.069 219.107,129.195 208.018,143.365C177.116,152.039 145.394,157.468 113.367,159.565L118.62,145.724C131.832,106.058 165.521,73.375 204.683,58.937C249.508,42.265 311.633,21.882 368.253,13.043C395.125,9.034 422.581,12.495 447.617,23.046C447.617,23.046 294.489,36.792 187.509,85.958C187.509,85.958 414.463,19.051 495.305,35.628C495.305,35.628 455.701,1.278 389.707,0.02C345.039,-0.861 250.578,27.764 186.565,48.84C152.624,60.038 111.48,95.08 95.091,126.851L66.183,183.472C66.183,183.472 122.804,187.121 219.719,162.333C219.719,162.333 248.376,114.205 333.809,103.133C333.809,103.133 305.845,61.265 153.002,129.398C184.493,119.367 217.092,113.219 250.074,111.091L250.169,111.028Z" fill="#FFFFFF"/>
<path d="M389.392,9.703L376.055,38.077L387.411,33.83L395.904,9.703L389.392,9.703Z" fill="#FFFFFF"/>
<path d="M328.494,17.855L315.188,46.229L326.512,41.982L335.037,17.855L328.494,17.855Z" fill="#FFFFFF"/>
<path d="M464.163,199.038C464.163,199.038 362.969,149.809 265.803,165.789C160.488,183.121 99.087,211.494 1.573,172.332C1.573,172.332 20.73,203.442 111.952,211.148C220.381,220.302 230.855,151.35 464.163,199.038Z" fill="#FFFFFF"/>
<path d="M126.578,87.811L33.595,117.096L110.63,105.929L126.578,87.811Z" fill="#FFFFFF"/>
<path d="M116.45,110.521L0,147.168L96.507,133.201L116.45,110.521Z" fill="#FFFFFF"/>
<path d="M116.418,136.217L23.434,165.471L100.47,154.304L116.418,136.217Z" fill="#FFFFFF"/>
<path d="M462.149,212C462.149,212 384.674,189.257 315.157,193.724C245.639,198.191 205.533,212 205.533,212L454.475,212Z" fill="#FFFFFF"/>
</svg>
