<svg width="174" height="38" viewBox="0 0 174 38" fill="none" xmlns="http://www.w3.org/2000/svg" xmlns:xlink="http://www.w3.org/1999/xlink">
<path d="M172.095,10.65L164.855,10.65L161.745,24.934L151.636,24.934L154.746,10.65L147.562,10.65L149.459,0.541L174,0.541L172.095,10.65Z" fill="#103BE9"/>
<path d="M31.716,16.465L16.164,16.465L14.888,23.246L19.554,23.246C18.489,25.12 16.926,26.434 14.888,26.535C10.876,26.333 10.619,21.776 11.187,18.487C11.825,14.793 13.846,10.493 17.579,10.291C18.268,10.299 18.94,10.497 19.524,10.864C20.107,11.23 20.577,11.75 20.884,12.367L31.467,10.128C30.378,4.303 25.806,0.104 19.468,0.159L19.367,0.159C9.399,0.462 2.711,9.117 1.032,18.627C0.354,21.992 0.566,25.477 1.646,28.735L26.933,28.735C29.351,25.016 30.979,20.839 31.716,16.465Z" fill="#103BE9"/>
<path d="M24.297,31.846L3.225,31.846C3.656,32.462 4.151,33.03 4.702,33.541L22.26,33.541C22.982,33.029 23.663,32.463 24.297,31.846Z" fill="#103BE9"/>
<path d="M12.96,36.606L13.107,36.606C15.08,36.531 17.025,36.123 18.861,35.4L7.478,35.4C9.198,36.19 11.067,36.601 12.96,36.606Z" fill="#103BE9"/>
<path d="M31.902,36.606L42.019,36.606L42.244,35.4L32.128,35.4L31.902,36.606Z" fill="#103BE9"/>
<path d="M48.714,0.928L38.59,0.928L33.372,28.743L43.496,28.743L48.714,0.928Z" fill="#103BE9"/>
<path d="M32.789,31.846L32.47,33.549L42.594,33.549L42.913,31.846L32.789,31.846Z" fill="#103BE9"/>
<path d="M48.077,31.846L47.75,33.549L70.471,33.549L70.79,31.846L48.077,31.846Z" fill="#103BE9"/>
<path d="M47.182,36.606L69.903,36.559L70.121,35.4L47.407,35.4L47.182,36.606Z" fill="#103BE9"/>
<path d="M71.552,27.802L59.25,27.802L64.297,0.928L53.869,0.928L48.651,28.743L71.373,28.743L71.552,27.802Z" fill="#103BE9"/>
<path d="M90.098,0.928L79.981,0.928L74.764,28.743L84.88,28.743L90.098,0.928Z" fill="#103BE9"/>
<path d="M74.18,31.846L73.861,33.549L83.978,33.549L84.297,31.846L74.18,31.846Z" fill="#103BE9"/>
<path d="M73.286,36.606L83.41,36.606L83.636,35.4L73.512,35.4L73.286,36.606Z" fill="#103BE9"/>
<path d="M111.396,26.987C112.571,24.065 113.409,21.017 113.892,17.905L117.15,0.549L107.041,0.549L103.783,17.905C103.448,20.139 102.867,22.33 102.049,24.437C101.868,24.9 101.605,25.327 101.272,25.696C101.107,25.903 100.904,26.074 100.673,26.202C100.345,26.418 99.95,26.509 99.561,26.458C99.39,26.436 99.228,26.366 99.094,26.256C98.889,26.056 98.731,25.812 98.632,25.543C98.532,25.274 98.494,24.987 98.519,24.701C98.486,24.466 98.486,24.228 98.519,23.993L88.216,26.326C88.217,26.847 88.258,27.367 88.34,27.881C88.387,28.192 88.465,28.48 88.527,28.776L110.486,28.776C110.824,28.198 111.128,27.601 111.396,26.987Z" fill="#103BE9"/>
<path d="M108.13,31.846L89.615,31.846C89.938,32.452 90.326,33.02 90.774,33.541L106.232,33.541C106.906,33.024 107.54,32.457 108.13,31.846Z" fill="#103BE9"/>
<path d="M94.662,36.1C95.665,36.437 96.715,36.607 97.773,36.606C99.62,36.579 101.442,36.169 103.122,35.4L93.014,35.4C93.538,35.689 94.091,35.923 94.662,36.1Z" fill="#103BE9"/>
<path d="M115.073,36.606L138.51,36.559L138.728,35.4L115.283,35.4L115.073,36.606Z" fill="#103BE9"/>
<path d="M143.301,10.999L144.864,0.486L121.427,0.541L116.458,28.744L139.972,28.744L140.408,26.435L127.103,26.435L127.788,22.796L139.576,22.796L141.318,13.48L129.529,13.48L129.996,10.999L143.301,10.999Z" fill="#103BE9"/>
<path d="M115.61,33.549L139.07,33.549L139.389,31.846L115.914,31.846L115.61,33.549Z" fill="#103BE9"/>
<path d="M142.608,35.951C142.393,35.958 142.179,35.916 141.982,35.826C141.786,35.737 141.613,35.604 141.477,35.437C141.341,35.27 141.245,35.073 141.197,34.863C141.149,34.653 141.15,34.435 141.201,34.225C141.303,33.749 141.561,33.32 141.934,33.007C142.308,32.695 142.775,32.516 143.262,32.499C143.476,32.492 143.689,32.536 143.884,32.626C144.08,32.715 144.251,32.849 144.386,33.016C144.521,33.183 144.615,33.38 144.661,33.589C144.708,33.799 144.705,34.016 144.653,34.225C144.553,34.699 144.298,35.127 143.927,35.439C143.557,35.752 143.093,35.932 142.608,35.951Z" fill="#000000"/>
<path d="M149.98,32.819L152.36,33.363C152.101,33.993 151.694,34.55 151.172,34.988C150.651,35.425 150.031,35.729 149.366,35.875C149.11,35.929 148.85,35.955 148.588,35.952C148.326,35.954 148.065,35.922 147.811,35.859C145.719,35.315 145.595,33.262 145.944,31.435C146.333,29.358 147.243,27.469 149.49,26.917C150.002,26.801 150.534,26.801 151.046,26.917C151.623,27.037 152.142,27.352 152.514,27.809C152.887,28.267 153.09,28.838 153.091,29.428L150.509,29.973C150.501,29.841 150.452,29.714 150.37,29.61C150.288,29.506 150.177,29.429 150.05,29.39C148.93,29.133 148.581,30.572 148.417,31.442C148.254,32.313 148.036,33.604 149.288,33.41C149.441,33.371 149.583,33.298 149.703,33.195C149.823,33.093 149.918,32.964 149.98,32.819Z" fill="#000000"/>
<path d="M156.457,35.953C155.958,35.976 155.461,35.869 155.016,35.641C154.572,35.414 154.194,35.073 153.922,34.654C153.37,33.683 153.204,32.539 153.455,31.451C153.647,30.239 154.187,29.109 155.011,28.2C155.397,27.782 155.863,27.445 156.381,27.207C156.899,26.969 157.458,26.837 158.028,26.816C158.525,26.8 159.019,26.911 159.461,27.14C159.904,27.369 160.28,27.707 160.555,28.122C161.104,29.098 161.267,30.244 161.014,31.334C160.827,32.547 160.286,33.678 159.458,34.584C159.074,35.002 158.609,35.338 158.092,35.573C157.575,35.809 157.017,35.937 156.449,35.953L156.457,35.953ZM156.745,29.732C156.333,30.202 156.064,30.779 155.967,31.396C155.839,31.945 155.902,32.521 156.146,33.029C156.229,33.157 156.345,33.26 156.482,33.328C156.619,33.395 156.771,33.423 156.923,33.41C157.086,33.408 157.247,33.372 157.395,33.305C157.544,33.238 157.677,33.142 157.787,33.021C158.195,32.549 158.464,31.973 158.564,31.357C158.692,30.808 158.629,30.232 158.385,29.724C158.303,29.595 158.187,29.492 158.05,29.425C157.913,29.357 157.76,29.329 157.608,29.343C157.444,29.347 157.282,29.386 157.134,29.455C156.985,29.525 156.853,29.624 156.745,29.748L156.745,29.732Z" fill="#000000"/>
<path d="M170.657,27.01L168.977,35.952L166.644,35.952L167.639,30.626L166.209,34.467L164.49,34.467L164.49,30.626L163.495,35.952L161.162,35.952L162.842,27.01L165.641,27.01L165.944,31.395L167.904,27.01L170.657,27.01Z" fill="#000000"/>
</svg>
