<svg width="154" height="54" viewBox="0 0 154 54" fill="none" xmlns="http://www.w3.org/2000/svg" xmlns:xlink="http://www.w3.org/1999/xlink">
<path d="M77.208,32.181C96.361,30.183 103.826,37.383 111.423,37.726C113.39,37.808 115.316,37.142 116.811,35.859L138.996,18.161C138.996,18.161 99.191,13.185 61.416,20.766C61.416,20.766 107.986,4.958 153.763,14.328C153.763,14.328 127.783,43.449 114.945,44.39C102.659,45.292 90.987,32.259 57.574,39.654C63.341,35.468 70.117,32.889 77.208,32.181Z" fill="#103BE9"/>
<path d="M61.843,27.446C57.75,29.187 54.164,31.937 51.423,35.44C43.784,37.584 35.942,38.926 28.025,39.445L29.324,36.023C32.59,26.218 40.918,18.139 50.599,14.569C61.68,10.448 77.037,5.409 91.034,3.224C97.676,2.233 104.464,3.089 110.652,5.697C110.652,5.697 72.799,9.095 46.353,21.249C46.353,21.249 102.457,4.709 122.441,8.807C122.441,8.807 112.651,0.316 96.337,0.005C85.295,-0.213 61.944,6.863 46.12,12.073C37.73,14.841 27.559,23.504 23.507,31.358L16.361,45.354C16.361,45.354 30.358,46.257 54.316,40.129C54.316,40.129 61.4,28.232 82.519,25.495C82.519,25.495 75.606,15.145 37.823,31.988C45.608,29.508 53.666,27.988 61.82,27.462L61.843,27.446Z" fill="#103BE9"/>
<path d="M96.258,2.398L92.961,9.412L95.768,8.363L97.868,2.398L96.258,2.398Z" fill="#103BE9"/>
<path d="M81.203,4.414L77.914,11.428L80.713,10.378L82.821,4.414L81.203,4.414Z" fill="#103BE9"/>
<path d="M114.742,49.203C114.742,49.203 89.726,37.034 65.707,40.984C39.673,45.269 24.494,52.283 0.389,42.602C0.389,42.602 5.124,50.292 27.674,52.197C54.478,54.46 57.067,37.415 114.742,49.203Z" fill="#00AEEF"/>
<path d="M31.29,21.707L8.305,28.946L27.348,26.186L31.29,21.707Z" fill="#103BE9"/>
<path d="M28.787,27.322L0,36.381L23.857,32.929L28.787,27.322Z" fill="#103BE9"/>
<path d="M28.779,33.674L5.793,40.905L24.836,38.145L28.779,33.674Z" fill="#103BE9"/>
<path d="M114.245,52.408C114.245,52.408 95.093,46.786 77.908,47.89C60.723,48.994 50.809,52.408 50.809,52.408L112.347,52.408Z" fill="#00AEEF"/>
</svg>
