<svg width="34" height="34" viewBox="0 0 34 34" fill="none" xmlns="http://www.w3.org/2000/svg" xmlns:xlink="http://www.w3.org/1999/xlink">
<path d="M8.535,2C4.926,2 2,4.926 2,8.535L2,23.605C2,27.214 4.926,30.14 8.535,30.14L23.605,30.14C27.214,30.14 30.14,27.214 30.14,23.605L30.14,8.535C30.14,4.926 27.214,2 23.605,2L8.535,2ZM0,8.535C0,3.821 3.821,0 8.535,0L23.605,0C28.319,0 32.14,3.821 32.14,8.535L32.14,23.605C32.14,28.319 28.319,32.14 23.605,32.14L8.535,32.14C3.821,32.14 0,28.319 0,23.605L0,8.535ZM16.873,11.031C15.827,10.876 14.758,11.054 13.82,11.541C12.881,12.029 12.12,12.799 11.644,13.744C11.169,14.689 11.003,15.759 11.171,16.803C11.339,17.847 11.832,18.812 12.58,19.56C13.328,20.308 14.292,20.801 15.337,20.969C16.381,21.137 17.451,20.971 18.396,20.496C19.341,20.02 20.111,19.259 20.598,18.32C21.085,17.381 21.264,16.313 21.109,15.267C20.951,14.2 20.453,13.212 19.691,12.449C18.928,11.686 17.94,11.189 16.873,11.031ZM12.898,9.766C14.211,9.085 15.704,8.836 17.166,9.052C18.658,9.274 20.039,9.969 21.105,11.035C22.171,12.101 22.866,13.482 23.087,14.974C23.304,16.436 23.054,17.929 22.374,19.241C21.693,20.553 20.615,21.617 19.295,22.282C17.975,22.947 16.478,23.178 15.019,22.943C13.559,22.708 12.211,22.019 11.166,20.974C10.121,19.929 9.431,18.58 9.197,17.121C8.962,15.662 9.193,14.165 9.858,12.845C10.522,11.524 11.586,10.447 12.898,9.766ZM24.358,6.781C23.806,6.781 23.358,7.229 23.358,7.781C23.358,8.334 23.806,8.781 24.358,8.781L24.376,8.781C24.928,8.781 25.376,8.334 25.376,7.781C25.376,7.229 24.928,6.781 24.376,6.781L24.358,6.781Z" clip-rule="evenodd" fill-rule="evenodd" fill="#000000"/>
</svg>
