<svg width="200" height="200" viewBox="0 0 200 200" fill="none" xmlns="http://www.w3.org/2000/svg" xmlns:xlink="http://www.w3.org/1999/xlink">
<path d="M100.618,145.874C100.158,146.09 100.129,146.564 99.986,146.966C96.862,155.216 93.753,163.465 90.658,171.715C90.198,172.951 90.198,172.951 89.221,172.031L74.691,158.492C74.508,158.297 74.285,158.144 74.036,158.045C73.788,157.946 73.521,157.902 73.254,157.917C66.499,158.133 59.744,158.306 53.004,158.536C52.041,158.536 52.041,158.234 52.314,157.501C54.843,150.842 57.359,144.178 59.859,137.509C63.136,128.829 66.408,120.143 69.675,111.453C69.675,110.878 70.035,110.533 70.638,110.591C71.736,110.544 72.83,110.74 73.843,111.166C74.522,111.521 75.063,112.093 75.381,112.79C75.884,113.824 76.401,114.873 76.948,115.894C77.177,116.569 77.663,117.126 78.301,117.443C78.939,117.761 79.677,117.814 80.354,117.59C81.432,117.403 82.495,117.13 83.559,116.886C84.281,116.681 85.046,116.679 85.769,116.882C86.492,117.085 87.145,117.484 87.655,118.035C88.718,119.317 89.945,120.452 91.305,121.413C91.921,121.527 92.555,121.502 93.16,121.337C93.764,121.173 94.324,120.875 94.797,120.464C95.98,119.502 97.419,118.907 98.937,118.754C99.637,118.752 100.322,118.957 100.906,119.343C102.133,120.074 103.405,120.727 104.714,121.298C105.012,121.452 105.35,121.513 105.684,121.472C106.017,121.431 106.33,121.29 106.582,121.068C107.714,120.215 108.759,119.252 109.701,118.194C110.132,117.734 110.549,117.575 111.052,118.064C111.296,118.423 111.052,118.768 111.052,119.113C109.471,123.655 107.574,128.096 105.964,132.637C105.145,134.951 104.254,137.236 103.392,139.536C102.659,141.462 101.955,143.402 101.222,145.285C101.078,145.543 100.992,145.86 100.618,145.874Z" fill="#103BE9"/>
<path d="M100.618,145.876C100.966,144.219 101.491,142.605 102.185,141.061C103.493,137.439 104.901,133.875 106.266,130.268C107.79,126.2 109.299,122.119 110.822,118.051C110.492,117.505 110.822,117.189 111.239,116.916C112.052,116.52 112.978,116.423 113.855,116.643C114.976,116.83 116.068,117.074 117.189,117.304C117.822,117.514 118.511,117.484 119.123,117.219C119.735,116.954 120.229,116.473 120.509,115.867C121.113,114.818 121.572,113.711 122.104,112.648C122.402,111.972 122.88,111.392 123.486,110.971C124.092,110.551 124.803,110.305 125.539,110.262C126.157,110.262 126.804,110.262 127.422,110.133C127.512,110.114 127.606,110.115 127.696,110.135C127.786,110.156 127.87,110.195 127.944,110.251C128.017,110.307 128.078,110.378 128.122,110.459C128.166,110.54 128.192,110.63 128.198,110.722C135.058,123.772 141.923,136.812 148.793,149.842C149.195,150.633 149.152,150.877 148.204,150.963C141.535,151.553 134.881,152.228 128.227,152.832C127.919,152.854 127.62,152.943 127.349,153.092C127.079,153.24 126.844,153.446 126.66,153.694C122.387,158.81 118.114,163.913 113.84,169C113.639,169.244 113.409,169.489 113.122,169.805L111.814,167.333L100.949,146.666C100.821,146.41 100.711,146.146 100.618,145.876Z" fill="#00228E"/>
<path d="M91.247,121.831C90.758,121.73 90.317,121.467 89.996,121.084C89.105,120.179 88.171,119.316 87.323,118.382C86.895,117.889 86.333,117.532 85.705,117.353C85.077,117.175 84.411,117.183 83.788,117.376C82.71,117.62 81.646,117.865 80.568,118.08C80.166,118.23 79.738,118.296 79.309,118.273C78.881,118.25 78.462,118.14 78.078,117.948C77.694,117.757 77.353,117.489 77.077,117.161C76.801,116.832 76.595,116.451 76.472,116.04C75.926,114.933 75.394,113.826 74.805,112.734C74.235,111.962 73.414,111.413 72.484,111.18C71.553,110.946 70.57,111.044 69.703,111.455C69.488,110.822 68.913,110.937 68.439,110.88C67.695,110.888 66.975,110.618 66.42,110.124C65.865,109.63 65.513,108.946 65.435,108.207C65.205,107.043 65.004,105.85 64.831,104.671C64.778,104.022 64.534,103.402 64.13,102.891C63.726,102.379 63.18,101.999 62.56,101.797C61.454,101.394 60.39,100.935 59.312,100.503C58.573,100.316 57.934,99.852 57.525,99.208C57.116,98.564 56.969,97.789 57.113,97.04C57.214,95.775 57.372,94.525 57.573,93.274C57.688,92.664 57.626,92.035 57.395,91.459C57.163,90.883 56.771,90.386 56.266,90.026C55.317,89.25 54.34,88.503 53.391,87.698C53.068,87.498 52.787,87.237 52.566,86.928C52.344,86.619 52.186,86.27 52.101,85.899C52.015,85.529 52.004,85.146 52.068,84.771C52.131,84.396 52.268,84.038 52.471,83.717C52.96,82.582 53.463,81.46 53.995,80.339C54.272,79.822 54.397,79.237 54.353,78.651C54.31,78.066 54.101,77.505 53.75,77.034C53.046,75.985 52.313,74.95 51.638,73.886C51.385,73.603 51.19,73.271 51.066,72.912C50.942,72.552 50.89,72.171 50.914,71.792C50.939,71.412 51.038,71.041 51.206,70.7C51.375,70.359 51.609,70.055 51.896,69.805C52.759,68.785 53.65,67.807 54.527,66.801C54.898,66.389 55.149,65.883 55.253,65.339C55.357,64.794 55.31,64.231 55.116,63.711C54.742,62.504 54.368,61.297 54.024,60.075C53.741,59.351 53.748,58.546 54.042,57.826C54.336,57.107 54.896,56.528 55.604,56.209C56.582,55.62 57.545,55.03 58.479,54.47C59.05,54.19 59.526,53.747 59.845,53.197C60.165,52.647 60.315,52.015 60.275,51.38C60.275,50.058 60.275,48.721 60.376,47.399C60.337,46.738 60.536,46.085 60.937,45.558C61.337,45.031 61.913,44.664 62.56,44.525C63.811,44.151 65.076,43.835 66.34,43.562C66.984,43.45 67.58,43.15 68.053,42.7C68.526,42.25 68.855,41.669 68.999,41.032C69.344,39.825 69.732,38.618 70.149,37.41C70.311,36.783 70.687,36.232 71.211,35.852C71.736,35.472 72.377,35.286 73.023,35.327C74.317,35.327 75.61,35.427 76.904,35.528C77.556,35.6 78.215,35.484 78.803,35.194C79.391,34.904 79.884,34.451 80.223,33.889C80.899,32.869 81.661,31.849 82.293,30.843C82.641,30.241 83.195,29.785 83.853,29.56C84.511,29.336 85.228,29.357 85.872,29.621C87.136,30.023 88.387,30.498 89.623,30.986C90.176,31.228 90.786,31.306 91.382,31.212C91.978,31.117 92.534,30.855 92.986,30.454C93.963,29.664 94.969,28.874 95.975,28.112C96.524,27.608 97.242,27.328 97.987,27.328C98.732,27.328 99.45,27.608 99.999,28.112C100.862,28.73 101.71,29.391 102.543,30.052C103.126,30.547 103.8,30.923 104.526,31.159C105.005,31.789 105.343,32.514 105.518,33.286C105.992,34.723 106.38,36.16 106.783,37.684C106.835,37.804 106.862,37.934 106.863,38.065C106.865,38.197 106.84,38.327 106.79,38.449C106.741,38.57 106.668,38.681 106.575,38.774C106.483,38.867 106.372,38.941 106.251,38.991C105.621,39.048 104.986,38.98 104.383,38.79C95.98,37.366 87.344,38.931 79.976,43.213C72.608,47.496 66.974,54.225 64.052,62.231C61.131,70.236 61.107,79.013 63.985,87.034C66.864,95.056 72.462,101.815 79.807,106.137C83.542,108.345 87.639,109.873 91.908,110.65C93.216,110.894 94.552,110.966 95.875,111.182C96.208,111.196 96.53,111.3 96.809,111.484C97.154,111.843 96.981,112.217 96.809,112.576C95.37,115.54 93.762,118.419 91.994,121.199C91.827,121.491 91.562,121.714 91.247,121.831Z" fill="#00AEEF"/>
<path d="M91.247,121.828C92.397,119.816 93.575,117.819 94.682,115.807C95.444,114.369 96.119,113.047 96.838,111.667C96.869,111.566 96.935,111.48 97.025,111.423C97.481,111.24 97.97,111.153 98.462,111.164C103.5,111.19 108.487,110.147 113.092,108.103C118.124,105.878 122.589,102.547 126.156,98.359C130.141,93.719 132.892,88.15 134.155,82.167C135.419,76.183 135.156,69.978 133.388,64.123C131.621,58.268 128.407,52.953 124.044,48.668C119.68,44.384 114.307,41.267 108.422,39.606C107.789,39.434 107.214,39.104 106.568,38.945C106.352,38.945 106.18,38.759 106.251,38.485C106.711,38.212 106.467,37.839 106.366,37.523C105.863,35.741 105.332,33.973 104.8,32.205C104.699,31.831 104.469,31.472 104.67,31.07C106.039,31.006 107.376,30.633 108.58,29.977C112.201,28.54 112.532,28.698 114.774,31.831C117.016,34.964 116.714,35.41 121.399,34.921L121.701,34.921C125.107,34.734 125.567,35.036 126.659,38.313L127.479,40.771C127.633,41.319 127.939,41.814 128.361,42.197C128.783,42.581 129.304,42.838 129.864,42.941L133.644,43.832C134.38,43.945 135.048,44.329 135.516,44.909C135.983,45.488 136.218,46.221 136.174,46.965C136.174,48.258 136.174,49.566 136.174,50.86C136.158,51.413 136.298,51.959 136.578,52.437C136.857,52.914 137.265,53.304 137.755,53.562L141.103,55.53C141.776,55.85 142.306,56.407 142.592,57.094C142.879,57.781 142.901,58.55 142.655,59.253C142.325,60.518 141.966,61.754 141.592,63.004C141.405,63.559 141.382,64.156 141.525,64.724C141.667,65.292 141.97,65.808 142.397,66.209C143.259,67.143 144.121,68.063 144.955,69.011C145.52,69.503 145.87,70.196 145.932,70.942C145.993,71.688 145.762,72.429 145.286,73.007C144.61,74.085 143.935,75.148 143.216,76.197C142.856,76.681 142.644,77.259 142.606,77.861C142.567,78.463 142.704,79.063 143,79.589C143.561,80.71 144.093,81.86 144.624,83.01C144.978,83.642 145.089,84.381 144.939,85.089C144.788,85.798 144.385,86.428 143.805,86.861C142.799,87.738 141.764,88.586 140.744,89.434C140.294,89.782 139.95,90.249 139.752,90.783C139.554,91.316 139.509,91.895 139.623,92.452C139.824,93.803 140.054,95.154 140.183,96.505C140.299,97.189 140.163,97.891 139.801,98.483C139.439,99.075 138.876,99.515 138.215,99.724C137.05,100.227 135.886,100.701 134.708,101.161C134.141,101.368 133.645,101.729 133.274,102.205C132.903,102.68 132.673,103.249 132.609,103.849C132.423,105.071 132.25,106.292 132.035,107.499C132.006,108.253 131.694,108.968 131.161,109.501C130.628,110.034 129.913,110.345 129.16,110.374C128.83,110.374 128.485,110.374 128.212,110.618C126.826,110.441 125.417,110.594 124.101,111.064C123.463,111.352 122.952,111.863 122.664,112.501C122.104,113.665 121.557,114.844 120.968,115.993C120.667,116.709 120.11,117.287 119.406,117.614C118.702,117.941 117.901,117.993 117.16,117.761C115.952,117.488 114.76,117.215 113.538,117.028C112.316,116.841 111.454,116.856 110.822,117.977C109.945,118.207 109.6,119.055 108.982,119.586C108.267,120.284 107.514,120.942 106.726,121.555C106.422,121.789 106.058,121.932 105.677,121.968C105.295,122.004 104.911,121.93 104.57,121.757C103.233,121.081 101.897,120.42 100.589,119.687C100.107,119.409 99.565,119.251 99.009,119.229C98.454,119.206 97.901,119.319 97.398,119.558C95.961,120.118 94.854,121.239 93.374,121.728C93.044,121.886 92.686,121.977 92.321,121.994C91.955,122.011 91.59,121.955 91.247,121.828Z" fill="#006F91"/>
<path d="M97.054,111.654L96.838,111.654C88.72,111.302 80.947,108.269 74.734,103.031C69.21,98.408 65.158,92.271 63.074,85.376C60.991,78.48 60.968,71.126 63.008,64.218C65.047,57.309 69.061,51.147 74.556,46.489C80.05,41.831 86.786,38.88 93.935,37.998C98.038,37.496 102.196,37.681 106.238,38.544L106.654,38.745C107.124,39.095 107.447,39.608 107.56,40.183C108.469,44.018 109.108,47.913 109.471,51.838C109.692,53.847 109.783,55.868 109.744,57.889C109.917,58.931 109.917,59.994 109.744,61.036C109.313,61.539 108.925,61.223 108.508,61.036C107.667,60.526 106.725,60.204 105.748,60.092C104.77,59.981 103.78,60.082 102.846,60.389C102.128,60.568 101.485,60.969 101.008,61.534C100.531,62.099 100.244,62.8 100.187,63.537C100.102,64.273 100.263,65.016 100.645,65.651C101.027,66.285 101.609,66.775 102.3,67.044C103.149,67.431 104.023,67.763 104.915,68.035C105.289,68.165 105.663,68.294 106.036,68.452C106.399,68.593 106.73,68.807 107.007,69.08C107.285,69.353 107.505,69.679 107.652,70.039C107.8,70.399 107.873,70.786 107.867,71.175C107.861,71.564 107.776,71.948 107.617,72.304C107.475,72.662 107.232,72.971 106.919,73.195C106.606,73.42 106.234,73.549 105.85,73.569C105.118,73.633 104.382,73.633 103.651,73.569C103.317,73.546 102.994,73.439 102.713,73.258C102.431,73.077 102.2,72.828 102.041,72.534C101.897,72.318 101.811,72.06 101.653,71.844C101.569,71.678 101.429,71.548 101.258,71.477C101.086,71.406 100.895,71.398 100.719,71.456C100.524,71.522 100.362,71.66 100.266,71.842C100.169,72.023 100.146,72.235 100.201,72.433C100.282,72.98 100.519,73.492 100.884,73.907C101.248,74.323 101.725,74.624 102.257,74.776C103.881,75.308 105.633,75.308 107.258,74.776C107.66,74.661 108.063,74.402 108.48,74.776C108.896,75.149 108.767,75.48 108.738,75.882C108.777,77.203 108.485,78.512 107.89,79.691C107.574,80.007 107.157,79.95 106.769,79.978C106.288,79.978 105.807,80.017 105.332,80.094C104.914,80.088 104.5,80.175 104.119,80.346C103.737,80.518 103.398,80.77 103.124,81.086C102.851,81.402 102.649,81.774 102.534,82.176C102.419,82.578 102.393,83 102.458,83.413C102.458,84.678 102.458,85.928 102.458,87.193C102.416,87.57 102.449,87.951 102.555,88.315C102.661,88.679 102.838,89.018 103.076,89.314C103.314,89.609 103.608,89.854 103.941,90.035C104.274,90.217 104.639,90.33 105.016,90.369C105.39,90.47 105.821,90.484 105.907,91.016C104.111,93.704 103.723,96.937 102.501,99.855C101.064,103.462 99.627,107.041 97.873,110.634C97.758,111.094 97.413,111.295 97.054,111.654Z" fill="#103BE9"/>
<path d="M109.399,61.181C109.408,53.618 108.486,46.083 106.654,38.746C111.072,39.636 115.263,41.416 118.971,43.977C124.391,47.579 128.763,52.549 131.642,58.384C134.522,64.22 135.808,70.713 135.369,77.205C134.926,84.681 132.157,91.831 127.45,97.657C122.261,104.262 114.96,108.884 106.769,110.749C103.586,111.488 100.318,111.793 97.054,111.655C97.254,110.882 97.554,110.138 97.945,109.442C100.627,103.83 102.875,98.021 104.671,92.066C104.872,91.39 105.188,91.002 105.907,91.031C106.338,90.37 107.085,90.528 107.703,90.399C108.19,90.35 108.661,90.196 109.082,89.948C109.504,89.7 109.867,89.363 110.147,88.961C110.42,88.502 110.549,87.984 109.974,87.668C109.399,87.352 109.141,87.668 108.867,88.07C108.552,88.48 108.126,88.791 107.639,88.966C107.153,89.142 106.627,89.175 106.122,89.062C105.677,89.062 105.361,88.832 105.346,88.329C105.665,86.357 106.092,84.405 106.625,82.48C106.726,81.991 107.186,81.761 107.588,81.531C107.851,81.492 108.12,81.539 108.353,81.667C108.587,81.794 108.772,81.993 108.882,82.236C109.155,82.667 109.529,82.969 110.032,82.638C110.535,82.307 110.405,81.819 110.19,81.387C109.998,81.075 109.745,80.805 109.446,80.593C109.147,80.38 108.809,80.23 108.451,80.151C108.077,80.008 107.646,79.965 107.646,79.419C108.086,77.927 108.285,76.374 108.235,74.82C108.02,74.489 108.235,74.273 108.422,74.029C109.107,73.229 109.524,72.233 109.611,71.183C109.699,70.133 109.454,69.082 108.911,68.18C108.851,68.098 108.809,68.004 108.787,67.906C108.765,67.807 108.763,67.704 108.781,67.605C109.069,67.073 108.781,66.527 108.781,65.981C108.785,65.43 108.848,64.88 108.968,64.342C109.218,63.938 109.371,63.48 109.413,63.006C109.455,62.532 109.387,62.055 109.212,61.612C109.083,61.497 109.198,61.296 109.399,61.181Z" fill="#00228E"/>
<path d="M75.064,67.606C75.064,65.479 75.064,63.295 75.064,61.211C75.064,60.09 75.366,59.773 76.502,59.773C78.299,59.673 80.101,59.716 81.891,59.903C82.615,59.981 83.308,60.241 83.905,60.66C84.501,61.078 84.982,61.641 85.302,62.295C85.622,62.95 85.771,63.675 85.735,64.402C85.699,65.13 85.479,65.837 85.096,66.456C84.928,66.658 84.835,66.912 84.835,67.175C84.835,67.438 84.928,67.692 85.096,67.894C85.586,68.582 85.886,69.387 85.967,70.229C86.048,71.07 85.907,71.917 85.558,72.687C85.209,73.457 84.664,74.121 83.978,74.614C83.291,75.107 82.488,75.411 81.647,75.496C79.893,75.683 78.126,75.626 76.358,75.64C75.496,75.64 75.108,75.166 75.108,74.318L75.108,67.635L75.064,67.606Z" fill="#FDFDFD"/>
<path d="M109.4,61.181C109.586,61.627 109.802,62.072 109.946,62.532C110.019,62.696 110.059,62.873 110.064,63.053C110.068,63.233 110.036,63.411 109.971,63.579C109.905,63.746 109.807,63.898 109.682,64.027C109.557,64.156 109.407,64.258 109.241,64.329C108.336,65.22 107.517,65.062 106.913,63.912C106.799,63.638 106.631,63.389 106.42,63.181C106.208,62.972 105.958,62.808 105.682,62.697C105.407,62.586 105.112,62.53 104.815,62.534C104.518,62.538 104.225,62.601 103.953,62.719C103.741,62.764 103.547,62.87 103.394,63.023C103.241,63.176 103.135,63.37 103.09,63.582C103.055,63.796 103.087,64.017 103.182,64.212C103.277,64.408 103.431,64.569 103.622,64.674C104.04,64.948 104.495,65.161 104.973,65.306C105.979,65.651 106.985,65.996 107.962,66.413C108.245,66.501 108.497,66.668 108.688,66.895C108.879,67.121 109.001,67.398 109.04,67.692C109.864,68.76 110.24,70.107 110.09,71.447C109.94,72.788 109.275,74.018 108.235,74.878C107.291,75.337 106.265,75.605 105.217,75.666C104.169,75.728 103.119,75.582 102.127,75.237C101.427,75.055 100.802,74.657 100.34,74.1C99.879,73.543 99.604,72.855 99.555,72.133C99.454,71.314 99.857,70.897 100.647,70.696C101.437,70.494 102.084,70.696 102.242,71.558C102.302,71.97 102.514,72.346 102.835,72.611C103.156,72.877 103.565,73.014 103.981,72.995L104.973,72.995C107.201,72.995 107.517,71.96 107.172,69.776C107.071,69.201 106.482,69.014 105.993,68.799C104.556,68.224 103.119,67.893 101.811,67.189C101.09,66.872 100.491,66.329 100.105,65.642C99.718,64.955 99.566,64.161 99.67,63.38C99.676,62.605 99.924,61.852 100.38,61.225C100.837,60.599 101.478,60.131 102.214,59.888C103.408,59.385 104.723,59.24 105.998,59.469C107.274,59.699 108.455,60.294 109.4,61.181Z" fill="#FDFDFD"/>
<path d="M88.315,67.62C88.315,65.478 88.315,63.308 88.315,61.224C88.315,60.046 88.646,59.787 89.753,59.787L96.436,59.787C97.557,59.787 97.973,60.146 97.959,61.023C97.945,61.9 97.557,62.216 96.392,62.216C94.955,62.216 93.403,62.216 91.894,62.216C91.219,62.216 90.989,62.46 90.974,63.15C90.974,66.211 90.974,66.211 93.964,66.211C94.668,66.211 95.401,66.211 96.062,66.211C96.222,66.204 96.382,66.231 96.53,66.292C96.678,66.353 96.811,66.446 96.919,66.563C97.027,66.681 97.108,66.822 97.157,66.974C97.205,67.127 97.219,67.289 97.197,67.447C97.224,67.606 97.214,67.768 97.169,67.922C97.123,68.076 97.044,68.218 96.936,68.337C96.828,68.456 96.695,68.548 96.546,68.609C96.397,68.669 96.236,68.694 96.076,68.683C94.639,68.683 93.288,68.683 91.88,68.683C91.247,68.683 90.989,68.913 91.003,69.56C91.003,70.451 91.003,71.356 91.003,72.262C91.003,72.909 91.247,73.139 91.88,73.124C93.446,73.124 95.013,73.124 96.579,73.124C97.628,73.124 98.016,73.484 98.016,74.36C98.016,75.237 97.413,75.582 96.579,75.567L89.781,75.567C88.632,75.567 88.344,75.309 88.344,74.13C88.344,71.974 88.344,69.819 88.344,67.649L88.315,67.62Z" fill="#FDFDFD"/>
<path d="M85.542,85.339C85.542,83.902 85.542,82.464 85.542,81.027C85.542,79.964 85.873,79.59 86.979,79.59C88.605,79.48 90.238,79.542 91.851,79.777C92.504,79.843 93.118,80.117 93.603,80.56C94.087,81.003 94.415,81.59 94.539,82.235C94.717,82.9 94.673,83.605 94.414,84.244C94.154,84.882 93.694,85.418 93.102,85.77C92.642,86.043 92.613,86.302 92.872,86.719C93.346,87.48 93.791,88.256 94.309,89.033C94.826,89.809 94.812,90.24 94.122,90.7C93.786,90.88 93.397,90.939 93.023,90.866C92.648,90.792 92.31,90.591 92.067,90.297C91.434,89.277 90.816,88.256 90.285,87.179C89.911,86.431 89.293,86.474 88.675,86.589C88.057,86.704 88.316,87.279 88.287,87.681C88.287,88.343 88.287,89.004 88.287,89.665C88.287,90.556 87.798,90.901 86.95,90.901C86.103,90.901 85.758,90.455 85.758,89.65L85.758,85.339L85.542,85.339Z" fill="#FDFDFD"/>
<path d="M77.953,79.68C79.086,79.605 80.224,79.697 81.331,79.952C82.039,80.103 82.675,80.492 83.133,81.054C83.59,81.616 83.842,82.318 83.846,83.042C83.92,83.798 83.732,84.556 83.313,85.19C82.895,85.823 82.271,86.293 81.546,86.521C80.499,86.86 79.395,86.987 78.298,86.894C77.666,86.894 77.393,87.11 77.421,87.771C77.45,88.432 77.421,89.208 77.421,89.869C77.421,90.53 76.875,91.033 76.099,91.019C75.323,91.005 74.878,90.66 74.878,89.884C74.878,86.851 74.878,83.819 74.878,80.786C74.861,80.634 74.879,80.481 74.931,80.337C74.982,80.193 75.066,80.063 75.175,79.956C75.285,79.849 75.417,79.769 75.562,79.721C75.707,79.673 75.862,79.659 76.013,79.68L77.953,79.68Z" fill="#FDFDFD"/>
<path d="M107.646,79.491C108.292,79.616 108.92,79.824 109.514,80.109C109.886,80.294 110.209,80.563 110.458,80.895C110.708,81.227 110.877,81.612 110.951,82.02C111.006,82.168 111.028,82.326 111.016,82.484C111.003,82.641 110.956,82.794 110.878,82.931C110.8,83.068 110.692,83.186 110.563,83.277C110.435,83.368 110.287,83.43 110.132,83.458C109.457,83.63 108.781,83.644 108.465,82.84C108.336,82.523 108.292,82.193 107.89,82.121C105.95,81.992 105.102,82.725 105.131,84.593C104.933,85.943 105.097,87.322 105.605,88.588C106.274,88.797 106.991,88.797 107.66,88.588C107.838,88.551 108.003,88.467 108.139,88.346C108.276,88.225 108.378,88.071 108.436,87.899C108.487,87.713 108.58,87.542 108.707,87.399C108.835,87.255 108.994,87.143 109.171,87.071C109.349,86.998 109.542,86.968 109.733,86.982C109.925,86.996 110.11,87.054 110.276,87.151C111.124,87.496 111.109,88.2 110.851,88.905C110.636,89.453 110.272,89.93 109.799,90.281C109.326,90.631 108.764,90.842 108.178,90.888C107.42,90.998 106.657,91.066 105.892,91.089C102.328,90.256 102.098,89.982 102.098,86.246C102.098,85.182 102.098,84.104 102.098,83.041C102.017,82.251 102.251,81.461 102.749,80.842C103.247,80.223 103.968,79.826 104.757,79.735C105.709,79.554 106.677,79.472 107.646,79.491Z" fill="#FDFDFD"/>
<path d="M99.468,85.283C99.468,86.721 99.468,88.071 99.468,89.48C99.468,90.587 99.137,90.917 98.16,90.917C97.183,90.917 96.881,90.4 96.881,89.48C96.881,86.606 96.881,83.731 96.881,80.857C96.881,79.923 97.298,79.506 98.203,79.506C99.109,79.506 99.453,79.88 99.468,80.943C99.468,82.38 99.468,83.817 99.468,85.255L99.468,85.283Z" fill="#FDFDFD"/>
<path d="M113.021,85.198C113.021,83.761 113.021,82.324 113.021,80.886C113.021,79.837 113.352,79.521 114.458,79.449C116.283,79.449 118.123,79.449 119.948,79.449C120.753,79.449 121.385,79.694 121.385,80.628C121.385,81.562 120.825,81.806 120.02,81.806C118.856,81.806 117.692,81.806 116.528,81.806C115.709,81.806 115.723,82.252 115.723,82.827C115.723,83.401 115.723,83.89 116.528,83.847C117.333,83.804 118.511,83.847 119.517,83.847C120.25,83.847 120.739,84.12 120.782,84.925C120.808,85.091 120.795,85.26 120.744,85.42C120.693,85.58 120.605,85.726 120.488,85.846C120.371,85.966 120.227,86.057 120.069,86.111C119.91,86.166 119.741,86.183 119.575,86.161C118.569,86.161 117.577,86.161 116.571,86.161C115.565,86.161 115.78,86.88 115.737,87.454C115.694,88.029 115.737,88.547 116.628,88.504C117.778,88.504 118.942,88.504 120.106,88.504C120.882,88.504 121.429,88.791 121.443,89.625C121.457,90.458 120.954,90.846 120.106,90.846L114.516,90.846C113.481,90.846 113.165,90.516 113.15,89.409C113.15,87.972 113.15,86.535 113.15,85.097L113.021,85.198Z" fill="#FCFCFC"/>
<path d="M114.861,68.552C114.861,66.727 114.861,64.887 114.861,63.062C114.861,62.314 114.602,62.041 113.869,62.113C113.136,62.185 112.734,62.113 112.173,62.113C111.34,62.113 110.966,61.697 110.966,60.877C110.966,60.058 111.325,59.67 112.101,59.67L120.293,59.67C121.084,59.67 121.414,60.144 121.414,60.892C121.437,61.05 121.423,61.212 121.374,61.365C121.325,61.517 121.242,61.657 121.131,61.773C121.021,61.889 120.885,61.979 120.735,62.035C120.585,62.092 120.424,62.113 120.264,62.099C119.7,62.128 119.134,62.128 118.569,62.099C117.764,62.013 117.548,62.343 117.563,63.119C117.563,66.741 117.563,70.305 117.563,73.999C117.563,75.106 117.232,75.436 116.269,75.436C115.306,75.436 114.832,75.12 114.832,74.099C114.832,72.231 114.832,70.377 114.832,68.509L114.861,68.552Z" fill="#FDFDFD"/>
<path d="M109.04,67.691C107.957,66.923 106.745,66.353 105.462,66.01C104.706,65.753 103.967,65.45 103.248,65.104C102.971,64.991 102.741,64.787 102.595,64.526C102.449,64.265 102.395,63.962 102.444,63.667C102.432,63.343 102.532,63.024 102.725,62.763C102.918,62.502 103.194,62.314 103.507,62.23C104.442,61.929 105.447,61.929 106.381,62.23C106.583,62.263 106.771,62.354 106.921,62.491C107.072,62.629 107.179,62.808 107.229,63.006C107.373,64.328 108.164,64.544 109.27,64.299C109.112,65.449 109.515,66.599 109.04,67.691Z" fill="#103BE9"/>
<path d="M105.62,88.533C104.93,88.533 104.7,88.159 104.7,87.527C104.7,86.09 104.7,84.652 104.7,83.215C104.669,83.059 104.674,82.898 104.715,82.745C104.756,82.591 104.831,82.448 104.935,82.328C105.039,82.207 105.168,82.112 105.314,82.049C105.46,81.986 105.619,81.958 105.778,81.965C106.494,81.827 107.234,81.887 107.919,82.137C107.316,82.137 107.143,82.569 107.028,83.115C106.651,84.944 106.181,86.752 105.62,88.533Z" fill="#103BE9"/>
<path d="M77.81,70.681C77.81,68.51 77.81,68.51 80.009,68.496L80.799,68.496C82.394,68.496 83.084,69.114 83.156,70.465C83.221,70.78 83.214,71.105 83.136,71.417C83.058,71.729 82.91,72.019 82.704,72.267C82.499,72.514 82.24,72.711 81.947,72.845C81.655,72.978 81.336,73.044 81.015,73.038C80.224,73.124 79.419,73.038 78.629,73.038C77.838,73.038 77.781,72.808 77.81,72.219C77.838,71.629 77.81,71.212 77.81,70.681Z" fill="#103BE9"/>
<path d="M79.735,66.024C77.551,66.024 77.752,66.412 77.738,64.026C77.738,61.985 77.608,62.287 79.491,62.258C80.05,62.208 80.613,62.208 81.173,62.258C82.409,62.416 82.897,62.977 82.883,64.141C82.869,65.305 82.466,65.808 81.129,65.937C80.67,66.052 80.167,66.024 79.735,66.024Z" fill="#103BE9"/>
<path d="M89.594,84.275C88.243,84.275 87.654,83.384 88.157,82.249C88.193,82.158 88.252,82.078 88.329,82.019C89.492,81.774 90.703,81.947 91.75,82.507C91.831,82.626 91.885,82.761 91.908,82.903C91.93,83.046 91.92,83.191 91.879,83.329C91.837,83.467 91.765,83.594 91.669,83.7C91.572,83.807 91.452,83.89 91.319,83.944C90.773,84.172 90.186,84.284 89.594,84.275Z" fill="#103BE9"/>
<path d="M77.408,83.329C77.408,81.892 77.408,81.892 78.701,81.978C79.303,81.968 79.903,82.046 80.483,82.208C80.712,82.264 80.915,82.398 81.056,82.587C81.198,82.775 81.27,83.007 81.259,83.243C81.287,83.494 81.222,83.746 81.077,83.953C80.931,84.159 80.715,84.306 80.469,84.364C79.667,84.598 78.828,84.676 77.997,84.594C77.063,84.507 77.566,83.731 77.408,83.329Z" fill="#103BE9"/>
</svg>
