<svg width="200" height="200" viewBox="0 0 200 200" fill="none" xmlns="http://www.w3.org/2000/svg" xmlns:xlink="http://www.w3.org/1999/xlink">
<path d="M164.409,125.569C164.409,135.773 164.481,145.991 164.409,156.195C164.409,162.39 158.416,168.656 152.279,168.685C135.665,168.771 119.051,168.685 102.452,168.685C101.014,167.075 101.704,165.235 101.862,163.453C102.155,163.117 102.525,162.857 102.941,162.697C103.357,162.537 103.806,162.48 104.248,162.534C105.355,162.462 106.476,162.534 107.582,162.534C109.129,162.541 110.64,162.066 111.905,161.174C113.17,160.283 114.125,159.02 114.639,157.561C114.93,156.66 115.285,155.781 115.702,154.931C117.715,154.083 119.885,154.385 121.983,154.169C128.953,153.45 135.938,152.904 142.909,152.214L143.57,152.214C147.249,151.898 147.421,151.711 147.421,148.075L147.421,133.1C147.421,132.582 147.421,132.079 147.421,131.576C147.421,131.073 147.292,130.412 146.66,130.139C146.359,130.051 146.037,130.063 145.744,130.175C145.45,130.286 145.202,130.491 145.036,130.757C144.132,131.78 143.667,133.117 143.742,134.479C143.742,137.627 143.742,140.76 143.742,143.907C143.742,147.313 142.966,147.931 139.675,146.782C127.789,142.801 120.546,134.709 118.117,122.349C117.693,119.119 117.592,115.855 117.815,112.605C117.762,112.3 117.802,111.986 117.93,111.704C118.058,111.422 118.269,111.185 118.534,111.025C119.755,110.823 119.827,111.901 120.172,112.577C122.112,116.328 126.999,118.325 132.374,115.034C130.305,114.413 128.332,113.508 126.51,112.347C125.893,111.955 125.341,111.47 124.872,110.909C123.995,109.846 124.211,109.113 125.519,108.653C126.826,108.193 128.034,108.164 129.27,107.762C132.646,106.735 135.646,104.735 137.893,102.013C138.41,101.367 138.77,100.36 139.905,100.447C141.112,100.907 140.854,101.985 140.897,102.89C141.026,105.764 141.083,105.894 143.987,105.98C148.774,106.228 153.36,107.99 157.082,111.012C160.804,114.034 163.47,118.16 164.697,122.795C164.892,123.727 164.792,124.697 164.409,125.569Z" fill="#103BE9"/>
<path d="M86.397,168.698C71.134,168.698 55.871,168.698 40.608,168.698C38.153,168.604 35.807,167.66 33.972,166.026C32.137,164.393 30.926,162.172 30.548,159.745C29.844,154.298 29.37,148.836 28.823,143.375C28.306,138.244 27.961,133.099 27.271,127.997C26.237,120.452 31.008,114.789 38.582,114.832C39.156,115.173 39.582,115.717 39.775,116.356C41.671,124.158 45.513,131.352 50.942,137.267C51.47,137.842 51.889,138.51 52.178,139.236C52.192,139.394 52.192,139.552 52.178,139.71C52.178,140.271 52.178,140.831 52.178,141.392C52.307,145.1 55.052,147.011 58.602,145.919C59.134,145.761 59.623,145.473 60.154,145.315C60.321,145.293 60.49,145.293 60.657,145.315C62.041,145.785 63.379,146.381 64.653,147.097C70.789,150.054 77.503,151.615 84.314,151.668C85.878,151.791 87.442,151.419 88.783,150.604C89.732,150.762 89.703,151.538 89.876,152.242C89.915,153.454 90.079,154.658 90.364,155.835C90.508,156.583 90.249,157.273 90.364,158.078C90.67,159.544 90.848,161.035 90.896,162.533C90.867,166.341 89.919,167.663 86.397,168.698Z" fill="#006F91"/>
<path d="M86.312,69.026C86.351,71.804 85.301,74.487 83.385,76.499C81.469,78.511 78.842,79.693 76.065,79.791C72.889,79.862 72.889,79.862 72.889,83.024L72.889,98.201C72.041,98.201 71.753,97.583 71.351,97.181C65.947,91.791 60.529,86.402 55.168,80.969C54.795,80.561 54.336,80.24 53.824,80.031C53.312,79.823 52.76,79.731 52.207,79.762C47.436,79.762 42.664,79.762 37.836,79.762C36.415,79.783 35.005,79.52 33.688,78.988C32.371,78.456 31.174,77.666 30.167,76.664C29.16,75.662 28.363,74.469 27.824,73.155C27.285,71.841 27.014,70.432 27.028,69.012C27.028,60.034 27.028,51.051 27.028,42.064C27.005,40.642 27.267,39.23 27.799,37.911C28.331,36.592 29.123,35.393 30.126,34.386C31.13,33.378 32.326,32.582 33.642,32.045C34.959,31.507 36.37,31.239 37.792,31.257C42.276,31.257 46.775,31.257 51.259,31.257C52.164,31.846 52.064,32.78 52.092,33.671C52.222,36.646 51.992,39.607 52.337,42.582C53.028,48.591 55.564,54.239 59.595,58.75L60.04,59.253C61.003,60.475 60.859,61.021 59.451,61.639C59.189,61.736 58.935,61.851 58.689,61.984C58.375,62.15 58.119,62.408 57.957,62.724C57.794,63.04 57.732,63.398 57.779,63.751C57.826,64.103 57.979,64.432 58.219,64.695C58.459,64.957 58.774,65.139 59.12,65.217C59.825,65.417 60.563,65.476 61.291,65.39C63.604,65.203 65.918,65.907 68.218,65.275L69.368,65.519C72.702,67.747 76.554,67.646 80.348,68.063C81.67,68.221 83.007,68.063 84.343,68.063C84.728,68.031 85.114,68.104 85.46,68.273C85.807,68.443 86.101,68.703 86.312,69.026Z" fill="#006F91"/>
<path d="M51.675,139.379C47.047,134.633 43.382,129.035 40.881,122.895C39.866,120.28 39.077,117.582 38.524,114.832L74.641,114.832C81.54,114.832 85.952,119.144 86.383,125.999C86.53,129.179 86.87,132.346 87.403,135.484C88.467,136.189 88.309,137.382 88.424,138.359C88.812,141.751 89.128,145.157 89.444,148.549C89.531,149.368 89.631,150.273 88.754,150.819C88.754,151.84 88.481,152.501 87.245,152.544C77.998,153.014 68.815,150.782 60.815,146.12C60.68,146.022 60.55,145.917 60.427,145.804C59.967,145.085 60.427,144.524 60.715,143.921C61.2,142.935 61.322,141.809 61.059,140.742C60.796,139.674 60.165,138.734 59.277,138.086C58.378,137.45 57.276,137.167 56.181,137.291C55.086,137.416 54.075,137.939 53.342,138.761C52.882,139.236 52.48,139.839 51.675,139.379Z" fill="#00AEEF"/>
<path d="M119.022,111.137C118.404,114.733 118.404,118.407 119.022,122.002C121.149,134.032 128.162,141.922 139.66,145.903C140.134,146.061 140.637,146.147 141.097,146.291C142.347,146.665 142.879,146.162 142.865,144.854C142.865,141.203 142.865,137.553 142.865,133.902C142.802,132.77 143.103,131.648 143.724,130.699C144.344,129.75 145.252,129.025 146.314,128.628C147.751,128.111 148.225,128.34 148.225,129.849C148.225,136.863 148.225,143.877 148.225,150.89C148.225,152.169 147.564,152.572 146.487,152.672L137.288,153.52C131.655,154.037 126.021,154.569 120.387,155.058C118.878,155.187 117.369,155.173 115.86,155.23C114.236,156.581 112.411,155.949 110.643,155.805C109.752,155.245 109.752,154.368 109.666,153.448C109.285,148.812 107.623,144.374 104.865,140.628C100.942,134.477 100.654,127.952 102.853,121.183C103.169,120.177 104.089,119.502 104.434,118.496C104.722,118.007 104.434,117.748 104.061,117.504C107.294,113.365 110.787,109.527 115.817,107.444C116.27,107.164 116.793,107.016 117.326,107.016C117.859,107.016 118.381,107.164 118.835,107.444C119.467,108.708 120.229,109.858 119.022,111.137Z" fill="#103BE9"/>
<path d="M86.311,69.029C82.417,69.029 78.493,69.259 74.641,68.324C72.709,68.008 70.849,67.346 69.151,66.37C69.41,65.378 70.258,65.565 70.948,65.522C72.385,65.421 73.822,65.522 75.259,65.421C76.294,65.292 77.113,64.789 77.099,63.61C77.106,63.368 77.062,63.126 76.969,62.902C76.876,62.678 76.737,62.475 76.56,62.308C76.384,62.142 76.174,62.014 75.945,61.934C75.716,61.853 75.473,61.822 75.231,61.843C71.264,61.67 67.312,61.843 63.057,61.843C64.306,63.019 65.702,64.029 67.211,64.847C67.743,65.206 68.49,65.464 68.131,66.37L59.896,66.37C57.855,66.37 56.806,65.551 56.676,63.955C56.547,62.36 57.366,61.311 59.464,60.937C59.676,60.865 59.879,60.769 60.068,60.65C58.191,58.557 56.552,56.263 55.182,53.809C52.791,49.664 51.485,44.983 51.387,40.199C51.301,37.224 51.387,34.249 51.387,31.288C59.637,31.288 67.872,31.159 76.122,31.288C78.828,31.343 81.409,32.444 83.322,34.36C85.235,36.275 86.332,38.857 86.383,41.564C86.441,50.748 86.326,59.888 86.311,69.029Z" fill="#00AEEF"/>
<path d="M118.418,107.746C113.502,109.064 109.235,112.13 106.418,116.369C105.843,117.174 105.283,117.806 104.248,117.533C102.969,117.318 101.69,117.16 100.439,116.872C99.077,116.611 97.804,116.007 96.74,115.118C95.676,114.229 94.855,113.084 94.355,111.791C93.854,110.497 93.691,109.098 93.881,107.724C94.07,106.35 94.606,105.047 95.438,103.937C96.021,103.502 96.653,103.135 97.32,102.845C97.905,102.637 98.437,102.306 98.882,101.873C99.326,101.44 99.672,100.917 99.896,100.339C100.12,99.76 100.216,99.14 100.178,98.521C100.14,97.902 99.97,97.298 99.677,96.751C99.361,95.975 98.959,95.228 98.585,94.481C97.829,93.033 97.466,91.411 97.534,89.779C97.603,88.147 98.099,86.562 98.973,85.182C99.936,83.529 100.899,81.876 102.006,80.324C102.861,79.11 103.435,77.719 103.683,76.255C103.932,74.79 103.85,73.288 103.443,71.859C102.532,68.582 102.048,65.2 102.006,61.799C102.178,55.878 107.036,49.41 112.742,47.973C113.676,47.743 114.078,46.794 115.041,46.766C115.778,46.652 116.531,46.716 117.238,46.951C117.945,47.185 118.586,47.585 119.108,48.117C119.209,48.378 119.249,48.658 119.227,48.936C119.204,49.215 119.12,49.485 118.979,49.726C117.158,52.304 116.43,55.496 116.953,58.608C116.953,59.427 116.277,59.858 115.817,60.405C111.166,65.383 108.63,71.974 108.746,78.786C108.832,82.035 108.387,85.297 109.034,88.516C109.473,90.984 110.429,93.331 111.838,95.404C113.247,97.477 115.078,99.229 117.211,100.546C118.03,101.049 119.137,101.336 119.252,102.586C119.477,103.736 119.545,104.911 119.453,106.079C119.41,106.855 119.223,107.516 118.418,107.746Z" fill="#00228E"/>
<path d="M164.408,125.567C163.803,121.849 162.325,118.328 160.097,115.291C158.134,112.632 155.578,110.467 152.631,108.97C149.684,107.473 146.429,106.685 143.123,106.668C142.563,106.668 142.002,106.668 141.442,106.668C140.421,106.668 140.12,106.309 140.163,105.231C140.425,103.678 140.331,102.086 139.89,100.574C139.329,100.086 139.717,99.31 139.358,98.763C140.019,96.953 141.542,95.717 142.505,94.078C143.181,93.127 143.619,92.028 143.784,90.873C143.888,90.743 143.97,90.598 144.029,90.442C144.244,88.847 145.207,87.395 144.949,85.699C144.981,85.447 145.065,85.205 145.195,84.987C145.325,84.769 145.499,84.58 145.705,84.432C145.911,84.283 146.146,84.179 146.394,84.125C146.642,84.071 146.898,84.069 147.147,84.118C148.398,84.313 149.678,84.157 150.845,83.667C152.013,83.177 153.021,82.373 153.759,81.345C154.233,80.784 154.736,80.267 155.196,79.721C155.348,79.639 155.513,79.585 155.684,79.563C155.972,79.563 156.317,79.562 156.489,79.735C158.358,82.106 161.189,83.357 163.215,85.555C165.063,87.397 166.323,89.747 166.835,92.305C167.346,94.864 167.087,97.516 166.09,99.928C165.831,100.675 165.457,101.365 165.213,102.112C164.782,103.158 164.757,104.326 165.143,105.39C165.528,106.453 166.296,107.334 167.297,107.861C168.059,108.331 168.793,108.844 169.496,109.399C170.796,112.246 170.996,115.474 170.057,118.46C169.117,121.446 167.105,123.978 164.408,125.567Z" fill="#00228E"/>
<path d="M155.454,80.151C154.87,81.74 153.773,83.09 152.337,83.988C150.9,84.886 149.206,85.28 147.521,85.109C146.716,85.109 146.084,85.109 145.638,85.813C145.063,87.811 143.382,88.932 142.031,90.312C139.794,92.257 137.236,93.798 134.471,94.868C132.759,95.329 131.082,95.915 129.456,96.621C128.838,96.621 128.234,96.736 127.616,96.707C126.803,96.724 126.013,96.44 125.397,95.909C124.782,95.379 124.384,94.639 124.282,93.833C124.153,93.38 124.125,92.906 124.2,92.441C124.274,91.977 124.448,91.534 124.711,91.145C124.974,90.755 125.318,90.427 125.721,90.183C126.123,89.94 126.574,89.788 127.041,89.737C130.966,88.971 134.642,87.254 137.748,84.735C138.592,84.001 139.354,83.177 140.019,82.278C140.237,82.054 140.384,81.772 140.443,81.465C140.502,81.159 140.469,80.841 140.349,80.553C139.603,79.003 139.386,77.251 139.731,75.566C139.846,75.135 139.458,74.718 139.415,74.273C139.446,73.934 139.518,73.601 139.631,73.281C139.991,71.533 140.765,69.897 141.887,68.509C142.138,68.139 142.246,67.689 142.189,67.245C140.867,58.622 136.44,52.427 128.22,49.208C125.961,48.168 123.391,48.029 121.034,48.82C120.2,49.122 119.395,49.294 118.748,48.446C117.616,47.777 116.327,47.42 115.012,47.412C114.121,47.57 113.143,48.576 112.425,47.138C117.412,42.281 123.175,40.786 129.844,43.042C134.227,43.474 137.59,45.917 140.651,48.791C141.212,49.337 141.815,49.812 142.376,50.358C142.765,51.318 143.32,52.204 144.014,52.974C146.923,56.591 148.604,61.041 148.815,65.678C148.671,65.98 148.585,66.368 148.34,66.54C145.897,68.38 146.285,70.852 146.903,73.252C147.231,74.474 147.865,75.591 148.745,76.499C149.625,77.407 150.723,78.075 151.933,78.441C152.728,78.697 153.547,78.875 154.377,78.972C154.995,79.13 155.641,79.26 155.454,80.151Z" fill="#006F91"/>
<path d="M141.586,50.831C138.255,47.442 134.236,44.805 129.801,43.099C138.984,42.194 146.199,46.405 152.623,52.269C154.764,54.231 156.452,56.636 157.568,59.316C158.685,61.997 159.205,64.889 159.091,67.79C159.091,71.34 159.364,74.718 161.534,77.721C162.668,79.185 164.05,80.44 165.616,81.429C168.374,83.128 170.378,85.818 171.217,88.947C172.056,92.076 171.666,95.408 170.128,98.259C169.203,99.968 168.666,101.86 168.557,103.8C168.448,105.741 168.768,107.681 169.496,109.483C164.696,108.736 162.842,105.43 164.739,100.975C167.743,93.89 166.176,88.256 159.824,83.858C158.317,82.798 156.955,81.547 155.771,80.136C155.556,79.915 155.397,79.646 155.31,79.35C155.222,79.055 155.208,78.742 155.268,78.44C155.652,76.805 155.651,75.104 155.264,73.47C154.878,71.836 154.116,70.315 153.04,69.026C152.567,64.343 150.631,59.928 147.507,56.408C145.636,54.443 143.659,52.582 141.586,50.831Z" fill="#103BE9"/>
<path d="M104.564,118.48C104.823,118.94 104.564,119.343 104.42,119.76C102.961,122.946 102.287,126.436 102.455,129.937C102.623,133.438 103.627,136.847 105.383,139.88C105.449,140.03 105.507,140.184 105.556,140.34C105.591,140.703 105.532,141.068 105.383,141.401C105.234,141.734 105.002,142.022 104.708,142.237C100.291,146.664 95.874,151.076 91.457,155.474C90.982,155.948 90.494,156.451 89.718,156.207C88.985,154.482 89.33,152.571 88.755,150.817C88.352,146.506 87.936,142.194 87.548,137.969C87.548,137.135 87.461,136.302 87.404,135.468L101.776,121.197C102.71,120.306 103.644,119.429 104.564,118.48Z" fill="#00228E"/>
<path d="M112.382,47.197C113.216,47.467 114.097,47.559 114.969,47.47C114.538,48.16 113.747,48.218 113.086,48.491C107.711,50.733 104.075,54.527 103.026,60.348C102.574,63.87 102.933,67.448 104.075,70.81C104.673,72.596 104.823,74.5 104.512,76.357C104.201,78.214 103.439,79.966 102.293,81.46C101.35,82.78 100.491,84.157 99.72,85.585C98.904,86.836 98.434,88.28 98.355,89.772C98.277,91.263 98.594,92.749 99.275,94.078C99.634,94.84 100.036,95.516 100.381,96.349C102.25,100.373 99.864,104.024 95.409,103.995C95.952,102.631 96.164,101.158 96.026,99.696C95.889,98.234 95.406,96.826 94.618,95.587C93.45,93.87 92.872,91.819 92.973,89.745C93.074,87.67 93.849,85.685 95.179,84.09C96.07,82.883 96.731,81.489 97.608,80.253C98.389,79.118 98.921,77.831 99.169,76.476C99.417,75.121 99.375,73.729 99.045,72.391C98.264,69.464 97.754,66.472 97.521,63.452C97.422,59.541 98.776,55.732 101.321,52.761C103.867,49.791 107.424,47.87 111.304,47.37C111.62,47.355 111.994,47.269 112.382,47.197Z" fill="#103BE9"/>
<path d="M86.398,168.697C89.905,166.872 90.58,163.883 89.905,160.304C89.801,159.527 89.748,158.745 89.747,157.961C89.839,157.725 90.004,157.525 90.219,157.39C90.434,157.256 90.687,157.194 90.94,157.214C95.389,156.963 99.85,157.02 104.291,157.387C104.78,157.66 105.096,158.148 104.852,158.623C104.047,160.175 103.817,162.014 102.538,163.322L102.538,168.683L86.398,168.697Z" fill="#006F91"/>
<path d="M139.976,98.993C140.141,99.243 140.229,99.535 140.229,99.834C140.229,100.133 140.141,100.426 139.976,100.675C138.615,102.903 136.79,104.811 134.625,106.27C132.46,107.728 130.005,108.702 127.429,109.126C126.696,109.269 125.489,109.126 125.374,109.801C125.259,110.477 126.322,111.052 126.998,111.526C129.423,113.092 132.134,114.162 134.974,114.673C131.683,117.002 128.536,118.094 125.043,117.26C123.54,116.978 122.16,116.238 121.093,115.143C120.025,114.047 119.322,112.648 119.079,111.138C118.981,109.987 118.759,108.85 118.418,107.746C119.079,105.978 118.619,104.153 118.763,102.357C119.323,101.71 119.999,101.969 120.617,102.184C123.542,103.223 126.683,103.505 129.747,103.002C132.81,102.5 135.696,101.229 138.136,99.31C138.539,98.979 139.171,98.49 139.976,98.993Z" fill="#FFFFFF"/>
<path d="M102.609,163.322C102.649,161.365 103.354,159.48 104.607,157.976C105.024,155.533 108.775,153.851 110.701,155.245L116.061,155.245C116.05,156.315 115.828,157.372 115.408,158.355C114.988,159.339 114.378,160.23 113.613,160.977C112.848,161.725 111.943,162.314 110.95,162.712C109.957,163.109 108.896,163.307 107.826,163.294C106.016,163.351 104.277,163.322 102.609,163.322Z" fill="#FFFFFF"/>
<path d="M51.675,139.379C51.924,139.154 52.159,138.914 52.379,138.661C52.806,138.087 53.344,137.604 53.96,137.241C54.576,136.878 55.259,136.642 55.968,136.547C56.677,136.452 57.397,136.5 58.088,136.688C58.778,136.876 59.423,137.2 59.986,137.641C60.549,138.083 61.018,138.632 61.366,139.257C61.713,139.882 61.932,140.571 62.009,141.282C62.086,141.993 62.021,142.712 61.816,143.397C61.611,144.083 61.27,144.72 60.815,145.272L60.427,145.818L60.097,145.818C59.61,145.879 59.115,145.815 58.66,145.631C55.918,144.235 53.537,142.224 51.704,139.753L51.675,139.379Z" fill="#FFFFFF"/>
<path d="M51.661,139.752L60.097,145.817C59.261,146.568 58.204,147.028 57.084,147.126C55.964,147.225 54.843,146.957 53.889,146.363C51.723,145.022 50.981,142.818 51.661,139.752Z" fill="#FFFFFF"/>
<path d="M48.369,56.812C48.699,58.744 48.772,60.711 48.585,62.661C48.585,63.495 47.924,63.61 47.263,63.61L39.186,63.61C38.409,63.61 37.878,63.337 37.878,62.46C37.878,60.721 37.763,58.968 37.878,57.243C37.979,56.459 38.275,55.712 38.74,55.072C39.204,54.431 39.822,53.918 40.537,53.578C40.808,53.619 41.064,53.729 41.281,53.897C41.497,54.066 41.667,54.288 41.773,54.541C43.497,57.416 44.647,57.775 47.809,56.855C47.992,56.813 48.181,56.799 48.369,56.812Z" fill="#FFFFFF"/>
<path d="M68.188,66.296C65.631,64.969 63.258,63.312 61.132,61.367C61.577,60.777 62.066,60.935 62.483,60.935L74.929,60.935C77.085,60.935 78.263,61.941 78.249,63.652C78.234,65.362 77.042,66.282 74.871,66.31L69.123,66.31L68.188,66.296Z" fill="#FFFFFF"/>
<path d="M40.81,42.713C41.814,42.159 42.97,41.946 44.106,42.107C45.241,42.268 46.294,42.793 47.105,43.604C47.916,44.415 48.441,45.467 48.602,46.602C48.762,47.738 48.55,48.895 47.995,49.899C45.797,52.515 41.154,50.014 40.12,47.025C39.752,46.328 39.621,45.531 39.745,44.754C39.87,43.976 40.243,43.26 40.81,42.713Z" fill="#FFFFFF"/>
<path d="M40.81,42.713C39.746,47.872 42.779,50.905 47.996,49.899C47.507,51.638 45.739,52.055 44.676,53.19C44.504,53.406 44.285,53.58 44.036,53.699C43.787,53.819 43.515,53.881 43.239,53.881C42.963,53.881 42.69,53.819 42.441,53.699C42.193,53.58 41.974,53.406 41.802,53.19C41.485,52.615 40.853,52.471 40.364,52.126C39.517,51.643 38.821,50.935 38.351,50.08C37.881,49.225 37.657,48.257 37.703,47.283C37.749,46.309 38.064,45.366 38.612,44.56C39.16,43.753 39.921,43.114 40.81,42.713Z" fill="#FFFFFF"/>
<path d="M41.816,53.118C42.762,52.901 43.745,52.901 44.69,53.118C45.595,53.315 46.425,53.768 47.08,54.422C47.735,55.077 48.187,55.907 48.384,56.812C48.183,57.933 47.306,58.12 46.401,58.249C43.627,58.508 41.902,57.114 40.652,53.621L41.816,53.118Z" fill="#FFFFFF"/>
<path d="M67.47,55.533C64.94,55.533 62.425,55.533 59.896,55.533C57.884,55.533 56.734,54.47 56.748,52.817C56.763,51.164 57.927,50.173 59.967,50.158C65.007,50.158 70.052,50.158 75.101,50.158C77.113,50.158 78.263,51.207 78.249,52.86C78.234,54.513 77.07,55.49 75.029,55.519C72.514,55.562 69.985,55.533 67.47,55.533Z" fill="#FFFFFF"/>
<path d="M71.465,44.738C70.172,44.738 68.878,44.738 67.599,44.738C67.232,44.754 66.866,44.694 66.524,44.561C66.182,44.428 65.871,44.225 65.611,43.966C65.352,43.706 65.149,43.395 65.016,43.053C64.883,42.711 64.823,42.345 64.84,41.978C64.841,41.626 64.914,41.278 65.055,40.955C65.195,40.632 65.401,40.341 65.658,40.1C65.915,39.859 66.218,39.673 66.549,39.554C66.881,39.435 67.233,39.384 67.585,39.406C70.215,39.406 72.859,39.406 75.489,39.406C75.856,39.379 76.224,39.428 76.571,39.549C76.917,39.671 77.235,39.863 77.505,40.113C77.774,40.364 77.989,40.667 78.136,41.004C78.282,41.34 78.358,41.704 78.358,42.072C78.358,42.439 78.282,42.803 78.136,43.14C77.989,43.477 77.774,43.78 77.505,44.03C77.235,44.28 76.917,44.472 76.571,44.594C76.224,44.716 75.856,44.764 75.489,44.738C74.153,44.795 72.802,44.738 71.465,44.738Z" fill="#FFFFFF"/>
<path d="M139.976,98.995C138.038,100.756 135.77,102.115 133.303,102.993C130.836,103.871 128.219,104.251 125.604,104.112C123.214,103.914 120.871,103.337 118.663,102.401C112.914,99.398 108.861,94.827 108.171,88.317C107.165,78.76 107.18,69.217 113.992,61.255C114.754,60.364 115.558,59.501 116.334,58.625C116.996,57.403 117.772,57.863 118.49,58.538C119.999,60.039 121.683,61.351 123.506,62.447C127.533,64.927 132.172,66.231 136.901,66.213C138.42,66.153 139.934,66.438 141.327,67.046C142.161,67.434 142.865,67.952 142.578,69.059C141.503,70.363 140.719,71.882 140.278,73.514C132.593,74.154 124.965,71.737 119.051,66.788C118.594,66.431 118.114,66.104 117.614,65.81C117.365,65.616 117.054,65.519 116.739,65.537C116.424,65.556 116.127,65.689 115.903,65.911C115.109,66.46 114.53,67.268 114.265,68.196C113.848,70.771 113.848,73.397 114.265,75.972C114.205,76.792 114.239,77.616 114.366,78.429C114.105,79.982 114.346,81.578 115.055,82.985C115.834,85.334 117.097,87.493 118.763,89.323C120.429,91.153 122.461,92.612 124.728,93.606C125.834,95.963 126.165,96.121 129.456,95.719C134,95.617 138.434,94.307 142.305,91.924C142.951,91.479 143.598,90.746 144.547,91.292C143.66,94.188 142.093,96.829 139.976,98.995Z" fill="#FFFFFF"/>
<path d="M142.62,69.013C141.269,67.102 139.157,67.03 137.188,67.044C131.081,67.108 125.137,65.079 120.344,61.295C119.522,60.617 118.74,59.893 118.001,59.125C117.527,58.665 117.067,58.277 116.377,58.651C115.227,54.857 116.679,51.652 118.705,48.591C119.04,48.597 119.373,48.558 119.697,48.476C125.705,46.119 130.548,48.806 134.989,52.313C137.2,54.068 139.036,56.25 140.386,58.729C141.737,61.207 142.575,63.933 142.85,66.742C143.063,67.501 142.981,68.312 142.62,69.013Z" fill="#00228E"/>
<path d="M153.73,68.684C154.96,70.063 155.811,71.737 156.202,73.543C156.592,75.349 156.508,77.225 155.957,78.989C155.865,79.367 155.802,79.751 155.77,80.138L155.454,80.138C154.905,79.868 154.298,79.735 153.687,79.751C152.375,79.598 151.112,79.166 149.982,78.483C148.853,77.801 147.883,76.883 147.139,75.793C146.395,74.702 145.894,73.465 145.669,72.164C145.445,70.863 145.503,69.529 145.839,68.253C146.184,66.931 147.277,66.557 148.024,65.68C150.927,65.422 152.81,66.298 153.73,68.684Z" fill="#00AEEF"/>
<path d="M144.618,91.246C140.941,94.43 136.2,96.113 131.339,95.96C130.721,96.009 130.1,95.911 129.528,95.673C133.978,94.593 138.123,92.508 141.643,89.579C143.756,88.932 144.518,89.263 144.676,90.916C144.664,91.027 144.644,91.137 144.618,91.246Z" fill="#FFFFFF"/>
<path d="M144.676,90.916C143.859,90.121 142.782,89.646 141.644,89.58L145.639,85.814C145.74,87.568 145.409,89.32 144.676,90.916Z" fill="#FFFFFF"/>
<path d="M113.575,76.056C113.106,73.406 113.067,70.698 113.46,68.036C113.647,66.383 115.227,65.262 116.449,64.127C117.024,63.595 117.455,64.256 117.886,64.616C121.821,68.419 126.764,71.012 132.129,72.089C134.159,72.494 136.224,72.706 138.294,72.721C139.071,72.721 139.904,72.606 140.364,73.469C140.364,73.785 140.364,74.087 140.249,74.403C139.214,77.378 137.921,80.31 138.611,83.615C138.711,84.171 138.604,84.744 138.309,85.225C135.387,87.96 131.731,89.783 127.789,90.471C127.009,90.532 126.282,90.883 125.749,91.456C125.217,92.028 124.919,92.779 124.914,93.561C124.67,94.107 124.282,94.121 123.808,93.906C120.925,92.504 118.465,90.364 116.678,87.703C114.891,85.043 113.84,81.956 113.632,78.758C113.632,78.657 113.718,78.556 113.762,78.456C114.192,78.352 114.644,78.403 115.041,78.599C115.457,78.837 115.949,78.905 116.415,78.79C116.88,78.675 117.283,78.386 117.541,77.981C117.755,77.685 117.856,77.322 117.824,76.958C117.792,76.594 117.631,76.253 117.369,75.998C117.045,75.648 116.602,75.431 116.127,75.388C115.652,75.346 115.177,75.481 114.796,75.768C114.431,75.993 114.002,76.094 113.575,76.056Z" fill="#FFFFFF"/>
<path d="M153.73,68.682C152.555,67.507 151.052,66.716 149.418,66.411C148.856,66.34 148.342,66.057 147.981,65.621C147.477,60.83 145.645,56.276 142.692,52.47C142.304,51.939 141.931,51.378 141.542,50.832C144.307,52.182 146.75,54.107 148.708,56.48C150.667,58.852 152.095,61.616 152.896,64.586C153.327,65.908 153.471,67.317 153.73,68.682Z" fill="#00228E"/>
<path d="M138.266,85.226C136.958,81.274 137.289,77.609 140.206,74.404C139.99,76.69 140.45,78.989 141.528,81.016C141.931,81.619 141.528,82.065 141.169,82.453L138.266,85.226Z" fill="#FFFFFF"/>
<path d="M113.575,76.056C114.696,74.345 116.291,73.943 117.657,75.006C117.943,75.233 118.179,75.516 118.352,75.837C118.525,76.158 118.63,76.512 118.661,76.875C118.692,77.239 118.648,77.605 118.532,77.951C118.416,78.297 118.231,78.615 117.987,78.887C116.809,80.195 115.113,80.022 113.676,78.456C113.363,77.692 113.327,76.843 113.575,76.056Z" fill="#00228E"/>
<path d="M132.144,77.032C132.158,77.561 132.015,78.082 131.732,78.53C131.45,78.978 131.041,79.331 130.557,79.546C130.073,79.761 129.537,79.827 129.015,79.737C128.494,79.647 128.011,79.404 127.628,79.039C127.244,78.674 126.978,78.203 126.863,77.687C126.747,77.17 126.788,76.631 126.979,76.138C127.17,75.644 127.503,75.218 127.937,74.915C128.37,74.611 128.884,74.442 129.413,74.431C129.763,74.421 130.112,74.481 130.439,74.607C130.767,74.732 131.066,74.922 131.319,75.163C131.573,75.405 131.777,75.695 131.918,76.015C132.06,76.336 132.136,76.682 132.144,77.032Z" fill="#00228E"/>
<path d="M66.593,66.339C63.877,66.339 61.146,66.339 58.415,66.339C56.245,66.339 54.995,65.29 55.023,63.623C55.052,61.956 56.288,60.993 58.487,60.979C63.934,60.979 69.395,60.979 74.842,60.979C77.027,60.979 78.263,62.042 78.249,63.695C78.234,65.348 76.984,66.325 74.77,66.339C72.054,66.354 69.324,66.339 66.593,66.339Z" fill="#FFFFFF"/>
<path d="M134.917,114.674C134.917,114.674 139.588,109.745 140.321,106.281L134.917,114.674Z" fill="#FFFFFF"/>
<path d="M140.321,106.282C140.569,103.502 140.521,100.702 140.178,97.932C139.718,95.058 131.698,106.555 131.698,106.555L124.986,107.087L122.73,108.424L129.025,115.61L132.891,115.337C132.891,115.337 133.48,115.94 134.946,114.704Z" fill="#FFFFFF"/>
<path d="M118.361,155.215L118.361,168.696L102.537,168.696L102.537,162.416L115.788,154.885L118.361,155.215Z" fill="#FFFFFF"/>
</svg>
