<svg width="94" height="30" viewBox="0 0 94 30" fill="none" xmlns="http://www.w3.org/2000/svg" xmlns:xlink="http://www.w3.org/1999/xlink">
<path d="M1.692,23.88L84.06,21.006C84.879,20.223 85.649,19.39 86.365,18.512L92.734,10.752C92.823,10.644 92.879,10.512 92.895,10.372C92.911,10.232 92.885,10.091 92.822,9.965C92.759,9.84 92.661,9.735 92.539,9.664C92.418,9.593 92.279,9.559 92.138,9.566L60.394,11.049C55.97,5.109 50.288,-0.5 41.44,-0.5L18.791,-0.5L18.784,-0.472L12.892,-0.472L13.577,0.915C13.966,1.706 14.57,2.371 15.319,2.837C16.067,3.303 16.932,3.55 17.813,3.549L14.68,12.456C14.226,13.744 13.408,14.872 12.325,15.704C11.242,16.535 9.941,17.034 8.58,17.14L1.905,17.661C1.613,17.684 1.33,17.775 1.079,17.926C0.828,18.078 0.615,18.286 0.459,18.534C0.302,18.781 0.205,19.062 0.176,19.354C0.147,19.646 0.187,19.94 0.291,20.214L1.692,23.88ZM41.44,1.618C49.052,1.618 54.023,6.297 57.851,11.207L41.235,12.026L39.467,1.621L41.44,1.618ZM27.135,1.618L37.946,1.618L39.726,12.098L23.16,12.918L27.135,1.618Z" fill="#103BE9"/>
<path d="M2.277,25.41L2.782,26.73C2.974,27.294 3.339,27.784 3.824,28.131C4.308,28.478 4.89,28.664 5.486,28.664L65.001,28.664C71.259,28.663 77.33,26.532 82.215,22.621L2.277,25.41Z" fill="#103BE9"/>
</svg>
