<svg width="146" height="46" viewBox="0 0 146 46" fill="none" xmlns="http://www.w3.org/2000/svg" xmlns:xlink="http://www.w3.org/1999/xlink">
<path d="M2.592,38.138L131.874,33.628C133.159,32.398 134.367,31.091 135.491,29.713L145.488,17.534C145.628,17.364 145.716,17.156 145.74,16.937C145.765,16.718 145.725,16.496 145.626,16.299C145.527,16.102 145.373,15.938 145.182,15.826C144.992,15.715 144.773,15.662 144.553,15.672L94.728,17.999C87.784,8.677 78.866,-0.127 64.979,-0.127L29.43,-0.127L29.419,-0.083L20.17,-0.083L21.245,2.093C21.857,3.335 22.804,4.38 23.98,5.111C25.155,5.842 26.511,6.229 27.895,6.229L22.977,20.209C22.265,22.23 20.981,24.001 19.281,25.306C17.581,26.611 15.539,27.394 13.403,27.561L2.926,28.378C2.467,28.414 2.023,28.557 1.629,28.794C1.235,29.032 0.902,29.358 0.656,29.747C0.41,30.136 0.258,30.577 0.213,31.035C0.167,31.493 0.229,31.955 0.393,32.385L2.592,38.138ZM64.979,3.198C76.925,3.198 84.728,10.541 90.736,18.247L64.657,19.534L61.881,3.202L64.979,3.198ZM42.526,3.198L59.494,3.198L62.288,19.646L36.287,20.933L42.526,3.198Z" fill="#103BE9"/>
<path d="M3.512,40.54L4.304,42.612C4.606,43.497 5.177,44.266 5.939,44.811C6.7,45.355 7.612,45.648 8.548,45.648L101.96,45.648C111.782,45.646 121.311,42.301 128.979,36.162L3.512,40.54Z" fill="#103BE9"/>
</svg>
