<svg width="98" height="32" viewBox="0 0 98 32" fill="none" xmlns="http://www.w3.org/2000/svg" xmlns:xlink="http://www.w3.org/1999/xlink">
<path d="M2.546,25.769L88.389,22.774C89.243,21.958 90.045,21.09 90.791,20.175L97.429,12.088C97.522,11.975 97.58,11.837 97.597,11.692C97.613,11.546 97.586,11.399 97.521,11.268C97.455,11.137 97.352,11.028 97.226,10.954C97.099,10.88 96.954,10.845 96.808,10.852L63.725,12.397C59.114,6.207 53.192,0.361 43.971,0.361L20.367,0.361L20.359,0.391L14.218,0.391L14.932,1.836C15.339,2.66 15.967,3.354 16.748,3.839C17.528,4.325 18.429,4.582 19.348,4.582L16.082,13.864C15.609,15.206 14.757,16.382 13.628,17.249C12.499,18.115 11.143,18.635 9.725,18.746L2.768,19.289C2.464,19.313 2.169,19.407 1.907,19.565C1.646,19.723 1.424,19.94 1.261,20.198C1.098,20.456 0.997,20.749 0.967,21.053C0.936,21.357 0.977,21.664 1.087,21.949L2.546,25.769ZM43.971,2.569C51.904,2.569 57.084,7.445 61.074,12.562L43.757,13.416L41.915,2.572L43.971,2.569ZM29.062,2.569L40.329,2.569L42.184,13.491L24.92,14.345L29.062,2.569Z" fill="#103BE9"/>
<path d="M3.156,27.364L3.682,28.739C3.883,29.328 4.262,29.838 4.768,30.2C5.273,30.561 5.879,30.756 6.5,30.756L68.526,30.756C75.047,30.754 81.375,28.533 86.466,24.457L3.156,27.364Z" fill="#103BE9"/>
</svg>
