<svg width="200" height="200" viewBox="0 0 200 200" fill="none" xmlns="http://www.w3.org/2000/svg" xmlns:xlink="http://www.w3.org/1999/xlink">
<path d="M113.294,104.226C112.762,104.427 112.245,104.686 111.756,104.916C112.518,108.423 111.828,111.398 109.169,112.404C106.51,113.41 106.697,115.278 106.898,117.319C106.898,117.635 106.984,117.965 107.013,118.282C107.2,120.84 107.401,123.384 107.602,125.942C111.021,118.911 113.366,111.406 114.558,103.68L113.294,104.226Z" fill="#103BE9"/>
<path d="M86.404,154.325L151.422,154.325L151.422,129.591C151.341,129.055 151.37,128.507 151.509,127.982C151.71,127.507 152.227,126.918 152.658,126.875C152.926,126.909 153.182,127.006 153.404,127.159C153.627,127.311 153.809,127.514 153.938,127.752C154.137,128.313 154.206,128.913 154.139,129.505L154.139,151.192C154.083,152.24 154.141,153.29 154.311,154.325L160.276,154.325C160.283,154.201 160.283,154.076 160.276,153.952C160.276,129.117 160.276,104.282 160.276,79.448C160.318,78.626 160.195,77.805 159.912,77.033C159.63,76.261 159.194,75.554 158.632,74.954C158.07,74.354 157.392,73.874 156.64,73.542C155.887,73.21 155.076,73.034 154.254,73.023C148.836,72.865 143.389,73.023 137.956,73.023C137.712,73.043 137.477,73.124 137.273,73.26C137.069,73.396 136.904,73.582 136.792,73.8C136.246,76.272 135.843,78.772 135.355,81.603L149.008,81.603C152.601,81.603 154.168,83.156 154.182,86.763C154.182,91.75 154.182,96.752 154.182,101.753C154.262,102.235 154.217,102.73 154.053,103.19C153.765,103.679 153.176,104.311 152.759,104.297C152.342,104.282 151.796,103.593 151.537,103.075C151.403,102.608 151.379,102.116 151.466,101.638L151.466,86.806C151.466,84.665 151.092,84.291 149.037,84.291C144.466,84.291 139.896,84.291 135.34,84.291C134.892,84.237 134.439,84.34 134.057,84.58C133.675,84.821 133.387,85.186 133.242,85.613C129.471,93.758 122.814,100.215 114.558,103.736C113.366,111.463 111.021,118.967 107.602,125.998C108.077,131.948 108.551,137.898 108.925,143.848C108.999,145.06 108.82,146.274 108.4,147.413C107.98,148.552 107.327,149.591 106.484,150.464C105.64,151.337 104.624,152.025 103.501,152.485C102.377,152.944 101.17,153.165 99.957,153.133C98.366,153.13 96.805,152.702 95.436,151.893C94.066,151.085 92.938,149.925 92.167,148.534C90.299,150.431 88.43,152.371 86.404,154.325ZM151.422,115.263C151.422,113.366 151.422,111.468 151.422,109.514C151.422,108.508 151.782,107.617 152.86,107.775C153.192,107.93 153.481,108.165 153.702,108.458C153.922,108.751 154.067,109.094 154.124,109.456C154.225,113.365 154.196,117.275 154.124,121.184C154.124,122.089 153.909,123.038 152.687,122.98C151.466,122.923 151.365,122.061 151.379,121.083C151.437,119.172 151.422,117.217 151.422,115.263Z" fill="#00228E"/>
<path d="M86.405,154.326C88.431,152.371 90.328,150.431 92.153,148.476C91.365,147.051 90.996,145.432 91.09,143.805C91.334,139.408 91.751,135.038 92.096,130.641C92.498,125.275 92.891,119.914 93.274,114.558C93.281,114.34 93.238,114.123 93.149,113.924C93.059,113.725 92.925,113.548 92.757,113.409C88.23,110.879 87.54,109.658 88.215,104.785C87.948,104.631 87.669,104.497 87.382,104.383C82.85,102.748 78.688,100.231 75.136,96.978C71.583,93.724 68.711,89.798 66.686,85.427C66.558,85.047 66.305,84.722 65.968,84.506C65.631,84.289 65.231,84.193 64.832,84.234C60.277,84.234 55.706,84.234 51.15,84.234C48.851,84.234 48.535,84.55 48.535,86.893L48.535,153.88C48.528,154.019 48.528,154.158 48.535,154.297L86.39,154.297L86.405,154.326Z" fill="#103BE9"/>
<path d="M134.219,70.049C134.208,60.954 130.593,52.234 124.166,45.799C117.738,39.364 109.023,35.738 99.928,35.715C98.97,35.715 98.036,35.758 97.125,35.844C97.959,37.066 98.908,38.532 99.928,40.156L100.043,40.156C106.546,40.181 112.862,42.332 118.028,46.282C123.195,50.231 126.928,55.761 128.659,62.03C130.39,68.298 130.023,74.961 127.615,81.001C125.207,87.042 120.889,92.129 115.32,95.488C115.234,97.212 115.09,98.951 114.889,100.719C120.658,97.928 125.528,93.573 128.945,88.152C132.362,82.73 134.19,76.458 134.219,70.049Z" fill="#006F91"/>
<path d="M99.899,99.799C91.994,99.799 84.412,96.659 78.822,91.069C73.232,85.479 70.092,77.897 70.092,69.992C70.092,62.087 73.232,54.505 78.822,48.915C84.412,43.325 91.994,40.185 99.899,40.185C98.879,38.517 97.93,37.052 97.097,35.873C92.089,36.292 87.236,37.809 82.88,40.315C78.525,42.821 74.775,46.255 71.896,50.373C69.017,54.491 67.079,59.193 66.222,64.144C65.364,69.095 65.607,74.174 66.933,79.021C68.259,83.868 70.635,88.363 73.894,92.188C77.152,96.013 81.213,99.074 85.788,101.153C90.362,103.232 95.338,104.279 100.363,104.219C105.387,104.159 110.337,102.993 114.86,100.805C115.062,99.038 115.205,97.299 115.292,95.574C110.644,98.364 105.32,99.826 99.899,99.799Z" fill="#00AEEF"/>
<path d="M45.746,153.235L45.746,87.742C45.746,87.095 45.746,86.434 45.746,85.787C45.745,85.213 45.861,84.645 46.088,84.117C46.315,83.59 46.647,83.114 47.064,82.72C47.482,82.325 47.975,82.02 48.514,81.824C49.054,81.627 49.628,81.543 50.201,81.576C51.94,81.576 53.679,81.576 55.418,81.576L64.544,81.576C64.041,78.788 63.653,76.273 63.107,73.815C63.021,73.427 62.058,72.996 61.497,72.996C56.783,72.996 52.055,72.996 47.327,72.996C41.908,72.996 39.623,75.281 39.623,80.728C39.623,104.394 39.623,128.069 39.623,151.754C39.587,152.628 39.626,153.503 39.738,154.37L45.746,154.37C45.746,154.025 45.746,153.68 45.746,153.235Z" fill="#103BE9"/>
<path d="M100.115,150.373C100.975,150.383 101.827,150.208 102.613,149.859C103.4,149.509 104.101,148.994 104.67,148.349C105.239,147.704 105.662,146.943 105.91,146.119C106.158,145.295 106.226,144.428 106.108,143.575C105.82,139.264 105.475,134.952 105.13,130.641C101.988,136.216 98.29,141.46 94.093,146.292C94.508,147.54 95.323,148.616 96.411,149.354C97.5,150.092 98.802,150.45 100.115,150.373Z" fill="#006F91"/>
<path d="M104.196,117.795C103.894,112.951 103.865,114.001 100.071,113.871L99.094,113.871C95.932,113.871 96.004,113.871 95.788,117.105C95.458,122.078 94.984,127.036 94.61,132.009C94.308,136.062 93.949,140.129 93.834,144.182C93.807,144.872 93.894,145.561 94.093,146.223C98.29,141.391 101.988,136.147 105.13,130.571C104.8,126.317 104.469,122.049 104.196,117.795Z" fill="#00AEEF"/>
<path d="M99.928,111.023C101.882,111.023 103.837,111.023 105.777,111.023C106.28,111.018 106.777,110.911 107.238,110.709C107.699,110.507 108.114,110.214 108.459,109.848C108.804,109.481 109.072,109.049 109.245,108.577C109.419,108.104 109.496,107.602 109.471,107.099C109.471,106.064 109.126,105.662 108.033,105.878C102.734,107.113 97.222,107.113 91.922,105.878C90.888,105.633 90.571,106.065 90.485,107.028C90.448,107.529 90.513,108.033 90.676,108.509C90.839,108.985 91.097,109.423 91.435,109.796C91.772,110.17 92.181,110.471 92.638,110.682C93.095,110.893 93.59,111.009 94.093,111.023C96.047,111.08 97.973,111.009 99.928,111.023Z" fill="#00AEEF"/>
<path d="M106.798,62.434L94.61,75.512C92.612,73.127 90.787,70.899 88.861,68.714C88.015,67.678 86.792,67.019 85.46,66.885C84.129,66.75 82.798,67.15 81.762,67.996C80.725,68.842 80.067,70.065 79.932,71.397C79.797,72.728 80.197,74.059 81.043,75.096C84.099,78.832 87.194,82.54 90.327,86.22C90.774,86.827 91.354,87.324 92.022,87.674C92.691,88.023 93.43,88.216 94.184,88.237C94.938,88.257 95.686,88.106 96.373,87.794C97.059,87.482 97.666,87.017 98.146,86.435C103.003,81.261 107.847,76.068 112.676,70.856C111.743,67.078 110.601,63.354 109.255,59.703L106.798,62.434Z" fill="#FFFFFF"/>
<path d="M118.396,57.33C117.89,56.875 117.298,56.526 116.654,56.304C116.011,56.083 115.329,55.994 114.65,56.042C113.971,56.09 113.309,56.275 112.703,56.585C112.097,56.896 111.56,57.325 111.124,57.848L109.385,59.702C110.731,63.353 111.873,67.076 112.805,70.855L118.554,64.617C119.039,64.138 119.422,63.564 119.678,62.932C119.934,62.3 120.059,61.622 120.044,60.94C120.029,60.258 119.875,59.586 119.592,58.965C119.309,58.345 118.902,57.788 118.396,57.33Z" fill="#FFFFFF"/>
<path d="M115.363,88.819C112.342,91.287 108.771,92.993 104.953,93.793C101.135,94.592 97.18,94.462 93.422,93.414C89.664,92.366 86.214,90.431 83.36,87.77C80.507,85.11 78.334,81.803 77.026,78.128C75.718,74.452 75.312,70.516 75.843,66.651C76.373,62.786 77.825,59.106 80.076,55.919C82.326,52.732 85.309,50.133 88.774,48.34C92.239,46.547 96.084,45.614 99.985,45.617C101.038,45.619 102.089,45.686 103.133,45.818C102.543,44.74 101.969,43.706 101.408,42.729C100.929,42.729 100.45,42.729 99.971,42.729C95.692,42.729 91.473,43.734 87.654,45.664C83.835,47.594 80.524,50.395 77.986,53.84C75.448,57.285 73.756,61.278 73.045,65.498C72.334,69.717 72.624,74.045 73.893,78.131C75.161,82.218 77.373,85.949 80.348,89.024C83.324,92.099 86.98,94.432 91.023,95.834C95.065,97.236 99.381,97.669 103.621,97.097C107.862,96.525 111.908,94.965 115.435,92.542C115.421,91.263 115.406,90.041 115.363,88.819Z" fill="#103BE9"/>
<path d="M127.321,70.035C127.331,63.035 124.652,56.299 119.838,51.217C115.024,46.136 108.442,43.097 101.452,42.729C102.012,43.706 102.587,44.74 103.176,45.818C107.89,46.436 112.32,48.421 115.919,51.527C119.518,54.633 122.129,58.725 123.43,63.298C124.73,67.871 124.664,72.724 123.238,77.259C121.812,81.795 119.09,85.813 115.407,88.819C115.407,90.041 115.407,91.263 115.407,92.499C119.059,89.995 122.05,86.643 124.125,82.731C126.2,78.819 127.296,74.463 127.321,70.035Z" fill="#00228E"/>
<path d="M75.639,69.963C75.642,74.566 76.95,79.074 79.412,82.963C81.873,86.853 85.387,89.965 89.545,91.939C93.703,93.913 98.335,94.667 102.905,94.115C107.475,93.563 111.794,91.727 115.363,88.819C115.126,82.759 114.269,76.74 112.804,70.854C108.014,76.057 103.17,81.25 98.274,86.434C97.795,87.015 97.188,87.48 96.502,87.792C95.815,88.105 95.067,88.256 94.313,88.235C93.559,88.214 92.82,88.022 92.151,87.672C91.483,87.323 90.903,86.825 90.456,86.218C87.323,82.539 84.228,78.831 81.172,75.094C80.753,74.581 80.439,73.99 80.248,73.355C80.058,72.721 79.994,72.055 80.061,71.395C80.128,70.736 80.323,70.097 80.637,69.513C80.951,68.929 81.377,68.413 81.89,67.994C82.404,67.575 82.995,67.262 83.629,67.071C84.264,66.88 84.93,66.817 85.589,66.883C86.248,66.95 86.888,67.146 87.472,67.46C88.055,67.774 88.571,68.2 88.99,68.713C90.844,70.898 92.669,73.125 94.739,75.511L106.869,62.49L109.456,59.702C107.681,54.941 105.592,50.303 103.204,45.818C102.16,45.686 101.109,45.619 100.057,45.617C96.853,45.606 93.678,46.227 90.715,47.446C87.753,48.665 85.059,50.456 82.791,52.718C80.522,54.98 78.722,57.668 77.495,60.628C76.268,63.587 75.637,66.76 75.639,69.963Z" fill="#103BE9"/>
<path d="M111.124,57.848C111.56,57.325 112.097,56.896 112.703,56.585C113.308,56.275 113.971,56.09 114.65,56.042C115.329,55.994 116.01,56.083 116.654,56.304C117.298,56.526 117.89,56.875 118.396,57.33C118.903,57.786 119.313,58.341 119.599,58.96C119.884,59.58 120.041,60.251 120.058,60.933C120.076,61.616 119.954,62.294 119.7,62.927C119.447,63.561 119.066,64.136 118.583,64.617L112.834,70.854C114.298,76.74 115.156,82.759 115.392,88.819C119.075,85.813 121.798,81.795 123.223,77.259C124.649,72.724 124.716,67.87 123.415,63.298C122.115,58.725 119.504,54.633 115.904,51.527C112.305,48.421 107.875,46.436 103.162,45.818C105.55,50.303 107.639,54.941 109.413,59.702L111.124,57.848Z" fill="#00228E"/>
<path d="M48.621,155.59C48.621,155.188 48.549,154.756 48.534,154.325L45.746,154.325C45.746,155.576 45.329,155.576 43.475,155.576C40.831,155.576 40.012,155.576 39.753,154.325L29.693,154.325C26.315,154.325 26.631,153.794 26.631,157.502C26.631,160.879 28.14,163.25 30.943,163.998C31.999,164.233 33.082,164.325 34.162,164.271L74.777,164.271C78.5,161.396 81.963,158.522 85.039,155.648L48.621,155.59Z" fill="#00228E"/>
<path d="M171.198,154.283L160.276,154.283C160.189,155.26 159.744,155.577 158.594,155.577C155.633,155.577 154.642,155.577 154.282,154.298L151.408,154.298L151.408,155.577L85.067,155.577C81.934,158.451 78.528,161.325 74.806,164.2L165.766,164.2C166.527,164.2 167.289,164.2 168.036,164.2C169.366,164.02 170.599,163.405 171.543,162.451C172.486,161.497 173.088,160.257 173.253,158.925C173.253,158.063 173.253,157.186 173.253,156.324C173.555,154.642 172.808,154.283 171.198,154.283Z" fill="#00228E"/>
<path d="M99.971,154.327L86.404,154.327C85.972,154.743 85.527,155.175 85.067,155.591L151.422,155.591L151.422,154.313L99.971,154.327Z" fill="#00228E"/>
<path d="M158.594,155.592C159.744,155.592 160.19,155.276 160.276,154.299L154.312,154.299C154.642,155.607 155.634,155.592 158.594,155.592Z" fill="#00228E"/>
<path d="M85.067,155.591C85.527,155.174 85.973,154.743 86.404,154.326L48.62,154.326C48.62,154.757 48.692,155.188 48.706,155.591L85.067,155.591Z" fill="#00228E"/>
<path d="M43.518,155.563C45.372,155.563 45.717,155.563 45.789,154.313L39.796,154.313C39.997,155.563 40.874,155.563 43.518,155.563Z" fill="#00228E"/>
</svg>
