<svg width="94" height="30" viewBox="0 0 94 30" fill="none" xmlns="http://www.w3.org/2000/svg" xmlns:xlink="http://www.w3.org/1999/xlink">
<path d="M1.691,23.879L84.059,21.006C84.878,20.222 85.648,19.389 86.364,18.511L92.733,10.752C92.822,10.644 92.878,10.511 92.894,10.372C92.91,10.232 92.884,10.091 92.821,9.965C92.758,9.84 92.66,9.735 92.538,9.664C92.417,9.593 92.278,9.559 92.137,9.566L60.393,11.048C55.969,5.109 50.287,-0.5 41.439,-0.5L18.79,-0.5L18.783,-0.472L12.891,-0.472L13.576,0.914C13.965,1.705 14.569,2.371 15.318,2.837C16.066,3.303 16.931,3.549 17.812,3.549L14.679,12.456C14.225,13.744 13.407,14.872 12.324,15.704C11.241,16.535 9.94,17.034 8.579,17.14L1.904,17.661C1.612,17.684 1.329,17.775 1.078,17.926C0.827,18.078 0.614,18.286 0.458,18.533C0.301,18.781 0.204,19.062 0.175,19.354C0.146,19.646 0.186,19.94 0.29,20.214L1.691,23.879ZM41.439,1.618C49.051,1.618 54.022,6.296 57.85,11.207L41.234,12.026L39.466,1.621L41.439,1.618ZM27.134,1.618L37.945,1.618L39.725,12.098L23.159,12.917L27.134,1.618Z" fill="#103BE9"/>
<path d="M2.275,25.41L2.78,26.73C2.972,27.294 3.337,27.784 3.822,28.131C4.306,28.478 4.888,28.664 5.484,28.664L64.999,28.664C71.257,28.663 77.328,26.532 82.213,22.621L2.275,25.41Z" fill="#103BE9"/>
</svg>
