<svg width="280" height="280" viewBox="0 0 280 280" fill="none" xmlns="http://www.w3.org/2000/svg" xmlns:xlink="http://www.w3.org/1999/xlink">
<path d="M140.02,203C139.38,203.3 139.34,203.96 139.14,204.52C134.793,216 130.467,227.48 126.16,238.96C125.52,240.68 125.52,240.68 124.16,239.4L103.94,220.56C103.686,220.288 103.375,220.076 103.029,219.937C102.683,219.799 102.312,219.739 101.94,219.76C92.54,220.06 83.14,220.3 73.76,220.62C72.42,220.62 72.42,220.2 72.8,219.18C76.32,209.913 79.82,200.64 83.3,191.36C87.86,179.28 92.413,167.193 96.96,155.1C96.96,154.3 97.46,153.82 98.3,153.9C99.827,153.835 101.35,154.108 102.76,154.7C103.705,155.195 104.457,155.99 104.9,156.96C105.6,158.4 106.32,159.86 107.08,161.28C107.399,162.219 108.076,162.994 108.964,163.436C109.852,163.878 110.878,163.951 111.82,163.64C113.32,163.38 114.8,163 116.28,162.66C117.285,162.375 118.35,162.373 119.356,162.655C120.362,162.938 121.27,163.493 121.98,164.26C123.459,166.043 125.167,167.623 127.06,168.96C127.917,169.12 128.799,169.084 129.641,168.855C130.482,168.627 131.261,168.211 131.92,167.64C133.566,166.301 135.569,165.473 137.68,165.26C138.654,165.257 139.608,165.542 140.42,166.08C142.128,167.097 143.898,168.006 145.72,168.8C146.135,169.015 146.606,169.099 147.069,169.042C147.533,168.985 147.969,168.789 148.32,168.48C149.895,167.293 151.348,165.953 152.66,164.48C153.26,163.84 153.84,163.62 154.54,164.3C154.88,164.8 154.54,165.28 154.54,165.76C152.34,172.08 149.7,178.26 147.46,184.58C146.32,187.8 145.08,190.98 143.88,194.18C142.86,196.86 141.88,199.56 140.86,202.18C140.66,202.54 140.54,202.98 140.02,203Z" fill="#103BE9"/>
<path d="M140.02,203C140.504,200.695 141.235,198.448 142.2,196.3C144.02,191.26 145.98,186.3 147.88,181.28C150,175.62 152.1,169.94 154.22,164.28C153.76,163.52 154.22,163.08 154.8,162.7C155.931,162.149 157.22,162.014 158.44,162.32C160,162.58 161.52,162.92 163.08,163.24C163.961,163.532 164.919,163.49 165.771,163.121C166.623,162.752 167.31,162.083 167.7,161.24C168.54,159.78 169.18,158.24 169.92,156.76C170.334,155.82 171,155.013 171.843,154.427C172.686,153.842 173.675,153.5 174.7,153.44C175.56,153.44 176.46,153.44 177.32,153.26C177.446,153.234 177.576,153.235 177.701,153.263C177.826,153.292 177.944,153.347 178.046,153.425C178.149,153.502 178.233,153.601 178.294,153.714C178.355,153.827 178.391,153.952 178.4,154.08C187.947,172.24 197.5,190.386 207.06,208.52C207.62,209.62 207.56,209.96 206.24,210.08C196.96,210.9 187.7,211.84 178.44,212.68C178.012,212.711 177.595,212.834 177.219,213.042C176.842,213.249 176.515,213.535 176.26,213.88C170.313,221 164.367,228.1 158.42,235.18C158.14,235.52 157.82,235.86 157.42,236.3L155.6,232.86L140.48,204.1C140.303,203.744 140.149,203.376 140.02,203Z" fill="#00228E"/>
<path d="M126.98,169.54C126.299,169.399 125.686,169.033 125.24,168.5C124,167.24 122.7,166.04 121.52,164.74C120.924,164.054 120.142,163.557 119.268,163.308C118.395,163.059 117.467,163.07 116.6,163.34C115.1,163.68 113.62,164.02 112.12,164.32C111.56,164.528 110.964,164.619 110.368,164.588C109.772,164.556 109.188,164.403 108.654,164.136C108.119,163.87 107.645,163.497 107.261,163.04C106.877,162.583 106.591,162.052 106.42,161.48C105.66,159.94 104.92,158.4 104.1,156.88C103.306,155.806 102.164,155.042 100.869,154.717C99.574,154.392 98.206,154.528 97,155.1C96.7,154.22 95.9,154.38 95.24,154.3C94.205,154.31 93.204,153.936 92.431,153.248C91.658,152.56 91.169,151.609 91.06,150.58C90.74,148.96 90.46,147.3 90.22,145.66C90.146,144.756 89.807,143.894 89.245,143.182C88.683,142.47 87.922,141.941 87.06,141.66C85.52,141.1 84.04,140.46 82.54,139.86C81.511,139.598 80.622,138.954 80.053,138.058C79.484,137.161 79.279,136.082 79.48,135.04C79.62,133.28 79.84,131.54 80.12,129.8C80.28,128.951 80.194,128.075 79.871,127.274C79.549,126.473 79.003,125.781 78.3,125.28C76.98,124.2 75.62,123.16 74.3,122.04C73.85,121.762 73.46,121.398 73.152,120.968C72.843,120.539 72.623,120.052 72.504,119.537C72.385,119.022 72.37,118.488 72.458,117.967C72.547,117.445 72.738,116.947 73.02,116.5C73.7,114.92 74.4,113.36 75.14,111.8C75.526,111.08 75.699,110.265 75.639,109.45C75.579,108.636 75.288,107.855 74.8,107.2C73.82,105.74 72.8,104.3 71.86,102.82C71.508,102.425 71.237,101.963 71.064,101.463C70.892,100.963 70.82,100.433 70.853,99.905C70.887,99.376 71.025,98.86 71.26,98.385C71.494,97.911 71.821,97.487 72.22,97.14C73.42,95.72 74.66,94.36 75.88,92.96C76.397,92.387 76.747,91.683 76.891,90.924C77.036,90.166 76.97,89.383 76.7,88.66C76.18,86.98 75.66,85.3 75.18,83.6C74.787,82.592 74.797,81.472 75.206,80.471C75.616,79.469 76.394,78.664 77.38,78.22C78.74,77.4 80.08,76.58 81.38,75.8C82.175,75.41 82.837,74.794 83.282,74.029C83.727,73.263 83.935,72.383 83.88,71.5C83.88,69.66 83.88,67.8 84.02,65.96C83.966,65.04 84.243,64.131 84.8,63.398C85.358,62.664 86.159,62.154 87.06,61.96C88.8,61.44 90.56,61 92.32,60.62C93.215,60.464 94.045,60.047 94.703,59.42C95.362,58.794 95.82,57.986 96.02,57.1C96.5,55.42 97.04,53.74 97.62,52.06C97.846,51.187 98.369,50.42 99.099,49.891C99.829,49.362 100.72,49.103 101.62,49.16C103.42,49.16 105.22,49.3 107.02,49.44C107.927,49.541 108.845,49.38 109.663,48.976C110.482,48.572 111.168,47.941 111.64,47.16C112.58,45.74 113.64,44.32 114.52,42.92C115.004,42.082 115.775,41.448 116.691,41.136C117.607,40.823 118.605,40.853 119.5,41.22C121.26,41.78 123,42.44 124.72,43.12C125.489,43.456 126.339,43.565 127.168,43.434C127.997,43.302 128.772,42.937 129.4,42.38C130.76,41.28 132.16,40.18 133.56,39.12C134.324,38.419 135.323,38.029 136.36,38.029C137.397,38.029 138.396,38.419 139.16,39.12C140.36,39.98 141.54,40.9 142.7,41.82C143.511,42.508 144.448,43.031 145.46,43.36C146.125,44.237 146.596,45.246 146.84,46.32C147.5,48.32 148.04,50.32 148.6,52.44C148.672,52.608 148.71,52.788 148.712,52.971C148.714,53.154 148.679,53.335 148.611,53.505C148.542,53.674 148.44,53.828 148.311,53.958C148.182,54.087 148.029,54.19 147.86,54.26C146.983,54.339 146.1,54.244 145.26,53.98C133.567,51.998 121.55,54.176 111.296,60.135C101.042,66.094 93.201,75.458 89.136,86.599C85.07,97.74 85.037,109.954 89.043,121.116C93.048,132.279 100.839,141.685 111.06,147.7C116.258,150.772 121.959,152.899 127.9,153.98C129.72,154.32 131.58,154.42 133.42,154.72C133.883,154.74 134.333,154.885 134.72,155.14C135.2,155.64 134.96,156.16 134.72,156.66C132.717,160.784 130.48,164.791 128.02,168.66C127.787,169.066 127.419,169.377 126.98,169.54Z" fill="#00AEEF"/>
<path d="M126.98,169.54C128.58,166.74 130.22,163.96 131.76,161.16C132.82,159.16 133.76,157.32 134.76,155.4C134.804,155.259 134.896,155.139 135.02,155.06C135.655,154.806 136.336,154.684 137.02,154.7C144.032,154.736 150.971,153.284 157.38,150.44C164.382,147.344 170.596,142.709 175.56,136.88C181.104,130.423 184.933,122.674 186.691,114.347C188.45,106.02 188.083,97.385 185.624,89.237C183.164,81.09 178.692,73.693 172.62,67.731C166.547,61.768 159.071,57.431 150.88,55.12C150,54.88 149.2,54.42 148.3,54.2C148,54.2 147.76,53.94 147.86,53.56C148.5,53.18 148.16,52.66 148.02,52.22C147.32,49.74 146.58,47.28 145.84,44.82C145.7,44.3 145.38,43.8 145.66,43.24C147.565,43.152 149.425,42.632 151.1,41.72C156.14,39.72 156.6,39.94 159.72,44.3C162.84,48.66 162.42,49.28 168.94,48.6L169.36,48.6C174.1,48.34 174.74,48.76 176.26,53.32L177.4,56.74C177.615,57.504 178.041,58.191 178.628,58.725C179.215,59.259 179.939,59.618 180.72,59.76L185.98,61C187.004,61.158 187.933,61.692 188.584,62.498C189.235,63.305 189.562,64.325 189.5,65.36C189.5,67.16 189.5,68.98 189.5,70.78C189.479,71.55 189.674,72.31 190.062,72.975C190.451,73.639 191.019,74.181 191.7,74.54L196.36,77.28C197.295,77.725 198.034,78.5 198.432,79.456C198.831,80.412 198.862,81.482 198.52,82.46C198.06,84.22 197.56,85.94 197.04,87.68C196.78,88.453 196.748,89.284 196.947,90.074C197.145,90.865 197.566,91.582 198.16,92.14C199.36,93.44 200.56,94.72 201.72,96.04C202.506,96.724 202.993,97.688 203.079,98.727C203.165,99.765 202.843,100.796 202.18,101.6C201.24,103.1 200.3,104.58 199.3,106.04C198.799,106.713 198.504,107.518 198.451,108.356C198.397,109.193 198.588,110.028 199,110.76C199.78,112.32 200.52,113.92 201.26,115.52C201.752,116.4 201.907,117.428 201.697,118.414C201.488,119.4 200.927,120.276 200.12,120.88C198.72,122.1 197.28,123.28 195.86,124.46C195.234,124.945 194.756,125.595 194.48,126.337C194.204,127.079 194.142,127.884 194.3,128.66C194.58,130.54 194.9,132.42 195.08,134.3C195.241,135.252 195.052,136.229 194.548,137.053C194.045,137.876 193.26,138.489 192.34,138.78C190.72,139.48 189.1,140.14 187.46,140.78C186.672,141.067 185.98,141.57 185.464,142.232C184.948,142.893 184.628,143.686 184.54,144.52C184.28,146.22 184.04,147.92 183.74,149.6C183.7,150.648 183.266,151.643 182.525,152.385C181.783,153.126 180.788,153.56 179.74,153.6C179.28,153.6 178.8,153.6 178.42,153.94C176.491,153.694 174.531,153.906 172.7,154.56C171.812,154.961 171.101,155.672 170.7,156.56C169.92,158.18 169.16,159.82 168.34,161.42C167.921,162.416 167.146,163.22 166.166,163.675C165.186,164.13 164.071,164.203 163.04,163.88C161.36,163.5 159.7,163.12 158,162.86C156.3,162.6 155.1,162.62 154.22,164.18C153,164.5 152.52,165.68 151.66,166.42C150.666,167.392 149.617,168.306 148.52,169.16C148.098,169.486 147.592,169.685 147.061,169.734C146.53,169.784 145.995,169.682 145.52,169.44C143.66,168.5 141.8,167.58 139.98,166.56C139.31,166.173 138.556,165.954 137.782,165.923C137.009,165.891 136.239,166.048 135.54,166.38C133.54,167.16 132,168.72 129.94,169.4C129.481,169.62 128.983,169.746 128.474,169.77C127.966,169.794 127.458,169.716 126.98,169.54Z" fill="#006F91"/>
<path d="M135.06,155.38L134.76,155.38C123.462,154.89 112.645,150.67 104,143.38C96.313,136.947 90.673,128.407 87.774,118.811C84.875,109.215 84.843,98.982 87.681,89.368C90.52,79.754 96.105,71.179 103.751,64.697C111.398,58.214 120.771,54.107 130.72,52.88C136.429,52.182 142.215,52.439 147.84,53.64L148.42,53.92C149.074,54.407 149.523,55.12 149.68,55.92C150.945,61.258 151.834,66.678 152.34,72.14C152.647,74.936 152.774,77.748 152.72,80.56C152.96,82.01 152.96,83.49 152.72,84.94C152.12,85.64 151.58,85.2 151,84.94C149.829,84.23 148.519,83.782 147.159,83.627C145.798,83.471 144.421,83.612 143.12,84.04C142.121,84.289 141.227,84.847 140.562,85.633C139.898,86.419 139.499,87.394 139.42,88.42C139.301,89.444 139.525,90.479 140.057,91.362C140.589,92.245 141.399,92.927 142.36,93.3C143.542,93.84 144.758,94.301 146,94.68C146.52,94.86 147.04,95.04 147.56,95.26C148.065,95.457 148.525,95.754 148.911,96.134C149.298,96.513 149.603,96.967 149.809,97.469C150.015,97.97 150.116,98.508 150.108,99.05C150.1,99.591 149.981,100.126 149.76,100.62C149.562,101.118 149.224,101.549 148.788,101.861C148.352,102.173 147.835,102.353 147.3,102.38C146.282,102.47 145.258,102.47 144.24,102.38C143.775,102.349 143.326,102.2 142.935,101.948C142.543,101.697 142.222,101.35 142,100.94C141.8,100.64 141.68,100.28 141.46,99.98C141.344,99.75 141.149,99.569 140.91,99.469C140.672,99.37 140.405,99.36 140.16,99.44C139.889,99.532 139.663,99.724 139.529,99.977C139.396,100.23 139.364,100.524 139.44,100.8C139.553,101.561 139.883,102.273 140.39,102.852C140.897,103.43 141.56,103.849 142.3,104.06C144.561,104.801 146.999,104.801 149.26,104.06C149.82,103.9 150.38,103.54 150.96,104.06C151.54,104.58 151.36,105.04 151.32,105.6C151.373,107.438 150.968,109.259 150.14,110.9C149.7,111.34 149.12,111.26 148.58,111.3C147.91,111.3 147.241,111.353 146.58,111.46C145.998,111.453 145.422,111.573 144.891,111.812C144.361,112.051 143.888,112.402 143.508,112.842C143.127,113.282 142.846,113.799 142.686,114.359C142.526,114.918 142.49,115.505 142.58,116.08C142.58,117.84 142.58,119.58 142.58,121.34C142.522,121.865 142.568,122.395 142.715,122.902C142.863,123.408 143.109,123.88 143.44,124.291C143.771,124.702 144.18,125.043 144.643,125.295C145.107,125.548 145.615,125.705 146.14,125.76C146.66,125.9 147.26,125.92 147.38,126.66C144.88,130.4 144.34,134.9 142.64,138.96C140.64,143.98 138.64,148.96 136.2,153.96C136.04,154.6 135.56,154.88 135.06,155.38Z" fill="#103BE9"/>
<path d="M152.24,85.14C152.252,74.616 150.969,64.131 148.42,53.92C154.568,55.159 160.4,57.636 165.56,61.2C173.102,66.211 179.186,73.128 183.193,81.249C187.201,89.369 188.99,98.405 188.38,107.44C187.762,117.843 183.91,127.794 177.36,135.9C170.138,145.092 159.978,151.524 148.58,154.12C144.151,155.148 139.603,155.572 135.06,155.38C135.339,154.304 135.756,153.269 136.3,152.3C140.032,144.49 143.161,136.407 145.66,128.12C145.94,127.18 146.38,126.64 147.38,126.68C147.98,125.76 149.02,125.98 149.88,125.8C150.557,125.731 151.212,125.517 151.799,125.172C152.386,124.827 152.891,124.359 153.28,123.8C153.66,123.16 153.84,122.44 153.04,122C152.24,121.56 151.88,122 151.5,122.56C151.061,123.13 150.468,123.562 149.791,123.807C149.114,124.051 148.382,124.097 147.68,123.94C147.06,123.94 146.62,123.62 146.6,122.92C147.044,120.176 147.638,117.458 148.38,114.78C148.52,114.1 149.16,113.78 149.72,113.46C150.086,113.405 150.459,113.471 150.784,113.648C151.109,113.825 151.367,114.103 151.52,114.44C151.9,115.04 152.42,115.46 153.12,115C153.82,114.54 153.64,113.86 153.34,113.26C153.073,112.825 152.721,112.449 152.305,112.154C151.889,111.858 151.418,111.649 150.92,111.54C150.4,111.34 149.8,111.28 149.8,110.52C150.412,108.444 150.689,106.283 150.62,104.12C150.32,103.66 150.62,103.36 150.88,103.02C151.834,101.906 152.413,100.521 152.535,99.06C152.657,97.599 152.316,96.136 151.56,94.88C151.477,94.766 151.419,94.636 151.388,94.498C151.357,94.361 151.354,94.218 151.38,94.08C151.78,93.34 151.38,92.58 151.38,91.82C151.385,91.053 151.472,90.288 151.64,89.54C151.988,88.976 152.2,88.34 152.259,87.68C152.318,87.021 152.223,86.356 151.98,85.74C151.8,85.58 151.96,85.3 152.24,85.14Z" fill="#00228E"/>
<path d="M104.46,94.08C104.46,91.12 104.46,88.08 104.46,85.18C104.46,83.62 104.88,83.18 106.46,83.18C108.961,83.04 111.469,83.1 113.96,83.36C114.968,83.469 115.932,83.831 116.762,84.413C117.592,84.996 118.261,85.779 118.706,86.689C119.152,87.6 119.359,88.609 119.309,89.622C119.259,90.634 118.953,91.618 118.42,92.48C118.186,92.76 118.057,93.114 118.057,93.48C118.057,93.845 118.186,94.199 118.42,94.48C119.101,95.438 119.519,96.559 119.632,97.729C119.745,98.9 119.549,100.079 119.063,101.15C118.577,102.221 117.819,103.146 116.864,103.832C115.908,104.518 114.79,104.941 113.62,105.06C111.18,105.32 108.72,105.24 106.26,105.26C105.06,105.26 104.52,104.6 104.52,103.42L104.52,94.12L104.46,94.08Z" fill="#FDFDFD"/>
<path d="M152.24,85.14C152.5,85.76 152.8,86.38 153,87.02C153.102,87.248 153.158,87.495 153.164,87.745C153.17,87.995 153.126,88.243 153.035,88.476C152.944,88.709 152.807,88.921 152.633,89.101C152.458,89.28 152.25,89.422 152.02,89.52C150.76,90.76 149.62,90.54 148.78,88.94C148.621,88.559 148.387,88.213 148.093,87.923C147.799,87.632 147.45,87.403 147.067,87.249C146.684,87.095 146.274,87.018 145.86,87.023C145.447,87.029 145.039,87.116 144.66,87.28C144.365,87.343 144.095,87.49 143.883,87.703C143.67,87.916 143.523,88.186 143.46,88.48C143.41,88.779 143.455,89.086 143.588,89.358C143.72,89.631 143.934,89.855 144.2,90C144.782,90.382 145.415,90.678 146.08,90.88C147.48,91.36 148.88,91.84 150.24,92.42C150.634,92.543 150.984,92.776 151.25,93.091C151.516,93.406 151.686,93.791 151.74,94.2C152.886,95.687 153.41,97.561 153.201,99.427C152.992,101.292 152.067,103.004 150.62,104.2C149.306,104.839 147.878,105.212 146.42,105.298C144.961,105.384 143.5,105.181 142.12,104.7C141.146,104.447 140.276,103.893 139.633,103.118C138.991,102.343 138.608,101.385 138.54,100.38C138.4,99.24 138.96,98.66 140.06,98.38C141.16,98.1 142.06,98.38 142.28,99.58C142.364,100.154 142.658,100.677 143.105,101.046C143.552,101.416 144.12,101.606 144.7,101.58L146.08,101.58C149.18,101.58 149.62,100.14 149.14,97.1C149,96.3 148.18,96.04 147.5,95.74C145.5,94.94 143.5,94.48 141.68,93.5C140.676,93.059 139.843,92.304 139.305,91.348C138.768,90.392 138.555,89.287 138.7,88.2C138.708,87.122 139.054,86.073 139.689,85.201C140.324,84.33 141.216,83.679 142.24,83.34C143.902,82.641 145.732,82.438 147.507,82.758C149.282,83.077 150.926,83.905 152.24,85.14Z" fill="#FDFDFD"/>
<path d="M122.9,94.1C122.9,91.12 122.9,88.1 122.9,85.2C122.9,83.56 123.36,83.2 124.9,83.2L134.2,83.2C135.76,83.2 136.34,83.7 136.32,84.92C136.3,86.14 135.76,86.58 134.14,86.58C132.14,86.58 129.98,86.58 127.88,86.58C126.94,86.58 126.62,86.92 126.6,87.88C126.6,92.14 126.6,92.14 130.76,92.14C131.74,92.14 132.76,92.14 133.68,92.14C133.902,92.129 134.125,92.168 134.331,92.252C134.537,92.337 134.722,92.466 134.873,92.63C135.024,92.794 135.136,92.989 135.203,93.202C135.27,93.414 135.289,93.639 135.26,93.86C135.297,94.08 135.283,94.306 135.22,94.521C135.157,94.735 135.046,94.932 134.896,95.098C134.746,95.263 134.561,95.393 134.353,95.476C134.146,95.56 133.923,95.595 133.7,95.58C131.7,95.58 129.82,95.58 127.86,95.58C126.98,95.58 126.62,95.9 126.64,96.8C126.64,98.04 126.64,99.3 126.64,100.56C126.64,101.46 126.98,101.78 127.86,101.76C130.04,101.76 132.22,101.76 134.4,101.76C135.86,101.76 136.4,102.26 136.4,103.48C136.4,104.7 135.56,105.18 134.4,105.16L124.94,105.16C123.34,105.16 122.94,104.8 122.94,103.16C122.94,100.16 122.94,97.16 122.94,94.14L122.9,94.1Z" fill="#FDFDFD"/>
<path d="M119.04,118.76C119.04,116.76 119.04,114.76 119.04,112.76C119.04,111.28 119.5,110.76 121.04,110.76C123.303,110.606 125.576,110.694 127.82,111.02C128.729,111.112 129.583,111.494 130.257,112.11C130.931,112.726 131.388,113.544 131.56,114.44C131.808,115.366 131.747,116.348 131.386,117.236C131.025,118.124 130.384,118.87 129.56,119.36C128.92,119.74 128.88,120.1 129.24,120.68C129.9,121.74 130.52,122.82 131.24,123.9C131.96,124.98 131.94,125.58 130.98,126.22C130.512,126.472 129.971,126.553 129.45,126.451C128.929,126.349 128.459,126.07 128.12,125.66C127.24,124.24 126.38,122.82 125.64,121.32C125.12,120.28 124.26,120.34 123.4,120.5C122.54,120.66 122.9,121.46 122.86,122.02C122.86,122.94 122.86,123.86 122.86,124.78C122.86,126.02 122.18,126.5 121,126.5C119.82,126.5 119.34,125.88 119.34,124.76L119.34,118.76L119.04,118.76Z" fill="#FDFDFD"/>
<path d="M108.48,110.88C110.057,110.776 111.64,110.904 113.18,111.26C114.166,111.47 115.051,112.011 115.688,112.793C116.325,113.575 116.675,114.551 116.68,115.56C116.784,116.611 116.522,117.667 115.939,118.548C115.357,119.429 114.488,120.083 113.48,120.4C112.023,120.872 110.486,121.049 108.96,120.92C108.08,120.92 107.7,121.22 107.74,122.14C107.78,123.06 107.74,124.14 107.74,125.06C107.74,125.98 106.98,126.68 105.9,126.66C104.82,126.64 104.2,126.16 104.2,125.08C104.2,120.86 104.2,116.64 104.2,112.42C104.177,112.208 104.202,111.995 104.274,111.794C104.346,111.594 104.462,111.413 104.614,111.265C104.767,111.116 104.951,111.004 105.153,110.938C105.355,110.871 105.569,110.851 105.78,110.88L108.48,110.88Z" fill="#FDFDFD"/>
<path d="M149.8,110.62C150.7,110.794 151.574,111.083 152.4,111.48C152.917,111.738 153.367,112.112 153.714,112.574C154.061,113.036 154.296,113.572 154.4,114.14C154.477,114.346 154.507,114.566 154.489,114.785C154.472,115.003 154.406,115.216 154.297,115.407C154.189,115.597 154.039,115.762 153.86,115.889C153.681,116.015 153.476,116.101 153.26,116.14C152.32,116.38 151.38,116.4 150.94,115.28C150.76,114.84 150.7,114.38 150.14,114.28C147.44,114.1 146.26,115.12 146.3,117.72C146.025,119.599 146.253,121.517 146.96,123.28C147.891,123.57 148.889,123.57 149.82,123.28C150.068,123.227 150.298,123.111 150.487,122.943C150.676,122.775 150.819,122.56 150.9,122.32C150.971,122.062 151.1,121.824 151.277,121.625C151.454,121.425 151.676,121.268 151.923,121.168C152.171,121.067 152.438,121.025 152.705,121.045C152.971,121.064 153.23,121.144 153.46,121.28C154.64,121.76 154.62,122.74 154.26,123.72C153.962,124.483 153.455,125.147 152.797,125.635C152.139,126.123 151.357,126.416 150.54,126.48C149.486,126.634 148.424,126.727 147.36,126.76C142.4,125.6 142.08,125.22 142.08,120.02C142.08,118.54 142.08,117.04 142.08,115.56C141.967,114.461 142.293,113.361 142.985,112.5C143.678,111.639 144.682,111.086 145.78,110.96C147.104,110.707 148.452,110.593 149.8,110.62Z" fill="#FDFDFD"/>
<path d="M138.42,118.68C138.42,120.68 138.42,122.56 138.42,124.52C138.42,126.06 137.96,126.52 136.6,126.52C135.24,126.52 134.82,125.8 134.82,124.52C134.82,120.52 134.82,116.52 134.82,112.52C134.82,111.22 135.4,110.64 136.66,110.64C137.92,110.64 138.4,111.16 138.42,112.64C138.42,114.64 138.42,116.64 138.42,118.64L138.42,118.68Z" fill="#FDFDFD"/>
<path d="M157.28,118.56C157.28,116.56 157.28,114.56 157.28,112.56C157.28,111.1 157.74,110.66 159.28,110.56C161.82,110.56 164.38,110.56 166.92,110.56C168.04,110.56 168.92,110.9 168.92,112.2C168.92,113.5 168.14,113.84 167.02,113.84C165.4,113.84 163.78,113.84 162.16,113.84C161.02,113.84 161.04,114.46 161.04,115.26C161.04,116.06 161.04,116.74 162.16,116.68C163.28,116.62 164.92,116.68 166.32,116.68C167.34,116.68 168.02,117.06 168.08,118.18C168.116,118.41 168.098,118.646 168.027,118.869C167.956,119.091 167.834,119.294 167.671,119.461C167.508,119.628 167.308,119.755 167.088,119.831C166.867,119.907 166.631,119.931 166.4,119.9C165,119.9 163.62,119.9 162.22,119.9C160.82,119.9 161.12,120.9 161.06,121.7C161,122.5 161.06,123.22 162.3,123.16C163.9,123.16 165.52,123.16 167.14,123.16C168.22,123.16 168.98,123.56 169,124.72C169.02,125.88 168.32,126.42 167.14,126.42L159.36,126.42C157.92,126.42 157.48,125.96 157.46,124.42C157.46,122.42 157.46,120.42 157.46,118.42L157.28,118.56Z" fill="#FCFCFC"/>
<path d="M159.84,95.4C159.84,92.86 159.84,90.3 159.84,87.76C159.84,86.72 159.48,86.34 158.46,86.44C157.44,86.54 156.88,86.44 156.1,86.44C154.94,86.44 154.42,85.86 154.42,84.72C154.42,83.58 154.92,83.04 156,83.04L167.4,83.04C168.5,83.04 168.96,83.7 168.96,84.74C168.991,84.961 168.972,85.186 168.904,85.399C168.835,85.611 168.72,85.805 168.566,85.967C168.412,86.129 168.224,86.253 168.015,86.332C167.806,86.41 167.582,86.44 167.36,86.42C166.574,86.46 165.786,86.46 165,86.42C163.88,86.3 163.58,86.76 163.6,87.84C163.6,92.88 163.6,97.84 163.6,102.98C163.6,104.52 163.14,104.98 161.8,104.98C160.46,104.98 159.8,104.54 159.8,103.12C159.8,100.52 159.8,97.94 159.8,95.34L159.84,95.4Z" fill="#FDFDFD"/>
<path d="M151.74,94.201C150.232,93.131 148.546,92.339 146.76,91.86C145.709,91.503 144.68,91.082 143.68,90.6C143.295,90.443 142.974,90.16 142.77,89.796C142.567,89.433 142.493,89.011 142.56,88.6C142.545,88.149 142.682,87.706 142.951,87.342C143.22,86.979 143.604,86.718 144.04,86.6C145.34,86.181 146.74,86.181 148.04,86.6C148.32,86.646 148.581,86.773 148.791,86.964C149.001,87.156 149.15,87.405 149.22,87.681C149.42,89.521 150.52,89.821 152.06,89.481C151.84,91.081 152.4,92.681 151.74,94.201Z" fill="#103BE9"/>
<path d="M146.98,123.2C146.02,123.2 145.7,122.68 145.7,121.8C145.7,119.8 145.7,117.8 145.7,115.8C145.657,115.582 145.665,115.358 145.721,115.145C145.778,114.931 145.882,114.732 146.027,114.565C146.171,114.397 146.352,114.265 146.555,114.177C146.758,114.09 146.979,114.049 147.2,114.06C148.197,113.868 149.227,113.951 150.18,114.3C149.34,114.3 149.1,114.9 148.94,115.66C148.416,118.205 147.761,120.721 146.98,123.2Z" fill="#103BE9"/>
<path d="M108.28,98.36C108.28,95.34 108.28,95.34 111.34,95.32L112.44,95.32C114.66,95.32 115.62,96.18 115.72,98.06C115.81,98.499 115.8,98.951 115.692,99.385C115.583,99.82 115.378,100.223 115.091,100.567C114.805,100.911 114.445,101.186 114.038,101.372C113.631,101.558 113.187,101.65 112.74,101.64C111.64,101.76 110.52,101.64 109.42,101.64C108.32,101.64 108.24,101.32 108.28,100.5C108.32,99.68 108.28,99.1 108.28,98.36Z" fill="#103BE9"/>
<path d="M110.96,91.88C107.92,91.88 108.2,92.42 108.18,89.1C108.18,86.26 108,86.68 110.62,86.64C111.398,86.57 112.181,86.57 112.96,86.64C114.68,86.86 115.36,87.64 115.34,89.26C115.32,90.88 114.76,91.58 112.9,91.76C112.26,91.92 111.56,91.88 110.96,91.88Z" fill="#103BE9"/>
<path d="M124.68,117.28C122.8,117.28 121.98,116.04 122.68,114.46C122.73,114.334 122.813,114.223 122.92,114.14C124.537,113.799 126.223,114.04 127.68,114.82C127.793,114.985 127.868,115.174 127.899,115.372C127.93,115.569 127.917,115.772 127.859,115.964C127.801,116.156 127.702,116.332 127.567,116.48C127.432,116.629 127.266,116.745 127.08,116.82C126.32,117.136 125.503,117.293 124.68,117.28Z" fill="#103BE9"/>
<path d="M107.72,115.96C107.72,113.96 107.72,113.96 109.52,114.08C110.358,114.066 111.193,114.174 112,114.4C112.319,114.478 112.6,114.664 112.797,114.927C112.994,115.189 113.094,115.512 113.08,115.84C113.119,116.189 113.028,116.541 112.826,116.828C112.623,117.116 112.322,117.319 111.98,117.4C110.864,117.726 109.697,117.834 108.54,117.72C107.24,117.6 107.94,116.52 107.72,115.96Z" fill="#103BE9"/>
</svg>
