<svg width="168" height="52" viewBox="0 0 168 52" fill="none" xmlns="http://www.w3.org/2000/svg" xmlns:xlink="http://www.w3.org/1999/xlink">
<path d="M2.243,43.383L150.506,38.21C151.98,36.8 153.365,35.301 154.655,33.721L166.119,19.754C166.28,19.559 166.38,19.321 166.408,19.069C166.437,18.818 166.391,18.563 166.277,18.337C166.164,18.111 165.987,17.923 165.768,17.795C165.55,17.668 165.299,17.606 165.046,17.619L107.907,20.287C99.943,9.596 89.716,-0.5 73.789,-0.5L33.022,-0.5L33.009,-0.45L22.402,-0.45L23.635,2.046C24.337,3.47 25.423,4.668 26.771,5.507C28.119,6.345 29.674,6.789 31.262,6.789L25.621,22.821C24.804,25.139 23.332,27.17 21.383,28.666C19.433,30.163 17.091,31.062 14.641,31.252L2.626,32.19C2.1,32.232 1.591,32.395 1.139,32.667C0.687,32.94 0.305,33.314 0.023,33.76C-0.259,34.206 -0.433,34.712 -0.485,35.237C-0.537,35.762 -0.467,36.292 -0.278,36.785L2.243,43.383ZM73.789,3.313C87.49,3.313 96.438,11.734 103.329,20.572L73.42,22.047L70.238,3.317L73.789,3.313ZM48.04,3.313L67.5,3.313L70.704,22.176L40.886,23.651L48.04,3.313Z" fill="#103BE9"/>
<path d="M3.297,46.138L4.206,48.513C4.552,49.529 5.208,50.411 6.08,51.036C6.953,51.66 8,51.996 9.073,51.996L116.2,51.996C127.464,51.993 138.392,48.157 147.185,41.117L3.297,46.138Z" fill="#103BE9"/>
</svg>
