<svg width="280" height="280" viewBox="0 0 280 280" fill="none" xmlns="http://www.w3.org/2000/svg" xmlns:xlink="http://www.w3.org/1999/xlink">
<path d="M141.26,171.86C162.015,171.86 178.84,155.035 178.84,134.28C178.84,113.525 162.015,96.7 141.26,96.7C120.505,96.7 103.68,113.525 103.68,134.28C103.68,155.035 120.505,171.86 141.26,171.86Z" fill="#FFFFFF"/>
<path d="M218.06,78.1C217.94,75.62 217.68,73.16 217.48,70.54C186.88,76.02 162.42,62.16 138.08,46.84L138.08,59.64C138.84,59.487 139.624,59.503 140.378,59.686C141.131,59.869 141.835,60.215 142.44,60.7C157.04,69.7 172.44,77.18 189.44,80.12C195.66,81.2 202.06,81.26 208.38,81.78C208.38,91.78 208.94,101.78 208.26,111.78C207.187,131.164 202.585,150.189 194.68,167.92C183.68,191.92 167.1,210.62 142.3,221.06C140.954,221.564 139.506,221.736 138.08,221.56L138.08,231.44L143.4,231.44C143.755,231.125 144.144,230.85 144.56,230.62C171.42,219.68 190.04,200.18 202.24,174.34C216.64,143.84 219.86,111.36 218.06,78.1Z" fill="#006F91"/>
<path d="M136.24,221.16C112.24,211.36 96.06,193.44 85.22,170.34C75.44,149.5 71.22,127.32 69.9,104.5C69.5,97.64 69.48,90.74 69.3,83.84C69.319,82.77 69.393,81.702 69.52,80.64C76.76,80.16 83.74,79.94 90.68,79.16C107.08,77.231 122.658,70.924 135.78,60.9C136.456,60.348 137.229,59.928 138.06,59.66L138.06,46.88C115.88,66.88 89.62,73.38 59.9,69.74C59.9,79.08 59.68,87.86 59.9,96.62C60.66,121.12 64.22,145.1 73.64,167.9C83.82,192.52 99.22,212.74 123.1,225.64C126.96,227.64 130.98,229.64 134.92,231.5L138.02,231.5L138.02,221.62C137.41,221.542 136.812,221.387 136.24,221.16Z" fill="#00AEEF"/>
<path d="M132.26,167.42C127,155.92 120.5,146 110.26,139C110.522,137.703 111.261,136.552 112.332,135.774C113.402,134.996 114.725,134.649 116.04,134.8C120.799,134.986 125.328,136.899 128.78,140.18C129.74,140.98 130.62,141.84 131.44,142.6C133.62,139.8 135.82,137.04 138,134.28L138,76.66C120.42,88.8 114.94,90.5 84.98,92.98C84.5,122.8 88.1,151.44 104.58,176.98C112.077,188.805 122.914,198.139 135.72,203.8C136.445,204.134 137.212,204.369 138,204.5L138,156.64C136.08,160.22 134.14,163.78 132.26,167.42Z" fill="#103BE9"/>
<path d="M142.62,203.8C160.96,195.48 173.22,181.32 181.54,163.4C188.507,147.772 192.431,130.958 193.1,113.86C193.48,107.16 193.1,100.44 193.1,93.5C183.375,94.182 173.625,92.593 164.62,88.86C155.76,85.14 147.22,80.66 138.34,76.42L138,76.66L138,134.28C141.88,129.42 145.68,124.58 149.1,119.46C154.22,111.82 161.1,111.24 169.58,112.28C157.491,125.911 146.903,140.804 138,156.7L138,204.56C139.581,204.786 141.194,204.52 142.62,203.8Z" fill="#00228E"/>
</svg>
