<svg width="280" height="280" viewBox="0 0 280 280" fill="none" xmlns="http://www.w3.org/2000/svg" xmlns:xlink="http://www.w3.org/1999/xlink">
<path d="M229.7,174.74C229.7,188.94 229.8,203.16 229.7,217.36C229.7,225.98 221.36,234.7 212.82,234.74C189.7,234.86 166.58,234.74 143.48,234.74C141.48,232.5 142.44,229.94 142.66,227.46C143.067,226.992 143.582,226.63 144.161,226.407C144.74,226.184 145.364,226.106 145.98,226.18C147.52,226.08 149.08,226.18 150.62,226.18C152.773,226.19 154.876,225.529 156.636,224.288C158.395,223.048 159.725,221.29 160.44,219.26C160.845,218.006 161.34,216.783 161.92,215.6C164.72,214.42 167.74,214.84 170.66,214.54C180.36,213.54 190.08,212.78 199.78,211.82L200.7,211.82C205.82,211.38 206.06,211.12 206.06,206.06L206.06,185.22C206.06,184.5 206.06,183.8 206.06,183.1C206.06,182.4 205.88,181.48 205,181.1C204.581,180.977 204.133,180.994 203.725,181.15C203.317,181.305 202.971,181.589 202.74,181.96C201.482,183.383 200.836,185.244 200.94,187.14C200.94,191.52 200.94,195.88 200.94,200.26C200.94,205 199.86,205.86 195.28,204.26C178.74,198.72 168.66,187.46 165.28,170.26C164.69,165.765 164.55,161.223 164.86,156.7C164.786,156.275 164.841,155.838 165.02,155.445C165.198,155.053 165.491,154.723 165.86,154.5C167.56,154.22 167.66,155.72 168.14,156.66C170.84,161.88 177.64,164.66 185.12,160.08C182.241,159.215 179.495,157.956 176.96,156.34C176.102,155.795 175.332,155.12 174.68,154.34C173.46,152.86 173.76,151.84 175.58,151.2C177.4,150.56 179.08,150.52 180.8,149.96C185.499,148.53 189.673,145.747 192.8,141.96C193.52,141.06 194.02,139.66 195.6,139.78C197.28,140.42 196.92,141.92 196.98,143.18C197.16,147.18 197.24,147.36 201.28,147.48C207.943,147.826 214.324,150.278 219.503,154.483C224.683,158.689 228.393,164.43 230.1,170.88C230.372,172.177 230.232,173.526 229.7,174.74Z" fill="#103BE9"/>
<path d="M121.14,234.76C99.9,234.76 78.66,234.76 57.42,234.76C54.004,234.629 50.739,233.315 48.185,231.042C45.631,228.769 43.946,225.678 43.42,222.3C42.44,214.72 41.78,207.12 41.02,199.52C40.3,192.38 39.82,185.22 38.86,178.12C37.42,167.62 44.06,159.74 54.6,159.8C55.399,160.275 55.991,161.031 56.26,161.92C58.898,172.777 64.245,182.789 71.8,191.02C72.536,191.821 73.119,192.75 73.52,193.76C73.54,193.98 73.54,194.201 73.52,194.42C73.52,195.2 73.52,195.98 73.52,196.76C73.7,201.92 77.52,204.58 82.46,203.06C83.2,202.84 83.88,202.44 84.62,202.22C84.852,202.19 85.088,202.19 85.32,202.22C87.246,202.874 89.107,203.704 90.88,204.7C99.419,208.815 108.762,210.986 118.24,211.06C120.417,211.232 122.594,210.714 124.46,209.58C125.78,209.8 125.74,210.88 125.98,211.86C126.035,213.546 126.263,215.221 126.66,216.86C126.86,217.9 126.5,218.86 126.66,219.98C127.086,222.022 127.333,224.096 127.4,226.18C127.36,231.48 126.04,233.32 121.14,234.76Z" fill="#006F91"/>
<path d="M121.02,96.06C121.075,99.926 119.612,103.659 116.947,106.459C114.281,109.26 110.624,110.904 106.76,111.04C102.34,111.14 102.34,111.14 102.34,115.54L102.34,136.66C101.16,136.66 100.76,135.8 100.2,135.24C92.68,127.74 85.14,120.24 77.68,112.68C77.161,112.111 76.522,111.666 75.81,111.375C75.097,111.084 74.328,110.956 73.56,111C66.92,111 60.28,111 53.56,111C51.584,111.029 49.621,110.663 47.788,109.923C45.956,109.182 44.29,108.083 42.888,106.689C41.487,105.295 40.378,103.634 39.628,101.806C38.878,99.977 38.501,98.016 38.52,96.04C38.52,83.546 38.52,71.046 38.52,58.54C38.488,56.561 38.853,54.596 39.594,52.76C40.334,50.925 41.435,49.257 42.832,47.854C44.229,46.452 45.892,45.344 47.725,44.596C49.557,43.848 51.521,43.476 53.5,43.5C59.74,43.5 66,43.5 72.24,43.5C73.5,44.32 73.36,45.62 73.4,46.86C73.58,51 73.26,55.12 73.74,59.26C74.702,67.623 78.231,75.483 83.84,81.76L84.46,82.46C85.8,84.16 85.6,84.92 83.64,85.78C83.276,85.915 82.922,86.076 82.58,86.26C82.143,86.491 81.787,86.851 81.56,87.29C81.334,87.73 81.248,88.228 81.313,88.719C81.378,89.209 81.592,89.667 81.926,90.032C82.26,90.397 82.698,90.651 83.18,90.76C84.161,91.038 85.187,91.12 86.2,91C89.42,90.74 92.64,91.72 95.84,90.84L97.44,91.18C102.08,94.28 107.44,94.14 112.72,94.72C114.56,94.94 116.42,94.72 118.28,94.72C118.815,94.676 119.352,94.777 119.834,95.013C120.317,95.248 120.726,95.61 121.02,96.06Z" fill="#006F91"/>
<path d="M72.82,193.96C66.38,187.354 61.279,179.564 57.8,171.02C56.387,167.381 55.289,163.627 54.52,159.8L104.78,159.8C114.38,159.8 120.52,165.8 121.12,175.34C121.324,179.765 121.798,184.173 122.54,188.54C124.02,189.52 123.8,191.18 123.96,192.54C124.5,197.26 124.94,202 125.38,206.72C125.5,207.86 125.64,209.12 124.42,209.88C124.42,211.3 124.04,212.22 122.32,212.28C109.452,212.934 96.672,209.827 85.54,203.34C85.351,203.204 85.171,203.057 85,202.9C84.36,201.9 85,201.12 85.4,200.28C86.075,198.907 86.245,197.341 85.879,195.855C85.513,194.37 84.636,193.062 83.4,192.16C82.148,191.274 80.614,190.881 79.091,191.054C77.567,191.227 76.161,191.956 75.14,193.1C74.5,193.76 73.94,194.6 72.82,193.96Z" fill="#00AEEF"/>
<path d="M166.54,154.66C165.68,159.663 165.68,164.776 166.54,169.78C169.5,186.52 179.26,197.5 195.26,203.04C195.92,203.26 196.62,203.38 197.26,203.58C199,204.1 199.74,203.4 199.72,201.58C199.72,196.5 199.72,191.42 199.72,186.34C199.633,184.765 200.052,183.203 200.915,181.882C201.779,180.562 203.042,179.552 204.52,179C206.52,178.28 207.18,178.6 207.18,180.7C207.18,190.46 207.18,200.22 207.18,209.98C207.18,211.76 206.26,212.32 204.76,212.46L191.96,213.64C184.12,214.36 176.28,215.1 168.44,215.78C166.34,215.96 164.24,215.94 162.14,216.02C159.88,217.9 157.34,217.02 154.88,216.82C153.64,216.04 153.64,214.82 153.52,213.54C152.991,207.089 150.678,200.912 146.84,195.7C141.38,187.14 140.98,178.06 144.04,168.64C144.48,167.24 145.76,166.3 146.24,164.9C146.64,164.22 146.24,163.86 145.72,163.52C150.22,157.76 155.08,152.42 162.08,149.52C162.711,149.13 163.438,148.924 164.18,148.924C164.922,148.924 165.649,149.13 166.28,149.52C167.16,151.28 168.22,152.88 166.54,154.66Z" fill="#103BE9"/>
<path d="M121.02,96.06C115.6,96.06 110.14,96.38 104.78,95.08C102.091,94.64 99.502,93.718 97.14,92.36C97.5,90.98 98.68,91.24 99.64,91.18C101.64,91.04 103.64,91.18 105.64,91.04C107.08,90.86 108.22,90.16 108.2,88.52C108.21,88.182 108.148,87.846 108.019,87.534C107.89,87.222 107.696,86.94 107.45,86.708C107.205,86.476 106.913,86.298 106.594,86.187C106.275,86.075 105.937,86.032 105.6,86.06C100.08,85.82 94.58,86.06 88.66,86.06C90.398,87.697 92.341,89.103 94.44,90.24C95.18,90.74 96.22,91.1 95.72,92.36L84.26,92.36C81.42,92.36 79.96,91.22 79.78,89C79.6,86.78 80.74,85.32 83.66,84.8C83.955,84.7 84.237,84.565 84.5,84.4C81.888,81.488 79.608,78.295 77.7,74.88C74.373,69.112 72.556,62.597 72.42,55.94C72.3,51.8 72.42,47.66 72.42,43.54C83.9,43.54 95.36,43.36 106.84,43.54C110.607,43.617 114.197,45.149 116.859,47.814C119.521,50.48 121.048,54.073 121.12,57.84C121.2,70.62 121.04,83.34 121.02,96.06Z" fill="#00AEEF"/>
<path d="M165.7,149.94C158.858,151.774 152.921,156.041 149,161.94C148.2,163.06 147.42,163.94 145.98,163.56C144.2,163.26 142.42,163.04 140.68,162.64C138.785,162.276 137.013,161.436 135.532,160.199C134.051,158.962 132.909,157.368 132.213,155.568C131.517,153.768 131.29,151.821 131.554,149.909C131.817,147.997 132.563,146.184 133.72,144.64C134.532,144.034 135.411,143.524 136.34,143.12C137.153,142.83 137.894,142.369 138.513,141.767C139.131,141.165 139.613,140.437 139.924,139.632C140.235,138.827 140.369,137.964 140.317,137.102C140.264,136.241 140.027,135.401 139.62,134.64C139.18,133.56 138.62,132.52 138.1,131.48C137.047,129.465 136.543,127.209 136.638,124.937C136.733,122.666 137.423,120.46 138.64,118.54C139.98,116.24 141.32,113.94 142.86,111.78C144.051,110.09 144.849,108.155 145.195,106.116C145.541,104.078 145.426,101.988 144.86,100C143.592,95.439 142.919,90.733 142.86,86C143.1,77.76 149.86,68.76 157.8,66.76C159.1,66.44 159.66,65.12 161,65.08C162.025,64.922 163.073,65.01 164.057,65.337C165.041,65.664 165.933,66.22 166.66,66.96C166.799,67.323 166.856,67.713 166.825,68.1C166.793,68.488 166.676,68.864 166.48,69.2C163.946,72.786 162.932,77.229 163.66,81.56C163.66,82.7 162.72,83.3 162.08,84.06C155.607,90.988 152.079,100.16 152.24,109.64C152.36,114.16 151.74,118.7 152.64,123.18C153.252,126.614 154.582,129.88 156.543,132.765C158.504,135.649 161.052,138.088 164.02,139.92C165.16,140.62 166.7,141.02 166.86,142.76C167.173,144.36 167.267,145.995 167.14,147.62C167.08,148.7 166.82,149.62 165.7,149.94Z" fill="#00228E"/>
<path d="M229.7,174.74C228.858,169.566 226.801,164.666 223.7,160.44C220.969,156.739 217.411,153.727 213.311,151.643C209.21,149.56 204.68,148.463 200.08,148.44C199.3,148.44 198.52,148.44 197.74,148.44C196.32,148.44 195.9,147.94 195.96,146.44C196.325,144.279 196.195,142.064 195.58,139.96C194.8,139.28 195.34,138.2 194.84,137.44C195.76,134.92 197.88,133.2 199.22,130.92C200.16,129.596 200.77,128.067 201,126.46C201.144,126.279 201.259,126.076 201.34,125.86C201.64,123.64 202.98,121.62 202.62,119.26C202.665,118.909 202.782,118.572 202.963,118.269C203.144,117.965 203.386,117.702 203.673,117.496C203.96,117.29 204.286,117.145 204.631,117.07C204.976,116.995 205.333,116.991 205.68,117.06C207.421,117.33 209.202,117.113 210.826,116.432C212.45,115.75 213.854,114.631 214.88,113.2C215.54,112.42 216.24,111.7 216.88,110.94C217.092,110.826 217.322,110.752 217.56,110.72C217.96,110.72 218.44,110.72 218.68,110.96C221.28,114.26 225.22,116 228.04,119.06C230.612,121.623 232.364,124.892 233.077,128.453C233.789,132.013 233.428,135.705 232.04,139.06C231.68,140.1 231.16,141.06 230.82,142.1C230.221,143.555 230.185,145.182 230.722,146.661C231.258,148.141 232.327,149.367 233.72,150.1C234.78,150.754 235.802,151.468 236.78,152.24C238.59,156.202 238.868,160.694 237.56,164.849C236.253,169.005 233.453,172.528 229.7,174.74Z" fill="#00228E"/>
<path d="M217.24,111.54C216.427,113.752 214.9,115.631 212.901,116.88C210.903,118.129 208.545,118.678 206.2,118.44C205.08,118.44 204.2,118.44 203.58,119.42C202.78,122.2 200.44,123.76 198.56,125.68C195.447,128.387 191.888,130.532 188.04,132.02C185.657,132.662 183.324,133.478 181.06,134.46C180.2,134.46 179.36,134.62 178.5,134.58C177.369,134.604 176.27,134.208 175.413,133.47C174.556,132.731 174.003,131.702 173.86,130.58C173.682,129.95 173.643,129.29 173.746,128.644C173.849,127.997 174.092,127.381 174.458,126.839C174.823,126.296 175.303,125.84 175.863,125.501C176.423,125.163 177.05,124.951 177.7,124.88C183.162,123.814 188.278,121.424 192.6,117.92C193.775,116.898 194.835,115.752 195.76,114.5C196.063,114.189 196.268,113.795 196.35,113.369C196.432,112.942 196.387,112.501 196.22,112.1C195.182,109.943 194.88,107.505 195.36,105.16C195.52,104.56 194.98,103.98 194.92,103.36C194.963,102.889 195.063,102.426 195.22,101.98C195.722,99.548 196.799,97.271 198.36,95.34C198.71,94.824 198.859,94.198 198.78,93.58C196.94,81.58 190.78,72.96 179.34,68.48C176.197,67.033 172.62,66.839 169.34,67.94C168.18,68.36 167.06,68.6 166.16,67.42C164.585,66.488 162.79,65.991 160.96,65.98C159.72,66.2 158.36,67.6 157.36,65.6C164.3,58.84 172.32,56.76 181.6,59.9C187.7,60.5 192.38,63.9 196.64,67.9C197.42,68.66 198.26,69.32 199.04,70.08C199.582,71.417 200.354,72.649 201.32,73.72C205.368,78.755 207.707,84.947 208,91.4C207.8,91.82 207.68,92.36 207.34,92.6C203.94,95.16 204.48,98.6 205.34,101.94C205.796,103.64 206.678,105.195 207.903,106.458C209.128,107.722 210.655,108.652 212.34,109.16C213.447,109.517 214.585,109.765 215.74,109.9C216.6,110.12 217.5,110.3 217.24,111.54Z" fill="#006F91"/>
<path d="M197.94,70.74C193.305,66.023 187.712,62.354 181.54,59.98C194.32,58.72 204.36,64.58 213.3,72.74C216.279,75.471 218.627,78.817 220.181,82.548C221.736,86.278 222.459,90.302 222.3,94.34C222.3,99.28 222.68,103.98 225.7,108.16C227.279,110.198 229.201,111.944 231.38,113.32C235.218,115.685 238.007,119.428 239.175,123.782C240.342,128.136 239.8,132.772 237.66,136.74C236.372,139.118 235.625,141.751 235.473,144.452C235.321,147.152 235.767,149.852 236.78,152.36C230.1,151.32 227.52,146.72 230.16,140.52C234.34,130.66 232.16,122.82 223.32,116.7C221.223,115.225 219.327,113.484 217.68,111.52C217.38,111.213 217.16,110.838 217.038,110.427C216.916,110.015 216.896,109.581 216.98,109.16C217.515,106.886 217.513,104.518 216.975,102.244C216.437,99.971 215.378,97.853 213.88,96.06C213.222,89.543 210.527,83.399 206.18,78.5C203.576,75.766 200.825,73.176 197.94,70.74Z" fill="#103BE9"/>
<path d="M146.42,164.88C146.78,165.52 146.42,166.08 146.22,166.66C144.19,171.095 143.252,175.951 143.485,180.823C143.718,185.694 145.116,190.439 147.56,194.66C147.652,194.868 147.732,195.082 147.8,195.3C147.849,195.804 147.767,196.313 147.56,196.776C147.353,197.239 147.029,197.64 146.62,197.94C140.473,204.1 134.327,210.24 128.18,216.36C127.52,217.02 126.84,217.72 125.76,217.38C124.74,214.98 125.22,212.32 124.42,209.88C123.86,203.88 123.28,197.88 122.74,192C122.74,190.84 122.62,189.68 122.54,188.52L142.54,168.66C143.84,167.42 145.14,166.2 146.42,164.88Z" fill="#00228E"/>
<path d="M157.3,65.68C158.461,66.055 159.687,66.184 160.9,66.06C160.3,67.02 159.2,67.1 158.28,67.48C150.8,70.6 145.74,75.88 144.28,83.98C143.651,88.881 144.151,93.861 145.74,98.54C146.572,101.024 146.78,103.675 146.348,106.259C145.916,108.843 144.855,111.282 143.26,113.36C141.948,115.197 140.753,117.114 139.68,119.1C138.545,120.841 137.89,122.851 137.781,124.927C137.672,127.002 138.113,129.07 139.06,130.92C139.56,131.98 140.12,132.92 140.6,134.08C143.2,139.68 139.88,144.76 133.68,144.72C134.436,142.822 134.731,140.771 134.54,138.737C134.348,136.703 133.677,134.744 132.58,133.02C130.954,130.63 130.15,127.776 130.291,124.889C130.432,122.002 131.509,119.24 133.36,117.02C134.6,115.34 135.52,113.4 136.74,111.68C137.828,110.101 138.568,108.31 138.913,106.424C139.258,104.539 139.199,102.601 138.74,100.74C137.654,96.667 136.944,92.503 136.62,88.3C136.481,82.857 138.365,77.557 141.908,73.423C145.451,69.289 150.401,66.616 155.8,65.92C156.24,65.9 156.76,65.78 157.3,65.68Z" fill="#103BE9"/>
<path d="M121.14,234.76C126.02,232.22 126.96,228.06 126.02,223.08C125.876,221.999 125.802,220.91 125.8,219.82C125.928,219.491 126.159,219.213 126.458,219.025C126.757,218.838 127.108,218.752 127.46,218.78C133.651,218.43 139.86,218.51 146.04,219.02C146.72,219.4 147.16,220.08 146.82,220.74C145.7,222.9 145.38,225.46 143.6,227.28L143.6,234.74L121.14,234.76Z" fill="#006F91"/>
<path d="M195.7,137.76C195.93,138.107 196.052,138.514 196.052,138.93C196.052,139.346 195.93,139.753 195.7,140.1C193.807,143.2 191.267,145.856 188.253,147.885C185.24,149.915 181.825,151.271 178.24,151.86C177.22,152.06 175.54,151.86 175.38,152.8C175.22,153.74 176.7,154.54 177.64,155.2C181.014,157.379 184.787,158.868 188.74,159.58C184.16,162.82 179.78,164.34 174.92,163.18C172.828,162.787 170.908,161.758 169.422,160.233C167.937,158.708 166.958,156.762 166.62,154.66C166.484,153.058 166.175,151.476 165.7,149.94C166.62,147.48 165.98,144.94 166.18,142.44C166.96,141.54 167.9,141.9 168.76,142.2C172.831,143.646 177.202,144.038 181.465,143.338C185.728,142.639 189.745,140.871 193.14,138.2C193.7,137.74 194.58,137.06 195.7,137.76Z" fill="#FFFFFF"/>
<path d="M143.7,227.28C143.755,224.556 144.736,221.932 146.48,219.84C147.06,216.44 152.28,214.1 154.96,216.04L162.42,216.04C162.404,217.528 162.095,218.999 161.511,220.367C160.926,221.736 160.077,222.976 159.013,224.017C157.948,225.057 156.689,225.877 155.307,226.43C153.925,226.983 152.448,227.258 150.96,227.24C148.44,227.32 146.02,227.28 143.7,227.28Z" fill="#FFFFFF"/>
<path d="M72.82,193.96C73.167,193.647 73.494,193.313 73.8,192.96C74.394,192.161 75.142,191.49 76,190.985C76.858,190.48 77.808,190.151 78.794,190.019C79.781,189.887 80.784,189.954 81.744,190.215C82.705,190.476 83.603,190.927 84.386,191.541C85.17,192.155 85.822,192.92 86.306,193.79C86.789,194.66 87.094,195.618 87.201,196.607C87.309,197.597 87.217,198.598 86.932,199.551C86.647,200.505 86.173,201.392 85.54,202.16L85,202.92L84.54,202.92C83.862,203.005 83.174,202.916 82.54,202.66C78.725,200.718 75.411,197.918 72.86,194.48L72.82,193.96Z" fill="#FFFFFF"/>
<path d="M72.8,194.48L84.54,202.92C83.376,203.965 81.905,204.605 80.347,204.742C78.789,204.879 77.228,204.506 75.9,203.68C72.887,201.813 71.853,198.747 72.8,194.48Z" fill="#FFFFFF"/>
<path d="M68.22,79.06C68.679,81.748 68.78,84.485 68.52,87.2C68.52,88.36 67.6,88.52 66.68,88.52L55.44,88.52C54.36,88.52 53.62,88.14 53.62,86.92C53.62,84.5 53.46,82.06 53.62,79.66C53.761,78.568 54.173,77.529 54.82,76.638C55.466,75.747 56.326,75.033 57.32,74.56C57.698,74.616 58.054,74.769 58.356,75.004C58.657,75.239 58.893,75.547 59.04,75.9C61.44,79.9 63.04,80.4 67.44,79.12C67.696,79.062 67.958,79.042 68.22,79.06Z" fill="#FFFFFF"/>
<path d="M95.8,92.26C92.24,90.413 88.939,88.107 85.98,85.4C86.6,84.58 87.28,84.8 87.86,84.8L105.18,84.8C108.18,84.8 109.82,86.2 109.8,88.58C109.78,90.96 108.12,92.24 105.1,92.28L97.1,92.28L95.8,92.26Z" fill="#FFFFFF"/>
<path d="M57.7,59.44C59.097,58.669 60.707,58.373 62.287,58.597C63.867,58.82 65.332,59.551 66.46,60.68C67.589,61.808 68.32,63.273 68.543,64.853C68.767,66.433 68.471,68.043 67.7,69.44C64.64,73.08 58.18,69.6 56.74,65.44C56.229,64.471 56.046,63.362 56.219,62.28C56.392,61.198 56.912,60.201 57.7,59.44Z" fill="#FFFFFF"/>
<path d="M57.7,59.44C56.22,66.62 60.44,70.84 67.7,69.44C67.02,71.86 64.56,72.44 63.08,74.02C62.84,74.32 62.536,74.562 62.19,74.729C61.844,74.895 61.464,74.982 61.08,74.982C60.696,74.982 60.317,74.895 59.971,74.729C59.624,74.562 59.32,74.32 59.08,74.02C58.64,73.22 57.76,73.02 57.08,72.54C55.901,71.867 54.932,70.882 54.278,69.692C53.625,68.503 53.313,67.156 53.377,65.8C53.441,64.444 53.879,63.133 54.642,62.01C55.405,60.888 56.463,59.998 57.7,59.44Z" fill="#FFFFFF"/>
<path d="M59.1,73.92C60.416,73.617 61.784,73.617 63.1,73.92C64.359,74.194 65.514,74.824 66.425,75.735C67.336,76.646 67.966,77.8 68.24,79.06C67.96,80.62 66.74,80.88 65.48,81.06C61.62,81.42 59.22,79.48 57.48,74.62L59.1,73.92Z" fill="#FFFFFF"/>
<path d="M94.8,77.28C91.28,77.28 87.78,77.28 84.26,77.28C81.46,77.28 79.86,75.8 79.88,73.5C79.9,71.2 81.52,69.82 84.36,69.8C91.373,69.8 98.393,69.8 105.42,69.8C108.22,69.8 109.82,71.26 109.8,73.56C109.78,75.86 108.16,77.22 105.32,77.26C101.82,77.32 98.3,77.28 94.8,77.28Z" fill="#FFFFFF"/>
<path d="M100.36,62.26C98.56,62.26 96.76,62.26 94.98,62.26C94.47,62.282 93.96,62.199 93.484,62.014C93.008,61.829 92.575,61.547 92.214,61.186C91.853,60.825 91.571,60.392 91.386,59.916C91.201,59.44 91.117,58.93 91.14,58.42C91.142,57.93 91.244,57.445 91.439,56.996C91.635,56.546 91.921,56.142 92.278,55.806C92.636,55.471 93.058,55.213 93.519,55.046C93.98,54.88 94.471,54.81 94.96,54.84C98.62,54.84 102.3,54.84 105.96,54.84C106.47,54.802 106.982,54.871 107.465,55.04C107.948,55.209 108.39,55.477 108.765,55.825C109.139,56.173 109.438,56.595 109.643,57.063C109.847,57.532 109.952,58.038 109.952,58.55C109.952,59.061 109.847,59.567 109.643,60.036C109.438,60.505 109.139,60.927 108.765,61.275C108.39,61.623 107.948,61.89 107.465,62.06C106.982,62.229 106.47,62.297 105.96,62.26C104.1,62.34 102.22,62.26 100.36,62.26Z" fill="#FFFFFF"/>
<path d="M195.7,137.76C193.003,140.21 189.846,142.101 186.413,143.323C182.98,144.545 179.339,145.074 175.7,144.88C172.374,144.605 169.113,143.802 166.04,142.5C158.04,138.32 152.4,131.96 151.44,122.9C150.04,109.6 150.06,96.32 159.54,85.24C160.6,84 161.72,82.8 162.8,81.58C163.72,79.88 164.8,80.52 165.8,81.46C167.899,83.548 170.243,85.374 172.78,86.9C178.384,90.35 184.84,92.165 191.42,92.14C193.535,92.056 195.641,92.453 197.58,93.3C198.74,93.84 199.72,94.56 199.32,96.1C197.824,97.915 196.733,100.029 196.12,102.3C185.425,103.19 174.811,99.827 166.58,92.94C165.944,92.443 165.276,91.988 164.58,91.58C164.235,91.309 163.802,91.174 163.364,91.199C162.925,91.225 162.511,91.41 162.2,91.72C161.095,92.484 160.289,93.608 159.92,94.9C159.34,98.483 159.34,102.137 159.92,105.72C159.837,106.862 159.884,108.009 160.06,109.14C159.697,111.302 160.034,113.523 161.02,115.48C162.103,118.749 163.861,121.754 166.18,124.3C168.498,126.846 171.326,128.877 174.48,130.26C176.02,133.54 176.48,133.76 181.06,133.2C187.383,133.059 193.555,131.236 198.94,127.92C199.84,127.3 200.74,126.28 202.06,127.04C200.826,131.07 198.645,134.745 195.7,137.76Z" fill="#FFFFFF"/>
<path d="M199.38,96.04C197.5,93.38 194.56,93.28 191.82,93.3C183.322,93.389 175.05,90.565 168.38,85.3C167.237,84.356 166.148,83.348 165.12,82.28C164.46,81.64 163.82,81.1 162.86,81.62C161.26,76.34 163.28,71.88 166.1,67.62C166.565,67.628 167.029,67.574 167.48,67.46C175.84,64.18 182.58,67.92 188.76,72.8C191.837,75.242 194.392,78.278 196.271,81.728C198.151,85.177 199.317,88.97 199.7,92.88C199.996,93.936 199.882,95.065 199.38,96.04Z" fill="#00228E"/>
<path d="M214.84,95.58C216.552,97.499 217.737,99.828 218.28,102.341C218.824,104.854 218.706,107.466 217.94,109.92C217.811,110.446 217.724,110.98 217.68,111.52L217.24,111.52C216.476,111.143 215.632,110.958 214.78,110.98C212.955,110.768 211.197,110.167 209.625,109.217C208.053,108.266 206.704,106.989 205.668,105.472C204.633,103.955 203.935,102.233 203.624,100.423C203.312,98.612 203.392,96.756 203.86,94.98C204.34,93.14 205.86,92.62 206.9,91.4C210.94,91.04 213.56,92.26 214.84,95.58Z" fill="#00AEEF"/>
<path d="M202.16,126.98C197.043,131.411 190.445,133.752 183.68,133.54C182.82,133.608 181.956,133.471 181.16,133.14C187.353,131.637 193.121,128.736 198.02,124.66C200.96,123.76 202.02,124.22 202.24,126.52C202.223,126.675 202.196,126.829 202.16,126.98Z" fill="#FFFFFF"/>
<path d="M202.24,126.52C201.103,125.413 199.605,124.752 198.02,124.66L203.58,119.42C203.72,121.861 203.26,124.298 202.24,126.52Z" fill="#FFFFFF"/>
<path d="M158.96,105.84C158.307,102.153 158.253,98.384 158.8,94.68C159.06,92.38 161.26,90.82 162.96,89.24C163.76,88.5 164.36,89.42 164.96,89.92C170.435,95.212 177.314,98.822 184.78,100.32C187.606,100.884 190.479,101.178 193.36,101.2C194.44,101.2 195.6,101.04 196.24,102.24C196.24,102.68 196.24,103.1 196.08,103.54C194.64,107.68 192.84,111.76 193.8,116.36C193.94,117.133 193.79,117.93 193.38,118.6C189.314,122.406 184.226,124.943 178.74,125.9C177.656,125.985 176.643,126.474 175.902,127.27C175.161,128.067 174.747,129.112 174.74,130.2C174.4,130.96 173.86,130.98 173.2,130.68C169.189,128.729 165.766,125.751 163.278,122.049C160.791,118.346 159.329,114.051 159.04,109.6C159.04,109.46 159.16,109.32 159.22,109.18C159.818,109.035 160.449,109.106 161,109.38C161.58,109.71 162.264,109.806 162.912,109.645C163.56,109.485 164.121,109.082 164.48,108.52C164.778,108.107 164.917,107.602 164.873,107.095C164.829,106.589 164.604,106.115 164.24,105.76C163.789,105.272 163.173,104.97 162.512,104.911C161.85,104.852 161.19,105.04 160.66,105.44C160.151,105.752 159.555,105.893 158.96,105.84Z" fill="#FFFFFF"/>
<path d="M214.84,95.58C213.205,93.945 211.113,92.844 208.84,92.42C208.058,92.321 207.343,91.928 206.84,91.32C206.138,84.654 203.589,78.316 199.48,73.02C198.94,72.28 198.42,71.5 197.88,70.74C201.727,72.618 205.127,75.298 207.852,78.599C210.577,81.901 212.565,85.747 213.68,89.88C214.28,91.72 214.48,93.68 214.84,95.58Z" fill="#00228E"/>
<path d="M193.32,118.6C191.5,113.1 191.96,108 196.02,103.54C195.72,106.72 196.359,109.92 197.86,112.74C198.42,113.58 197.86,114.2 197.36,114.74L193.32,118.6Z" fill="#FFFFFF"/>
<path d="M158.96,105.84C160.52,103.46 162.74,102.9 164.64,104.38C165.038,104.695 165.367,105.088 165.608,105.536C165.848,105.983 165.994,106.475 166.037,106.98C166.08,107.486 166.019,107.996 165.858,108.477C165.697,108.958 165.439,109.402 165.1,109.78C163.46,111.6 161.1,111.36 159.1,109.18C158.665,108.117 158.615,106.935 158.96,105.84Z" fill="#00228E"/>
<path d="M184.8,107.2C184.82,107.936 184.62,108.662 184.227,109.284C183.834,109.907 183.265,110.399 182.592,110.698C181.919,110.997 181.172,111.09 180.446,110.964C179.721,110.839 179.049,110.5 178.515,109.992C177.982,109.484 177.612,108.83 177.451,108.111C177.29,107.392 177.347,106.642 177.613,105.955C177.879,105.268 178.343,104.676 178.946,104.253C179.549,103.83 180.264,103.596 181,103.58C181.488,103.566 181.973,103.65 182.428,103.825C182.884,104 183.3,104.263 183.653,104.6C184.006,104.936 184.289,105.339 184.486,105.785C184.683,106.231 184.79,106.712 184.8,107.2Z" fill="#00228E"/>
<path d="M93.58,92.32C89.8,92.32 86,92.32 82.2,92.32C79.18,92.32 77.44,90.86 77.48,88.54C77.52,86.22 79.24,84.88 82.3,84.86C89.88,84.86 97.48,84.86 105.06,84.86C108.1,84.86 109.82,86.34 109.8,88.64C109.78,90.94 108.04,92.3 104.96,92.32C101.18,92.34 97.38,92.32 93.58,92.32Z" fill="#FFFFFF"/>
<path d="M188.66,159.58C188.66,159.58 195.16,152.72 196.18,147.9L188.66,159.58Z" fill="#FFFFFF"/>
<path d="M196.18,147.9C196.525,144.03 196.458,140.135 195.98,136.28C195.34,132.28 184.18,148.28 184.18,148.28L174.84,149.02L171.7,150.88L180.46,160.88L185.84,160.5C185.84,160.5 186.66,161.34 188.7,159.62Z" fill="#FFFFFF"/>
<path d="M165.62,216L165.62,234.76L143.6,234.76L143.6,226.02L162.04,215.54L165.62,216Z" fill="#FFFFFF"/>
</svg>
