<svg width="146" height="46" viewBox="0 0 146 46" fill="none" xmlns="http://www.w3.org/2000/svg" xmlns:xlink="http://www.w3.org/1999/xlink">
<path d="M2.591,37.564L131.873,33.054C133.158,31.824 134.366,30.517 135.49,29.139L145.487,16.96C145.627,16.79 145.715,16.582 145.739,16.363C145.764,16.144 145.724,15.922 145.625,15.725C145.526,15.528 145.372,15.363 145.181,15.252C144.991,15.141 144.772,15.088 144.552,15.098L94.727,17.425C87.783,8.103 78.865,-0.701 64.978,-0.701L29.429,-0.701L29.418,-0.657L20.169,-0.657L21.244,1.519C21.856,2.76 22.803,3.806 23.979,4.537C25.154,5.268 26.51,5.655 27.894,5.655L22.976,19.634C22.264,21.656 20.98,23.426 19.28,24.732C17.58,26.037 15.538,26.82 13.402,26.986L2.925,27.804C2.466,27.84 2.022,27.983 1.628,28.22C1.234,28.458 0.901,28.784 0.655,29.173C0.409,29.562 0.257,30.003 0.212,30.461C0.166,30.919 0.228,31.381 0.392,31.811L2.591,37.564ZM64.978,2.624C76.924,2.624 84.727,9.967 90.735,17.673L64.656,18.96L61.88,2.627L64.978,2.624ZM42.525,2.624L59.493,2.624L62.287,19.072L36.286,20.359L42.525,2.624Z" fill="#103BE9"/>
<path d="M3.511,39.966L4.303,42.037C4.605,42.923 5.176,43.692 5.938,44.237C6.699,44.781 7.611,45.074 8.547,45.074L101.959,45.074C111.781,45.072 121.31,41.726 128.978,35.588L3.511,39.966Z" fill="#103BE9"/>
</svg>
