<svg width="280" height="280" viewBox="0 0 280 280" fill="none" xmlns="http://www.w3.org/2000/svg" xmlns:xlink="http://www.w3.org/1999/xlink">
<path d="M157.66,145.04C156.92,145.32 156.2,145.68 155.52,146C156.58,150.88 155.62,155.02 151.92,156.42C148.22,157.82 148.48,160.42 148.76,163.26C148.76,163.7 148.88,164.16 148.92,164.6C149.18,168.16 149.46,171.7 149.74,175.26C154.497,165.476 157.76,155.033 159.42,144.28L157.66,145.04Z" fill="#103BE9"/>
<path d="M120.24,214.76L210.72,214.76L210.72,180.34C210.607,179.593 210.648,178.831 210.84,178.1C211.12,177.44 211.84,176.62 212.44,176.56C212.813,176.607 213.168,176.743 213.478,176.955C213.787,177.167 214.042,177.45 214.22,177.78C214.498,178.561 214.594,179.396 214.5,180.22L214.5,210.4C214.422,211.858 214.503,213.32 214.74,214.76L223.04,214.76C223.051,214.587 223.051,214.413 223.04,214.24C223.04,179.68 223.04,145.12 223.04,110.56C223.1,109.418 222.928,108.275 222.535,107.2C222.142,106.125 221.536,105.141 220.753,104.307C219.971,103.472 219.028,102.804 217.981,102.342C216.934,101.88 215.804,101.635 214.66,101.62C207.12,101.4 199.54,101.62 191.98,101.62C191.641,101.647 191.313,101.761 191.03,101.95C190.746,102.139 190.516,102.397 190.36,102.7C189.6,106.14 189.04,109.62 188.36,113.56L207.36,113.56C212.36,113.56 214.54,115.72 214.56,120.74C214.56,127.68 214.56,134.64 214.56,141.6C214.671,142.271 214.609,142.96 214.38,143.6C213.98,144.28 213.16,145.16 212.58,145.14C212,145.12 211.24,144.16 210.88,143.44C210.694,142.79 210.659,142.106 210.78,141.44L210.78,120.8C210.78,117.82 210.26,117.3 207.4,117.3C201.04,117.3 194.68,117.3 188.34,117.3C187.716,117.226 187.086,117.368 186.554,117.703C186.022,118.038 185.622,118.545 185.42,119.14C180.172,130.474 170.908,139.459 159.42,144.36C157.761,155.113 154.498,165.556 149.74,175.34C150.4,183.62 151.06,191.9 151.58,200.18C151.683,201.866 151.435,203.556 150.85,205.141C150.265,206.726 149.357,208.171 148.183,209.387C147.01,210.602 145.596,211.559 144.032,212.199C142.469,212.838 140.789,213.145 139.1,213.1C136.887,213.096 134.715,212.501 132.809,211.375C130.903,210.25 129.333,208.636 128.26,206.7C125.66,209.34 123.06,212.04 120.24,214.76ZM210.72,160.4C210.72,157.76 210.72,155.12 210.72,152.4C210.72,151 211.22,149.76 212.72,149.98C213.183,150.197 213.585,150.523 213.892,150.931C214.199,151.339 214.401,151.816 214.48,152.32C214.62,157.76 214.58,163.2 214.48,168.64C214.48,169.9 214.18,171.22 212.48,171.14C210.78,171.06 210.64,169.86 210.66,168.5C210.74,165.84 210.72,163.12 210.72,160.4Z" fill="#00228E"/>
<path d="M120.24,214.759C123.06,212.039 125.7,209.34 128.24,206.62C127.143,204.636 126.63,202.383 126.76,200.12C127.1,194 127.68,187.92 128.16,181.8C128.72,174.333 129.267,166.873 129.8,159.42C129.81,159.116 129.75,158.814 129.625,158.536C129.5,158.259 129.314,158.014 129.08,157.82C122.78,154.3 121.82,152.6 122.76,145.82C122.388,145.605 122,145.418 121.6,145.259C115.294,142.985 109.502,139.482 104.558,134.954C99.615,130.426 95.618,124.962 92.8,118.88C92.622,118.352 92.269,117.9 91.801,117.598C91.332,117.297 90.775,117.163 90.22,117.22C83.88,117.22 77.52,117.22 71.18,117.22C67.98,117.22 67.54,117.66 67.54,120.92L67.54,214.14C67.53,214.333 67.53,214.526 67.54,214.72L120.22,214.72L120.24,214.759Z" fill="#103BE9"/>
<path d="M186.78,97.48C186.764,84.823 181.734,72.688 172.789,63.733C163.845,54.778 151.717,49.732 139.06,49.7C137.727,49.7 136.427,49.76 135.16,49.88C136.32,51.58 137.64,53.62 139.06,55.88L139.22,55.88C148.27,55.915 157.059,58.909 164.249,64.405C171.439,69.901 176.634,77.597 179.042,86.32C181.451,95.043 180.94,104.315 177.589,112.721C174.238,121.127 168.23,128.207 160.48,132.88C160.36,135.28 160.16,137.7 159.88,140.16C167.908,136.275 174.685,130.216 179.44,122.671C184.196,115.126 186.739,106.399 186.78,97.48Z" fill="#006F91"/>
<path d="M139.02,138.88C128.019,138.88 117.468,134.51 109.689,126.731C101.91,118.952 97.54,108.401 97.54,97.4C97.54,86.399 101.91,75.848 109.689,68.069C117.468,60.29 128.019,55.92 139.02,55.92C137.6,53.6 136.28,51.56 135.12,49.92C128.152,50.503 121.397,52.614 115.336,56.101C109.275,59.588 104.057,64.367 100.05,70.098C96.044,75.829 93.348,82.372 92.154,89.262C90.961,96.152 91.298,103.22 93.144,109.965C94.989,116.71 98.296,122.966 102.831,128.288C107.366,133.611 113.016,137.871 119.382,140.764C125.748,143.657 132.673,145.114 139.665,145.03C146.657,144.947 153.545,143.325 159.84,140.28C160.12,137.82 160.32,135.4 160.44,133C153.972,136.883 146.563,138.917 139.02,138.88Z" fill="#00AEEF"/>
<path d="M63.66,213.24L63.66,122.1C63.66,121.2 63.66,120.28 63.66,119.38C63.659,118.581 63.821,117.79 64.136,117.056C64.452,116.322 64.914,115.66 65.495,115.112C66.076,114.563 66.762,114.138 67.513,113.865C68.264,113.591 69.062,113.474 69.86,113.52C72.28,113.52 74.7,113.52 77.12,113.52L89.82,113.52C89.12,109.64 88.58,106.14 87.82,102.72C87.7,102.18 86.36,101.58 85.58,101.58C79.02,101.58 72.44,101.58 65.86,101.58C58.32,101.58 55.14,104.76 55.14,112.34C55.14,145.273 55.14,178.22 55.14,211.18C55.09,212.396 55.144,213.613 55.3,214.82L63.66,214.82C63.66,214.34 63.66,213.86 63.66,213.24Z" fill="#103BE9"/>
<path d="M139.32,209.26C140.517,209.274 141.703,209.03 142.797,208.543C143.891,208.057 144.868,207.341 145.659,206.443C146.451,205.545 147.04,204.486 147.385,203.34C147.73,202.193 147.824,200.986 147.66,199.8C147.26,193.8 146.78,187.8 146.3,181.8C141.927,189.559 136.78,196.856 130.94,203.58C131.518,205.316 132.652,206.814 134.167,207.841C135.682,208.868 137.493,209.366 139.32,209.26Z" fill="#006F91"/>
<path d="M145,163.92C144.58,157.18 144.54,158.64 139.26,158.46L137.9,158.46C133.5,158.46 133.6,158.46 133.3,162.96C132.84,169.88 132.18,176.78 131.66,183.7C131.24,189.34 130.74,195 130.58,200.64C130.543,201.6 130.664,202.559 130.94,203.48C136.78,196.756 141.926,189.458 146.3,181.7C145.84,175.78 145.38,169.84 145,163.92Z" fill="#00AEEF"/>
<path d="M139.06,154.5C141.78,154.5 144.5,154.5 147.2,154.5C147.9,154.492 148.592,154.344 149.233,154.063C149.875,153.782 150.453,153.374 150.933,152.864C151.413,152.354 151.785,151.753 152.027,151.095C152.268,150.438 152.375,149.739 152.34,149.039C152.34,147.599 151.86,147.04 150.34,147.34C142.965,149.059 135.294,149.059 127.92,147.34C126.48,147 126.04,147.6 125.92,148.94C125.868,149.638 125.959,150.339 126.186,151.002C126.413,151.664 126.772,152.273 127.241,152.793C127.71,153.313 128.28,153.732 128.916,154.025C129.551,154.318 130.24,154.48 130.94,154.5C133.66,154.58 136.34,154.48 139.06,154.5Z" fill="#00AEEF"/>
<path d="M148.62,86.88L131.66,105.08C128.88,101.76 126.34,98.66 123.66,95.62C122.483,94.177 120.78,93.262 118.927,93.074C117.074,92.886 115.223,93.443 113.78,94.62C112.337,95.798 111.421,97.5 111.234,99.353C111.046,101.206 111.603,103.057 112.78,104.5C117.034,109.7 121.34,114.86 125.7,119.98C126.322,120.825 127.129,121.517 128.059,122.004C128.989,122.49 130.018,122.758 131.067,122.787C132.116,122.816 133.158,122.605 134.113,122.171C135.069,121.736 135.912,121.09 136.58,120.28C143.34,113.08 150.08,105.853 156.8,98.6C155.503,93.342 153.914,88.161 152.04,83.08L148.62,86.88Z" fill="#FFFFFF"/>
<path d="M164.76,79.779C164.057,79.145 163.232,78.66 162.336,78.351C161.441,78.043 160.492,77.919 159.547,77.987C158.602,78.054 157.681,78.311 156.837,78.743C155.994,79.174 155.247,79.772 154.64,80.5L152.22,83.08C154.094,88.16 155.683,93.342 156.98,98.6L164.98,89.92C165.656,89.252 166.188,88.455 166.544,87.575C166.901,86.695 167.074,85.751 167.054,84.802C167.033,83.853 166.819,82.918 166.425,82.054C166.03,81.191 165.464,80.417 164.76,79.779Z" fill="#FFFFFF"/>
<path d="M160.54,123.6C156.335,127.034 151.367,129.408 146.053,130.521C140.739,131.633 135.236,131.453 130.007,129.994C124.777,128.536 119.975,125.842 116.004,122.14C112.034,118.438 109.011,113.836 107.19,108.721C105.369,103.607 104.805,98.129 105.543,92.751C106.282,87.373 108.302,82.251 111.434,77.816C114.565,73.381 118.717,69.764 123.539,67.269C128.36,64.774 133.711,63.475 139.14,63.48C140.604,63.482 142.067,63.576 143.52,63.76C142.7,62.26 141.9,60.82 141.12,59.46C140.453,59.46 139.786,59.46 139.12,59.46C133.165,59.46 127.294,60.859 121.98,63.545C116.666,66.231 112.057,70.129 108.526,74.923C104.994,79.717 102.639,85.274 101.649,91.146C100.66,97.017 101.064,103.04 102.83,108.726C104.595,114.413 107.672,119.605 111.813,123.885C115.954,128.164 121.042,131.41 126.667,133.361C132.293,135.313 138.298,135.915 144.2,135.119C150.101,134.323 155.732,132.152 160.64,128.78C160.62,127 160.6,125.3 160.54,123.6Z" fill="#103BE9"/>
<path d="M177.18,97.46C177.194,87.719 173.466,78.345 166.766,71.273C160.067,64.201 150.908,59.973 141.18,59.46C141.96,60.82 142.76,62.26 143.58,63.76C150.14,64.62 156.304,67.381 161.313,71.704C166.322,76.026 169.955,81.721 171.765,88.084C173.575,94.447 173.482,101.202 171.498,107.513C169.514,113.824 165.726,119.417 160.6,123.6C160.6,125.3 160.6,127 160.6,128.72C165.682,125.235 169.845,120.572 172.732,115.128C175.62,109.684 177.146,103.622 177.18,97.46Z" fill="#00228E"/>
<path d="M105.26,97.359C105.265,103.765 107.085,110.038 110.51,115.45C113.936,120.863 118.825,125.194 124.611,127.941C130.398,130.687 136.845,131.737 143.204,130.969C149.563,130.201 155.574,127.645 160.54,123.599C160.211,115.166 159.018,106.789 156.98,98.599C150.313,105.839 143.573,113.066 136.76,120.279C136.092,121.089 135.248,121.736 134.293,122.17C133.338,122.605 132.296,122.815 131.247,122.786C130.197,122.758 129.169,122.49 128.239,122.003C127.309,121.517 126.502,120.825 125.88,119.98C121.52,114.86 117.213,109.7 112.96,104.5C112.377,103.785 111.94,102.963 111.675,102.08C111.409,101.197 111.321,100.27 111.414,99.352C111.506,98.435 111.779,97.545 112.216,96.733C112.653,95.921 113.245,95.203 113.96,94.62C114.674,94.036 115.496,93.6 116.38,93.335C117.263,93.069 118.189,92.981 119.107,93.073C120.024,93.166 120.915,93.439 121.727,93.876C122.539,94.312 123.257,94.905 123.84,95.62C126.42,98.66 128.96,101.759 131.84,105.079L148.72,86.96L152.32,83.08C149.85,76.454 146.944,70 143.62,63.759C142.167,63.575 140.704,63.482 139.24,63.48C134.782,63.464 130.364,64.329 126.241,66.024C122.117,67.72 118.37,70.214 115.212,73.362C112.055,76.509 109.551,80.25 107.843,84.368C106.135,88.486 105.257,92.901 105.26,97.359Z" fill="#103BE9"/>
<path d="M154.64,80.5C155.247,79.773 155.994,79.175 156.837,78.743C157.68,78.311 158.602,78.054 159.547,77.987C160.492,77.92 161.44,78.044 162.336,78.352C163.232,78.66 164.056,79.146 164.76,79.78C165.466,80.414 166.036,81.186 166.434,82.048C166.832,82.91 167.049,83.845 167.074,84.794C167.098,85.743 166.928,86.687 166.575,87.569C166.222,88.45 165.693,89.25 165.02,89.92L157.02,98.6C159.058,106.79 160.251,115.167 160.58,123.6C165.705,119.417 169.494,113.824 171.478,107.513C173.462,101.202 173.555,94.447 171.745,88.084C169.935,81.721 166.301,76.026 161.293,71.704C156.284,67.381 150.12,64.62 143.56,63.76C146.884,70 149.79,76.455 152.26,83.08L154.64,80.5Z" fill="#00228E"/>
<path d="M67.66,216.52C67.66,215.96 67.56,215.36 67.54,214.76L63.66,214.76C63.66,216.5 63.08,216.501 60.5,216.501C56.82,216.501 55.68,216.5 55.32,214.76L41.32,214.76C36.62,214.76 37.06,214.021 37.06,219.181C37.06,223.881 39.16,227.181 43.06,228.221C44.53,228.549 46.037,228.676 47.54,228.6L104.06,228.6C109.24,224.6 114.06,220.6 118.34,216.6L67.66,216.52Z" fill="#00228E"/>
<path d="M238.24,214.7L223.04,214.7C222.92,216.06 222.3,216.5 220.7,216.5C216.58,216.5 215.2,216.5 214.7,214.72L210.7,214.72L210.7,216.5L118.38,216.5C114.02,220.5 109.28,224.5 104.1,228.5L230.68,228.5C231.74,228.5 232.8,228.5 233.84,228.5C235.691,228.25 237.406,227.394 238.719,226.066C240.033,224.738 240.87,223.013 241.1,221.16C241.1,219.96 241.1,218.74 241.1,217.54C241.52,215.2 240.48,214.7 238.24,214.7Z" fill="#00228E"/>
<path d="M139.12,214.76L120.24,214.76C119.64,215.34 119.02,215.94 118.38,216.52L210.72,216.52L210.72,214.74L139.12,214.76Z" fill="#00228E"/>
<path d="M220.7,216.52C222.3,216.52 222.92,216.08 223.04,214.72L214.74,214.72C215.2,216.54 216.58,216.52 220.7,216.52Z" fill="#00228E"/>
<path d="M118.38,216.52C119.02,215.94 119.64,215.34 120.24,214.76L67.66,214.76C67.66,215.36 67.76,215.96 67.78,216.52L118.38,216.52Z" fill="#00228E"/>
<path d="M60.56,216.48C63.14,216.48 63.62,216.48 63.72,214.74L55.38,214.74C55.66,216.48 56.88,216.48 60.56,216.48Z" fill="#00228E"/>
</svg>
