<svg width="70" height="22" viewBox="0 0 70 22" fill="none" xmlns="http://www.w3.org/2000/svg" xmlns:xlink="http://www.w3.org/1999/xlink">
<path d="M0.25,17.874L61.775,15.727C62.386,15.142 62.961,14.52 63.496,13.864L68.253,8.068C68.32,7.987 68.362,7.889 68.373,7.784C68.385,7.68 68.366,7.574 68.319,7.481C68.272,7.387 68.199,7.309 68.108,7.256C68.017,7.203 67.913,7.177 67.808,7.182L44.097,8.29C40.793,3.853 36.549,-0.336 29.94,-0.336L13.022,-0.336L13.017,-0.315L8.616,-0.315L9.127,0.72C9.419,1.311 9.869,1.808 10.429,2.156C10.988,2.504 11.633,2.688 12.292,2.688L9.951,9.341C9.613,10.303 9.001,11.146 8.193,11.767C7.384,12.388 6.412,12.761 5.395,12.84L0.409,13.229C0.191,13.246 -0.02,13.314 -0.208,13.427C-0.395,13.54 -0.554,13.695 -0.671,13.881C-0.788,14.066 -0.86,14.275 -0.882,14.493C-0.903,14.711 -0.874,14.931 -0.796,15.136L0.25,17.874ZM29.94,1.246C35.625,1.246 39.338,4.74 42.198,8.408L29.787,9.02L28.466,1.248L29.94,1.246ZM19.255,1.246L27.33,1.246L28.659,9.073L16.286,9.686L19.255,1.246Z" fill="#FFFFFF"/>
<path d="M0.688,19.017L1.065,20.002C1.209,20.424 1.481,20.79 1.843,21.049C2.205,21.308 2.639,21.447 3.085,21.447L47.539,21.447C52.213,21.446 56.747,19.854 60.396,16.933L0.688,19.017Z" fill="#FFFFFF"/>
</svg>
