<svg width="148" height="46" viewBox="0 0 148 46" fill="none" xmlns="http://www.w3.org/2000/svg" xmlns:xlink="http://www.w3.org/1999/xlink">
<path d="M2.847,37.281L132.13,32.77C133.415,31.541 134.623,30.233 135.747,28.855L145.744,16.677C145.884,16.506 145.972,16.299 145.996,16.08C146.021,15.86 145.981,15.639 145.882,15.442C145.783,15.244 145.629,15.08 145.438,14.969C145.248,14.858 145.029,14.804 144.809,14.815L94.984,17.142C88.04,7.82 79.122,-0.984 65.235,-0.984L29.686,-0.984L29.675,-0.94L20.426,-0.94L21.501,1.236C22.113,2.477 23.06,3.523 24.236,4.253C25.411,4.984 26.767,5.372 28.151,5.371L23.233,19.351C22.521,21.372 21.237,23.143 19.537,24.448C17.837,25.753 15.795,26.537 13.659,26.703L3.182,27.521C2.723,27.557 2.279,27.699 1.885,27.937C1.491,28.175 1.158,28.501 0.912,28.89C0.666,29.279 0.514,29.72 0.469,30.178C0.423,30.636 0.485,31.098 0.649,31.528L2.847,37.281ZM65.235,2.341C77.181,2.341 84.984,9.683 90.992,17.39L64.913,18.677L62.137,2.344L65.235,2.341ZM42.782,2.341L59.75,2.341L62.544,18.789L36.543,20.075L42.782,2.341Z" fill="#103BE9"/>
<path d="M3.768,39.683L4.56,41.754C4.862,42.64 5.433,43.409 6.194,43.954C6.955,44.498 7.868,44.791 8.804,44.791L102.216,44.791C112.038,44.789 121.567,41.443 129.234,35.305L3.768,39.683Z" fill="#103BE9"/>
</svg>
