<svg width="148" height="46" viewBox="0 0 148 46" fill="none" xmlns="http://www.w3.org/2000/svg" xmlns:xlink="http://www.w3.org/1999/xlink">
<path d="M2.846,37.855L132.129,33.345C133.414,32.115 134.622,30.808 135.746,29.43L145.743,17.251C145.883,17.081 145.971,16.873 145.995,16.654C146.02,16.435 145.98,16.213 145.881,16.016C145.782,15.819 145.628,15.654 145.437,15.543C145.247,15.432 145.028,15.379 144.808,15.389L94.983,17.716C88.039,8.394 79.121,-0.41 65.234,-0.41L29.685,-0.41L29.674,-0.366L20.425,-0.366L21.5,1.81C22.112,3.052 23.059,4.097 24.235,4.828C25.41,5.559 26.766,5.946 28.15,5.946L23.232,19.925C22.52,21.947 21.236,23.717 19.536,25.023C17.836,26.328 15.794,27.111 13.658,27.277L3.181,28.095C2.722,28.131 2.278,28.274 1.884,28.511C1.49,28.749 1.157,29.075 0.911,29.464C0.665,29.853 0.513,30.294 0.468,30.752C0.422,31.21 0.484,31.672 0.648,32.102L2.846,37.855ZM65.234,2.915C77.18,2.915 84.983,10.258 90.991,17.964L64.912,19.251L62.136,2.918L65.234,2.915ZM42.781,2.915L59.749,2.915L62.543,19.363L36.542,20.65L42.781,2.915Z" fill="#103BE9"/>
<path d="M3.767,40.257L4.559,42.328C4.861,43.214 5.432,43.983 6.193,44.528C6.954,45.072 7.867,45.365 8.803,45.365L102.215,45.365C112.037,45.363 121.566,42.017 129.233,35.879L3.767,40.257Z" fill="#103BE9"/>
</svg>
