<svg width="202" height="200" viewBox="0 0 202 200" fill="none" xmlns="http://www.w3.org/2000/svg" xmlns:xlink="http://www.w3.org/1999/xlink">
<circle cx="101.557" cy="96.491" r="27.005" fill="#FFFFFF"/>
<path d="M156.745,56.122C156.659,54.339 156.472,52.572 156.328,50.689C134.339,54.627 116.762,44.667 99.271,33.658L99.271,42.856C99.818,42.746 100.381,42.758 100.923,42.889C101.464,43.021 101.97,43.27 102.405,43.618C112.896,50.085 123.962,55.46 136.179,57.573C140.648,58.349 145.247,58.392 149.789,58.766C149.789,65.952 150.191,73.138 149.703,80.324C148.932,94.253 145.625,107.924 139.944,120.666C132.039,137.912 120.125,151.35 102.304,158.852C101.337,159.215 100.296,159.338 99.271,159.211L99.271,166.311L103.094,166.311C103.35,166.085 103.629,165.887 103.928,165.722C123.229,157.861 136.61,143.848 145.377,125.279C155.724,103.362 158.038,80.022 156.745,56.122Z" fill="#006F91"/>
<path d="M97.949,158.925C80.703,151.882 69.076,139.005 61.287,122.406C54.259,107.43 51.226,91.492 50.278,75.093C49.99,70.163 49.976,65.205 49.847,60.247C49.86,59.478 49.913,58.711 50.005,57.947C55.207,57.603 60.223,57.444 65.21,56.884C76.995,55.498 88.189,50.965 97.619,43.762C98.105,43.366 98.66,43.064 99.257,42.871L99.257,33.688C83.319,48.059 64.448,52.73 43.092,50.115C43.092,56.826 42.934,63.136 43.092,69.43C43.638,87.036 46.196,104.268 52.965,120.652C60.281,138.344 71.347,152.874 88.507,162.144C91.281,163.581 94.17,165.018 97.001,166.355L99.228,166.355L99.228,159.255C98.79,159.199 98.36,159.088 97.949,158.925Z" fill="#00AEEF"/>
<path d="M95.09,120.308C91.31,112.044 86.639,104.915 79.28,99.885C79.469,98.953 80,98.126 80.769,97.567C81.538,97.008 82.489,96.758 83.434,96.867C86.854,97 90.108,98.375 92.589,100.733C93.279,101.308 93.911,101.926 94.5,102.472C96.067,100.46 97.648,98.477 99.214,96.493L99.214,55.088C86.581,63.812 82.643,65.033 61.114,66.815C60.769,88.244 63.356,108.825 75.199,127.178C80.586,135.675 88.374,142.382 97.576,146.45C98.097,146.69 98.648,146.859 99.214,146.953L99.214,112.561C97.835,115.134 96.441,117.692 95.09,120.308Z" fill="#103BE9"/>
<path d="M102.534,146.449C115.713,140.47 124.523,130.295 130.502,117.418C135.509,106.187 138.328,94.105 138.809,81.818C139.082,77.004 138.809,72.175 138.809,67.188C131.821,67.678 124.815,66.536 118.343,63.853C111.977,61.18 105.84,57.961 99.459,54.914L99.214,55.087L99.214,96.492C102.003,93 104.733,89.522 107.191,85.842C110.87,80.352 115.814,79.935 121.908,80.683C113.22,90.478 105.612,101.18 99.214,112.603L99.214,146.995C100.351,147.157 101.51,146.967 102.534,146.449Z" fill="#00228E"/>
</svg>
