<svg width="48" height="48" viewBox="0 0 48 48" fill="none" xmlns="http://www.w3.org/2000/svg" xmlns:xlink="http://www.w3.org/1999/xlink">
<path d="M33.6,4L28.4,4C22,4 18,8 18,14.4L18,22.5L26.88,22.5L22.74,18.36C22.44,18.06 22.3,17.68 22.3,17.3C22.3,16.92 22.44,16.54 22.74,16.24C23.32,15.66 24.28,15.66 24.86,16.24L31.56,22.94C32.14,23.52 32.14,24.48 31.56,25.06L24.86,31.76C24.28,32.34 23.32,32.34 22.74,31.76C22.16,31.18 22.16,30.22 22.74,29.64L26.88,25.5L18,25.5L18,33.6C18,40 22,44 28.4,44L33.58,44C39.98,44 43.98,40 43.98,33.6L43.98,14.4C44,8 40,4 33.6,4Z" fill="#FFFFFF"/>
<path d="M5.5,22.5C4.68,22.5 4,23.18 4,24C4,24.82 4.68,25.5 5.5,25.5L18,25.5L18,22.5L5.5,22.5Z" fill="#FFFFFF"/>
</svg>
