<svg width="420" height="266" viewBox="0 0 420 266" fill="none" xmlns="http://www.w3.org/2000/svg" xmlns:xlink="http://www.w3.org/1999/xlink">
<path d="M415.203,203.148L397.673,203.148L390.141,237.737L365.663,237.737L373.195,203.148L355.797,203.148L360.391,178.67L419.816,178.67L415.203,203.148Z" fill="#FFFFFF"/>
<path d="M75.279,217.232L37.621,217.232L34.533,233.651L45.831,233.651C43.251,238.188 39.466,241.371 34.533,241.615C24.817,241.126 24.196,230.092 25.57,222.127C27.114,213.183 32.01,202.771 41.048,202.281C42.715,202.301 44.345,202.781 45.757,203.668C47.169,204.555 48.309,205.815 49.05,207.309L74.677,201.886C72.041,187.783 60.969,177.615 45.624,177.747L45.379,177.747C21.24,178.481 5.047,199.438 0.979,222.466C-0.661,230.616 -0.148,239.053 2.467,246.944L63.699,246.944C69.554,237.938 73.495,227.824 75.279,217.232Z" fill="#FFFFFF"/>
<path d="M57.316,254.477L6.289,254.477C7.332,255.968 8.532,257.344 9.866,258.581L52.383,258.581C54.131,257.343 55.78,255.97 57.316,254.477Z" fill="#FFFFFF"/>
<path d="M29.863,266L30.221,266C34.996,265.818 39.707,264.831 44.154,263.081L16.588,263.081C20.753,264.993 25.28,265.988 29.863,266Z" fill="#FFFFFF"/>
<path d="M75.731,266L100.228,266L100.774,263.081L76.277,263.081L75.731,266Z" fill="#FFFFFF"/>
<path d="M116.44,179.612L91.924,179.612L79.29,246.964L103.806,246.964L116.44,179.612Z" fill="#FFFFFF"/>
<path d="M77.878,254.477L77.106,258.6L101.621,258.6L102.393,254.477L77.878,254.477Z" fill="#FFFFFF"/>
<path d="M114.896,254.477L114.105,258.6L169.124,258.6L169.896,254.477L114.896,254.477Z" fill="#FFFFFF"/>
<path d="M112.73,266L167.749,265.887L168.276,263.081L113.276,263.081L112.73,266Z" fill="#FFFFFF"/>
<path d="M171.741,244.685L141.953,244.685L154.173,179.612L128.923,179.612L116.289,246.964L171.308,246.964L171.741,244.685Z" fill="#FFFFFF"/>
<path d="M216.649,179.612L192.152,179.612L179.518,246.964L204.015,246.964L216.649,179.612Z" fill="#FFFFFF"/>
<path d="M178.105,254.477L177.333,258.6L201.83,258.6L202.602,254.477L178.105,254.477Z" fill="#FFFFFF"/>
<path d="M175.94,266L200.456,266L201.002,263.081L176.486,263.081L175.94,266Z" fill="#FFFFFF"/>
<path d="M268.222,242.708C271.069,235.631 273.097,228.252 274.266,220.715L282.156,178.688L257.678,178.688L249.788,220.715C248.977,226.126 247.568,231.431 245.589,236.532C245.15,237.653 244.512,238.687 243.706,239.582C243.309,240.082 242.816,240.498 242.257,240.806C241.463,241.33 240.507,241.551 239.564,241.427C239.149,241.373 238.758,241.203 238.434,240.938C237.938,240.452 237.555,239.863 237.314,239.211C237.073,238.56 236.98,237.863 237.041,237.172C236.96,236.603 236.96,236.027 237.041,235.458L212.092,241.107C212.094,242.368 212.195,243.627 212.394,244.873C212.507,245.626 212.695,246.323 212.845,247.038L266.019,247.038C266.837,245.639 267.573,244.193 268.222,242.708Z" fill="#FFFFFF"/>
<path d="M260.314,254.477L215.481,254.477C216.263,255.944 217.204,257.32 218.287,258.581L255.719,258.581C257.35,257.329 258.886,255.957 260.314,254.477Z" fill="#FFFFFF"/>
<path d="M227.701,264.776C230.129,265.59 232.673,266.004 235.233,266C239.707,265.936 244.119,264.942 248.188,263.081L223.71,263.081C224.98,263.779 226.317,264.347 227.701,264.776Z" fill="#FFFFFF"/>
<path d="M277.128,266L333.879,265.887L334.407,263.081L277.637,263.081L277.128,266Z" fill="#FFFFFF"/>
<path d="M345.478,203.995L349.262,178.538L292.511,178.67L280.479,246.963L337.419,246.963L338.473,241.371L306.257,241.371L307.914,232.559L336.459,232.559L340.676,210.002L312.131,210.002L313.261,203.995L345.478,203.995Z" fill="#FFFFFF"/>
<path d="M278.427,258.6L335.235,258.6L336.007,254.477L279.161,254.477L278.427,258.6Z" fill="#FFFFFF"/>
<path d="M343.802,264.419C343.28,264.436 342.761,264.333 342.286,264.117C341.811,263.901 341.392,263.578 341.062,263.173C340.732,262.768 340.5,262.293 340.384,261.784C340.269,261.275 340.272,260.746 340.394,260.239C340.641,259.085 341.266,258.048 342.17,257.291C343.074,256.533 344.205,256.1 345.384,256.059C345.903,256.043 346.42,256.148 346.892,256.366C347.364,256.583 347.78,256.907 348.106,257.312C348.433,257.717 348.661,258.192 348.773,258.699C348.886,259.207 348.879,259.734 348.754,260.239C348.512,261.387 347.893,262.422 346.996,263.179C346.099,263.936 344.975,264.373 343.802,264.419Z" fill="#FFFFFF"/>
<path d="M361.652,256.831L367.414,258.149C366.788,259.673 365.801,261.023 364.539,262.082C363.276,263.142 361.775,263.879 360.165,264.23C359.546,264.362 358.915,264.425 358.282,264.419C357.647,264.421 357.015,264.346 356.399,264.193C351.334,262.875 351.033,257.904 351.88,253.479C352.822,248.452 355.025,243.876 360.466,242.539C361.706,242.259 362.992,242.259 364.232,242.539C365.631,242.829 366.887,243.592 367.789,244.7C368.691,245.808 369.184,247.192 369.184,248.621L362.933,249.939C362.913,249.619 362.796,249.312 362.597,249.06C362.399,248.808 362.129,248.622 361.822,248.527C359.111,247.905 358.263,251.389 357.868,253.498C357.472,255.607 356.945,258.732 359.977,258.261C360.347,258.168 360.691,257.99 360.982,257.742C361.272,257.494 361.502,257.182 361.652,256.831Z" fill="#FFFFFF"/>
<path d="M377.337,264.419C376.128,264.476 374.926,264.216 373.849,263.664C372.772,263.113 371.858,262.289 371.199,261.274C369.863,258.921 369.459,256.153 370.069,253.517C370.532,250.583 371.841,247.847 373.835,245.646C374.772,244.633 375.899,243.816 377.153,243.241C378.407,242.666 379.762,242.344 381.14,242.294C382.346,242.255 383.541,242.525 384.612,243.079C385.683,243.633 386.595,244.452 387.26,245.458C388.589,247.82 388.985,250.594 388.371,253.234C387.919,256.172 386.609,258.91 384.605,261.105C383.674,262.116 382.549,262.931 381.297,263.5C380.046,264.069 378.692,264.382 377.318,264.419L377.337,264.419ZM378.034,249.355C377.038,250.493 376.385,251.891 376.151,253.385C375.842,254.714 375.994,256.108 376.584,257.339C376.784,257.649 377.065,257.899 377.397,258.062C377.729,258.224 378.099,258.293 378.467,258.261C378.861,258.256 379.25,258.17 379.609,258.008C379.969,257.846 380.291,257.612 380.557,257.32C381.546,256.177 382.198,254.782 382.44,253.291C382.749,251.962 382.596,250.567 382.006,249.336C381.808,249.025 381.527,248.774 381.195,248.611C380.862,248.448 380.492,248.38 380.124,248.414C379.726,248.424 379.336,248.516 378.976,248.685C378.617,248.853 378.296,249.094 378.034,249.393L378.034,249.355Z" fill="#FFFFFF"/>
<path d="M411.719,242.765L407.652,264.418L402.003,264.418L404.413,251.52L400.949,260.822L396.788,260.822L396.788,251.52L394.378,264.418L388.729,264.418L392.796,242.765L399.574,242.765L400.309,253.384L405.054,242.765L411.719,242.765Z" fill="#FFFFFF"/>
<path d="M213.147,77.99C259.523,73.151 277.599,90.587 295.995,91.416C300.76,91.616 305.423,90.001 309.044,86.897L362.763,44.042C362.763,44.042 266.377,31.991 174.905,50.349C174.905,50.349 287.673,12.07 398.521,34.759C398.521,34.759 335.612,105.274 304.525,107.552C274.775,109.737 246.512,78.179 165.603,96.086C179.568,85.949 195.976,79.704 213.147,77.99Z" fill="#FFFFFF"/>
<path d="M175.94,66.524C166.028,70.739 157.347,77.398 150.708,85.881C132.211,91.073 113.223,94.322 94.051,95.578L97.196,87.293C105.104,63.549 125.27,43.986 148.713,35.343C175.544,25.364 212.732,13.162 246.624,7.871C262.709,5.472 279.144,7.543 294.13,13.859C294.13,13.859 202.47,22.087 138.432,51.517C138.432,51.517 274.284,11.468 322.676,21.391C322.676,21.391 298.97,0.829 259.466,0.076C232.728,-0.451 176.184,16.683 137.867,29.299C117.55,36.002 92.922,56.978 83.112,75.995L65.808,109.888C65.808,109.888 99.7,112.072 157.713,97.235C157.713,97.235 174.866,68.426 226.006,61.798C226.006,61.798 209.267,36.736 117.776,77.52C136.627,71.516 156.14,67.836 175.883,66.562L175.94,66.524Z" fill="#FFFFFF"/>
<path d="M259.278,5.875L251.294,22.859L258.092,20.317L263.175,5.875L259.278,5.875Z" fill="#FFFFFF"/>
<path d="M222.825,10.751L214.86,27.735L221.638,25.193L226.741,10.751L222.825,10.751Z" fill="#FFFFFF"/>
<path d="M304.035,119.207C304.035,119.207 243.461,89.74 185.298,99.305C122.258,109.68 85.503,126.664 27.133,103.221C27.133,103.221 38.6,121.843 93.204,126.456C158.109,131.936 164.379,90.662 304.035,119.207Z" fill="#FFFFFF"/>
<path d="M101.96,52.628L46.301,70.158L92.413,63.474L101.96,52.628Z" fill="#FFFFFF"/>
<path d="M95.897,66.222L26.191,88.158L83.959,79.798L95.897,66.222Z" fill="#FFFFFF"/>
<path d="M95.878,81.606L40.219,99.117L86.332,92.433L95.878,81.606Z" fill="#FFFFFF"/>
<path d="M302.83,126.966C302.83,126.966 256.454,113.352 214.841,116.026C173.229,118.7 149.221,126.966 149.221,126.966L298.236,126.966Z" fill="#FFFFFF"/>
</svg>
