<svg width="178" height="112" viewBox="0 0 178 112" fill="none" xmlns="http://www.w3.org/2000/svg" xmlns:xlink="http://www.w3.org/1999/xlink">
<path d="M174.822,85.536L167.441,85.536L164.269,100.1L153.963,100.1L157.134,85.536L149.809,85.536L151.743,75.23L176.764,75.23L174.822,85.536Z" fill="#FFFFFF"/>
<path d="M31.696,91.466L15.839,91.466L14.539,98.38L19.296,98.38C18.21,100.29 16.616,101.63 14.539,101.733C10.448,101.527 10.187,96.881 10.765,93.528C11.416,89.762 13.477,85.377 17.282,85.171C17.984,85.18 18.671,85.382 19.265,85.755C19.86,86.129 20.339,86.659 20.652,87.288L31.442,85.005C30.332,79.067 25.67,74.786 19.209,74.841L19.106,74.841C8.942,75.15 2.124,83.974 0.411,93.67C-0.279,97.102 -0.063,100.654 1.038,103.977L26.82,103.977C29.285,100.185 30.944,95.926 31.696,91.466Z" fill="#FFFFFF"/>
<path d="M24.134,107.148L2.648,107.148C3.088,107.776 3.593,108.355 4.155,108.876L22.056,108.876C22.792,108.355 23.487,107.777 24.134,107.148Z" fill="#FFFFFF"/>
<path d="M12.574,112L12.724,112C14.735,111.924 16.719,111.508 18.591,110.771L6.984,110.771C8.738,111.576 10.644,111.995 12.574,112Z" fill="#FFFFFF"/>
<path d="M31.887,112L42.201,112L42.431,110.771L32.117,110.771L31.887,112Z" fill="#FFFFFF"/>
<path d="M49.027,75.626L38.705,75.626L33.385,103.985L43.707,103.985L49.027,75.626Z" fill="#FFFFFF"/>
<path d="M32.79,107.148L32.465,108.884L42.787,108.884L43.112,107.148L32.79,107.148Z" fill="#FFFFFF"/>
<path d="M48.378,107.148L48.045,108.884L71.211,108.884L71.536,107.148L48.378,107.148Z" fill="#FFFFFF"/>
<path d="M47.465,112L70.631,111.952L70.853,110.771L47.695,110.771L47.465,112Z" fill="#FFFFFF"/>
<path d="M72.311,103.025L59.769,103.025L64.914,75.626L54.283,75.626L48.963,103.985L72.129,103.985L72.311,103.025Z" fill="#FFFFFF"/>
<path d="M91.22,75.626L80.906,75.626L75.586,103.985L85.9,103.985L91.22,75.626Z" fill="#FFFFFF"/>
<path d="M74.991,107.148L74.666,108.884L84.98,108.884L85.305,107.148L74.991,107.148Z" fill="#FFFFFF"/>
<path d="M74.08,112L84.402,112L84.632,110.771L74.31,110.771L74.08,112Z" fill="#FFFFFF"/>
<path d="M112.936,102.193C114.135,99.214 114.989,96.107 115.481,92.933L118.803,75.238L108.497,75.238L105.175,92.933C104.833,95.211 104.24,97.445 103.407,99.593C103.222,100.065 102.953,100.5 102.614,100.877C102.447,101.087 102.239,101.263 102.004,101.392C101.669,101.613 101.267,101.706 100.87,101.654C100.695,101.631 100.53,101.56 100.394,101.448C100.185,101.243 100.024,100.995 99.922,100.721C99.821,100.447 99.782,100.153 99.807,99.862C99.773,99.623 99.773,99.38 99.807,99.141L89.303,101.519C89.304,102.05 89.346,102.58 89.43,103.105C89.477,103.422 89.556,103.715 89.62,104.016L112.009,104.016C112.353,103.427 112.663,102.819 112.936,102.193Z" fill="#FFFFFF"/>
<path d="M109.605,107.148L90.729,107.148C91.057,107.766 91.454,108.345 91.91,108.876L107.671,108.876C108.358,108.349 109.004,107.771 109.605,107.148Z" fill="#FFFFFF"/>
<path d="M95.874,111.485C96.896,111.828 97.967,112.002 99.045,112C100.929,111.973 102.787,111.555 104.5,110.771L94.193,110.771C94.728,111.065 95.291,111.304 95.874,111.485Z" fill="#FFFFFF"/>
<path d="M116.686,112L140.581,111.952L140.803,110.771L116.9,110.771L116.686,112Z" fill="#FFFFFF"/>
<path d="M145.465,85.893L147.059,75.174L123.164,75.23L118.098,103.985L142.072,103.985L142.516,101.63L128.951,101.63L129.649,97.92L141.668,97.92L143.444,88.422L131.425,88.422L131.9,85.893L145.465,85.893Z" fill="#FFFFFF"/>
<path d="M117.232,108.884L141.151,108.884L141.476,107.148L117.542,107.148L117.232,108.884Z" fill="#FFFFFF"/>
<path d="M144.76,111.334C144.54,111.341 144.322,111.298 144.122,111.207C143.921,111.116 143.745,110.98 143.606,110.81C143.467,110.639 143.37,110.439 143.321,110.225C143.272,110.01 143.273,109.788 143.325,109.574C143.429,109.088 143.692,108.652 144.073,108.333C144.453,108.014 144.929,107.831 145.426,107.814C145.645,107.808 145.862,107.852 146.061,107.943C146.26,108.035 146.435,108.171 146.572,108.342C146.71,108.512 146.806,108.712 146.853,108.926C146.9,109.14 146.897,109.362 146.845,109.574C146.743,110.058 146.482,110.493 146.105,110.812C145.727,111.131 145.254,111.315 144.76,111.334Z" fill="#FFFFFF"/>
<path d="M152.274,108.139L154.7,108.694C154.436,109.336 154.021,109.904 153.489,110.35C152.958,110.796 152.326,111.107 151.648,111.255C151.387,111.31 151.121,111.337 150.855,111.334C150.588,111.335 150.321,111.303 150.062,111.239C147.929,110.684 147.803,108.591 148.159,106.728C148.556,104.611 149.483,102.684 151.775,102.122C152.297,102.004 152.838,102.004 153.36,102.122C153.949,102.244 154.478,102.565 154.858,103.032C155.238,103.498 155.445,104.081 155.445,104.682L152.813,105.237C152.805,105.103 152.755,104.973 152.672,104.867C152.588,104.761 152.474,104.683 152.345,104.643C151.204,104.381 150.847,105.848 150.68,106.736C150.514,107.624 150.292,108.94 151.568,108.742C151.724,108.702 151.869,108.627 151.992,108.523C152.114,108.418 152.211,108.287 152.274,108.139Z" fill="#FFFFFF"/>
<path d="M158.878,111.334C158.369,111.358 157.863,111.249 157.409,111.017C156.956,110.784 156.571,110.437 156.294,110.01C155.731,109.019 155.561,107.854 155.818,106.744C156.013,105.508 156.564,104.357 157.404,103.43C157.798,103.003 158.273,102.659 158.801,102.417C159.329,102.175 159.899,102.04 160.48,102.019C160.987,102.002 161.49,102.116 161.941,102.349C162.392,102.582 162.776,102.927 163.056,103.35C163.616,104.345 163.783,105.513 163.524,106.625C163.334,107.862 162.782,109.015 161.938,109.939C161.546,110.365 161.073,110.708 160.546,110.947C160.019,111.187 159.449,111.318 158.87,111.334L158.878,111.334ZM159.171,104.992C158.752,105.471 158.477,106.059 158.379,106.688C158.249,107.248 158.313,107.835 158.561,108.353C158.645,108.484 158.764,108.589 158.904,108.657C159.043,108.726 159.199,108.755 159.354,108.742C159.52,108.739 159.684,108.703 159.835,108.635C159.986,108.567 160.122,108.468 160.234,108.345C160.65,107.864 160.925,107.277 161.027,106.649C161.157,106.089 161.092,105.502 160.844,104.984C160.761,104.852 160.642,104.747 160.502,104.678C160.363,104.61 160.207,104.581 160.051,104.595C159.884,104.6 159.72,104.638 159.568,104.709C159.417,104.78 159.282,104.882 159.171,105.007L159.171,104.992Z" fill="#FFFFFF"/>
<path d="M173.356,102.217L171.644,111.334L169.265,111.334L170.28,105.903L168.821,109.82L167.069,109.82L167.069,105.903L166.054,111.334L163.676,111.334L165.388,102.217L168.242,102.217L168.552,106.688L170.549,102.217L173.356,102.217Z" fill="#FFFFFF"/>
<path d="M89.745,32.838C109.272,30.801 116.883,38.142 124.629,38.491C126.635,38.575 128.598,37.895 130.123,36.588L152.742,18.544C152.742,18.544 112.158,13.47 73.643,21.2C73.643,21.2 121.124,5.082 167.797,14.635C167.797,14.635 141.309,44.326 128.22,45.285C115.694,46.205 103.794,32.917 69.727,40.457C75.607,36.189 82.515,33.56 89.745,32.838Z" fill="#FFFFFF"/>
<path d="M74.08,28.01C69.907,29.785 66.252,32.589 63.457,36.16C55.668,38.346 47.673,39.715 39.601,40.243L40.925,36.755C44.255,26.757 52.746,18.52 62.616,14.881C73.914,10.679 89.572,5.542 103.842,3.314C110.615,2.304 117.535,3.176 123.845,5.835C123.845,5.835 85.251,9.3 58.288,21.691C58.288,21.691 115.489,4.828 135.864,9.006C135.864,9.006 125.882,0.349 109.249,0.032C97.991,-0.19 74.183,7.024 58.05,12.336C49.495,15.158 39.125,23.99 34.995,31.998L27.709,46.268C27.709,46.268 41.98,47.188 66.406,40.941C66.406,40.941 73.628,28.811 95.161,26.02C95.161,26.02 88.113,15.468 49.591,32.64C57.528,30.112 65.744,28.562 74.057,28.026L74.08,28.01Z" fill="#FFFFFF"/>
<path d="M109.17,2.474L105.809,9.625L108.671,8.554L110.811,2.474L109.17,2.474Z" fill="#FFFFFF"/>
<path d="M93.82,4.527L90.467,11.678L93.321,10.608L95.469,4.527L93.82,4.527Z" fill="#FFFFFF"/>
<path d="M128.014,50.193C128.014,50.193 102.51,37.785 78.02,41.813C51.476,46.181 36.001,53.332 11.424,43.462C11.424,43.462 16.252,51.303 39.243,53.245C66.572,55.552 69.212,38.174 128.014,50.193Z" fill="#FFFFFF"/>
<path d="M42.931,22.159L19.496,29.54L38.912,26.726L42.931,22.159Z" fill="#FFFFFF"/>
<path d="M40.377,27.883L11.027,37.119L35.351,33.599L40.377,27.883Z" fill="#FFFFFF"/>
<path d="M40.369,34.36L16.934,41.733L36.349,38.919L40.369,34.36Z" fill="#FFFFFF"/>
<path d="M127.507,53.459C127.507,53.459 107.98,47.727 90.459,48.853C72.938,49.979 62.83,53.459 62.83,53.459L125.573,53.459Z" fill="#FFFFFF"/>
</svg>
