<svg width="420" height="266" viewBox="0 0 420 266" fill="none" xmlns="http://www.w3.org/2000/svg" xmlns:xlink="http://www.w3.org/1999/xlink">
<path d="M415.201,203.148L397.671,203.148L390.139,237.737L365.661,237.737L373.193,203.148L355.795,203.148L360.389,178.67L419.814,178.67L415.201,203.148Z" fill="#FFFFFF"/>
<path d="M75.279,217.232L37.621,217.232L34.532,233.651L45.83,233.651C43.25,238.189 39.466,241.371 34.532,241.616C24.817,241.126 24.195,230.092 25.57,222.128C27.114,213.184 32.009,202.771 41.047,202.282C42.715,202.302 44.344,202.782 45.756,203.669C47.168,204.556 48.308,205.816 49.05,207.309L74.676,201.886C72.04,187.783 60.969,177.616 45.623,177.747L45.378,177.747C21.239,178.482 5.046,199.438 0.979,222.467C-0.661,230.617 -0.148,239.053 2.467,246.945L63.699,246.945C69.553,237.938 73.495,227.825 75.279,217.232Z" fill="#FFFFFF"/>
<path d="M57.317,254.477L6.29,254.477C7.334,255.968 8.533,257.344 9.868,258.581L52.384,258.581C54.132,257.343 55.781,255.97 57.317,254.477Z" fill="#FFFFFF"/>
<path d="M29.862,266L30.22,266C34.996,265.818 39.707,264.831 44.154,263.081L16.588,263.081C20.753,264.993 25.28,265.988 29.862,266Z" fill="#FFFFFF"/>
<path d="M75.73,266L100.227,266L100.773,263.081L76.277,263.081L75.73,266Z" fill="#FFFFFF"/>
<path d="M116.439,179.611L91.923,179.611L79.289,246.963L103.805,246.963L116.439,179.611Z" fill="#FFFFFF"/>
<path d="M77.878,254.477L77.106,258.6L101.622,258.6L102.394,254.477L77.878,254.477Z" fill="#FFFFFF"/>
<path d="M114.895,254.477L114.104,258.6L169.123,258.6L169.895,254.477L114.895,254.477Z" fill="#FFFFFF"/>
<path d="M112.731,266L167.75,265.887L168.278,263.081L113.277,263.081L112.731,266Z" fill="#FFFFFF"/>
<path d="M171.741,244.685L141.953,244.685L154.173,179.611L128.923,179.611L116.289,246.963L171.308,246.963L171.741,244.685Z" fill="#FFFFFF"/>
<path d="M216.648,179.611L192.151,179.611L179.517,246.963L204.013,246.963L216.648,179.611Z" fill="#FFFFFF"/>
<path d="M178.106,254.477L177.334,258.6L201.831,258.6L202.603,254.477L178.106,254.477Z" fill="#FFFFFF"/>
<path d="M175.94,266L200.456,266L201.002,263.081L176.486,263.081L175.94,266Z" fill="#FFFFFF"/>
<path d="M268.222,242.708C271.068,235.631 273.096,228.252 274.266,220.715L282.155,178.688L257.677,178.688L249.788,220.715C248.976,226.126 247.568,231.431 245.589,236.532C245.15,237.653 244.512,238.687 243.706,239.582C243.308,240.082 242.816,240.498 242.256,240.806C241.463,241.33 240.507,241.551 239.564,241.427C239.149,241.373 238.757,241.203 238.434,240.938C237.937,240.452 237.555,239.863 237.314,239.211C237.073,238.56 236.979,237.863 237.04,237.172C236.96,236.603 236.96,236.027 237.04,235.458L212.092,241.107C212.094,242.368 212.194,243.627 212.393,244.873C212.506,245.626 212.694,246.323 212.845,247.038L266.019,247.038C266.837,245.639 267.573,244.193 268.222,242.708Z" fill="#FFFFFF"/>
<path d="M260.313,254.477L215.48,254.477C216.262,255.944 217.203,257.32 218.286,258.581L255.718,258.581C257.349,257.329 258.885,255.957 260.313,254.477Z" fill="#FFFFFF"/>
<path d="M227.701,264.776C230.128,265.59 232.672,266.004 235.232,266C239.706,265.936 244.118,264.942 248.187,263.081L223.709,263.081C224.979,263.779 226.317,264.347 227.701,264.776Z" fill="#FFFFFF"/>
<path d="M277.128,266L333.879,265.887L334.406,263.081L277.636,263.081L277.128,266Z" fill="#FFFFFF"/>
<path d="M345.478,203.995L349.262,178.538L292.511,178.67L280.479,246.963L337.419,246.963L338.473,241.371L306.257,241.371L307.914,232.559L336.459,232.559L340.676,210.002L312.131,210.002L313.261,203.995L345.478,203.995Z" fill="#FFFFFF"/>
<path d="M278.427,258.6L335.234,258.6L336.006,254.477L279.161,254.477L278.427,258.6Z" fill="#FFFFFF"/>
<path d="M343.802,264.418C343.28,264.436 342.761,264.332 342.286,264.116C341.811,263.9 341.392,263.577 341.062,263.173C340.732,262.768 340.5,262.293 340.384,261.784C340.269,261.275 340.272,260.746 340.394,260.238C340.641,259.085 341.266,258.047 342.17,257.29C343.074,256.533 344.205,256.099 345.384,256.058C345.903,256.043 346.42,256.148 346.892,256.365C347.364,256.583 347.78,256.907 348.106,257.311C348.433,257.716 348.661,258.191 348.773,258.699C348.886,259.207 348.879,259.733 348.754,260.238C348.512,261.387 347.893,262.422 346.996,263.179C346.099,263.936 344.975,264.372 343.802,264.418Z" fill="#FFFFFF"/>
<path d="M361.653,256.831L367.415,258.149C366.789,259.673 365.802,261.023 364.54,262.082C363.277,263.142 361.776,263.879 360.166,264.23C359.547,264.362 358.916,264.425 358.283,264.419C357.648,264.421 357.016,264.346 356.4,264.193C351.335,262.875 351.034,257.904 351.881,253.479C352.822,248.452 355.026,243.876 360.467,242.539C361.707,242.259 362.993,242.259 364.233,242.539C365.632,242.829 366.888,243.592 367.79,244.7C368.692,245.808 369.185,247.192 369.185,248.621L362.934,249.939C362.914,249.619 362.797,249.312 362.598,249.06C362.4,248.808 362.129,248.622 361.823,248.527C359.112,247.905 358.264,251.389 357.869,253.498C357.473,255.607 356.946,258.732 359.978,258.261C360.348,258.168 360.692,257.99 360.983,257.742C361.273,257.494 361.503,257.182 361.653,256.831Z" fill="#FFFFFF"/>
<path d="M377.338,264.419C376.13,264.476 374.927,264.217 373.85,263.665C372.773,263.113 371.86,262.289 371.2,261.275C369.864,258.922 369.461,256.153 370.07,253.517C370.533,250.583 371.842,247.848 373.836,245.646C374.773,244.634 375.901,243.817 377.155,243.241C378.408,242.666 379.763,242.345 381.142,242.295C382.347,242.256 383.542,242.526 384.613,243.08C385.685,243.633 386.596,244.452 387.261,245.458C388.59,247.82 388.987,250.595 388.372,253.235C387.921,256.172 386.611,258.91 384.606,261.105C383.675,262.117 382.55,262.931 381.299,263.501C380.047,264.07 378.694,264.382 377.319,264.419L377.338,264.419ZM378.035,249.356C377.039,250.494 376.386,251.891 376.152,253.385C375.843,254.714 375.996,256.109 376.585,257.339C376.786,257.65 377.067,257.9 377.399,258.062C377.73,258.225 378.1,258.294 378.468,258.262C378.862,258.256 379.251,258.17 379.611,258.008C379.97,257.846 380.293,257.612 380.558,257.32C381.547,256.178 382.199,254.783 382.441,253.291C382.75,251.962 382.597,250.567 382.008,249.337C381.809,249.025 381.528,248.774 381.196,248.611C380.864,248.449 380.493,248.38 380.125,248.414C379.728,248.425 379.337,248.517 378.978,248.685C378.618,248.854 378.297,249.095 378.035,249.393L378.035,249.356Z" fill="#FFFFFF"/>
<path d="M411.718,242.765L407.651,264.418L402.002,264.418L404.412,251.52L400.948,260.822L396.786,260.822L396.786,251.52L394.376,264.418L388.728,264.418L392.795,242.765L399.573,242.765L400.308,253.384L405.053,242.765L411.718,242.765Z" fill="#FFFFFF"/>
<path d="M213.146,77.99C259.523,73.151 277.599,90.587 295.995,91.416C300.76,91.616 305.423,90.001 309.043,86.897L362.763,44.042C362.763,44.042 266.376,31.991 174.904,50.349C174.904,50.349 287.672,12.07 398.521,34.759C398.521,34.759 335.611,105.274 304.524,107.552C274.774,109.737 246.512,78.179 165.603,96.086C179.568,85.949 195.975,79.704 213.146,77.99Z" fill="#FFFFFF"/>
<path d="M175.941,66.523C166.029,70.738 157.348,77.398 150.709,85.88C132.212,91.072 113.224,94.322 94.052,95.577L97.197,87.292C105.105,63.548 125.271,43.985 148.714,35.342C175.545,25.363 212.733,13.162 246.625,7.871C262.71,5.471 279.145,7.543 294.131,13.858C294.131,13.858 202.471,22.087 138.433,51.517C138.433,51.517 274.285,11.467 322.677,21.39C322.677,21.39 298.971,0.829 259.467,0.075C232.729,-0.452 176.185,16.683 137.868,29.298C117.551,36.001 92.923,56.977 83.113,75.995L65.809,109.887C65.809,109.887 99.701,112.071 157.714,97.234C157.714,97.234 174.867,68.425 226.007,61.797C226.007,61.797 209.268,36.736 117.777,77.52C136.628,71.515 156.141,67.835 175.884,66.561L175.941,66.523Z" fill="#FFFFFF"/>
<path d="M259.278,5.875L251.295,22.859L258.092,20.317L263.176,5.875L259.278,5.875Z" fill="#FFFFFF"/>
<path d="M222.826,10.751L214.861,27.735L221.64,25.193L226.743,10.751L222.826,10.751Z" fill="#FFFFFF"/>
<path d="M304.036,119.207C304.036,119.207 243.462,89.74 185.299,99.305C122.259,109.68 85.504,126.664 27.134,103.221C27.134,103.221 38.601,121.843 93.205,126.456C158.11,131.936 164.38,90.662 304.036,119.207Z" fill="#FFFFFF"/>
<path d="M101.96,52.628L46.301,70.158L92.413,63.474L101.96,52.628Z" fill="#FFFFFF"/>
<path d="M95.898,66.222L26.192,88.158L83.96,79.798L95.898,66.222Z" fill="#FFFFFF"/>
<path d="M95.879,81.605L40.22,99.117L86.332,92.432L95.879,81.605Z" fill="#FFFFFF"/>
<path d="M302.83,126.965C302.83,126.965 256.454,113.352 214.841,116.026C173.229,118.699 149.222,126.965 149.222,126.965L298.236,126.965Z" fill="#FFFFFF"/>
</svg>
