<svg width="420" height="266" viewBox="0 0 420 266" fill="none" xmlns="http://www.w3.org/2000/svg" xmlns:xlink="http://www.w3.org/1999/xlink">
<path d="M415.203,203.15L397.673,203.15L390.141,237.739L365.663,237.739L373.195,203.15L355.797,203.15L360.391,178.672L419.816,178.672L415.203,203.15Z" fill="#FFFFFF"/>
<path d="M75.279,217.23L37.621,217.23L34.532,233.649L45.83,233.649C43.25,238.187 39.466,241.369 34.532,241.614C24.817,241.124 24.195,230.091 25.57,222.126C27.114,213.182 32.009,202.769 41.047,202.28C42.715,202.3 44.344,202.78 45.756,203.667C47.168,204.554 48.308,205.814 49.05,207.307L74.676,201.884C72.04,187.781 60.969,177.614 45.623,177.745L45.378,177.745C21.239,178.48 5.046,199.437 0.979,222.465C-0.661,230.615 -0.148,239.051 2.467,246.943L63.699,246.943C69.553,237.936 73.495,227.823 75.279,217.23Z" fill="#FFFFFF"/>
<path d="M57.316,254.477L6.289,254.477C7.333,255.968 8.532,257.344 9.867,258.581L52.383,258.581C54.131,257.343 55.78,255.97 57.316,254.477Z" fill="#FFFFFF"/>
<path d="M29.86,266.001L30.218,266.001C34.994,265.819 39.705,264.832 44.152,263.082L16.586,263.082C20.751,264.994 25.278,265.989 29.86,266.001Z" fill="#FFFFFF"/>
<path d="M75.73,266.001L100.227,266.001L100.773,263.082L76.277,263.082L75.73,266.001Z" fill="#FFFFFF"/>
<path d="M116.443,179.609L91.927,179.609L79.293,246.961L103.809,246.961L116.443,179.609Z" fill="#FFFFFF"/>
<path d="M77.877,254.477L77.105,258.6L101.621,258.6L102.393,254.477L77.877,254.477Z" fill="#FFFFFF"/>
<path d="M114.892,254.477L114.102,258.6L169.121,258.6L169.893,254.477L114.892,254.477Z" fill="#FFFFFF"/>
<path d="M112.73,266.001L167.749,265.888L168.277,263.082L113.277,263.082L112.73,266.001Z" fill="#FFFFFF"/>
<path d="M171.745,244.683L141.957,244.683L154.177,179.609L128.927,179.609L116.293,246.961L171.312,246.961L171.745,244.683Z" fill="#FFFFFF"/>
<path d="M216.647,179.609L192.15,179.609L179.516,246.961L204.012,246.961L216.647,179.609Z" fill="#FFFFFF"/>
<path d="M178.108,254.477L177.336,258.6L201.833,258.6L202.605,254.477L178.108,254.477Z" fill="#FFFFFF"/>
<path d="M175.938,266.001L200.453,266.001L200.999,263.082L176.484,263.082L175.938,266.001Z" fill="#FFFFFF"/>
<path d="M268.22,242.711C271.066,235.634 273.094,228.255 274.264,220.718L282.153,178.691L257.675,178.691L249.786,220.718C248.974,226.129 247.566,231.434 245.587,236.535C245.148,237.656 244.51,238.69 243.704,239.585C243.306,240.085 242.814,240.501 242.254,240.809C241.461,241.333 240.505,241.554 239.562,241.43C239.147,241.376 238.755,241.206 238.432,240.941C237.935,240.455 237.553,239.866 237.312,239.214C237.071,238.563 236.977,237.866 237.038,237.175C236.958,236.606 236.958,236.03 237.038,235.461L212.09,241.11C212.092,242.371 212.193,243.63 212.391,244.876C212.504,245.629 212.692,246.326 212.843,247.041L266.017,247.041C266.835,245.642 267.571,244.196 268.22,242.711Z" fill="#FFFFFF"/>
<path d="M260.317,254.477L215.484,254.477C216.266,255.944 217.207,257.32 218.29,258.581L255.722,258.581C257.353,257.329 258.889,255.957 260.317,254.477Z" fill="#FFFFFF"/>
<path d="M227.707,264.777C230.134,265.591 232.678,266.005 235.238,266.001C239.712,265.937 244.124,264.943 248.193,263.082L223.715,263.082C224.985,263.78 226.322,264.348 227.707,264.777Z" fill="#FFFFFF"/>
<path d="M277.125,266.001L333.876,265.888L334.403,263.082L277.633,263.082L277.125,266.001Z" fill="#FFFFFF"/>
<path d="M345.479,203.994L349.263,178.537L292.512,178.669L280.48,246.962L337.42,246.962L338.474,241.37L306.258,241.37L307.915,232.558L336.46,232.558L340.677,210.001L312.132,210.001L313.262,203.994L345.479,203.994Z" fill="#FFFFFF"/>
<path d="M278.43,258.6L335.237,258.6L336.009,254.477L279.164,254.477L278.43,258.6Z" fill="#FFFFFF"/>
<path d="M343.803,264.416C343.281,264.434 342.762,264.33 342.287,264.114C341.812,263.898 341.393,263.575 341.063,263.171C340.733,262.766 340.501,262.291 340.385,261.782C340.27,261.273 340.273,260.744 340.395,260.236C340.642,259.083 341.267,258.045 342.171,257.288C343.075,256.531 344.206,256.097 345.385,256.056C345.904,256.041 346.421,256.146 346.893,256.363C347.365,256.581 347.781,256.905 348.107,257.31C348.434,257.714 348.662,258.189 348.774,258.697C348.887,259.205 348.88,259.731 348.755,260.236C348.513,261.385 347.894,262.42 346.997,263.177C346.1,263.934 344.976,264.37 343.803,264.416Z" fill="#FFFFFF"/>
<path d="M361.656,256.83L367.418,258.148C366.792,259.672 365.805,261.022 364.543,262.081C363.28,263.141 361.779,263.878 360.169,264.229C359.55,264.361 358.919,264.424 358.286,264.418C357.651,264.42 357.019,264.345 356.403,264.192C351.338,262.874 351.037,257.903 351.884,253.478C352.825,248.451 355.029,243.875 360.47,242.538C361.71,242.258 362.996,242.258 364.236,242.538C365.635,242.828 366.891,243.591 367.793,244.699C368.695,245.807 369.187,247.191 369.188,248.62L362.937,249.938C362.917,249.618 362.8,249.311 362.601,249.059C362.403,248.807 362.132,248.621 361.826,248.526C359.114,247.904 358.267,251.388 357.872,253.497C357.476,255.606 356.949,258.731 359.981,258.26C360.351,258.167 360.695,257.989 360.986,257.741C361.276,257.493 361.506,257.181 361.656,256.83Z" fill="#FFFFFF"/>
<path d="M377.342,264.419C376.134,264.476 374.931,264.217 373.854,263.665C372.777,263.113 371.863,262.289 371.204,261.275C369.868,258.922 369.465,256.153 370.074,253.517C370.537,250.583 371.846,247.848 373.84,245.646C374.777,244.634 375.905,243.817 377.158,243.241C378.412,242.666 379.767,242.345 381.146,242.295C382.351,242.256 383.546,242.526 384.617,243.08C385.689,243.633 386.6,244.452 387.265,245.458C388.594,247.82 388.991,250.595 388.376,253.235C387.925,256.172 386.614,258.91 384.61,261.105C383.679,262.117 382.554,262.931 381.303,263.501C380.051,264.07 378.698,264.382 377.323,264.419L377.342,264.419ZM378.039,249.356C377.043,250.494 376.39,251.891 376.156,253.385C375.847,254.714 376,256.109 376.589,257.339C376.79,257.65 377.071,257.9 377.402,258.062C377.734,258.225 378.104,258.294 378.472,258.262C378.866,258.256 379.255,258.17 379.615,258.008C379.974,257.846 380.297,257.612 380.562,257.32C381.551,256.178 382.203,254.783 382.445,253.291C382.754,251.962 382.601,250.567 382.012,249.337C381.813,249.025 381.532,248.774 381.2,248.611C380.868,248.449 380.497,248.38 380.129,248.414C379.732,248.425 379.341,248.517 378.982,248.685C378.622,248.854 378.301,249.095 378.039,249.393L378.039,249.356Z" fill="#FFFFFF"/>
<path d="M411.721,242.766L407.654,264.419L402.005,264.419L404.415,251.521L400.951,260.823L396.789,260.823L396.789,251.521L394.379,264.419L388.73,264.419L392.798,242.766L399.576,242.766L400.31,253.385L405.055,242.766L411.721,242.766Z" fill="#FFFFFF"/>
<path d="M213.145,77.991C259.522,73.152 277.598,90.588 295.994,91.417C300.759,91.617 305.422,90.002 309.042,86.898L362.762,44.043C362.762,44.043 266.375,31.992 174.903,50.35C174.903,50.35 287.671,12.071 398.52,34.76C398.52,34.76 335.61,105.275 304.523,107.553C274.773,109.738 246.511,78.18 165.602,96.087C179.567,85.95 195.974,79.705 213.145,77.991Z" fill="#FFFFFF"/>
<path d="M175.937,66.524C166.025,70.739 157.344,77.399 150.705,85.881C132.208,91.073 113.22,94.323 94.048,95.578L97.193,87.293C105.101,63.549 125.267,43.986 148.71,35.343C175.541,25.364 212.729,13.163 246.621,7.872C262.706,5.472 279.141,7.544 294.127,13.859C294.127,13.859 202.467,22.088 138.429,51.518C138.429,51.518 274.281,11.468 322.673,21.391C322.673,21.391 298.967,0.829 259.463,0.076C232.725,-0.451 176.181,16.684 137.864,29.299C117.547,36.002 92.919,56.978 83.109,75.996L65.805,109.888C65.805,109.888 99.697,112.072 157.71,97.235C157.71,97.235 174.863,68.426 226.003,61.798C226.003,61.798 209.264,36.737 117.773,77.521C136.624,71.516 156.137,67.836 175.88,66.562L175.937,66.524Z" fill="#FFFFFF"/>
<path d="M259.28,5.873L251.297,22.857L258.094,20.315L263.178,5.873L259.28,5.873Z" fill="#FFFFFF"/>
<path d="M222.828,10.752L214.863,27.736L221.642,25.194L226.745,10.752L222.828,10.752Z" fill="#FFFFFF"/>
<path d="M304.039,119.207C304.039,119.207 243.465,89.74 185.302,99.305C122.262,109.68 85.507,126.664 27.137,103.221C27.137,103.221 38.604,121.843 93.208,126.456C158.113,131.936 164.383,90.662 304.039,119.207Z" fill="#FFFFFF"/>
<path d="M101.964,52.625L46.305,70.155L92.417,63.471L101.964,52.625Z" fill="#FFFFFF"/>
<path d="M95.897,66.223L26.191,88.159L83.959,79.799L95.897,66.223Z" fill="#FFFFFF"/>
<path d="M95.878,81.604L40.219,99.115L86.331,92.43L95.878,81.604Z" fill="#FFFFFF"/>
<path d="M302.827,126.967C302.827,126.967 256.451,113.354 214.838,116.028C173.226,118.701 149.219,126.967 149.219,126.967L298.233,126.967Z" fill="#FFFFFF"/>
</svg>
