<svg width="420" height="266" viewBox="0 0 420 266" fill="none" xmlns="http://www.w3.org/2000/svg" xmlns:xlink="http://www.w3.org/1999/xlink">
<path d="M415.202,203.148L397.673,203.148L390.141,237.737L365.663,237.737L373.195,203.148L355.796,203.148L360.391,178.67L419.816,178.67L415.202,203.148Z" fill="#103BE9"/>
<path d="M75.279,217.233L37.621,217.233L34.533,233.652L45.831,233.652C43.251,238.19 39.466,241.372 34.533,241.617C24.817,241.127 24.196,230.093 25.57,222.129C27.114,213.185 32.01,202.772 41.048,202.283C42.715,202.303 44.345,202.783 45.757,203.67C47.169,204.557 48.309,205.817 49.05,207.31L74.677,201.887C72.041,187.784 60.969,177.617 45.624,177.748L45.379,177.748C21.24,178.483 5.047,199.439 0.979,222.468C-0.661,230.618 -0.148,239.054 2.467,246.946L63.699,246.946C69.554,237.939 73.495,227.826 75.279,217.233Z" fill="#103BE9"/>
<path d="M57.316,254.478L6.289,254.478C7.333,255.969 8.532,257.345 9.867,258.582L52.383,258.582C54.131,257.344 55.78,255.971 57.316,254.478Z" fill="#103BE9"/>
<path d="M29.863,266.001L30.221,266.001C34.997,265.819 39.708,264.832 44.155,263.082L16.589,263.082C20.754,264.994 25.281,265.989 29.863,266.001Z" fill="#103BE9"/>
<path d="M75.731,266.001L100.228,266.001L100.774,263.082L76.277,263.082L75.731,266.001Z" fill="#103BE9"/>
<path d="M116.44,179.611L91.924,179.611L79.29,246.963L103.806,246.963L116.44,179.611Z" fill="#103BE9"/>
<path d="M77.877,254.478L77.105,258.601L101.621,258.601L102.393,254.478L77.877,254.478Z" fill="#103BE9"/>
<path d="M114.895,254.478L114.104,258.601L169.123,258.601L169.895,254.478L114.895,254.478Z" fill="#103BE9"/>
<path d="M112.73,266.001L167.749,265.888L168.276,263.082L113.276,263.082L112.73,266.001Z" fill="#103BE9"/>
<path d="M171.741,244.685L141.953,244.685L154.173,179.611L128.923,179.611L116.289,246.963L171.308,246.963L171.741,244.685Z" fill="#103BE9"/>
<path d="M216.649,179.611L192.152,179.611L179.518,246.963L204.014,246.963L216.649,179.611Z" fill="#103BE9"/>
<path d="M178.105,254.478L177.333,258.601L201.83,258.601L202.602,254.478L178.105,254.478Z" fill="#103BE9"/>
<path d="M175.94,266.001L200.456,266.001L201.002,263.082L176.486,263.082L175.94,266.001Z" fill="#103BE9"/>
<path d="M268.222,242.708C271.068,235.631 273.096,228.252 274.266,220.715L282.155,178.688L257.677,178.688L249.788,220.715C248.976,226.126 247.568,231.431 245.589,236.532C245.15,237.653 244.512,238.687 243.706,239.582C243.308,240.082 242.816,240.498 242.256,240.806C241.463,241.33 240.507,241.551 239.564,241.427C239.149,241.373 238.757,241.203 238.434,240.938C237.937,240.452 237.555,239.863 237.314,239.211C237.073,238.56 236.979,237.863 237.04,237.172C236.96,236.603 236.96,236.027 237.04,235.458L212.092,241.107C212.094,242.368 212.194,243.627 212.393,244.873C212.506,245.626 212.694,246.323 212.845,247.038L266.019,247.038C266.837,245.639 267.573,244.193 268.222,242.708Z" fill="#103BE9"/>
<path d="M260.314,254.478L215.481,254.478C216.263,255.945 217.204,257.321 218.287,258.582L255.719,258.582C257.35,257.33 258.886,255.958 260.314,254.478Z" fill="#103BE9"/>
<path d="M227.701,264.777C230.128,265.591 232.672,266.005 235.232,266.001C239.706,265.937 244.118,264.943 248.187,263.082L223.709,263.082C224.979,263.78 226.317,264.348 227.701,264.777Z" fill="#103BE9"/>
<path d="M277.128,266.001L333.879,265.888L334.406,263.082L277.636,263.082L277.128,266.001Z" fill="#103BE9"/>
<path d="M345.478,203.995L349.262,178.538L292.511,178.67L280.479,246.963L337.419,246.963L338.473,241.371L306.257,241.371L307.914,232.559L336.459,232.559L340.676,210.002L312.131,210.002L313.261,203.995L345.478,203.995Z" fill="#103BE9"/>
<path d="M278.427,258.601L335.234,258.601L336.006,254.478L279.161,254.478L278.427,258.601Z" fill="#103BE9"/>
<path d="M343.802,264.418C343.28,264.436 342.761,264.332 342.286,264.116C341.811,263.9 341.392,263.577 341.062,263.173C340.732,262.768 340.5,262.293 340.384,261.784C340.269,261.275 340.272,260.746 340.394,260.238C340.641,259.085 341.266,258.047 342.17,257.29C343.074,256.533 344.205,256.099 345.384,256.058C345.903,256.043 346.42,256.148 346.892,256.365C347.364,256.583 347.78,256.907 348.106,257.311C348.433,257.716 348.661,258.191 348.773,258.699C348.886,259.207 348.879,259.733 348.754,260.238C348.512,261.387 347.893,262.422 346.996,263.179C346.099,263.936 344.975,264.372 343.802,264.418Z" fill="#000000"/>
<path d="M361.652,256.831L367.414,258.149C366.787,259.673 365.801,261.023 364.538,262.082C363.275,263.142 361.775,263.879 360.164,264.23C359.546,264.362 358.914,264.425 358.282,264.419C357.647,264.421 357.015,264.346 356.399,264.193C351.334,262.875 351.032,257.904 351.88,253.479C352.821,248.452 355.024,243.876 360.466,242.539C361.705,242.259 362.992,242.259 364.232,242.539C365.63,242.829 366.886,243.592 367.788,244.7C368.69,245.808 369.183,247.192 369.184,248.621L362.932,249.939C362.912,249.619 362.795,249.312 362.597,249.06C362.399,248.808 362.128,248.622 361.821,248.527C359.11,247.905 358.263,251.389 357.867,253.498C357.472,255.607 356.945,258.732 359.976,258.261C360.347,258.168 360.691,257.99 360.981,257.742C361.272,257.494 361.501,257.182 361.652,256.831Z" fill="#000000"/>
<path d="M377.337,264.417C376.128,264.474 374.926,264.215 373.849,263.663C372.772,263.111 371.858,262.287 371.199,261.273C369.863,258.92 369.459,256.151 370.069,253.515C370.532,250.581 371.841,247.846 373.835,245.644C374.772,244.632 375.899,243.815 377.153,243.24C378.407,242.664 379.762,242.343 381.14,242.293C382.346,242.254 383.541,242.524 384.612,243.078C385.683,243.631 386.595,244.45 387.26,245.456C388.589,247.818 388.985,250.593 388.371,253.233C387.919,256.17 386.609,258.909 384.605,261.103C383.674,262.115 382.549,262.929 381.297,263.499C380.046,264.068 378.692,264.38 377.318,264.417L377.337,264.417ZM378.034,249.354C377.038,250.492 376.385,251.889 376.151,253.383C375.842,254.712 375.994,256.107 376.584,257.337C376.784,257.648 377.065,257.898 377.397,258.06C377.729,258.223 378.099,258.292 378.467,258.26C378.861,258.254 379.25,258.168 379.609,258.006C379.969,257.844 380.291,257.61 380.557,257.318C381.546,256.176 382.198,254.781 382.44,253.289C382.749,251.96 382.596,250.565 382.006,249.335C381.808,249.023 381.527,248.772 381.195,248.609C380.862,248.447 380.492,248.378 380.124,248.412C379.726,248.423 379.336,248.515 378.976,248.684C378.617,248.852 378.296,249.093 378.034,249.391L378.034,249.354Z" fill="#000000"/>
<path d="M411.719,242.765L407.652,264.418L402.004,264.418L404.414,251.52L400.949,260.822L396.788,260.822L396.788,251.52L394.378,264.418L388.729,264.418L392.796,242.765L399.575,242.765L400.309,253.384L405.054,242.765L411.719,242.765Z" fill="#000000"/>
<path d="M213.147,77.99C259.523,73.151 277.599,90.586 295.995,91.415C300.76,91.615 305.423,90.001 309.044,86.896L362.763,44.041C362.763,44.041 266.377,31.99 174.905,50.349C174.905,50.349 287.673,12.069 398.521,34.758C398.521,34.758 335.612,105.273 304.525,107.552C274.775,109.736 246.512,78.178 165.603,96.085C179.568,85.948 195.976,79.703 213.147,77.99Z" fill="#103BE9"/>
<path d="M175.94,66.522C166.028,70.737 157.347,77.397 150.708,85.879C132.211,91.071 113.223,94.321 94.051,95.576L97.196,87.291C105.104,63.548 125.27,43.984 148.713,35.342C175.544,25.362 212.732,13.161 246.624,7.87C262.709,5.47 279.144,7.542 294.13,13.857C294.13,13.857 202.47,22.086 138.432,51.516C138.432,51.516 274.284,11.466 322.676,21.389C322.676,21.389 298.97,0.828 259.466,0.074C232.728,-0.453 176.184,16.682 137.867,29.297C117.55,36 92.922,56.976 83.112,75.994L65.808,109.886C65.808,109.886 99.7,112.07 157.713,97.233C157.713,97.233 174.866,68.424 226.006,61.797C226.006,61.797 209.267,36.735 117.776,77.519C136.627,71.514 156.14,67.834 175.883,66.56L175.94,66.522Z" fill="#103BE9"/>
<path d="M259.278,5.875L251.294,22.859L258.092,20.317L263.176,5.875L259.278,5.875Z" fill="#103BE9"/>
<path d="M222.825,10.752L214.86,27.736L221.638,25.194L226.741,10.752L222.825,10.752Z" fill="#103BE9"/>
<path d="M304.035,119.208C304.035,119.208 243.461,89.741 185.298,99.306C122.258,109.681 85.503,126.665 27.133,103.222C27.133,103.222 38.6,121.844 93.204,126.457C158.109,131.937 164.379,90.663 304.035,119.208Z" fill="#00AEEF"/>
<path d="M101.96,52.628L46.301,70.158L92.413,63.474L101.96,52.628Z" fill="#103BE9"/>
<path d="M95.897,66.222L26.191,88.158L83.959,79.798L95.897,66.222Z" fill="#103BE9"/>
<path d="M95.879,81.605L40.22,99.117L86.332,92.432L95.879,81.605Z" fill="#103BE9"/>
<path d="M302.83,126.964C302.83,126.964 256.454,113.351 214.841,116.025C173.229,118.698 149.222,126.964 149.222,126.964L298.236,126.964Z" fill="#00AEEF"/>
</svg>
