<svg width="262" height="166" viewBox="0 0 262 166" fill="none" xmlns="http://www.w3.org/2000/svg" xmlns:xlink="http://www.w3.org/1999/xlink">
<path d="M257.154,125.82L246.297,125.82L241.633,147.243L226.472,147.243L231.137,125.82L220.361,125.82L223.207,110.66L260.012,110.66L257.154,125.82Z" fill="#FFFFFF"/>
<path d="M46.624,134.542L23.3,134.542L21.388,144.711L28.385,144.711C26.787,147.521 24.443,149.492 21.388,149.644C15.37,149.34 14.986,142.507 15.837,137.574C16.793,132.034 19.825,125.585 25.423,125.282C26.456,125.294 27.465,125.592 28.339,126.141C29.214,126.69 29.92,127.471 30.379,128.396L46.251,125.037C44.618,116.302 37.761,110.005 28.257,110.087L28.105,110.087C13.155,110.542 3.125,123.521 0.607,137.784C-0.409,142.831 -0.092,148.056 1.528,152.944L39.452,152.944C43.078,147.366 45.519,141.102 46.624,134.542Z" fill="#FFFFFF"/>
<path d="M35.499,157.609L3.896,157.609C4.542,158.533 5.285,159.385 6.111,160.152L32.444,160.152C33.526,159.384 34.548,158.535 35.499,157.609Z" fill="#FFFFFF"/>
<path d="M18.495,164.747L18.717,164.747C21.674,164.635 24.592,164.024 27.346,162.939L10.273,162.939C12.853,164.124 15.657,164.74 18.495,164.747Z" fill="#FFFFFF"/>
<path d="M46.903,164.747L62.075,164.747L62.414,162.939L47.242,162.939L46.903,164.747Z" fill="#FFFFFF"/>
<path d="M72.116,111.24L56.933,111.24L49.107,152.954L64.291,152.954L72.116,111.24Z" fill="#FFFFFF"/>
<path d="M48.234,157.609L47.756,160.163L62.94,160.163L63.418,157.609L48.234,157.609Z" fill="#FFFFFF"/>
<path d="M71.16,157.609L70.67,160.163L104.746,160.163L105.224,157.609L71.16,157.609Z" fill="#FFFFFF"/>
<path d="M69.82,164.747L103.896,164.677L104.223,162.939L70.159,162.939L69.82,164.747Z" fill="#FFFFFF"/>
<path d="M106.367,151.543L87.918,151.543L95.487,111.24L79.849,111.24L72.023,152.954L106.099,152.954L106.367,151.543Z" fill="#FFFFFF"/>
<path d="M134.18,111.24L119.008,111.24L111.183,152.954L126.355,152.954L134.18,111.24Z" fill="#FFFFFF"/>
<path d="M110.309,157.609L109.831,160.163L125.003,160.163L125.481,157.609L110.309,157.609Z" fill="#FFFFFF"/>
<path d="M108.968,164.747L124.151,164.747L124.49,162.939L109.306,162.939L108.968,164.747Z" fill="#FFFFFF"/>
<path d="M166.122,150.322C167.885,145.939 169.141,141.369 169.866,136.701L174.752,110.672L159.592,110.672L154.705,136.701C154.203,140.052 153.331,143.338 152.105,146.497C151.833,147.192 151.438,147.832 150.939,148.386C150.692,148.695 150.387,148.953 150.041,149.144C149.549,149.469 148.957,149.605 148.373,149.529C148.116,149.495 147.874,149.39 147.673,149.226C147.366,148.925 147.129,148.56 146.979,148.157C146.83,147.753 146.772,147.322 146.81,146.893C146.76,146.541 146.76,146.184 146.81,145.832L131.358,149.331C131.36,150.112 131.422,150.892 131.545,151.663C131.615,152.129 131.732,152.561 131.825,153.004L164.758,153.004C165.265,152.137 165.72,151.242 166.122,150.322Z" fill="#FFFFFF"/>
<path d="M161.224,157.609L133.457,157.609C133.941,158.518 134.524,159.371 135.195,160.152L158.378,160.152C159.388,159.376 160.34,158.526 161.224,157.609Z" fill="#FFFFFF"/>
<path d="M141.026,163.989C142.529,164.494 144.105,164.75 145.691,164.747C148.462,164.708 151.194,164.092 153.714,162.939L138.554,162.939C139.34,163.372 140.169,163.723 141.026,163.989Z" fill="#FFFFFF"/>
<path d="M171.639,164.747L206.787,164.677L207.114,162.939L171.954,162.939L171.639,164.747Z" fill="#FFFFFF"/>
<path d="M213.97,126.343L216.314,110.576L181.166,110.658L173.714,152.955L208.979,152.955L209.632,149.492L189.679,149.492L190.705,144.034L208.384,144.034L210.997,130.063L193.317,130.063L194.017,126.343L213.97,126.343Z" fill="#FFFFFF"/>
<path d="M172.443,160.163L207.627,160.163L208.105,157.609L172.898,157.609L172.443,160.163Z" fill="#FFFFFF"/>
<path d="M212.933,163.765C212.61,163.775 212.288,163.711 211.994,163.578C211.7,163.444 211.44,163.244 211.236,162.993C211.032,162.743 210.888,162.448 210.816,162.133C210.744,161.818 210.746,161.49 210.822,161.176C210.975,160.462 211.362,159.819 211.922,159.35C212.482,158.881 213.182,158.612 213.912,158.587C214.234,158.577 214.554,158.642 214.846,158.777C215.139,158.912 215.396,159.112 215.599,159.363C215.801,159.614 215.942,159.908 216.012,160.222C216.081,160.537 216.077,160.863 216,161.176C215.85,161.887 215.466,162.528 214.911,162.997C214.355,163.466 213.659,163.736 212.933,163.765Z" fill="#FFFFFF"/>
<path d="M223.989,159.067L227.558,159.884C227.17,160.828 226.559,161.664 225.777,162.32C224.995,162.976 224.065,163.433 223.068,163.65C222.685,163.732 222.294,163.771 221.902,163.767C221.509,163.769 221.117,163.722 220.736,163.627C217.598,162.811 217.412,159.732 217.937,156.992C218.52,153.878 219.884,151.044 223.254,150.216C224.022,150.043 224.819,150.043 225.587,150.216C226.453,150.396 227.231,150.868 227.79,151.554C228.348,152.24 228.654,153.098 228.654,153.983L224.782,154.799C224.77,154.601 224.697,154.411 224.574,154.255C224.452,154.098 224.284,153.983 224.094,153.924C222.415,153.54 221.89,155.697 221.645,157.003C221.4,158.309 221.074,160.245 222.951,159.954C223.181,159.896 223.394,159.786 223.574,159.632C223.754,159.478 223.896,159.285 223.989,159.067Z" fill="#FFFFFF"/>
<path d="M233.703,163.767C232.955,163.803 232.21,163.642 231.543,163.3C230.876,162.959 230.31,162.448 229.902,161.82C229.074,160.363 228.825,158.648 229.202,157.015C229.489,155.198 230.299,153.504 231.534,152.141C232.115,151.514 232.813,151.007 233.59,150.651C234.366,150.295 235.205,150.096 236.059,150.065C236.806,150.041 237.546,150.208 238.209,150.551C238.873,150.894 239.437,151.401 239.849,152.024C240.672,153.487 240.918,155.205 240.537,156.84C240.258,158.66 239.446,160.356 238.205,161.715C237.628,162.341 236.932,162.846 236.156,163.199C235.381,163.551 234.543,163.745 233.692,163.767L233.703,163.767ZM234.135,154.438C233.518,155.143 233.114,156.008 232.969,156.934C232.777,157.757 232.872,158.62 233.237,159.383C233.361,159.575 233.535,159.73 233.741,159.83C233.946,159.931 234.175,159.974 234.403,159.954C234.647,159.951 234.888,159.897 235.111,159.797C235.334,159.697 235.533,159.552 235.698,159.371C236.31,158.663 236.714,157.799 236.864,156.875C237.055,156.052 236.961,155.188 236.596,154.426C236.472,154.233 236.298,154.078 236.093,153.977C235.887,153.876 235.657,153.834 235.429,153.855C235.183,153.861 234.942,153.919 234.719,154.023C234.496,154.127 234.297,154.276 234.135,154.461L234.135,154.438Z" fill="#FFFFFF"/>
<path d="M254.997,150.355L252.478,163.767L248.979,163.767L250.472,155.778L248.326,161.539L245.749,161.539L245.749,155.778L244.256,163.767L240.758,163.767L243.277,150.355L247.475,150.355L247.93,156.933L250.869,150.355L254.997,150.355Z" fill="#FFFFFF"/>
<path d="M132.011,48.303C160.734,45.306 171.93,56.105 183.323,56.618C186.275,56.742 189.163,55.742 191.405,53.819L224.676,27.277C224.676,27.277 164.979,19.813 108.326,31.184C108.326,31.184 178.169,7.475 246.822,21.528C246.822,21.528 207.86,65.201 188.606,66.612C170.181,67.965 152.676,48.42 102.565,59.51C111.215,53.232 121.377,49.365 132.011,48.303Z" fill="#FFFFFF"/>
<path d="M108.969,41.203C102.83,43.813 97.453,47.938 93.342,53.191C81.886,56.407 70.125,58.42 58.252,59.197L60.199,54.066C65.097,39.36 77.587,27.244 92.106,21.891C108.724,15.71 131.756,8.153 152.747,4.876C162.709,3.39 172.888,4.673 182.17,8.585C182.17,8.585 125.4,13.681 85.738,31.908C85.738,31.908 169.878,7.104 199.849,13.25C199.849,13.25 185.167,0.515 160.701,0.048C144.141,-0.278 109.12,10.334 85.389,18.147C72.805,22.299 57.552,35.29 51.476,47.069L40.759,68.06C40.759,68.06 61.75,69.413 97.68,60.223C97.68,60.223 108.304,42.381 139.977,38.276C139.977,38.276 129.61,22.754 72.945,48.013C84.621,44.294 96.706,42.015 108.934,41.226L108.969,41.203Z" fill="#FFFFFF"/>
<path d="M160.583,3.637L155.639,14.156L159.849,12.581L162.997,3.637L160.583,3.637Z" fill="#FFFFFF"/>
<path d="M138.006,6.66L133.073,17.179L137.271,15.605L140.432,6.66L138.006,6.66Z" fill="#FFFFFF"/>
<path d="M188.304,73.83C188.304,73.83 150.788,55.579 114.765,61.503C75.721,67.929 52.957,78.448 16.806,63.929C16.806,63.929 23.908,75.463 57.727,78.32C97.925,81.713 101.809,56.151 188.304,73.83Z" fill="#FFFFFF"/>
<path d="M63.149,32.594L28.677,43.451L57.237,39.311L63.149,32.594Z" fill="#FFFFFF"/>
<path d="M59.394,41.014L16.222,54.6L52,49.422L59.394,41.014Z" fill="#FFFFFF"/>
<path d="M59.382,50.541L24.91,61.386L53.47,57.247L59.382,50.541Z" fill="#FFFFFF"/>
<path d="M187.557,78.637C187.557,78.637 158.834,70.206 133.061,71.862C107.289,73.518 92.42,78.637 92.42,78.637L184.711,78.637Z" fill="#FFFFFF"/>
</svg>
