<svg width="420" height="266" viewBox="0 0 420 266" fill="none" xmlns="http://www.w3.org/2000/svg" xmlns:xlink="http://www.w3.org/1999/xlink">
<path d="M415.201,203.148L397.671,203.148L390.139,237.737L365.661,237.737L373.193,203.148L355.795,203.148L360.389,178.67L419.814,178.67L415.201,203.148Z" fill="#FFFFFF"/>
<path d="M75.277,217.232L37.619,217.232L34.531,233.651L45.828,233.651C43.249,238.189 39.464,241.371 34.531,241.616C24.815,241.126 24.193,230.093 25.568,222.128C27.112,213.184 32.008,202.771 41.046,202.282C42.713,202.302 44.343,202.782 45.755,203.669C47.167,204.556 48.306,205.816 49.048,207.309L74.675,201.886C72.038,187.783 60.967,177.616 45.621,177.748L45.376,177.748C21.237,178.482 5.044,199.439 0.977,222.467C-0.663,230.617 -0.15,239.053 2.465,246.945L63.697,246.945C69.551,237.938 73.493,227.825 75.277,217.232Z" fill="#FFFFFF"/>
<path d="M57.316,254.477L6.289,254.477C7.333,255.968 8.532,257.344 9.867,258.581L52.383,258.581C54.131,257.343 55.78,255.97 57.316,254.477Z" fill="#FFFFFF"/>
<path d="M29.862,266L30.22,266C34.996,265.819 39.707,264.832 44.154,263.081L16.588,263.081C20.753,264.993 25.28,265.989 29.862,266Z" fill="#FFFFFF"/>
<path d="M75.73,266L100.227,266L100.773,263.081L76.277,263.081L75.73,266Z" fill="#FFFFFF"/>
<path d="M116.439,179.612L91.923,179.612L79.289,246.964L103.805,246.964L116.439,179.612Z" fill="#FFFFFF"/>
<path d="M77.876,254.477L77.104,258.6L101.619,258.6L102.391,254.477L77.876,254.477Z" fill="#FFFFFF"/>
<path d="M114.898,254.477L114.107,258.6L169.126,258.6L169.898,254.477L114.898,254.477Z" fill="#FFFFFF"/>
<path d="M112.729,266L167.747,265.887L168.275,263.081L113.275,263.081L112.729,266Z" fill="#FFFFFF"/>
<path d="M171.739,244.685L141.951,244.685L154.172,179.612L128.922,179.612L116.287,246.964L171.306,246.964L171.739,244.685Z" fill="#FFFFFF"/>
<path d="M216.647,179.612L192.15,179.612L179.516,246.964L204.012,246.964L216.647,179.612Z" fill="#FFFFFF"/>
<path d="M178.104,254.477L177.332,258.6L201.829,258.6L202.601,254.477L178.104,254.477Z" fill="#FFFFFF"/>
<path d="M175.939,266L200.455,266L201.001,263.081L176.486,263.081L175.939,266Z" fill="#FFFFFF"/>
<path d="M268.224,242.708C271.07,235.632 273.098,228.253 274.268,220.716L282.157,178.689L257.679,178.689L249.79,220.716C248.978,226.127 247.57,231.431 245.591,236.532C245.152,237.654 244.514,238.687 243.708,239.583C243.31,240.082 242.818,240.498 242.258,240.807C241.465,241.331 240.509,241.551 239.566,241.428C239.151,241.373 238.759,241.204 238.436,240.938C237.939,240.453 237.557,239.863 237.316,239.212C237.075,238.561 236.981,237.864 237.042,237.173C236.962,236.604 236.962,236.027 237.042,235.459L212.094,241.108C212.096,242.369 212.196,243.628 212.395,244.874C212.508,245.627 212.696,246.324 212.847,247.039L266.021,247.039C266.839,245.64 267.575,244.194 268.224,242.708Z" fill="#FFFFFF"/>
<path d="M260.313,254.477L215.48,254.477C216.262,255.944 217.203,257.32 218.286,258.581L255.718,258.581C257.349,257.329 258.885,255.957 260.313,254.477Z" fill="#FFFFFF"/>
<path d="M227.701,264.776C230.128,265.591 232.672,266.004 235.232,266C239.706,265.936 244.118,264.942 248.187,263.081L223.709,263.081C224.979,263.779 226.317,264.347 227.701,264.776Z" fill="#FFFFFF"/>
<path d="M277.129,266L333.88,265.887L334.407,263.081L277.637,263.081L277.129,266Z" fill="#FFFFFF"/>
<path d="M345.481,203.995L349.265,178.538L292.514,178.67L280.482,246.964L337.422,246.964L338.476,241.371L306.26,241.371L307.917,232.559L336.462,232.559L340.679,210.002L312.134,210.002L313.264,203.995L345.481,203.995Z" fill="#FFFFFF"/>
<path d="M278.428,258.6L335.235,258.6L336.007,254.477L279.162,254.477L278.428,258.6Z" fill="#FFFFFF"/>
<path d="M343.805,264.418C343.283,264.436 342.764,264.332 342.289,264.116C341.814,263.9 341.395,263.577 341.065,263.173C340.735,262.768 340.503,262.293 340.387,261.784C340.271,261.275 340.275,260.746 340.397,260.238C340.644,259.085 341.269,258.048 342.173,257.29C343.077,256.533 344.208,256.099 345.386,256.058C345.906,256.043 346.423,256.148 346.895,256.366C347.367,256.583 347.783,256.907 348.109,257.312C348.436,257.716 348.664,258.191 348.776,258.699C348.889,259.207 348.882,259.734 348.757,260.238C348.515,261.387 347.896,262.422 346.999,263.179C346.102,263.936 344.978,264.372 343.805,264.418Z" fill="#FFFFFF"/>
<path d="M361.65,256.83L367.412,258.148C366.786,259.673 365.799,261.023 364.537,262.082C363.274,263.141 361.773,263.879 360.163,264.23C359.544,264.362 358.913,264.425 358.28,264.418C357.646,264.421 357.013,264.345 356.397,264.193C351.332,262.874 351.031,257.904 351.878,253.479C352.82,248.451 355.023,243.876 360.464,242.539C361.704,242.259 362.99,242.259 364.23,242.539C365.629,242.829 366.885,243.592 367.787,244.7C368.689,245.808 369.182,247.192 369.182,248.621L362.931,249.939C362.911,249.619 362.794,249.312 362.595,249.06C362.397,248.807 362.127,248.622 361.82,248.527C359.109,247.905 358.261,251.389 357.866,253.498C357.47,255.606 356.943,258.732 359.975,258.261C360.345,258.168 360.689,257.99 360.98,257.742C361.271,257.494 361.5,257.182 361.65,256.83Z" fill="#FFFFFF"/>
<path d="M377.336,264.418C376.128,264.476 374.925,264.216 373.848,263.664C372.771,263.112 371.858,262.288 371.198,261.274C369.862,258.921 369.459,256.152 370.068,253.516C370.531,250.582 371.84,247.847 373.834,245.646C374.771,244.633 375.899,243.816 377.153,243.241C378.406,242.666 379.761,242.344 381.14,242.294C382.345,242.255 383.54,242.525 384.612,243.079C385.683,243.633 386.594,244.451 387.259,245.457C388.588,247.82 388.985,250.594 388.37,253.234C387.919,256.171 386.609,258.91 384.604,261.104C383.673,262.116 382.548,262.931 381.297,263.5C380.045,264.069 378.692,264.381 377.318,264.418L377.336,264.418ZM378.033,249.355C377.037,250.493 376.384,251.89 376.15,253.384C375.841,254.713 375.994,256.108 376.583,257.339C376.784,257.649 377.065,257.899 377.397,258.061C377.728,258.224 378.098,258.293 378.466,258.261C378.86,258.256 379.249,258.169 379.609,258.007C379.968,257.845 380.291,257.611 380.556,257.32C381.545,256.177 382.197,254.782 382.439,253.29C382.748,251.961 382.595,250.567 382.006,249.336C381.807,249.024 381.526,248.773 381.194,248.611C380.862,248.448 380.491,248.38 380.123,248.413C379.726,248.424 379.335,248.516 378.976,248.685C378.616,248.853 378.295,249.094 378.033,249.393L378.033,249.355Z" fill="#FFFFFF"/>
<path d="M411.721,242.765L407.654,264.418L402.005,264.418L404.415,251.52L400.951,260.822L396.789,260.822L396.789,251.52L394.379,264.418L388.73,264.418L392.798,242.765L399.576,242.765L400.31,253.384L405.055,242.765L411.721,242.765Z" fill="#FFFFFF"/>
<path d="M213.145,77.99C259.522,73.151 277.598,90.587 295.994,91.416C300.759,91.616 305.422,90.001 309.042,86.897L362.762,44.041C362.762,44.041 266.375,31.991 174.903,50.349C174.903,50.349 287.671,12.069 398.52,34.759C398.52,34.759 335.61,105.274 304.523,107.552C274.773,109.736 246.511,78.179 165.602,96.085C179.567,85.949 195.974,79.704 213.145,77.99Z" fill="#FFFFFF"/>
<path d="M175.941,66.523C166.029,70.738 157.348,77.398 150.709,85.88C132.212,91.072 113.224,94.322 94.052,95.577L97.197,87.292C105.105,63.548 125.271,43.985 148.714,35.342C175.545,25.363 212.733,13.162 246.625,7.871C262.71,5.471 279.145,7.543 294.131,13.858C294.131,13.858 202.471,22.087 138.433,51.517C138.433,51.517 274.285,11.467 322.677,21.39C322.677,21.39 298.971,0.829 259.467,0.075C232.729,-0.452 176.185,16.683 137.868,29.298C117.551,36.001 92.923,56.977 83.113,75.995L65.809,109.887C65.809,109.887 99.701,112.071 157.714,97.234C157.714,97.234 174.867,68.425 226.007,61.797C226.007,61.797 209.268,36.736 117.777,77.52C136.628,71.515 156.141,67.835 175.884,66.561L175.941,66.523Z" fill="#FFFFFF"/>
<path d="M259.278,5.875L251.295,22.859L258.092,20.317L263.176,5.875L259.278,5.875Z" fill="#FFFFFF"/>
<path d="M222.824,10.751L214.859,27.735L221.638,25.193L226.741,10.751L222.824,10.751Z" fill="#FFFFFF"/>
<path d="M304.033,119.207C304.033,119.207 243.459,89.74 185.296,99.305C122.256,109.68 85.501,126.664 27.131,103.222C27.131,103.222 38.598,121.843 93.202,126.457C158.107,131.936 164.377,90.662 304.033,119.207Z" fill="#FFFFFF"/>
<path d="M101.962,52.628L46.303,70.158L92.415,63.473L101.962,52.628Z" fill="#FFFFFF"/>
<path d="M95.895,66.222L26.189,88.158L83.957,79.798L95.895,66.222Z" fill="#FFFFFF"/>
<path d="M95.876,81.606L40.217,99.117L86.329,92.432L95.876,81.606Z" fill="#FFFFFF"/>
<path d="M302.829,126.965C302.829,126.965 256.453,113.352 214.84,116.025C173.228,118.699 149.221,126.965 149.221,126.965L298.235,126.965Z" fill="#FFFFFF"/>
</svg>
