<svg width="420" height="266" viewBox="0 0 420 266" fill="none" xmlns="http://www.w3.org/2000/svg" xmlns:xlink="http://www.w3.org/1999/xlink">
<path d="M415.203,203.148L397.673,203.148L390.141,237.737L365.663,237.737L373.195,203.148L355.797,203.148L360.391,178.67L419.816,178.67L415.203,203.148Z" fill="#FFFFFF"/>
<path d="M75.279,217.232L37.621,217.232L34.533,233.651L45.831,233.651C43.251,238.189 39.466,241.371 34.533,241.616C24.817,241.127 24.196,230.093 25.57,222.128C27.114,213.184 32.01,202.771 41.048,202.282C42.715,202.302 44.345,202.782 45.757,203.669C47.169,204.556 48.309,205.816 49.05,207.309L74.677,201.887C72.041,187.783 60.969,177.616 45.624,177.748L45.379,177.748C21.24,178.482 5.047,199.439 0.979,222.467C-0.661,230.617 -0.148,239.054 2.467,246.945L63.699,246.945C69.554,237.938 73.495,227.825 75.279,217.232Z" fill="#FFFFFF"/>
<path d="M57.316,254.476L6.289,254.476C7.332,255.968 8.532,257.343 9.866,258.581L52.383,258.581C54.131,257.342 55.78,255.97 57.316,254.476Z" fill="#FFFFFF"/>
<path d="M29.863,266L30.221,266C34.996,265.819 39.707,264.832 44.154,263.082L16.588,263.082C20.753,264.994 25.28,265.989 29.863,266Z" fill="#FFFFFF"/>
<path d="M75.731,266L100.228,266L100.774,263.082L76.277,263.082L75.731,266Z" fill="#FFFFFF"/>
<path d="M116.44,179.612L91.924,179.612L79.29,246.964L103.806,246.964L116.44,179.612Z" fill="#FFFFFF"/>
<path d="M77.878,254.476L77.106,258.6L101.621,258.6L102.393,254.476L77.878,254.476Z" fill="#FFFFFF"/>
<path d="M114.896,254.476L114.105,258.6L169.124,258.6L169.896,254.476L114.896,254.476Z" fill="#FFFFFF"/>
<path d="M112.73,266L167.749,265.887L168.276,263.082L113.276,263.082L112.73,266Z" fill="#FFFFFF"/>
<path d="M171.741,244.685L141.953,244.685L154.173,179.612L128.923,179.612L116.289,246.964L171.308,246.964L171.741,244.685Z" fill="#FFFFFF"/>
<path d="M216.649,179.612L192.152,179.612L179.518,246.964L204.015,246.964L216.649,179.612Z" fill="#FFFFFF"/>
<path d="M178.105,254.476L177.333,258.6L201.83,258.6L202.602,254.476L178.105,254.476Z" fill="#FFFFFF"/>
<path d="M175.94,266L200.456,266L201.002,263.082L176.486,263.082L175.94,266Z" fill="#FFFFFF"/>
<path d="M268.222,242.708C271.069,235.632 273.097,228.253 274.266,220.716L282.156,178.689L257.678,178.689L249.788,220.716C248.977,226.127 247.568,231.431 245.589,236.532C245.15,237.654 244.512,238.687 243.706,239.583C243.309,240.082 242.816,240.498 242.257,240.807C241.463,241.331 240.507,241.551 239.564,241.428C239.149,241.373 238.758,241.204 238.434,240.938C237.938,240.453 237.555,239.863 237.314,239.212C237.073,238.561 236.98,237.864 237.041,237.173C236.96,236.604 236.96,236.027 237.041,235.459L212.092,241.108C212.094,242.369 212.195,243.628 212.394,244.874C212.507,245.627 212.695,246.324 212.845,247.039L266.019,247.039C266.837,245.64 267.573,244.194 268.222,242.708Z" fill="#FFFFFF"/>
<path d="M260.314,254.476L215.481,254.476C216.263,255.944 217.204,257.32 218.287,258.581L255.719,258.581C257.35,257.328 258.886,255.956 260.314,254.476Z" fill="#FFFFFF"/>
<path d="M227.701,264.776C230.129,265.591 232.673,266.004 235.233,266C239.707,265.937 244.119,264.943 248.188,263.082L223.71,263.082C224.98,263.78 226.317,264.347 227.701,264.776Z" fill="#FFFFFF"/>
<path d="M277.128,266L333.879,265.887L334.407,263.082L277.637,263.082L277.128,266Z" fill="#FFFFFF"/>
<path d="M345.478,203.995L349.262,178.538L292.511,178.67L280.479,246.964L337.419,246.964L338.473,241.371L306.257,241.371L307.914,232.559L336.459,232.559L340.676,210.002L312.131,210.002L313.261,203.995L345.478,203.995Z" fill="#FFFFFF"/>
<path d="M278.427,258.6L335.235,258.6L336.007,254.476L279.161,254.476L278.427,258.6Z" fill="#FFFFFF"/>
<path d="M343.802,264.419C343.28,264.436 342.761,264.333 342.286,264.117C341.811,263.901 341.392,263.578 341.062,263.173C340.732,262.768 340.5,262.293 340.384,261.784C340.269,261.275 340.272,260.746 340.394,260.239C340.641,259.085 341.266,258.048 342.17,257.291C343.074,256.533 344.205,256.1 345.384,256.059C345.903,256.043 346.42,256.148 346.892,256.366C347.364,256.583 347.78,256.907 348.106,257.312C348.433,257.717 348.661,258.192 348.773,258.699C348.886,259.207 348.879,259.734 348.754,260.239C348.512,261.387 347.893,262.422 346.996,263.179C346.099,263.936 344.975,264.373 343.802,264.419Z" fill="#FFFFFF"/>
<path d="M361.652,256.83L367.414,258.148C366.788,259.673 365.801,261.023 364.539,262.082C363.276,263.141 361.775,263.878 360.165,264.23C359.546,264.362 358.915,264.425 358.282,264.418C357.647,264.421 357.015,264.345 356.399,264.192C351.334,262.874 351.033,257.904 351.88,253.479C352.822,248.451 355.025,243.876 360.466,242.539C361.706,242.259 362.992,242.259 364.232,242.539C365.631,242.829 366.887,243.592 367.789,244.7C368.691,245.808 369.184,247.192 369.184,248.621L362.933,249.939C362.913,249.618 362.796,249.312 362.597,249.06C362.399,248.807 362.129,248.621 361.822,248.527C359.111,247.905 358.263,251.389 357.868,253.498C357.472,255.606 356.945,258.732 359.977,258.261C360.347,258.168 360.691,257.99 360.982,257.742C361.272,257.493 361.502,257.182 361.652,256.83Z" fill="#FFFFFF"/>
<path d="M377.337,264.419C376.128,264.476 374.926,264.216 373.849,263.664C372.772,263.113 371.858,262.289 371.199,261.274C369.863,258.921 369.459,256.153 370.069,253.517C370.532,250.583 371.841,247.847 373.835,245.646C374.772,244.633 375.899,243.816 377.153,243.241C378.407,242.666 379.762,242.344 381.14,242.294C382.346,242.255 383.541,242.525 384.612,243.079C385.683,243.633 386.595,244.452 387.26,245.458C388.589,247.82 388.985,250.594 388.371,253.234C387.919,256.172 386.609,258.91 384.605,261.105C383.674,262.116 382.549,262.931 381.297,263.5C380.046,264.069 378.692,264.382 377.318,264.419L377.337,264.419ZM378.034,249.355C377.038,250.493 376.385,251.891 376.151,253.385C375.842,254.714 375.994,256.108 376.584,257.339C376.784,257.649 377.065,257.899 377.397,258.062C377.729,258.224 378.099,258.293 378.467,258.261C378.861,258.256 379.25,258.17 379.609,258.008C379.969,257.846 380.291,257.612 380.557,257.32C381.546,256.177 382.198,254.782 382.44,253.291C382.749,251.962 382.596,250.567 382.006,249.336C381.808,249.025 381.527,248.774 381.195,248.611C380.862,248.448 380.492,248.38 380.124,248.414C379.726,248.424 379.336,248.516 378.976,248.685C378.617,248.853 378.296,249.094 378.034,249.393L378.034,249.355Z" fill="#FFFFFF"/>
<path d="M411.719,242.765L407.652,264.418L402.003,264.418L404.413,251.521L400.949,260.822L396.788,260.822L396.788,251.521L394.378,264.418L388.729,264.418L392.796,242.765L399.574,242.765L400.309,253.385L405.054,242.765L411.719,242.765Z" fill="#FFFFFF"/>
<path d="M213.147,77.99C259.523,73.151 277.599,90.587 295.995,91.416C300.76,91.616 305.423,90.001 309.044,86.897L362.763,44.041C362.763,44.041 266.377,31.991 174.905,50.349C174.905,50.349 287.673,12.069 398.521,34.759C398.521,34.759 335.612,105.274 304.525,107.552C274.775,109.736 246.512,78.179 165.603,96.085C179.568,85.949 195.976,79.704 213.147,77.99Z" fill="#FFFFFF"/>
<path d="M175.94,66.523C166.028,70.738 157.347,77.398 150.708,85.88C132.211,91.072 113.223,94.322 94.051,95.577L97.196,87.292C105.104,63.548 125.27,43.985 148.713,35.342C175.544,25.363 212.732,13.162 246.624,7.871C262.709,5.471 279.144,7.543 294.13,13.858C294.13,13.858 202.47,22.087 138.432,51.517C138.432,51.517 274.284,11.467 322.676,21.39C322.676,21.39 298.97,0.829 259.466,0.075C232.728,-0.452 176.184,16.683 137.867,29.298C117.55,36.001 92.922,56.977 83.112,75.995L65.808,109.887C65.808,109.887 99.7,112.071 157.713,97.234C157.713,97.234 174.866,68.425 226.006,61.797C226.006,61.797 209.267,36.736 117.776,77.52C136.627,71.515 156.14,67.835 175.883,66.561L175.94,66.523Z" fill="#FFFFFF"/>
<path d="M259.278,5.875L251.294,22.859L258.092,20.317L263.175,5.875L259.278,5.875Z" fill="#FFFFFF"/>
<path d="M222.825,10.752L214.86,27.736L221.638,25.194L226.741,10.752L222.825,10.752Z" fill="#FFFFFF"/>
<path d="M304.035,119.208C304.035,119.208 243.461,89.74 185.298,99.305C122.258,109.68 85.503,126.664 27.133,103.222C27.133,103.222 38.6,121.844 93.204,126.457C158.109,131.936 164.379,90.663 304.035,119.208Z" fill="#FFFFFF"/>
<path d="M101.96,52.627L46.301,70.157L92.413,63.473L101.96,52.627Z" fill="#FFFFFF"/>
<path d="M95.897,66.222L26.191,88.158L83.959,79.798L95.897,66.222Z" fill="#FFFFFF"/>
<path d="M95.878,81.606L40.219,99.117L86.332,92.433L95.878,81.606Z" fill="#FFFFFF"/>
<path d="M302.83,126.965C302.83,126.965 256.454,113.352 214.841,116.025C173.229,118.699 149.221,126.965 149.221,126.965L298.236,126.965Z" fill="#FFFFFF"/>
</svg>
