<svg width="196" height="126" viewBox="0 0 196 126" fill="none" xmlns="http://www.w3.org/2000/svg" xmlns:xlink="http://www.w3.org/1999/xlink">
<path d="M193.553,94.702L185.381,94.702L181.87,110.826L170.459,110.826L173.97,94.702L165.86,94.702L168.002,83.291L195.703,83.291L193.553,94.702Z" fill="#103BE9"/>
<path d="M35.093,101.266L17.538,101.266L16.098,108.92L21.365,108.92C20.162,111.036 18.398,112.519 16.098,112.633C11.569,112.405 11.279,107.261 11.92,103.549C12.64,99.379 14.922,94.525 19.135,94.297C19.913,94.306 20.672,94.53 21.33,94.944C21.989,95.357 22.52,95.944 22.866,96.641L34.812,94.113C33.583,87.538 28.422,82.799 21.268,82.86L21.154,82.86C9.901,83.202 2.353,92.972 0.457,103.707C-0.308,107.506 -0.069,111.439 1.15,115.117L29.695,115.117C32.424,110.919 34.261,106.204 35.093,101.266Z" fill="#103BE9"/>
<path d="M26.719,118.629L2.932,118.629C3.418,119.324 3.977,119.965 4.599,120.542L24.419,120.542C25.234,119.965 26.003,119.325 26.719,118.629Z" fill="#103BE9"/>
<path d="M13.922,124.001L14.088,124.001C16.315,123.917 18.511,123.457 20.584,122.641L7.733,122.641C9.675,123.532 11.785,123.996 13.922,124.001Z" fill="#103BE9"/>
<path d="M35.303,124.001L46.723,124.001L46.977,122.641L35.558,122.641L35.303,124.001Z" fill="#103BE9"/>
<path d="M54.28,83.729L42.852,83.729L36.962,115.126L48.391,115.126L54.28,83.729Z" fill="#103BE9"/>
<path d="M36.304,118.629L35.944,120.551L47.372,120.551L47.732,118.629L36.304,118.629Z" fill="#103BE9"/>
<path d="M53.56,118.629L53.191,120.551L78.839,120.551L79.199,118.629L53.56,118.629Z" fill="#103BE9"/>
<path d="M52.551,124.001L78.199,123.948L78.444,122.641L52.805,122.641L52.551,124.001Z" fill="#103BE9"/>
<path d="M80.06,114.064L66.174,114.064L71.87,83.729L60.1,83.729L54.21,115.126L79.858,115.126L80.06,114.064Z" fill="#103BE9"/>
<path d="M100.994,83.729L89.575,83.729L83.685,115.126L95.105,115.126L100.994,83.729Z" fill="#103BE9"/>
<path d="M83.026,118.629L82.667,120.551L94.086,120.551L94.446,118.629L83.026,118.629Z" fill="#103BE9"/>
<path d="M82.017,124.001L93.445,124.001L93.7,122.641L82.272,122.641L82.017,124.001Z" fill="#103BE9"/>
<path d="M125.035,113.142C126.362,109.844 127.308,106.404 127.853,102.89L131.531,83.299L120.12,83.299L116.442,102.89C116.064,105.413 115.407,107.885 114.485,110.263C114.28,110.786 113.983,111.268 113.607,111.685C113.422,111.918 113.192,112.112 112.931,112.256C112.561,112.5 112.116,112.603 111.676,112.545C111.483,112.52 111.3,112.441 111.149,112.317C110.918,112.091 110.74,111.816 110.627,111.513C110.515,111.209 110.471,110.884 110.5,110.562C110.462,110.297 110.462,110.028 110.5,109.763L98.87,112.396C98.871,112.984 98.917,113.571 99.01,114.152C99.063,114.503 99.151,114.828 99.221,115.161L124.008,115.161C124.39,114.509 124.733,113.835 125.035,113.142Z" fill="#103BE9"/>
<path d="M121.349,118.629L100.45,118.629C100.814,119.313 101.253,119.955 101.758,120.542L119.208,120.542C119.968,119.958 120.684,119.319 121.349,118.629Z" fill="#103BE9"/>
<path d="M106.146,123.431C107.278,123.81 108.464,124.003 109.657,124.001C111.743,123.971 113.8,123.508 115.696,122.641L104.286,122.641C104.878,122.966 105.501,123.231 106.146,123.431Z" fill="#103BE9"/>
<path d="M129.188,124.001L155.643,123.948L155.889,122.641L129.424,122.641L129.188,124.001Z" fill="#103BE9"/>
<path d="M161.05,95.096L162.814,83.229L136.359,83.29L130.75,115.126L157.293,115.126L157.785,112.519L142.766,112.519L143.539,108.411L156.846,108.411L158.812,97.896L145.505,97.896L146.032,95.096L161.05,95.096Z" fill="#103BE9"/>
<path d="M129.793,120.551L156.275,120.551L156.635,118.629L130.135,118.629L129.793,120.551Z" fill="#103BE9"/>
<path d="M160.269,123.261C160.026,123.269 159.784,123.221 159.562,123.12C159.341,123.02 159.145,122.869 158.992,122.681C158.838,122.492 158.73,122.27 158.676,122.033C158.622,121.796 158.623,121.549 158.68,121.313C158.795,120.775 159.087,120.291 159.508,119.938C159.929,119.585 160.457,119.383 161.006,119.364C161.248,119.357 161.489,119.406 161.709,119.507C161.929,119.609 162.123,119.76 162.275,119.948C162.428,120.137 162.534,120.358 162.586,120.595C162.639,120.832 162.636,121.077 162.577,121.313C162.464,121.848 162.176,122.33 161.758,122.683C161.34,123.036 160.816,123.24 160.269,123.261Z" fill="#000000"/>
<path d="M168.59,119.725L171.276,120.339C170.984,121.05 170.524,121.679 169.935,122.173C169.347,122.667 168.647,123.011 167.896,123.174C167.608,123.236 167.313,123.265 167.019,123.262C166.723,123.263 166.428,123.228 166.141,123.157C163.78,122.542 163.639,120.225 164.034,118.163C164.473,115.819 165.5,113.686 168.037,113.063C168.615,112.932 169.214,112.932 169.792,113.063C170.444,113.198 171.03,113.554 171.45,114.07C171.871,114.587 172.1,115.232 172.101,115.898L169.187,116.512C169.177,116.363 169.123,116.22 169.03,116.102C168.938,115.985 168.812,115.898 168.669,115.854C167.405,115.564 167.01,117.188 166.825,118.171C166.641,119.154 166.395,120.611 167.809,120.392C167.981,120.348 168.142,120.265 168.277,120.15C168.413,120.034 168.52,119.889 168.59,119.725Z" fill="#000000"/>
<path d="M175.901,123.263C175.338,123.289 174.777,123.168 174.275,122.911C173.773,122.654 173.347,122.27 173.04,121.797C172.417,120.7 172.229,119.409 172.513,118.18C172.729,116.813 173.339,115.538 174.269,114.511C174.705,114.039 175.231,113.658 175.816,113.39C176.4,113.122 177.032,112.972 177.674,112.949C178.236,112.931 178.793,113.057 179.293,113.315C179.792,113.573 180.217,113.955 180.527,114.424C181.146,115.525 181.331,116.818 181.045,118.049C180.834,119.418 180.224,120.695 179.289,121.718C178.855,122.189 178.331,122.569 177.747,122.834C177.164,123.1 176.533,123.245 175.892,123.263L175.901,123.263ZM176.226,116.241C175.762,116.771 175.457,117.422 175.348,118.119C175.204,118.738 175.275,119.389 175.55,119.962C175.644,120.107 175.775,120.223 175.929,120.299C176.084,120.375 176.256,120.407 176.428,120.392C176.612,120.39 176.793,120.35 176.961,120.274C177.128,120.199 177.278,120.089 177.402,119.953C177.863,119.421 178.167,118.771 178.28,118.075C178.424,117.456 178.353,116.805 178.078,116.232C177.985,116.086 177.854,115.969 177.699,115.894C177.545,115.818 177.372,115.786 177.2,115.802C177.015,115.807 176.833,115.85 176.665,115.928C176.498,116.007 176.348,116.119 176.226,116.258L176.226,116.241Z" fill="#000000"/>
<path d="M191.929,113.168L190.033,123.262L187.4,123.262L188.524,117.25L186.909,121.586L184.969,121.586L184.969,117.25L183.845,123.262L181.212,123.262L183.108,113.168L186.268,113.168L186.61,118.119L188.822,113.168L191.929,113.168Z" fill="#000000"/>
<path d="M99.361,36.357C120.98,34.102 129.407,42.229 137.983,42.616C140.204,42.709 142.378,41.956 144.065,40.509L169.108,20.531C169.108,20.531 124.175,14.914 81.534,23.472C81.534,23.472 134.103,5.627 185.776,16.204C185.776,16.204 156.45,49.076 141.959,50.138C128.09,51.156 114.915,36.445 77.198,44.793C83.708,40.067 91.357,37.156 99.361,36.357Z" fill="#103BE9"/>
<path d="M82.017,31.013C77.396,32.977 73.349,36.082 70.255,40.036C61.632,42.456 52.78,43.971 43.844,44.556L45.309,40.694C48.996,29.626 58.397,20.506 69.325,16.477C81.833,11.825 99.168,6.137 114.968,3.671C122.466,2.552 130.127,3.518 137.113,6.462C137.113,6.462 94.384,10.298 64.532,24.017C64.532,24.017 127.862,5.347 150.42,9.973C150.42,9.973 139.369,0.388 120.954,0.037C108.49,-0.209 82.131,7.779 64.269,13.659C54.798,16.784 43.317,26.562 38.744,35.428L30.677,51.227C30.677,51.227 46.477,52.245 73.52,45.329C73.52,45.329 81.517,31.899 105.356,28.809C105.356,28.809 97.553,17.127 54.903,36.139C63.691,33.34 72.787,31.624 81.991,31.03L82.017,31.013Z" fill="#103BE9"/>
<path d="M120.866,2.738L117.145,10.656L120.313,9.471L122.683,2.738L120.866,2.738Z" fill="#103BE9"/>
<path d="M103.873,5.012L100.16,12.929L103.32,11.744L105.699,5.012L103.873,5.012Z" fill="#103BE9"/>
<path d="M141.731,55.571C141.731,55.571 113.493,41.834 86.38,46.293C56.992,51.129 39.859,59.047 12.648,48.119C12.648,48.119 17.994,56.799 43.449,58.95C73.705,61.504 76.628,42.264 141.731,55.571Z" fill="#00AEEF"/>
<path d="M47.53,24.533L21.584,32.705L43.08,29.589L47.53,24.533Z" fill="#103BE9"/>
<path d="M44.704,30.871L12.209,41.097L39.139,37.2L44.704,30.871Z" fill="#103BE9"/>
<path d="M44.695,38.041L18.749,46.204L40.245,43.088L44.695,38.041Z" fill="#103BE9"/>
<path d="M141.169,59.188C141.169,59.188 119.55,52.842 100.152,54.088C80.753,55.334 69.562,59.188 69.562,59.188L139.027,59.188Z" fill="#00AEEF"/>
</svg>
