<svg width="1144" height="242" viewBox="0 0 1144 242" fill="none" xmlns="http://www.w3.org/2000/svg" xmlns:xlink="http://www.w3.org/1999/xlink">
<path d="M1130.2,69.153L1082.478,69.153L1061.975,163.315L995.338,163.315L1015.842,69.153L968.479,69.153L980.986,2.516L1142.758,2.516L1130.2,69.153Z" fill="#103BE9"/>
<path d="M204.826,107.493L102.308,107.493L93.902,152.19L124.657,152.19C117.635,164.544 107.332,173.206 93.902,173.873C67.452,172.54 65.761,142.503 69.503,120.82C73.706,96.472 87.033,68.126 111.637,66.793C116.177,66.848 120.613,68.154 124.456,70.569C128.3,72.984 131.403,76.414 133.422,80.479L203.186,65.717C196.009,27.324 165.869,-0.355 124.093,0.003L123.427,0.003C57.713,2.003 13.63,59.054 2.559,121.743C-1.906,143.93 -0.51,166.897 6.608,188.379L173.302,188.379C189.238,163.861 199.968,136.329 204.826,107.493Z" fill="#103BE9"/>
<path d="M155.924,208.885L17.013,208.885C19.854,212.944 23.119,216.69 26.752,220.059L142.494,220.059C147.253,216.687 151.744,212.951 155.924,208.885Z" fill="#103BE9"/>
<path d="M81.189,240.254L82.163,240.254C95.164,239.761 107.988,237.074 120.094,232.309L45.052,232.309C56.39,237.514 68.713,240.223 81.189,240.254Z" fill="#103BE9"/>
<path d="M206.056,240.254L272.743,240.254L274.23,232.309L207.542,232.309L206.056,240.254Z" fill="#103BE9"/>
<path d="M316.877,5.081L250.138,5.081L215.744,188.433L282.483,188.433L316.877,5.081Z" fill="#103BE9"/>
<path d="M211.899,208.885L209.797,220.11L276.536,220.11L278.638,208.885L211.899,208.885Z" fill="#103BE9"/>
<path d="M312.674,208.885L310.521,220.11L460.299,220.11L462.401,208.885L312.674,208.885Z" fill="#103BE9"/>
<path d="M306.779,240.254L456.557,239.947L457.993,232.309L308.266,232.309L306.779,240.254Z" fill="#103BE9"/>
<path d="M467.424,182.231L386.333,182.231L419.6,5.081L350.862,5.081L316.467,188.433L466.245,188.433L467.424,182.231Z" fill="#103BE9"/>
<path d="M589.676,5.081L522.989,5.081L488.594,188.433L555.282,188.433L589.676,5.081Z" fill="#103BE9"/>
<path d="M484.749,208.885L482.648,220.11L549.335,220.11L551.437,208.885L484.749,208.885Z" fill="#103BE9"/>
<path d="M478.855,240.254L545.594,240.254L547.08,232.309L480.341,232.309L478.855,240.254Z" fill="#103BE9"/>
<path d="M730.074,176.847C737.824,157.583 743.344,137.495 746.528,116.976L768.006,2.567L701.369,2.567L679.892,116.976C677.682,131.706 673.849,146.147 668.461,160.034C667.266,163.087 665.529,165.9 663.335,168.337C662.253,169.698 660.911,170.83 659.388,171.669C657.228,173.096 654.626,173.697 652.058,173.361C650.929,173.212 649.863,172.751 648.983,172.028C647.631,170.707 646.589,169.102 645.933,167.329C645.277,165.556 645.023,163.659 645.19,161.776C644.97,160.229 644.97,158.659 645.19,157.111L577.272,172.489C577.277,175.923 577.551,179.35 578.092,182.741C578.4,184.791 578.912,186.688 579.322,188.636L724.077,188.636C726.305,184.827 728.307,180.89 730.074,176.847Z" fill="#103BE9"/>
<path d="M708.546,208.885L586.499,208.885C588.626,212.879 591.187,216.626 594.136,220.059L696.039,220.059C700.479,216.649 704.659,212.914 708.546,208.885Z" fill="#103BE9"/>
<path d="M619.765,236.923C626.373,239.14 633.299,240.266 640.269,240.254C652.448,240.081 664.458,237.375 675.535,232.309L608.898,232.309C612.356,234.208 615.997,235.754 619.765,236.923Z" fill="#103BE9"/>
<path d="M754.319,240.254L908.813,239.947L910.248,232.309L755.703,232.309L754.319,240.254Z" fill="#103BE9"/>
<path d="M940.389,71.459L950.692,2.157L796.198,2.516L763.444,188.432L918.45,188.432L921.321,173.208L833.617,173.208L838.128,149.219L915.836,149.219L927.318,87.811L849.61,87.811L852.685,71.459L940.389,71.459Z" fill="#103BE9"/>
<path d="M757.856,220.11L912.504,220.11L914.606,208.885L759.855,208.885L757.856,220.11Z" fill="#103BE9"/>
<path d="M935.826,235.95C934.406,235.997 932.994,235.716 931.7,235.128C930.407,234.54 929.266,233.661 928.368,232.559C927.47,231.458 926.839,230.164 926.523,228.778C926.208,227.392 926.216,225.952 926.549,224.571C927.221,221.431 928.922,218.607 931.383,216.545C933.844,214.484 936.924,213.303 940.132,213.191C941.547,213.15 942.953,213.436 944.239,214.028C945.524,214.62 946.656,215.501 947.545,216.604C948.433,217.706 949.055,218.998 949.36,220.38C949.666,221.763 949.648,223.197 949.308,224.571C948.648,227.698 946.964,230.515 944.522,232.576C942.08,234.637 939.02,235.825 935.826,235.95Z" fill="#000000"/>
<path d="M984.42,215.293L1000.105,218.881C998.4,223.032 995.714,226.706 992.277,229.59C988.839,232.474 984.754,234.48 980.37,235.438C978.686,235.796 976.967,235.967 975.244,235.95C973.517,235.958 971.795,235.751 970.119,235.335C956.33,231.747 955.51,218.215 957.816,206.169C960.379,192.483 966.377,180.027 981.191,176.387C984.565,175.625 988.068,175.625 991.442,176.387C995.25,177.177 998.67,179.255 1001.125,182.27C1003.58,185.286 1004.922,189.055 1004.923,192.944L987.905,196.533C987.851,195.66 987.532,194.826 986.992,194.139C986.452,193.452 985.716,192.946 984.881,192.688C977.5,190.996 975.193,200.48 974.117,206.22C973.04,211.961 971.605,220.47 979.858,219.188C980.867,218.934 981.803,218.45 982.594,217.774C983.385,217.099 984.01,216.25 984.42,215.293Z" fill="#000000"/>
<path d="M1027.119,235.95C1023.829,236.107 1020.555,235.399 1017.623,233.897C1014.691,232.395 1012.204,230.152 1010.408,227.39C1006.772,220.985 1005.674,213.448 1007.333,206.272C1008.594,198.285 1012.156,190.838 1017.585,184.845C1020.135,182.089 1023.205,179.864 1026.619,178.298C1030.032,176.733 1033.721,175.857 1037.473,175.721C1040.754,175.614 1044.008,176.35 1046.924,177.858C1049.84,179.365 1052.322,181.594 1054.132,184.333C1057.75,190.764 1058.829,198.316 1057.156,205.503C1055.928,213.5 1052.361,220.954 1046.905,226.929C1044.369,229.682 1041.308,231.9 1037.9,233.45C1034.493,234.999 1030.809,235.849 1027.068,235.95L1027.119,235.95ZM1029.015,194.943C1026.305,198.042 1024.527,201.845 1023.889,205.913C1023.048,209.53 1023.464,213.327 1025.069,216.677C1025.614,217.522 1026.38,218.202 1027.283,218.645C1028.186,219.087 1029.193,219.275 1030.195,219.188C1031.268,219.173 1032.327,218.939 1033.305,218.498C1034.284,218.057 1035.162,217.419 1035.884,216.626C1038.576,213.515 1040.351,209.718 1041.01,205.657C1041.851,202.039 1041.435,198.242 1039.831,194.892C1039.289,194.043 1038.525,193.36 1037.621,192.917C1036.716,192.474 1035.708,192.288 1034.705,192.38C1033.624,192.408 1032.561,192.66 1031.582,193.119C1030.603,193.577 1029.729,194.233 1029.015,195.046L1029.015,194.943Z" fill="#000000"/>
<path d="M1120.717,177.001L1109.645,235.949L1094.267,235.949L1100.828,200.837L1091.397,226.159L1080.069,226.159L1080.069,200.837L1073.508,235.949L1058.13,235.949L1069.202,177.001L1087.655,177.001L1089.654,205.911L1102.571,177.001L1120.717,177.001Z" fill="#000000"/>
</svg>
