<svg width="242" height="154" viewBox="0 0 242 154" fill="none" xmlns="http://www.w3.org/2000/svg" xmlns:xlink="http://www.w3.org/1999/xlink">
<path d="M237.373,117.612L227.351,117.612L223.045,137.637L209.051,137.637L213.357,117.612L203.41,117.612L206.037,103.441L240.01,103.441L237.373,117.612Z" fill="#103BE9"/>
<path d="M43.037,125.766L21.508,125.766L19.742,135.272L26.201,135.272C24.726,137.899 22.562,139.741 19.742,139.883C14.187,139.599 13.832,133.211 14.618,128.6C15.501,123.422 18.3,117.394 23.467,117.11C24.42,117.122 25.352,117.4 26.159,117.913C26.966,118.427 27.618,119.156 28.042,120.021L42.693,116.881C41.185,108.716 34.856,102.83 26.083,102.906L25.943,102.906C12.142,103.331 2.884,115.464 0.559,128.796C-0.378,133.515 -0.085,138.399 1.41,142.968L36.417,142.968C39.764,137.754 42.017,131.899 43.037,125.766Z" fill="#103BE9"/>
<path d="M32.767,147.329L3.595,147.329C4.191,148.192 4.877,148.989 5.64,149.705L29.947,149.705C30.946,148.988 31.889,148.194 32.767,147.329Z" fill="#103BE9"/>
<path d="M17.073,154L17.278,154C20.008,153.895 22.701,153.324 25.243,152.31L9.484,152.31C11.865,153.417 14.453,153.993 17.073,154Z" fill="#103BE9"/>
<path d="M43.296,154L57.301,154L57.614,152.31L43.609,152.31L43.296,154Z" fill="#103BE9"/>
<path d="M66.569,103.986L52.553,103.986L45.33,142.979L59.346,142.979L66.569,103.986Z" fill="#103BE9"/>
<path d="M44.522,147.328L44.081,149.716L58.097,149.716L58.538,147.328L44.522,147.328Z" fill="#103BE9"/>
<path d="M65.687,147.328L65.235,149.716L96.689,149.716L97.131,147.328L65.687,147.328Z" fill="#103BE9"/>
<path d="M64.449,154L95.903,153.935L96.205,152.31L64.761,152.31L64.449,154Z" fill="#103BE9"/>
<path d="M98.185,141.66L81.155,141.66L88.141,103.986L73.706,103.986L66.482,142.979L97.937,142.979L98.185,141.66Z" fill="#103BE9"/>
<path d="M123.859,103.986L109.854,103.986L102.631,142.979L116.636,142.979L123.859,103.986Z" fill="#103BE9"/>
<path d="M101.824,147.328L101.383,149.716L115.388,149.716L115.829,147.328L101.824,147.328Z" fill="#103BE9"/>
<path d="M100.586,154L114.602,154L114.914,152.31L100.898,152.31L100.586,154Z" fill="#103BE9"/>
<path d="M153.344,140.515C154.971,136.419 156.131,132.147 156.799,127.783L161.31,103.452L147.315,103.452L142.805,127.783C142.341,130.915 141.536,133.987 140.404,136.94C140.153,137.589 139.789,138.187 139.328,138.706C139.101,138.995 138.819,139.236 138.499,139.414C138.045,139.718 137.499,139.846 136.96,139.774C136.722,139.743 136.499,139.644 136.314,139.491C136.03,139.21 135.811,138.868 135.673,138.491C135.536,138.114 135.482,137.711 135.517,137.31C135.471,136.981 135.471,136.647 135.517,136.318L121.254,139.589C121.255,140.319 121.313,141.048 121.426,141.769C121.491,142.205 121.598,142.608 121.685,143.023L152.084,143.023C152.552,142.212 152.973,141.375 153.344,140.515Z" fill="#103BE9"/>
<path d="M148.822,147.329L123.191,147.329C123.638,148.178 124.176,148.975 124.795,149.705L146.196,149.705C147.128,148.98 148.006,148.186 148.822,147.329Z" fill="#103BE9"/>
<path d="M130.179,153.291C131.566,153.763 133.021,154.002 134.485,154C137.042,153.963 139.564,153.388 141.891,152.31L127.896,152.31C128.623,152.714 129.387,153.043 130.179,153.291Z" fill="#103BE9"/>
<path d="M158.435,154L190.88,153.935L191.181,152.31L158.726,152.31L158.435,154Z" fill="#103BE9"/>
<path d="M197.512,118.102L199.676,103.364L167.231,103.44L160.352,142.979L192.905,142.979L193.507,139.741L175.089,139.741L176.036,134.639L192.356,134.639L194.767,121.58L178.448,121.58L179.093,118.102L197.512,118.102Z" fill="#103BE9"/>
<path d="M159.178,149.716L191.655,149.716L192.097,147.328L159.598,147.328L159.178,149.716Z" fill="#103BE9"/>
<path d="M196.554,153.084C196.256,153.094 195.959,153.034 195.687,152.909C195.416,152.784 195.176,152.597 194.988,152.363C194.799,152.129 194.666,151.853 194.6,151.559C194.534,151.264 194.536,150.958 194.605,150.664C194.747,149.996 195.104,149.396 195.621,148.957C196.138,148.519 196.784,148.268 197.458,148.244C197.755,148.235 198.05,148.296 198.321,148.422C198.591,148.548 198.828,148.735 199.015,148.97C199.201,149.204 199.332,149.479 199.396,149.773C199.46,150.067 199.457,150.372 199.385,150.664C199.247,151.329 198.893,151.928 198.38,152.367C197.867,152.805 197.225,153.057 196.554,153.084Z" fill="#000000"/>
<path d="M206.759,148.691L210.053,149.454C209.695,150.337 209.131,151.118 208.409,151.731C207.687,152.345 206.829,152.771 205.908,152.975C205.554,153.051 205.193,153.088 204.832,153.084C204.469,153.086 204.107,153.042 203.755,152.953C200.86,152.19 200.687,149.312 201.172,146.751C201.71,143.84 202.969,141.191 206.081,140.417C206.789,140.255 207.525,140.255 208.233,140.417C209.033,140.585 209.751,141.027 210.267,141.668C210.783,142.309 211.064,143.111 211.065,143.938L207.491,144.701C207.479,144.516 207.412,144.338 207.299,144.192C207.185,144.046 207.031,143.939 206.856,143.884C205.305,143.524 204.821,145.541 204.595,146.761C204.369,147.982 204.067,149.792 205.801,149.519C206.012,149.465 206.209,149.362 206.375,149.219C206.541,149.075 206.673,148.894 206.759,148.691Z" fill="#000000"/>
<path d="M215.726,153.084C215.035,153.118 214.347,152.967 213.732,152.648C213.116,152.328 212.594,151.851 212.216,151.264C211.453,149.902 211.222,148.299 211.571,146.773C211.835,145.074 212.584,143.491 213.724,142.216C214.259,141.63 214.904,141.157 215.621,140.824C216.338,140.491 217.112,140.304 217.9,140.276C218.589,140.253 219.273,140.409 219.885,140.73C220.497,141.051 221.019,141.525 221.399,142.107C222.159,143.475 222.385,145.081 222.034,146.609C221.776,148.31 221.027,149.895 219.881,151.166C219.349,151.751 218.706,152.223 217.99,152.553C217.274,152.882 216.501,153.063 215.715,153.084L215.726,153.084ZM216.124,144.364C215.555,145.022 215.182,145.831 215.048,146.696C214.871,147.466 214.958,148.273 215.295,148.986C215.41,149.165 215.571,149.31 215.76,149.404C215.95,149.498 216.161,149.538 216.372,149.52C216.597,149.517 216.819,149.467 217.025,149.373C217.231,149.279 217.415,149.143 217.567,148.975C218.132,148.313 218.505,147.506 218.643,146.642C218.82,145.873 218.732,145.065 218.395,144.353C218.282,144.172 218.121,144.027 217.931,143.933C217.741,143.838 217.53,143.799 217.319,143.818C217.092,143.824 216.869,143.878 216.663,143.975C216.457,144.073 216.274,144.213 216.124,144.385L216.124,144.364Z" fill="#000000"/>
<path d="M235.382,140.548L233.056,153.084L229.827,153.084L231.205,145.617L229.224,151.002L226.845,151.002L226.845,145.617L225.467,153.084L222.238,153.084L224.563,140.548L228.438,140.548L228.858,146.696L231.571,140.548L235.382,140.548Z" fill="#000000"/>
<path d="M121.857,45.152C148.371,42.351 158.705,52.445 169.222,52.925C171.946,53.041 174.612,52.106 176.682,50.309L207.394,25.498C207.394,25.498 152.289,18.521 99.994,29.15C99.994,29.15 164.464,6.988 227.836,20.123C227.836,20.123 191.871,60.948 174.099,62.267C157.09,63.532 140.932,45.261 94.676,55.628C102.66,49.76 112.041,46.144 121.857,45.152Z" fill="#103BE9"/>
<path d="M100.586,38.513C94.919,40.953 89.956,44.809 86.161,49.72C75.586,52.726 64.73,54.607 53.77,55.334L55.568,50.537C60.089,36.791 71.618,25.465 85.02,20.461C100.36,14.684 121.62,7.62 140.997,4.557C150.193,3.167 159.589,4.367 168.156,8.023C168.156,8.023 115.754,12.787 79.143,29.825C79.143,29.825 156.81,6.639 184.476,12.384C184.476,12.384 170.923,0.48 148.338,0.043C133.053,-0.262 100.726,9.658 78.82,16.962C67.205,20.843 53.124,32.987 47.516,43.997L37.623,63.619C37.623,63.619 57,64.883 90.166,56.293C90.166,56.293 99.972,39.614 129.209,35.777C129.209,35.777 119.64,21.268 67.334,44.88C78.111,41.403 89.267,39.273 100.554,38.535L100.586,38.513Z" fill="#103BE9"/>
<path d="M148.231,3.401L143.667,13.234L147.553,11.763L150.459,3.401L148.231,3.401Z" fill="#103BE9"/>
<path d="M127.39,6.225L122.837,16.057L126.712,14.586L129.629,6.225L127.39,6.225Z" fill="#103BE9"/>
<path d="M173.818,69.015C173.818,69.015 139.188,51.955 105.936,57.492C69.895,63.499 48.883,73.332 15.512,59.76C15.512,59.76 22.067,70.541 53.285,73.212C90.391,76.384 93.976,52.489 173.818,69.015Z" fill="#00AEEF"/>
<path d="M58.291,30.469L26.471,40.617L52.834,36.748L58.291,30.469Z" fill="#103BE9"/>
<path d="M54.825,38.339L14.974,51.039L48,46.199L54.825,38.339Z" fill="#103BE9"/>
<path d="M54.815,47.245L22.994,57.383L49.357,53.514L54.815,47.245Z" fill="#103BE9"/>
<path d="M173.13,73.506C173.13,73.506 146.616,65.625 122.826,67.173C99.036,68.721 85.311,73.506 85.311,73.506L170.503,73.506Z" fill="#00AEEF"/>
</svg>
