<svg width="104" height="104" viewBox="0 0 104 104" fill="none" xmlns="http://www.w3.org/2000/svg" xmlns:xlink="http://www.w3.org/1999/xlink">
<g opacity="0.4">
<path d="M73.106,33.32C72.299,33.32 71.491,33.023 70.854,32.385C69.621,31.153 69.621,29.113 70.854,27.88L79.566,19.168C72.086,12.793 62.439,8.883 51.856,8.883C28.396,8.883 9.356,27.923 9.356,51.383C9.356,74.843 28.396,93.883 51.856,93.883C75.316,93.883 94.356,74.843 94.356,51.383C94.356,40.8 90.446,31.153 84.071,23.673L75.358,32.385C74.721,33.023 73.914,33.32 73.106,33.32Z" fill="#103BE9"/>
</g>
<path d="M59.293,50.618L55.043,49.13L55.043,39.695L55.383,39.695C57.551,39.695 59.293,41.608 59.293,43.945C59.293,45.688 60.738,47.133 62.481,47.133C64.223,47.133 65.668,45.688 65.668,43.945C65.668,38.08 61.078,33.32 55.383,33.32L55.043,33.32L55.043,32.258C55.043,30.515 53.598,29.07 51.856,29.07C50.113,29.07 48.668,30.515 48.668,32.258L48.668,33.32L47.394,33.32C42.251,33.32 38.043,37.655 38.043,43.01C38.043,49.215 41.656,51.213 44.418,52.19L48.668,53.678L48.668,63.113L48.329,63.113C46.161,63.113 44.418,61.2 44.418,58.863C44.418,57.12 42.973,55.675 41.231,55.675C39.488,55.675 38.043,57.12 38.043,58.863C38.043,64.728 42.634,69.488 48.329,69.488L48.668,69.488L48.668,70.55C48.668,72.293 50.113,73.738 51.856,73.738C53.598,73.738 55.043,72.293 55.043,70.55L55.043,69.488L56.318,69.488C61.461,69.488 65.668,65.153 65.668,59.798C65.668,53.55 62.056,51.553 59.293,50.618ZM46.501,46.113C45.056,45.603 44.418,45.305 44.418,42.968C44.418,41.14 45.779,39.653 47.394,39.653L48.668,39.653L48.668,46.835L46.501,46.113ZM56.318,63.07L55.043,63.07L55.043,55.888L57.211,56.653C58.656,57.163 59.293,57.46 59.293,59.798C59.293,61.583 57.933,63.07 56.318,63.07Z" fill="#103BE9"/>
<path d="M97.289,7.65C96.949,6.885 96.354,6.247 95.546,5.907C95.164,5.737 94.738,5.652 94.314,5.652L77.313,5.652C75.571,5.652 74.126,7.097 74.126,8.84C74.126,10.582 75.571,12.027 77.313,12.027L86.621,12.027L79.524,19.125C81.139,20.527 82.626,22.015 84.029,23.63L91.126,16.532L91.126,25.882C91.126,27.625 92.571,29.07 94.314,29.07C96.056,29.07 97.501,27.625 97.501,25.882L97.501,8.882C97.543,8.457 97.459,8.075 97.289,7.65Z" fill="#103BE9"/>
</svg>
