<svg width="372" height="32" viewBox="0 0 372 32" fill="none" xmlns="http://www.w3.org/2000/svg" xmlns:xlink="http://www.w3.org/1999/xlink">
<path d="M-15.631,-14.933L0.369,-14.933L12.556,-14.933L16.758,-14.933L22.207,-14.933L26.654,-14.933L37.869,-14.933L53.869,-14.933L53.869,-7.831L55.125,-7.831L57.368,-7.433L65.009,-7.433L70.593,-7.433L71.388,-7.902L79.634,-7.902L84.885,-7.902L89.037,-6.646L90.557,-7.259L94.053,-7.902L97.564,-7.902L101.074,-7.902L104.579,-7.259L107.322,-6.146L107.322,-7.433L111.855,-7.433L114.973,-10.551L118.709,-14.288L123.666,-16.339L128.947,-16.339L134.231,-16.339L139.218,-14.282L142.969,-10.491L146.061,-7.433L146.798,-7.433L147.165,-7.433L147.725,-7.677L149.893,-7.902L151.915,-7.902L154.414,-7.902L155.734,-7.748L157.694,-9.69L163.326,-15.27L170.44,-16.808L176.29,-16.808L178.336,-16.808L180.756,-16.638L183.264,-16.005L184.995,-15.585L187.98,-14.654L190.108,-13.058L193.056,-13.058L192.851,-11.001L193.067,-10.839L194.831,-8.806L195.403,-7.831L196.359,-7.831L198.602,-7.433L206.245,-7.433L211.827,-7.433L212.623,-7.902L220.869,-7.902L226.119,-7.902L227.669,-7.433L228.275,-7.433L235.553,-7.433L238.626,-7.433L239.553,-7.677L241.721,-7.902L243.745,-7.902L245.895,-7.902L248.305,-7.656L250.563,-6.99L251.313,-6.775L251.219,-7.154L253.619,2.706L257.337,-1.839L257.337,-2.222L254.807,0.976L254.807,1.222L256.187,2.065L256.755,1.226L256.179,2.048L257.013,3.859L257.337,3.688L257.337,0.669L256.755,1.226L256.179,2.048L257.013,3.859L257.337,3.688L257.337,0.669L256.755,1.226L256.179,2.048L257.013,3.859L257.337,3.688L257.337,0.669L256.755,1.226L256.179,2.048L257.013,3.859L257.337,3.688L257.337,0.669L256.755,1.226" fill="#00AEEF"/>
<path d="M0.369,1.067L12.556,1.067L19.798,14.802L26.654,1.067L37.869,1.067L37.869,4.817L34.119,4.817L34.119,26.38L37.869,26.38L37.869,30.13L22.869,30.13L22.869,26.38L26.619,26.38L26.619,9.47L19.119,24.505L16.775,24.505L8.806,9.411L8.806,26.38L12.556,26.38L12.556,30.13L0.369,30.13L0.369,26.38L4.119,26.38L4.119,4.817L0.369,4.817L0.369,1.067M-15.631,-14.933L0.369,-14.933L12.556,-14.933L16.758,-14.933L22.207,-14.933L26.654,-14.933L37.869,-14.933L53.869,-14.933L53.869,-7.831L55.125,-7.831L57.368,-7.433L65.009,-7.433L70.593,-7.433L71.388,-7.902L79.634,-7.902L84.885,-7.902L89.037,-6.646L90.557,-7.259L94.053,-7.902L97.564,-7.902L101.074,-7.902L104.579,-7.259L107.322,-6.146L107.322,-7.433L111.855,-7.433L114.973,-10.551L118.709,-14.288L123.666,-16.339L128.947,-16.339L134.231,-16.339L139.218,-14.282L142.969,-10.491L146.061,-7.433L146.798,-7.433L147.165,-7.433L147.725,-7.677L149.893,-7.902L151.915,-7.902L154.414,-7.902L155.734,-7.748L157.694,-9.69L163.326,-15.27L170.44,-16.808L176.29,-16.808L178.336,-16.808L180.756,-16.638L183.264,-16.005L184.995,-15.585L187.98,-14.654L190.108,-13.058L193.056,-13.058L192.851,-11.001L193.067,-10.839L194.831,-8.806L195.403,-7.831L196.359,-7.831L198.602,-7.433L206.245,-7.433L211.827,-7.433L212.623,-7.902L220.869,-7.902L226.119,-7.902L227.669,-7.433L228.275,-7.433L235.553,-7.433L238.626,-7.433L239.553,-7.677L241.721,-7.902L243.745,-7.902L245.895,-7.902L248.305,-7.656L250.563,-6.99L251.313,-6.775L251.219,-7.154L253.619,2.706L257.337,-1.839L257.337,-2.222L254.807,0.976L254.807,1.222L256.187,2.065L256.755,1.226L256.179,2.048L257.013,3.859L257.337,3.688L257.337,0.669L256.755,1.226L256.179,2.048L257.013,3.859L257.337,3.688L257.337,0.669L256.755,1.226L256.179,2.048L257.013,3.859L257.337,3.688L257.337,0.669L256.755,1.226L256.179,2.048L257.013,3.859L257.337,3.688L257.337,0.669L256.755,1.226" fill-rule="evenodd" fill="#FFFFFF"/>
<path d="M47.302,8.977C48.677,8.438 50.134,8.169 51.673,8.169C53.212,8.169 54.665,8.438 56.033,8.977C57.408,9.516 58.603,10.27 59.619,11.239C60.634,12.2 61.435,13.387 62.021,14.802C62.615,16.216 62.912,17.755 62.912,19.419C62.912,21.083 62.615,22.622 62.021,24.036C61.435,25.45 60.634,26.641 59.619,27.61C58.603,28.571 57.408,29.321 56.033,29.86C54.665,30.399 53.212,30.669 51.673,30.669C50.134,30.669 48.677,30.399 47.302,29.86C45.935,29.321 44.744,28.571 43.728,27.61C42.72,26.641 41.919,25.45 41.326,24.036C40.74,22.622 40.447,21.083 40.447,19.419C40.447,17.755 40.74,16.216 41.326,14.802C41.919,13.387 42.72,12.2 43.728,11.239C44.744,10.27 45.935,9.516 47.302,8.977ZM51.673,11.919C51.126,11.919 50.638,11.997 50.208,12.153C49.779,12.309 49.384,12.567 49.025,12.927C48.665,13.286 48.369,13.751 48.134,14.321C47.908,14.891 47.728,15.602 47.595,16.454C47.47,17.305 47.408,18.294 47.408,19.419C47.408,20.544 47.47,21.532 47.595,22.384C47.728,23.235 47.908,23.946 48.134,24.516C48.369,25.087 48.665,25.552 49.025,25.911C49.384,26.27 49.779,26.528 50.208,26.684C50.638,26.841 51.126,26.919 51.673,26.919C52.361,26.919 52.958,26.79 53.466,26.532C53.974,26.266 54.415,25.845 54.79,25.266C55.173,24.688 55.458,23.911 55.646,22.934C55.841,21.958 55.939,20.786 55.939,19.419C55.939,18.052 55.841,16.88 55.646,15.903C55.458,14.927 55.173,14.149 54.79,13.571C54.415,12.993 53.974,12.575 53.466,12.317C52.958,12.052 52.361,11.919 51.673,11.919Z" transform="rotate(3.207 186.134 14.966)" fill="#00AEEF" stroke="#FFFFFF" stroke-width="8" stroke-miterlimit="3.999327"/>
<path d="M65.009,8.567L72.287,8.567L73.763,11.415C75.146,9.204 77.103,8.098 79.634,8.098C81.33,8.098 82.673,8.622 83.665,9.669C84.665,10.708 85.165,12.059 85.165,13.723C85.165,14.762 84.798,15.649 84.064,16.384C83.337,17.11 82.455,17.473 81.415,17.473C80.376,17.473 79.49,17.11 78.755,16.384C78.029,15.649 77.665,14.762 77.665,13.723C77.665,13.302 77.732,12.895 77.865,12.505C77.654,12.38 77.431,12.317 77.197,12.317C76.673,12.317 76.13,12.661 75.568,13.348C75.013,14.028 74.478,15.048 73.962,16.407L73.915,26.38L79.072,26.38L79.072,30.13L65.009,30.13L65.009,26.38L67.353,26.38L67.353,12.317L65.009,12.317L65.009,8.567Z" transform="rotate(3.207 186.134 14.966)" fill="#00AEEF" stroke="#FFFFFF" stroke-width="8" stroke-miterlimit="3.999327"/>
<path d="M93.345,20.755C93.415,21.661 93.564,22.47 93.79,23.18C94.017,23.891 94.29,24.473 94.611,24.927C94.939,25.38 95.318,25.755 95.748,26.052C96.177,26.341 96.619,26.548 97.072,26.673C97.525,26.79 98.009,26.848 98.525,26.848C100.173,26.848 101.458,26.532 102.38,25.899C103.31,25.259 104.052,24.274 104.607,22.946L107.724,24.024C107.443,24.782 107.083,25.497 106.646,26.169C106.216,26.833 105.697,27.446 105.087,28.009C104.478,28.571 103.798,29.055 103.048,29.462C102.306,29.86 101.466,30.173 100.529,30.399C99.591,30.626 98.603,30.739 97.564,30.739C96.025,30.739 94.568,30.47 93.193,29.93C91.826,29.391 90.634,28.641 89.619,27.68C88.611,26.712 87.81,25.52 87.216,24.106C86.63,22.692 86.337,21.153 86.337,19.489C86.337,17.825 86.63,16.278 87.216,14.848C87.81,13.419 88.611,12.216 89.619,11.239C90.634,10.255 91.826,9.485 93.193,8.93C94.568,8.376 96.025,8.098 97.564,8.098C99.103,8.098 100.556,8.376 101.923,8.93C103.298,9.485 104.49,10.255 105.498,11.239C106.513,12.216 107.314,13.419 107.9,14.848C108.494,16.278 108.79,17.825 108.79,19.489L108.498,20.755L93.345,20.755ZM93.427,17.005L101.701,17.005C101.498,15.208 101.048,13.899 100.353,13.079C99.658,12.259 98.736,11.848 97.587,11.848C97.017,11.848 96.505,11.942 96.052,12.13C95.599,12.309 95.193,12.602 94.833,13.009C94.474,13.407 94.173,13.942 93.931,14.614C93.697,15.278 93.529,16.075 93.427,17.005Z" transform="rotate(3.207 186.134 14.966)" fill="#00AEEF" stroke="#FFFFFF" stroke-width="8" stroke-miterlimit="3.999327"/>
<path d="M126.287,6.071C125.56,5.337 125.197,4.45 125.197,3.411C125.197,2.372 125.56,1.489 126.287,0.762C127.021,0.028 127.908,-0.339 128.947,-0.339C129.986,-0.339 130.869,0.028 131.595,0.762C132.33,1.489 132.697,2.372 132.697,3.411C132.697,4.45 132.33,5.337 131.595,6.071C130.869,6.798 129.986,7.161 128.947,7.161C127.908,7.161 127.021,6.798 126.287,6.071ZM123.322,8.567L132.228,8.567L132.228,26.38L134.572,26.38L134.572,30.13L123.322,30.13L123.322,26.38L125.665,26.38L125.665,12.317L123.322,12.317L123.322,8.567Z" transform="rotate(3.207 186.134 14.966)" fill="#00AEEF" stroke="#FFFFFF" stroke-width="8" stroke-miterlimit="3.999327"/>
<path d="M151.915,8.098C153.009,8.098 153.966,8.247 154.787,8.544C155.607,8.841 156.279,9.251 156.802,9.774C157.326,10.29 157.748,10.95 158.068,11.755C158.396,12.552 158.623,13.411 158.748,14.333C158.88,15.247 158.947,16.294 158.947,17.473L158.947,26.38L161.29,26.38L161.29,30.13L150.04,30.13L150.04,26.38L152.384,26.38L152.384,17.005C152.384,15.77 152.271,14.809 152.044,14.122C151.826,13.434 151.505,12.962 151.083,12.704C150.669,12.446 150.103,12.317 149.384,12.317C148.728,12.317 148.056,12.595 147.369,13.149C146.681,13.704 146.029,14.477 145.412,15.47L145.353,26.38L147.697,26.38L147.697,30.13L136.447,30.13L136.447,26.38L138.79,26.38L138.79,12.317L136.447,12.317L136.447,8.567L143.724,8.567L145.365,11.743C145.654,11.22 145.986,10.751 146.361,10.337C146.744,9.915 147.197,9.532 147.72,9.188C148.251,8.837 148.873,8.567 149.583,8.38C150.294,8.192 151.072,8.098 151.915,8.098Z" transform="rotate(3.207 186.134 14.966)" fill="#00AEEF" stroke="#FFFFFF" stroke-width="8" stroke-miterlimit="3.999327"/>
<path d="M163.165,12.317L163.165,8.567L166.447,8.567C166.447,5.63 167.283,3.333 168.955,1.677C170.626,0.02 173.072,-0.808 176.29,-0.808C177.494,-0.808 178.513,-0.702 179.349,-0.491C180.185,-0.288 180.822,-0.023 181.259,0.305C181.697,0.634 182.06,1.044 182.349,1.536C182.685,2.098 182.853,2.723 182.853,3.411C182.853,4.45 182.486,5.337 181.751,6.071C181.025,6.798 180.142,7.161 179.103,7.161C178.064,7.161 177.177,6.798 176.443,6.071C175.716,5.337 175.353,4.45 175.353,3.411C175.353,3.255 175.361,3.098 175.376,2.942C175.369,2.942 175.361,2.942 175.353,2.942C174.54,2.942 173.947,3.403 173.572,4.325C173.197,5.247 173.009,6.661 173.009,8.567L180.04,8.567L180.04,12.317L173.009,12.317L173.009,26.38L178.165,26.38L178.165,30.13L164.103,30.13L164.103,26.38L166.447,26.38L166.447,12.317L163.165,12.317Z" transform="rotate(3.207 186.134 14.966)" fill="#00AEEF" stroke="#FFFFFF" stroke-width="8" stroke-miterlimit="3.999327"/>
<path d="M188.537,8.977C189.912,8.438 191.369,8.169 192.908,8.169C194.447,8.169 195.9,8.438 197.267,8.977C198.642,9.516 199.837,10.27 200.853,11.239C201.869,12.2 202.669,13.387 203.255,14.802C203.849,16.216 204.147,17.755 204.147,19.419C204.147,21.083 203.849,22.622 203.255,24.036C202.669,25.45 201.869,26.641 200.853,27.61C199.837,28.571 198.642,29.321 197.267,29.86C195.9,30.399 194.447,30.669 192.908,30.669C191.369,30.669 189.912,30.399 188.537,29.86C187.169,29.321 185.978,28.571 184.962,27.61C183.955,26.641 183.154,25.45 182.56,24.036C181.974,22.622 181.681,21.083 181.681,19.419C181.681,17.755 181.974,16.216 182.56,14.802C183.154,13.387 183.955,12.2 184.962,11.239C185.978,10.27 187.169,9.516 188.537,8.977ZM192.908,11.919C192.361,11.919 191.873,11.997 191.443,12.153C191.013,12.309 190.619,12.567 190.259,12.927C189.9,13.286 189.603,13.751 189.369,14.321C189.142,14.891 188.962,15.602 188.83,16.454C188.705,17.305 188.642,18.294 188.642,19.419C188.642,20.544 188.705,21.532 188.83,22.384C188.962,23.235 189.142,23.946 189.369,24.516C189.603,25.087 189.9,25.552 190.259,25.911C190.619,26.27 191.013,26.528 191.443,26.684C191.873,26.841 192.361,26.919 192.908,26.919C193.595,26.919 194.193,26.79 194.701,26.532C195.208,26.266 195.65,25.845 196.025,25.266C196.408,24.688 196.693,23.911 196.88,22.934C197.076,21.958 197.173,20.786 197.173,19.419C197.173,18.052 197.076,16.88 196.88,15.903C196.693,14.927 196.408,14.149 196.025,13.571C195.65,12.993 195.208,12.575 194.701,12.317C194.193,12.052 193.595,11.919 192.908,11.919Z" transform="rotate(3.207 186.134 14.966)" fill="#00AEEF" stroke="#FFFFFF" stroke-width="8" stroke-miterlimit="3.999327"/>
<path d="M206.245,8.567L213.521,8.567L214.997,11.415C216.381,9.204 218.337,8.098 220.869,8.098C222.565,8.098 223.909,8.622 224.901,9.669C225.901,10.708 226.401,12.059 226.401,13.723C226.401,14.762 226.033,15.649 225.299,16.384C224.573,17.11 223.689,17.473 222.651,17.473C221.611,17.473 220.725,17.11 219.991,16.384C219.263,15.649 218.901,14.762 218.901,13.723C218.901,13.302 218.967,12.895 219.099,12.505C218.889,12.38 218.665,12.317 218.431,12.317C217.909,12.317 217.365,12.661 216.803,13.348C216.247,14.028 215.713,15.048 215.197,16.407L215.151,26.38L220.307,26.38L220.307,30.13L206.245,30.13L206.245,26.38L208.587,26.38L208.587,12.317L206.245,12.317L206.245,8.567Z" transform="rotate(3.207 186.134 14.966)" fill="#00AEEF" stroke="#FFFFFF" stroke-width="8" stroke-miterlimit="3.999327"/>
<path d="M257.337,8.098C258.431,8.098 259.389,8.247 260.209,8.544C261.029,8.841 261.701,9.251 262.225,9.774C262.747,10.29 263.169,10.95 263.491,11.755C263.819,12.552 264.045,13.411 264.169,14.333C264.303,15.247 264.369,16.294 264.369,17.473L264.369,26.38L266.713,26.38L266.713,30.13L255.463,30.13L255.463,26.38L257.807,26.38L257.807,17.005C257.807,15.77 257.693,14.809 257.467,14.122C257.247,13.434 256.927,12.962 256.505,12.704C256.091,12.446 255.525,12.317 254.807,12.317C254.135,12.317 253.443,12.61 252.733,13.196C252.021,13.782 251.349,14.602 250.717,15.657C250.755,16.22 250.775,16.825 250.775,17.473L250.775,26.38L253.119,26.38L253.119,30.13L241.869,30.13L241.869,26.38L244.213,26.38L244.213,17.005C244.213,15.77 244.099,14.809 243.873,14.122C243.655,13.434 243.333,12.962 242.911,12.704C242.497,12.446 241.931,12.317 241.213,12.317C240.557,12.317 239.885,12.595 239.197,13.149C238.509,13.704 237.857,14.477 237.241,15.47L237.181,26.38L239.525,26.38L239.525,30.13L228.275,30.13L228.275,26.38L230.619,26.38L230.619,12.317L228.275,12.317L228.275,8.567L235.553,8.567L237.193,11.743C237.483,11.22 237.815,10.751 238.189,10.337C238.573,9.915 239.025,9.532 239.549,9.188C240.079,8.837 240.701,8.567 241.411,8.38C242.123,8.192 242.901,8.098 243.745,8.098C244.689,8.098 245.533,8.208 246.275,8.427C247.017,8.637 247.647,8.954 248.161,9.376C248.685,9.79 249.119,10.286 249.463,10.864C249.807,11.434 250.079,12.098 250.283,12.856C250.479,12.348 250.705,11.872 250.963,11.427C251.229,10.981 251.565,10.552 251.971,10.137C252.377,9.716 252.827,9.36 253.319,9.071C253.819,8.774 254.411,8.54 255.099,8.368C255.787,8.188 256.533,8.098 257.337,8.098Z" transform="rotate(3.207 186.134 14.966)" fill="#00AEEF" stroke="#FFFFFF" stroke-width="8" stroke-miterlimit="3.999327"/>
<path d="M287.807,16.009L287.807,26.38L290.151,26.38L290.151,30.13L282.849,30.13L281.807,27.692C281.009,28.833 280.083,29.614 279.029,30.036C277.983,30.458 276.517,30.669 274.635,30.669C273.659,30.669 272.747,30.497 271.905,30.153C271.069,29.817 270.353,29.356 269.759,28.77C269.173,28.184 268.713,27.481 268.377,26.661C268.049,25.841 267.885,24.962 267.885,24.024C267.885,22.407 268.517,21.067 269.783,20.005C271.049,18.934 272.665,18.399 274.635,18.399C276.221,18.399 277.533,18.552 278.573,18.856C279.611,19.153 280.501,19.63 281.245,20.286L281.245,15.317C281.245,14.614 281.147,14.028 280.951,13.559C280.763,13.083 280.479,12.72 280.095,12.47C279.713,12.212 279.283,12.032 278.807,11.93C278.329,11.829 277.759,11.778 277.095,11.778C276.565,11.778 276.083,11.891 275.655,12.118C275.897,12.626 276.017,13.161 276.017,13.723C276.017,14.762 275.651,15.649 274.915,16.384C274.189,17.11 273.307,17.473 272.267,17.473C271.229,17.473 270.341,17.11 269.607,16.384C268.881,15.649 268.517,14.762 268.517,13.723C268.517,13.192 268.619,12.692 268.823,12.223C269.033,11.755 269.323,11.345 269.689,10.993C270.001,10.665 270.327,10.372 270.661,10.114C270.997,9.848 271.419,9.587 271.927,9.329C272.443,9.063 273.001,8.845 273.603,8.673C274.205,8.501 274.923,8.364 275.759,8.262C276.603,8.153 277.525,8.098 278.525,8.098C279.823,8.098 281.041,8.29 282.181,8.673C283.323,9.055 284.307,9.587 285.135,10.266C285.963,10.946 286.615,11.782 287.091,12.774C287.569,13.766 287.807,14.845 287.807,16.009ZM281.245,24.927L281.245,23.309C280.759,22.848 280.213,22.462 279.603,22.149C279.001,21.829 278.443,21.669 277.927,21.669C276.819,21.669 276.037,21.856 275.583,22.231C275.131,22.598 274.905,23.196 274.905,24.024C274.905,25.016 275.099,25.747 275.491,26.216C275.881,26.684 276.607,26.919 277.669,26.919C278.271,26.919 278.897,26.727 279.545,26.345C280.201,25.954 280.767,25.481 281.245,24.927Z" transform="rotate(3.207 186.134 14.966)" fill="#00AEEF" stroke="#FFFFFF" stroke-width="8" stroke-miterlimit="3.999327"/>
<path d="M297.415,3.88L299.759,3.88L299.759,8.567L306.323,8.567L306.323,12.317L299.759,12.317L299.759,24.505C299.759,25.036 299.909,25.481 300.205,25.841C300.509,26.2 300.987,26.38 301.635,26.38C302.361,26.38 302.979,26.141 303.487,25.665C303.993,25.18 304.315,24.481 304.447,23.567L307.259,24.036C307.143,24.95 306.915,25.798 306.579,26.579C306.251,27.352 305.823,28.044 305.291,28.653C304.759,29.255 304.099,29.731 303.311,30.083C302.529,30.427 301.659,30.598 300.697,30.598C298.361,30.598 296.525,30.055 295.189,28.97C293.861,27.876 293.197,26.388 293.197,24.505L293.197,12.317L290.853,12.317L290.853,8.567L291.323,8.567C292.525,8.567 293.587,8.223 294.509,7.536C295.431,6.848 296.401,5.63 297.415,3.88Z" transform="rotate(3.207 186.134 14.966)" fill="#00AEEF" stroke="#FFFFFF" stroke-width="8" stroke-miterlimit="3.999327"/>
<path d="M312.099,6.071C311.373,5.337 311.009,4.45 311.009,3.411C311.009,2.372 311.373,1.489 312.099,0.762C312.833,0.028 313.721,-0.339 314.759,-0.339C315.799,-0.339 316.681,0.028 317.409,0.762C318.143,1.489 318.509,2.372 318.509,3.411C318.509,4.45 318.143,5.337 317.409,6.071C316.681,6.798 315.799,7.161 314.759,7.161C313.721,7.161 312.833,6.798 312.099,6.071ZM309.135,8.567L318.041,8.567L318.041,26.38L320.385,26.38L320.385,30.13L309.135,30.13L309.135,26.38L311.479,26.38L311.479,12.317L309.135,12.317L309.135,8.567Z" transform="rotate(3.207 186.134 14.966)" fill="#00AEEF" stroke="#FFFFFF" stroke-width="8" stroke-miterlimit="3.999327"/>
<path d="M329.349,8.977C330.725,8.438 332.181,8.169 333.721,8.169C335.259,8.169 336.713,8.438 338.079,8.977C339.455,9.516 340.651,10.27 341.665,11.239C342.681,12.2 343.483,13.387 344.069,14.802C344.661,16.216 344.959,17.755 344.959,19.419C344.959,21.083 344.661,22.622 344.069,24.036C343.483,25.45 342.681,26.641 341.665,27.61C340.651,28.571 339.455,29.321 338.079,29.86C336.713,30.399 335.259,30.669 333.721,30.669C332.181,30.669 330.725,30.399 329.349,29.86C327.983,29.321 326.791,28.571 325.775,27.61C324.767,26.641 323.967,25.45 323.373,24.036C322.787,22.622 322.493,21.083 322.493,19.419C322.493,17.755 322.787,16.216 323.373,14.802C323.967,13.387 324.767,12.2 325.775,11.239C326.791,10.27 327.983,9.516 329.349,8.977ZM333.721,11.919C333.173,11.919 332.685,11.997 332.255,12.153C331.827,12.309 331.431,12.567 331.073,12.927C330.713,13.286 330.415,13.751 330.181,14.321C329.955,14.891 329.775,15.602 329.643,16.454C329.517,17.305 329.455,18.294 329.455,19.419C329.455,20.544 329.517,21.532 329.643,22.384C329.775,23.235 329.955,23.946 330.181,24.516C330.415,25.087 330.713,25.552 331.073,25.911C331.431,26.27 331.827,26.528 332.255,26.684C332.685,26.841 333.173,26.919 333.721,26.919C334.409,26.919 335.005,26.79 335.513,26.532C336.021,26.266 336.463,25.845 336.837,25.266C337.221,24.688 337.505,23.911 337.693,22.934C337.889,21.958 337.987,20.786 337.987,19.419C337.987,18.052 337.889,16.88 337.693,15.903C337.505,14.927 337.221,14.149 336.837,13.571C336.463,12.993 336.021,12.575 335.513,12.317C335.005,12.052 334.409,11.919 333.721,11.919Z" transform="rotate(3.207 186.134 14.966)" fill="#00AEEF" stroke="#FFFFFF" stroke-width="8" stroke-miterlimit="3.999327"/>
<path d="M362.525,8.098C363.619,8.098 364.577,8.247 365.397,8.544C366.217,8.841 366.889,9.251 367.411,9.774C367.935,10.29 368.357,10.95 368.677,11.755C369.005,12.552 369.233,13.411 369.357,14.333C369.491,15.247 369.557,16.294 369.557,17.473L369.557,26.38L371.901,26.38L371.901,30.13L360.651,30.13L360.651,26.38L362.993,26.38L362.993,17.005C362.993,15.77 362.881,14.809 362.655,14.122C362.435,13.434 362.115,12.962 361.693,12.704C361.279,12.446 360.713,12.317 359.993,12.317C359.337,12.317 358.665,12.595 357.979,13.149C357.291,13.704 356.639,14.477 356.021,15.47L355.963,26.38L358.307,26.38L358.307,30.13L347.057,30.13L347.057,26.38L349.401,26.38L349.401,12.317L347.057,12.317L347.057,8.567L354.333,8.567L355.975,11.743C356.263,11.22 356.595,10.751 356.971,10.337C357.353,9.915 357.807,9.532 358.329,9.188C358.861,8.837 359.483,8.567 360.193,8.38C360.905,8.192 361.681,8.098 362.525,8.098Z" transform="rotate(3.207 186.134 14.966)" fill="#00AEEF" stroke="#FFFFFF" stroke-width="8" stroke-miterlimit="3.999327"/>
</svg>
