<svg width="72" height="56" viewBox="0 0 72 56" fill="none" xmlns="http://www.w3.org/2000/svg" xmlns:xlink="http://www.w3.org/1999/xlink">
<path d="M52.231,49.379L17.758,49.379L17.555,49.131C14.683,45.793 12.829,41.701 12.214,37.341C11.599,32.98 12.248,28.535 14.084,24.532C15.92,20.53 18.867,17.138 22.573,14.761C26.28,12.383 30.591,11.119 34.995,11.119C39.398,11.119 43.709,12.383 47.416,14.761C51.123,17.138 54.069,20.53 55.905,24.532C57.742,28.535 58.391,32.98 57.775,37.341C57.16,41.701 55.306,45.793 52.434,49.131L52.231,49.379ZM18.38,48.025L51.607,48.025C54.248,44.865 55.934,41.018 56.466,36.934C56.998,32.85 56.354,28.7 54.61,24.969C52.866,21.238 50.094,18.082 46.62,15.871C43.146,13.66 39.113,12.485 34.995,12.485C30.877,12.485 26.844,13.66 23.369,15.871C19.895,18.082 17.123,21.238 15.38,24.969C13.636,28.7 12.992,32.85 13.524,36.934C14.056,41.018 15.741,44.865 18.382,48.025L18.38,48.025Z" fill="#61B4E4"/>
<rect  x="32.928" y="10.807" width="6.555" height="8.572" fill="#5C6670"/>
<g opacity="0.8" style="mix-blend-mode:multiply">
<rect  x="38.317" y="14.295" width="1.158" height="5.082" fill="#D1D3D3"/>
</g>
<rect  x="32.928" y="10.137" width="6.555" height="1.337" fill="#333E48"/>
<rect  x="39.483" y="14.297" width="10.399" height="5.082" fill="#7D868C"/>
<g opacity="0.8" style="mix-blend-mode:multiply">
<rect  x="39.482" y="14.295" width="10.399" height="1.47" fill="#D1D3D3"/>
</g>
<rect  x="38.971" y="13.625" width="11.424" height="1.337" fill="#333E48"/>
<path d="M49.882,18.711L24.501,18.711L21.491,29.694L49.882,29.694L49.882,18.711Z" fill="#5C6670"/>
<g opacity="0.8" style="mix-blend-mode:multiply">
<path d="M24.319,19.377L23.878,20.983L49.882,20.983L49.882,19.377L24.319,19.377Z" fill="#D1D3D3"/>
</g>
<g opacity="0.8" style="mix-blend-mode:multiply">
<path d="M48.999,23.516L43.746,26.607L22.336,26.607L21.492,29.692L49.883,29.692L49.883,23.516L48.999,23.516Z" fill="#D1D3D3"/>
</g>
<rect  x="23.714" y="18.711" width="26.955" height="1.337" fill="#333E48"/>
<path d="M37.542,23.599C37.542,23.231 37.433,22.872 37.229,22.567C37.025,22.262 36.735,22.024 36.396,21.883C36.056,21.743 35.683,21.706 35.323,21.778C34.962,21.85 34.632,22.027 34.372,22.287C34.112,22.547 33.936,22.878 33.864,23.238C33.793,23.598 33.83,23.972 33.971,24.311C34.112,24.65 34.35,24.94 34.656,25.144C34.962,25.347 35.321,25.456 35.688,25.455C35.932,25.455 36.173,25.407 36.398,25.314C36.623,25.221 36.828,25.084 37,24.911C37.172,24.739 37.309,24.534 37.402,24.309C37.495,24.084 37.543,23.842 37.542,23.599Z" fill="#FFFFFF"/>
<path d="M43.745,23.599C43.745,23.231 43.636,22.872 43.432,22.567C43.228,22.262 42.938,22.024 42.599,21.883C42.259,21.743 41.886,21.706 41.526,21.778C41.165,21.85 40.835,22.027 40.575,22.287C40.316,22.547 40.139,22.878 40.068,23.238C39.996,23.598 40.033,23.972 40.174,24.311C40.315,24.65 40.553,24.94 40.859,25.144C41.165,25.347 41.524,25.456 41.891,25.455C42.135,25.455 42.376,25.407 42.601,25.314C42.826,25.221 43.031,25.084 43.203,24.911C43.375,24.739 43.512,24.534 43.605,24.309C43.698,24.084 43.746,23.842 43.745,23.599Z" fill="#FFFFFF"/>
<path d="M11.86,28.287C11.86,31.369 14.804,37.971 19.217,37.971L50.051,37.971C52.591,36.768 59.767,29.225 59.767,25.195L48.999,25.195L43.746,28.287L11.86,28.287Z" fill="#7D868C"/>
<path d="M12.523,31.488C13.627,34.553 16.041,37.971 19.207,37.971L50.051,37.971C51.511,37.278 54.506,34.506 56.776,31.488L12.523,31.488Z" fill="#FF5959"/>
<g opacity="0.8" style="mix-blend-mode:multiply">
<path d="M11.86,28.287C11.86,31.369 14.804,37.971 19.217,37.971L35.087,37.971L35.087,28.287L11.86,28.287Z" fill="#D1D3D3"/>
</g>
<path d="M56.845,12.339C58.974,14.469 60.781,16.898 62.209,19.55C62.57,19.274 62.969,19.053 63.395,18.894C61.905,16.131 60.022,13.6 57.803,11.381L56.845,12.339ZM66.543,27.553C66.114,27.701 65.665,27.784 65.212,27.8C65.642,29.883 65.858,32.003 65.858,34.13C65.859,36.814 65.512,39.487 64.823,42.081L66.132,42.43C67.42,37.567 67.56,32.472 66.543,27.545L66.543,27.553Z" fill="#61B4E4"/>
<path d="M12.192,11.381C9.985,13.587 8.11,16.101 6.624,18.844C7.055,18.988 7.463,19.196 7.832,19.461C9.253,16.847 11.042,14.451 13.145,12.346L12.192,11.381ZM4.788,27.8C4.334,27.762 3.889,27.657 3.466,27.491C2.432,32.436 2.569,37.554 3.864,42.437L5.174,42.088C3.936,37.42 3.804,32.528 4.788,27.8Z" fill="#61B4E4"/>
<path d="M55.221,55.438C58.825,55.438 63.489,53.036 65.581,50.1L69.175,45.063C71.267,42.13 71.269,38.02 69.175,35.931C68.166,34.927 66.8,34.364 65.377,34.364C63.953,34.364 62.587,34.927 61.578,35.931C60.569,36.935 59.203,37.499 57.78,37.499C56.356,37.499 54.99,36.935 53.981,35.931C52.972,34.927 51.606,34.364 50.183,34.364C48.759,34.364 47.393,34.927 46.384,35.931C45.375,36.935 44.009,37.499 42.585,37.499C41.162,37.499 39.796,36.935 38.787,35.931C37.778,34.927 36.412,34.364 34.988,34.364C33.565,34.364 32.199,34.927 31.19,35.931C30.181,36.935 28.815,37.499 27.391,37.499C25.968,37.499 24.602,36.935 23.593,35.931C22.584,34.927 21.218,34.364 19.794,34.364C18.371,34.364 17.005,34.927 15.996,35.931C14.987,36.935 13.621,37.499 12.197,37.499C10.774,37.499 9.408,36.935 8.399,35.931C7.391,34.927 6.026,34.363 4.603,34.361C3.18,34.36 1.815,34.922 0.804,35.924C-1.285,38.013 -1.28,42.112 0.804,45.056L4.399,50.093C6.49,53.029 11.152,55.43 14.758,55.43L55.221,55.438Z" fill="#003E63"/>
<path d="M69.181,43.61C68.172,42.606 66.806,42.043 65.382,42.043C63.959,42.043 62.593,42.606 61.584,43.61C60.575,44.614 59.209,45.178 57.785,45.178C56.362,45.178 54.996,44.614 53.987,43.61C52.978,42.606 51.612,42.043 50.188,42.043C48.765,42.043 47.399,42.606 46.39,43.61C45.38,44.614 44.015,45.178 42.591,45.178C41.168,45.178 39.802,44.614 38.793,43.61C37.783,42.606 36.418,42.043 34.994,42.043C33.571,42.043 32.205,42.606 31.196,43.61C30.186,44.614 28.821,45.178 27.397,45.178C25.974,45.178 24.608,44.614 23.599,43.61C22.589,42.606 21.224,42.043 19.8,42.043C18.377,42.043 17.011,42.606 16.002,43.61C14.992,44.614 13.627,45.178 12.203,45.178C10.78,45.178 9.414,44.614 8.405,43.61C7.395,42.606 6.03,42.043 4.606,42.043C3.183,42.043 1.817,42.606 0.808,43.61C0.625,43.802 0.459,44.009 0.313,44.229C0.468,44.517 0.639,44.796 0.827,45.063L4.422,50.101C6.513,53.037 11.175,55.438 14.781,55.438L55.222,55.438C58.826,55.438 63.49,53.037 65.582,50.101L69.176,45.063C69.364,44.796 69.536,44.517 69.691,44.229C69.54,44.008 69.37,43.801 69.181,43.61Z" fill="#61B4E4"/>
<g style="mix-blend-mode:multiply">
<path d="M31.195,35.924C30.186,36.928 28.82,37.491 27.396,37.491C25.973,37.491 24.607,36.928 23.598,35.924C22.589,34.92 21.223,34.357 19.799,34.357C18.376,34.357 17.01,34.92 16.001,35.924C14.992,36.928 13.626,37.491 12.202,37.491C10.779,37.491 9.413,36.928 8.404,35.924C7.394,34.919 6.028,34.355 4.604,34.355C3.18,34.355 1.814,34.919 0.804,35.924C-1.285,38.013 -1.28,42.113 0.804,45.056L4.399,50.093C6.49,53.029 11.152,55.43 14.758,55.43L35.076,55.43L35.076,34.367C34.358,34.353 33.644,34.484 32.977,34.751C32.311,35.019 31.704,35.418 31.195,35.924Z" fill="#99DAEA"/>
</g>
<path d="M19.37,4.082L22.373,8.993L20.588,10.085L18.068,7.921L19.754,10.595L18.417,11.419L15.409,6.501L17.092,5.478L19.801,7.731L18.026,4.909L19.37,4.082Z" fill="#333E48"/>
<path d="M25.507,6.961L24.23,7.441L24.321,8.199L22.608,8.842L22.188,2.849L24,2.166L27.633,6.953L25.92,7.597L25.507,6.961ZM24.596,5.604L23.853,4.505L24.024,5.82L24.596,5.604Z" fill="#333E48"/>
<path d="M28.705,6.533C28.446,6.438 28.209,6.291 28.009,6.1C27.81,5.909 27.652,5.679 27.547,5.424C27.368,4.965 27.244,4.486 27.178,3.998L26.683,1.305L28.282,1.023L28.777,3.713C28.823,4.074 28.906,4.429 29.024,4.773C29.047,4.831 29.082,4.883 29.128,4.926C29.173,4.969 29.227,5.001 29.287,5.02C29.389,5.051 29.498,5.057 29.604,5.038C29.708,5.019 29.805,4.975 29.888,4.909C29.939,4.871 29.979,4.822 30.006,4.765C30.033,4.708 30.046,4.645 30.044,4.582C30.033,4.219 29.986,3.857 29.903,3.503L29.408,0.812L31.015,0.518L31.51,3.208C31.619,3.689 31.673,4.181 31.671,4.674C31.664,4.949 31.6,5.219 31.482,5.468C31.365,5.717 31.197,5.939 30.99,6.119C30.679,6.389 30.302,6.57 29.898,6.644C29.493,6.719 29.076,6.684 28.69,6.543L28.705,6.533Z" fill="#333E48"/>
<path d="M36.301,1.949L35.136,1.971L35.212,6.095L33.578,6.13L33.502,2.011L32.341,2.033L32.309,0.4L36.269,0.32L36.301,1.949Z" fill="#333E48"/>
<path d="M36.908,6.157L37.46,0.424L39.087,0.58L38.535,6.315L36.908,6.157Z" fill="#333E48"/>
<path d="M42.186,5.008L43.671,5.701C43.263,6.444 42.642,6.939 41.731,6.924C41.569,6.921 41.408,6.902 41.25,6.867C41.074,6.829 40.902,6.77 40.738,6.694C39.436,6.04 39.406,4.679 39.664,3.53C39.956,2.223 40.572,1.114 41.996,1.074C42.338,1.07 42.676,1.144 42.986,1.29C43.813,1.668 44.162,2.381 44.223,3.223L42.585,3.223C42.58,3.131 42.552,3.043 42.504,2.964C42.456,2.886 42.389,2.821 42.31,2.775C41.612,2.453 41.362,3.342 41.238,3.891C41.124,4.401 40.951,5.25 41.733,5.302C41.829,5.302 41.923,5.275 42.003,5.222C42.084,5.17 42.147,5.096 42.186,5.008Z" fill="#333E48"/>
<path d="M46.739,7.855L45.481,7.327L45.036,7.946L43.348,7.238L47.155,2.592L48.942,3.334L48.296,9.308L46.6,8.605L46.739,7.855ZM47.009,6.241L47.219,4.929L46.442,6.003L47.009,6.241Z" fill="#333E48"/>
<path d="M51.707,11.535L48.61,9.572L51.705,4.715L53.123,5.618L50.794,9.277L52.467,10.344L51.707,11.535Z" fill="#333E48"/>
<path d="M5.173,26.351C6.914,26.351 8.326,24.94 8.326,23.198C8.326,21.456 6.914,20.044 5.173,20.044C3.431,20.044 2.019,21.456 2.019,23.198C2.019,24.94 3.431,26.351 5.173,26.351Z" transform="rotate(-1.44 5.173 23.198)" fill="#003E63"/>
<path d="M65.002,26.35C66.744,26.35 68.156,24.938 68.156,23.196C68.156,21.455 66.744,20.043 65.002,20.043C63.261,20.043 61.849,21.455 61.849,23.196C61.849,24.938 63.261,26.35 65.002,26.35Z" transform="rotate(-178.64 65.002 23.196)" fill="#003E63"/>
</svg>
