<svg width="110" height="112" viewBox="0 0 110 112" fill="none" xmlns="http://www.w3.org/2000/svg" xmlns:xlink="http://www.w3.org/1999/xlink">
<path d="M54.29,94.1C75.652,94.1 92.969,76.782 92.969,55.42C92.969,34.058 75.652,16.74 54.29,16.74C32.927,16.74 15.61,34.058 15.61,55.42C15.61,76.782 32.927,94.1 54.29,94.1Z" transform="rotate(-90 54.29 55.42)" fill="#0055B8"/>
<path d="M54.289,87.57C46.332,87.568 38.658,84.615 32.751,79.284C26.843,73.953 23.122,66.621 22.307,58.706L24.192,58.515C24.76,64.029 26.831,69.28 30.181,73.696C33.53,78.113 38.027,81.524 43.183,83.559C48.339,85.593 53.954,86.172 59.417,85.233C64.879,84.294 69.979,81.872 74.159,78.232C78.339,74.593 81.439,69.875 83.12,64.593C84.802,59.312 85,53.67 83.694,48.284C82.388,42.897 79.627,37.973 75.713,34.048C71.8,30.124 66.883,27.35 61.5,26.029L61.949,24.184C69.583,26.056 76.267,30.66 80.737,37.125C85.207,43.59 87.155,51.469 86.211,59.272C85.268,67.075 81.499,74.263 75.616,79.476C69.734,84.689 62.146,87.568 54.286,87.567L54.289,87.57Z" fill="#FFFFFF"/>
<path d="M75.786,55.42C75.786,51.168 74.526,47.012 72.164,43.477C69.802,39.942 66.445,37.187 62.517,35.56C58.589,33.933 54.267,33.507 50.097,34.337C45.927,35.166 42.097,37.214 39.091,40.22C36.085,43.226 34.037,47.056 33.208,51.226C32.379,55.396 32.804,59.718 34.431,63.646C36.058,67.573 38.813,70.931 42.348,73.292C45.883,75.654 50.039,76.915 54.291,76.915C57.114,76.915 59.909,76.359 62.517,75.279C65.125,74.199 67.494,72.615 69.49,70.619C71.487,68.623 73.07,66.254 74.15,63.646C75.23,61.038 75.786,58.242 75.786,55.42Z" fill="#61B4E4"/>
<path d="M21.127,46.686L28.249,47.916L27.803,50.502L23.676,51.089L27.594,51.704L27.259,53.645L20.137,52.415L20.558,49.979L24.925,49.287L20.789,48.629L21.127,46.686Z" fill="#FFFFFF"/>
<path d="M29.125,43.4L28.436,44.968L29.211,45.552L28.289,47.656L22.541,42.766L23.522,40.543L31.007,41.49L30.084,43.594L29.125,43.4ZM27.105,43.025L25.465,42.717L26.797,43.72L27.105,43.025Z" fill="#FFFFFF"/>
<path d="M31.604,40.247C31.284,40.38 30.941,40.446 30.594,40.441C30.248,40.435 29.907,40.357 29.592,40.213C29.036,39.94 28.513,39.603 28.033,39.21L25.287,37.15L26.517,35.511L29.263,37.571C29.616,37.861 29.996,38.115 30.398,38.331C30.469,38.365 30.547,38.383 30.626,38.383C30.704,38.383 30.782,38.365 30.853,38.331C30.974,38.271 31.08,38.184 31.161,38.076C31.24,37.969 31.293,37.846 31.315,37.716C31.329,37.637 31.324,37.557 31.301,37.481C31.277,37.405 31.235,37.335 31.179,37.279C30.859,36.956 30.509,36.663 30.134,36.406L27.384,34.345L28.615,32.703L31.364,34.764C31.875,35.113 32.343,35.521 32.76,35.978C32.989,36.237 33.162,36.541 33.268,36.87C33.374,37.199 33.41,37.547 33.375,37.891C33.318,38.404 33.125,38.892 32.816,39.304C32.506,39.717 32.092,40.039 31.616,40.237L31.604,40.247Z" fill="#FFFFFF"/>
<path d="M34.995,29.627L33.894,30.593L37.307,34.486L35.77,35.839L32.353,31.946L31.258,32.906L29.908,31.368L33.648,28.09L34.995,29.627Z" fill="#FFFFFF"/>
<path d="M38.957,33.252L35.055,27.154L36.783,26.053L40.673,32.145L38.957,33.252Z" fill="#FFFFFF"/>
<path d="M43.357,28.111L45.377,27.717C45.506,28.769 45.242,29.731 44.307,30.392C44.142,30.514 43.965,30.617 43.778,30.7C43.569,30.791 43.35,30.859 43.126,30.903C41.324,31.21 40.288,29.839 39.704,28.483C39.036,26.945 38.846,25.355 40.263,24.264C40.609,24.004 41.01,23.827 41.435,23.747C42.554,23.519 43.44,23.987 44.113,24.802L42.444,26.004C42.371,25.913 42.276,25.843 42.169,25.799C42.061,25.754 41.944,25.738 41.829,25.752C40.881,25.94 41.284,27.028 41.564,27.677C41.825,28.292 42.274,29.27 43.102,28.738C43.201,28.67 43.278,28.574 43.323,28.463C43.369,28.351 43.38,28.229 43.357,28.111Z" fill="#FFFFFF"/>
<path d="M50.106,27.848L48.421,28.155L48.377,29.112L46.117,29.524L46.938,22.027L49.331,21.59L52.744,28.315L50.484,28.727L50.106,27.848ZM49.285,25.966L48.608,24.428L48.525,26.092L49.285,25.966Z" fill="#FFFFFF"/>
<path d="M57.775,28.585L53.162,28.425L53.427,21.201L55.536,21.278L55.336,26.718L57.827,26.81L57.775,28.585Z" fill="#FFFFFF"/>
<path d="M74.724,15.164L74.871,47.761L58.025,47.761C58.01,31.466 68.235,21.637 74.724,15.164Z" fill="#FFFFFF"/>
<g opacity="0.8" style="mix-blend-mode:multiply">
<path d="M74.725,15.164L74.872,47.761L71.342,47.761L71.342,18.574C72.523,17.341 73.667,16.21 74.725,15.164Z" fill="#D1D3D3"/>
</g>
<path d="M74.723,53.992C75.034,53.991 75.331,53.867 75.551,53.648C75.77,53.428 75.894,53.131 75.895,52.82L75.895,15.164C75.88,14.864 75.75,14.582 75.532,14.375C75.314,14.168 75.025,14.053 74.725,14.053C74.424,14.053 74.136,14.168 73.918,14.375C73.7,14.582 73.57,14.864 73.555,15.164L73.555,52.82C73.555,53.131 73.678,53.428 73.897,53.648C74.116,53.867 74.413,53.991 74.723,53.992Z" fill="#493728"/>
<path d="M59.963,26.668L60.111,47.764L48.459,47.764C49.129,39.418 53.813,32.329 59.963,26.668Z" fill="#FFFFFF"/>
<g opacity="0.8" style="mix-blend-mode:multiply">
<path d="M59.963,26.668C58.927,27.617 57.939,28.609 56.998,29.645L56.998,47.764L60.11,47.764L59.963,26.668Z" fill="#D1D3D3"/>
</g>
<path d="M59.964,53.992C60.274,53.992 60.572,53.868 60.791,53.648C61.011,53.429 61.134,53.131 61.135,52.821L61.135,26.795C61.12,26.495 60.99,26.213 60.772,26.006C60.554,25.799 60.265,25.684 59.965,25.684C59.665,25.684 59.376,25.799 59.158,26.006C58.94,26.213 58.81,26.495 58.795,26.795L58.795,52.83C58.797,53.139 58.921,53.434 59.14,53.651C59.359,53.869 59.655,53.992 59.964,53.992Z" fill="#493728"/>
<path d="M85.872,50.293L37.892,50.293L32.203,68.717L85.872,68.717L85.872,50.293Z" fill="#9A6B58"/>
<g opacity="0.8" style="mix-blend-mode:multiply">
<path d="M84.202,57.039L74.272,62.882L33.802,62.882L32.203,68.716L85.872,68.716L85.872,57.039L84.202,57.039Z" fill="#D1D3D3"/>
</g>
<rect  x="36.404" y="50.293" width="50.953" height="2.528" fill="#333E48"/>
<circle cx="59.038" cy="58.333" r="3.509" fill="#FFFFFF"/>
<path d="M70.765,61.842C72.703,61.842 74.273,60.271 74.273,58.333C74.273,56.395 72.703,54.824 70.765,54.824C68.827,54.824 67.256,56.395 67.256,58.333C67.256,60.271 68.827,61.842 70.765,61.842Z" fill="#FFFFFF"/>
<path d="M13.998,64.657C13.998,70.479 19.561,82.961 27.904,82.961L86.188,82.961C90.992,80.685 101.257,71.241 101.257,58.814C85.115,58.814 87.375,64.657 74.81,64.657L13.998,64.657Z" fill="#DEBFA5"/>
<path d="M15.25,70.707C17.338,76.501 21.902,82.962 27.904,82.962L86.189,82.962C89.292,81.492 94.667,77.03 98.09,70.707L15.25,70.707Z" fill="#003E63"/>
<g opacity="0.8" style="mix-blend-mode:multiply">
<path d="M13.998,64.656C13.998,70.478 19.561,82.96 27.904,82.96L57.903,82.96L57.903,64.656L13.998,64.656Z" fill="#D1D3D3"/>
</g>
<g opacity="0.8" style="mix-blend-mode:multiply">
<path d="M45.759,75.494C41.146,67.861 33.458,55.09 15.687,54.309L15.625,54.309C15.625,54.678 15.625,55.047 15.625,55.419C15.619,60.545 16.635,65.621 18.614,70.35C20.593,75.079 23.495,79.366 27.151,82.96L52.368,82.96C50.049,82.96 47.413,78.234 45.759,75.494Z" fill="#D1D3D3"/>
</g>
<path d="M15.617,55.93C15.736,66.108 19.876,75.826 27.134,82.964L50.33,82.964C44.398,82.964 40.831,57.037 15.617,55.93Z" fill="#61B4E4"/>
<path d="M16.096,61.547C17.393,69.683 21.261,77.19 27.133,82.969L41.586,82.969C37.293,75.954 31.057,64.035 16.096,61.547Z" fill="#003E63"/>
</svg>
