<svg width="76" height="78" viewBox="0 0 76 78" fill="none" xmlns="http://www.w3.org/2000/svg" xmlns:xlink="http://www.w3.org/1999/xlink">
<path d="M62.758,61.213L61.519,59.974C67.634,53.876 71.198,45.678 71.486,37.047L73.236,37.108C72.934,46.183 69.188,54.802 62.758,61.213Z" fill="#61B4E4"/>
<path d="M12.054,61.213C5.623,54.803 1.876,46.183 1.576,37.108L3.325,37.047C3.611,45.678 7.173,53.875 13.288,59.974L12.054,61.213Z" fill="#61B4E4"/>
<path d="M70.931,29.585C69.467,21.763 65.314,14.699 59.191,9.616C53.068,4.533 45.361,1.75 37.403,1.75C29.445,1.75 21.738,4.533 15.615,9.616C9.492,14.699 5.34,21.763 3.876,29.585L2.153,29.264C3.686,21.034 8.05,13.599 14.489,8.248C20.928,2.898 29.036,-0.031 37.408,-0.031C45.781,-0.031 53.889,2.898 60.328,8.248C66.767,13.599 71.131,21.034 72.664,29.264L70.931,29.585Z" fill="#61B4E4"/>
<path d="M14.249,68.708C12.964,67.77 13.018,66.133 13.902,64.859C14.786,63.585 16.281,62.904 17.641,63.79C18.045,64.085 18.349,64.496 18.512,64.969C18.674,65.442 18.687,65.954 18.549,66.435L16.968,65.77C16.971,65.649 16.946,65.529 16.895,65.42C16.843,65.311 16.767,65.216 16.671,65.142C16.159,64.821 15.59,65.281 15.248,65.778C14.943,66.221 14.66,66.934 15.181,67.345C15.311,67.426 15.463,67.463 15.616,67.453C15.769,67.443 15.914,67.386 16.033,67.289L15.413,66.849L16.054,65.943L18.135,67.417C17.235,68.708 15.817,69.725 14.249,68.708Z" fill="#333E48"/>
<path d="M17.174,70.54L20.016,65.438L21.463,66.24L18.621,71.344L17.174,70.54Z" fill="#333E48"/>
<path d="M23.055,73.395L19.65,71.913L22.006,66.571L23.565,67.26L21.792,71.283L23.632,72.084L23.055,73.395Z" fill="#333E48"/>
<path d="M23.894,73.671L25.744,68.134L27.315,68.668L25.467,74.205L23.894,73.671Z" fill="#333E48"/>
<path d="M27.561,74.766C27.327,74.637 27.127,74.454 26.979,74.231C26.766,73.913 26.638,73.545 26.608,73.163C26.6,73.074 26.6,72.985 26.608,72.896L28.266,72.896C28.262,72.936 28.262,72.976 28.266,73.016C28.26,73.112 28.289,73.208 28.349,73.283C28.368,73.307 28.393,73.324 28.421,73.334C28.478,73.358 28.543,73.358 28.6,73.334C28.637,73.321 28.671,73.3 28.699,73.273C28.757,73.223 28.803,73.161 28.835,73.091C28.983,72.765 29.092,72.423 29.158,72.071L29.802,69.304L31.405,69.678L30.75,72.447C30.654,72.938 30.497,73.416 30.283,73.868C30.065,74.291 29.714,74.631 29.284,74.835C28.897,75.013 28.462,75.058 28.047,74.963C27.876,74.924 27.711,74.857 27.561,74.766Z" fill="#333E48"/>
<path d="M33.338,71.585L33.295,71.991L35.213,72.191L35.056,73.705L33.138,73.505L33.074,74.098L35.24,74.325L35.066,75.97L31.255,75.578L31.864,69.776L35.675,70.169L35.502,71.814L33.338,71.585Z" fill="#333E48"/>
<path d="M40.138,71.766L38.955,71.788L39.035,75.968L37.382,76.002L37.299,71.822L36.124,71.844L36.089,70.188L40.095,70.11L40.138,71.766Z" fill="#333E48"/>
<path d="M46.743,70.645L45.584,70.888L46.436,74.98L44.815,75.319L43.963,71.224L42.812,71.465L42.473,69.843L46.404,69.023L46.743,70.645Z" fill="#333E48"/>
<path d="M50.781,73.783C50.457,73.903 50.109,73.948 49.764,73.915C49.419,73.881 49.087,73.769 48.792,73.588C48.154,73.179 47.677,72.563 47.44,71.844C47.161,71.141 47.122,70.365 47.331,69.638C47.438,69.305 47.621,69.001 47.864,68.75C48.107,68.499 48.404,68.306 48.733,68.187L48.749,68.187C49.075,68.07 49.423,68.028 49.768,68.063C50.113,68.098 50.446,68.21 50.741,68.39C51.379,68.799 51.857,69.415 52.093,70.135C52.373,70.837 52.412,71.614 52.202,72.341C52.096,72.672 51.915,72.975 51.673,73.224C51.43,73.474 51.134,73.664 50.805,73.78L50.789,73.78L50.781,73.783ZM48.912,70.156C48.841,70.528 48.873,70.913 49.004,71.269C49.135,71.625 49.361,71.938 49.657,72.175C49.745,72.227 49.843,72.258 49.945,72.268C50.046,72.278 50.148,72.265 50.245,72.231C50.339,72.198 50.424,72.143 50.494,72.072C50.563,72 50.615,71.913 50.645,71.817C50.731,71.444 50.699,71.054 50.552,70.701C50.435,70.339 50.207,70.023 49.9,69.798C49.812,69.745 49.714,69.712 49.611,69.702C49.509,69.693 49.406,69.706 49.31,69.742C49.213,69.771 49.124,69.823 49.051,69.893C48.979,69.963 48.923,70.05 48.89,70.145L48.912,70.156Z" fill="#333E48"/>
<path d="M54.911,71.716C54.631,71.703 54.358,71.632 54.107,71.508C53.857,71.384 53.635,71.209 53.455,70.995C53.144,70.604 52.88,70.178 52.667,69.726L51.375,67.272L52.841,66.5L54.134,68.954C54.289,69.288 54.478,69.606 54.697,69.902C54.736,69.953 54.786,69.994 54.842,70.022C54.899,70.05 54.962,70.065 55.026,70.065C55.135,70.063 55.241,70.035 55.338,69.985C55.438,69.938 55.524,69.866 55.589,69.777C55.626,69.725 55.649,69.664 55.658,69.601C55.667,69.538 55.661,69.474 55.64,69.414C55.52,69.065 55.365,68.73 55.178,68.412L53.888,65.957L55.354,65.186L56.631,67.64C56.882,68.071 57.083,68.53 57.229,69.008C57.305,69.275 57.325,69.556 57.286,69.832C57.248,70.108 57.153,70.373 57.007,70.61C56.789,70.965 56.479,71.254 56.11,71.449C55.741,71.643 55.327,71.734 54.911,71.713L54.911,71.716Z" fill="#333E48"/>
<path d="M59.705,67.453L59.577,67.543L60.431,68.735L59.096,69.701L55.683,64.969L57.269,63.828C57.662,63.538 58.14,63.385 58.629,63.393C58.972,63.403 59.308,63.492 59.611,63.653C59.914,63.815 60.176,64.045 60.375,64.325C60.574,64.605 60.705,64.927 60.759,65.266C60.812,65.606 60.786,65.953 60.683,66.28C60.683,66.28 60.683,66.28 60.683,66.296L62.614,67.183L61.166,68.222L59.705,67.453ZM58.209,65.113L57.961,65.292L58.645,66.248L58.928,66.045C59.036,65.988 59.12,65.893 59.162,65.778C59.204,65.663 59.201,65.536 59.155,65.423C59.107,65.309 59.034,65.207 58.941,65.126C58.841,65.037 58.712,64.987 58.578,64.985C58.443,64.982 58.313,65.028 58.209,65.113Z" fill="#333E48"/>
<path d="M37.405,63.92C52.902,63.92 65.465,51.357 65.465,35.86C65.465,20.362 52.902,7.799 37.405,7.799C21.908,7.799 9.345,20.362 9.345,35.86C9.345,51.357 21.908,63.92 37.405,63.92Z" transform="rotate(-161.64 37.405 35.86)" fill="#0055B8"/>
<g opacity="0.7" style="mix-blend-mode:multiply">
<path d="M37.403,7.812C33.695,7.776 30.017,8.475 26.581,9.869C23.145,11.263 20.019,13.324 17.385,15.933C14.75,18.542 12.658,21.647 11.231,25.069C9.804,28.492 9.069,32.163 9.069,35.871C9.069,39.579 9.804,43.25 11.231,46.672C12.658,50.095 14.75,53.2 17.385,55.809C20.019,58.418 23.145,60.479 26.581,61.873C30.017,63.267 33.695,63.966 37.403,63.93L37.403,7.812Z" fill="#3FBFAD"/>
</g>
<path d="M30.365,28.575L30.368,25.616L20.825,19.032L27.408,28.575L30.365,28.575Z" fill="#FED771"/>
<g style="mix-blend-mode:multiply">
<path d="M20.825,19.032L27.408,28.575L30.365,28.575L20.825,19.032Z" fill="#FADF8D"/>
</g>
<path d="M30.365,28.575L27.408,28.575L20.825,38.116L30.365,31.532L30.365,28.575Z" fill="#FED771"/>
<g style="mix-blend-mode:multiply">
<path d="M20.825,38.116L30.365,31.532L30.365,28.575L20.825,38.116Z" fill="#FADF8D"/>
</g>
<path d="M30.365,28.575L30.365,31.532L39.908,38.116L33.325,28.575L30.365,28.575Z" fill="#FED771"/>
<g style="mix-blend-mode:multiply">
<path d="M39.908,38.116L33.325,28.575L30.365,28.575L39.908,38.116Z" fill="#FADF8D"/>
</g>
<path d="M30.365,28.575L33.325,28.575L39.908,19.032L30.365,25.616L30.365,28.575Z" fill="#FED771"/>
<g style="mix-blend-mode:multiply">
<path d="M39.908,19.032L30.365,25.616L30.365,28.575L39.908,19.032Z" fill="#FADF8D"/>
</g>
<path d="M30.365,28.575L33.135,25.808L30.365,13.621L27.598,25.808L30.365,28.575Z" fill="#FADF8D"/>
<g style="mix-blend-mode:multiply">
<path d="M30.365,13.621L27.598,25.808L30.365,28.575L30.365,13.621Z" fill="#DEBFA5"/>
</g>
<path d="M30.365,28.575L27.598,25.806L15.414,28.575L27.598,31.342L30.365,28.575Z" fill="#FADF8D"/>
<g style="mix-blend-mode:multiply">
<path d="M15.414,28.575L27.598,31.342L30.365,28.575L15.414,28.575Z" fill="#DEBFA5"/>
</g>
<path d="M30.365,28.575L27.598,31.342L30.365,43.527L33.135,31.342L30.365,28.575Z" fill="#FADF8D"/>
<g style="mix-blend-mode:multiply">
<path d="M30.365,43.527L33.135,31.342L30.365,28.575L30.365,43.527Z" fill="#DEBFA5"/>
</g>
<path d="M30.365,28.575L33.135,31.342L45.32,28.575L33.135,25.806L30.365,28.575Z" fill="#FADF8D"/>
<g style="mix-blend-mode:multiply">
<path d="M45.32,28.575L33.135,25.806L30.365,28.575L45.32,28.575Z" fill="#DEBFA5"/>
</g>
<path d="M42.539,26.051C41.324,26.05 40.121,26.289 38.999,26.754C37.876,27.219 36.856,27.9 35.997,28.759C35.138,29.618 34.456,30.638 33.991,31.76C33.527,32.882 33.287,34.085 33.287,35.3L33.287,45.134L8.945,45.134C8.913,47.968 9.444,50.779 10.506,53.406C11.568,56.032 13.141,58.422 15.134,60.437C17.126,62.452 19.498,64.051 22.113,65.143C24.728,66.235 27.533,66.797 30.367,66.797C33.2,66.797 36.005,66.235 38.62,65.143C41.235,64.051 43.607,62.452 45.599,60.437C47.592,58.422 49.165,56.032 50.227,53.406C51.289,50.779 51.82,47.968 51.788,45.134L51.788,35.3C51.789,34.085 51.55,32.882 51.085,31.76C50.62,30.638 49.939,29.618 49.08,28.759C48.221,27.9 47.201,27.219 46.079,26.754C44.957,26.289 43.754,26.05 42.539,26.051Z" fill="#FFFFFF"/>
<path d="M11.282,45.135C11.258,46.735 11.553,48.325 12.149,49.811C12.745,51.296 13.63,52.649 14.754,53.789C15.877,54.929 17.216,55.835 18.693,56.453C20.17,57.071 21.755,57.389 23.355,57.389C24.956,57.389 26.541,57.071 28.018,56.453C29.494,55.835 30.833,54.929 31.957,53.789C33.08,52.649 33.966,51.296 34.562,49.811C35.158,48.325 35.453,46.735 35.429,45.135L11.282,45.135Z" fill="#D1D3D3"/>
<path d="M44.486,33.987C44.487,33.755 44.419,33.529 44.29,33.336C44.162,33.144 43.98,32.993 43.766,32.904C43.552,32.815 43.317,32.792 43.09,32.837C42.863,32.881 42.654,32.993 42.49,33.156C42.326,33.32 42.215,33.528 42.169,33.755C42.124,33.982 42.147,34.217 42.235,34.431C42.324,34.645 42.474,34.828 42.666,34.957C42.859,35.085 43.085,35.154 43.316,35.154C43.626,35.154 43.923,35.031 44.143,34.812C44.362,34.594 44.485,34.297 44.486,33.987Z" fill="#1E252B"/>
<path d="M57.523,38.177C57.522,37.535 57.267,36.919 56.812,36.465C56.358,36.012 55.742,35.757 55.1,35.757L51.789,35.757L51.789,38.177L57.523,38.177Z" fill="#FFB700"/>
<path d="M56.759,38.177C56.759,38.819 56.504,39.435 56.05,39.89C55.595,40.344 54.979,40.599 54.337,40.599L51.789,40.599L51.789,38.177L56.759,38.177Z" fill="#D49000"/>
<path d="M37.403,65.378C31.564,65.378 25.857,63.647 21.001,60.404C16.146,57.16 12.362,52.55 10.127,47.155C7.893,41.761 7.308,35.825 8.446,30.099C9.585,24.372 12.397,19.111 16.525,14.983C20.654,10.854 25.914,8.042 31.64,6.902C37.367,5.763 43.303,6.348 48.697,8.582C54.092,10.816 58.703,14.6 61.947,19.455C65.191,24.31 66.922,30.017 66.922,35.856C66.913,43.683 63.801,51.186 58.267,56.721C52.733,62.255 45.23,65.368 37.403,65.378ZM37.403,9.26C32.142,9.26 27,10.82 22.625,13.743C18.251,16.665 14.842,20.82 12.829,25.68C10.815,30.541 10.289,35.889 11.315,41.049C12.342,46.209 14.875,50.949 18.596,54.668C22.316,58.388 27.056,60.921 32.216,61.948C37.376,62.974 42.724,62.446 47.584,60.433C52.445,58.419 56.599,55.009 59.521,50.635C62.444,46.26 64.003,41.117 64.003,35.856C63.994,28.805 61.189,22.044 56.202,17.058C51.216,12.072 44.455,9.267 37.403,9.26Z" fill="#7C6755"/>
<g style="mix-blend-mode:multiply">
<path d="M12.139,27.279L12.19,27.378C12.276,27.111 12.366,26.871 12.457,26.62C12.19,26.085 11.923,25.466 11.744,25.017C11.504,24.419 11.255,23.716 10.988,22.88C10.988,22.84 10.964,22.8 10.953,22.76C10.828,23.014 10.705,23.27 10.585,23.527C10.799,24.173 11.004,24.739 11.205,25.236C11.6,26.174 11.888,26.807 12.139,27.279ZM11.071,40.1L11.164,40.164C11.122,39.897 11.082,39.629 11.044,39.362C10.649,39.069 10.144,38.684 9.674,38.294C9.204,37.904 8.472,37.244 8.007,36.758L7.903,36.651C7.903,36.943 7.925,37.228 7.941,37.517C8.379,37.939 8.902,38.398 9.292,38.737C9.931,39.272 10.633,39.787 11.06,40.1L11.071,40.1ZM10.753,35.089C10.777,35.116 10.801,35.137 10.825,35.161C10.825,34.894 10.844,34.627 10.857,34.36C10.483,33.957 10.072,33.476 9.709,33.038C9.175,32.399 8.702,31.716 8.352,31.224C8.325,31.184 8.304,31.147 8.277,31.109C8.232,31.376 8.192,31.67 8.154,31.951C8.47,32.394 8.849,32.912 9.257,33.409C9.725,33.986 10.278,34.63 10.742,35.089L10.753,35.089ZM11.159,31.131C11.181,31.16 11.202,31.187 11.221,31.216C11.269,30.949 11.319,30.682 11.373,30.415C11.106,30.028 10.796,29.539 10.433,28.933C10.019,28.244 9.658,27.525 9.364,26.937C9.346,26.897 9.33,26.857 9.311,26.82C9.223,27.087 9.14,27.354 9.06,27.621C9.314,28.118 9.594,28.674 9.933,29.224C10.422,30.076 10.823,30.693 11.148,31.131L11.159,31.131ZM11.99,43.97L12.099,44.02C12.014,43.753 11.934,43.502 11.859,43.241C11.402,42.997 10.863,42.706 10.337,42.375C9.535,41.87 8.886,41.43 8.467,41.104L8.352,41.016C8.403,41.299 8.456,41.582 8.515,41.865C8.916,42.151 9.423,42.487 10.032,42.869C10.718,43.31 11.474,43.705 11.979,43.97L11.99,43.97ZM13.48,47.658L13.6,47.693C13.477,47.45 13.36,47.204 13.245,46.958C12.633,46.745 12.091,46.536 11.605,46.328C10.689,45.927 10.021,45.61 9.562,45.353L9.439,45.286C9.53,45.554 9.629,45.821 9.728,46.101C10.158,46.317 10.697,46.568 11.373,46.865C11.976,47.127 12.663,47.386 13.469,47.658L13.48,47.658ZM21.909,57.458C21.69,57.3 21.474,57.137 21.26,56.974C20.772,57.049 20.173,57.121 19.508,57.185C18.793,57.233 17.89,57.287 17.243,57.276L17.121,57.276C17.326,57.471 17.54,57.666 17.754,57.856C18.333,57.856 18.996,57.805 19.554,57.767C20.451,57.679 21.223,57.58 21.789,57.479L21.909,57.458ZM25.285,59.528C25.048,59.405 24.813,59.277 24.578,59.148C24.062,59.309 23.456,59.463 22.874,59.613C22.099,59.789 21.271,59.95 20.651,60.04L20.529,60.056C20.764,60.222 20.999,60.382 21.239,60.537C21.773,60.446 22.404,60.321 23.013,60.182C23.776,59.987 24.575,59.779 25.176,59.565L25.285,59.528ZM15.617,51.101C15.462,50.879 15.312,50.655 15.163,50.428C14.645,50.332 14.041,50.198 13.44,50.051C12.695,49.846 11.854,49.608 11.274,49.389L11.148,49.346C11.282,49.613 11.416,49.854 11.557,50.107C12.091,50.281 12.716,50.457 13.293,50.615C14.094,50.812 14.896,50.981 15.497,51.082L15.617,51.101ZM18.13,54.17C17.943,53.975 17.762,53.774 17.596,53.574C17.062,53.555 16.437,53.507 15.833,53.454C14.97,53.355 14.153,53.235 13.592,53.123L13.469,53.099C13.638,53.331 13.809,53.561 13.985,53.788C14.495,53.873 15.112,53.959 15.774,54.036C16.576,54.106 17.377,54.175 18.021,54.167L18.13,54.17ZM61.337,24.058L61.22,24.021C61.339,24.265 61.456,24.511 61.572,24.758C62.181,24.972 62.723,25.177 63.212,25.386C64.128,25.786 64.796,26.107 65.255,26.363L65.378,26.43C65.287,26.163 65.189,25.896 65.09,25.629C64.662,25.41 64.12,25.159 63.444,24.862C62.83,24.59 62.144,24.331 61.337,24.058ZM28.923,61.071C28.67,60.983 28.416,60.895 28.165,60.804C27.63,61.071 27.011,61.338 26.562,61.515C25.964,61.758 25.264,62.006 24.425,62.273L24.303,62.308C24.57,62.433 24.813,62.556 25.069,62.677C25.718,62.46 26.282,62.257 26.778,62.057C27.724,61.664 28.357,61.376 28.827,61.125L28.923,61.071ZM34.986,8.116C35.414,7.624 36.036,6.917 36.522,6.452L36.626,6.348C36.338,6.348 36.052,6.369 35.763,6.385C35.341,6.823 34.882,7.344 34.543,7.737C33.99,8.383 33.496,9.072 33.162,9.515C33.138,9.547 33.119,9.577 33.098,9.609C33.365,9.566 33.632,9.526 33.899,9.489C34.206,9.085 34.583,8.591 34.986,8.116ZM62.827,27.747L62.718,27.693C62.803,27.96 62.884,28.214 62.958,28.476C63.415,28.719 63.955,29.01 64.481,29.341C65.282,29.846 65.931,30.284 66.35,30.613L66.465,30.698C66.417,30.415 66.361,30.132 66.302,29.851C65.902,29.566 65.394,29.229 64.785,28.844C64.083,28.404 63.335,28.011 62.827,27.747ZM30.886,8.783C31.394,7.982 31.832,7.331 32.158,6.914L32.246,6.796C31.96,6.847 31.68,6.903 31.396,6.959C31.111,7.363 30.774,7.87 30.392,8.476C29.949,9.184 29.556,9.937 29.292,10.442L29.238,10.549C29.506,10.466 29.759,10.386 30.021,10.311C30.264,9.844 30.558,9.307 30.886,8.781L30.886,8.783ZM15.793,20.231C15.793,20.274 15.806,20.314 15.814,20.354C15.972,20.135 16.132,19.918 16.298,19.705C16.223,19.213 16.151,18.618 16.087,17.95C16.039,17.237 15.983,16.347 15.996,15.688L15.996,15.557C15.798,15.765 15.606,15.979 15.414,16.193C15.414,16.772 15.467,17.434 15.505,17.993C15.579,18.895 15.681,19.667 15.793,20.231ZM13.707,23.62L13.745,23.73C13.867,23.492 13.996,23.254 14.124,23.019C13.964,22.504 13.806,21.9 13.659,21.318C13.48,20.543 13.323,19.715 13.232,19.096C13.232,19.053 13.218,19.013 13.213,18.973C13.05,19.205 12.89,19.443 12.732,19.681C12.826,20.215 12.951,20.845 13.09,21.457C13.274,22.234 13.483,23.017 13.696,23.62L13.707,23.62ZM19.818,14.272C19.917,13.409 20.037,12.595 20.147,12.034L20.171,11.911C19.941,12.079 19.711,12.25 19.484,12.424C19.399,12.937 19.313,13.551 19.236,14.213C19.166,15.015 19.102,15.829 19.102,16.462L19.102,16.582C19.296,16.404 19.494,16.226 19.695,16.048C19.703,15.501 19.754,14.876 19.799,14.272L19.818,14.272ZM26.944,10.049C27.345,9.131 27.663,8.466 27.919,8.004L27.986,7.881C27.719,7.974 27.452,8.07 27.171,8.172C26.955,8.599 26.704,9.141 26.407,9.817C26.14,10.429 25.873,11.115 25.606,11.924C25.606,11.967 25.582,12.005 25.569,12.042C25.814,11.922 26.057,11.802 26.306,11.689C26.517,11.078 26.725,10.536 26.933,10.049L26.944,10.049ZM23.221,11.895C23.427,11.147 23.664,10.306 23.883,9.729C23.883,9.684 23.913,9.644 23.926,9.603C23.67,9.737 23.416,9.873 23.165,10.012C22.994,10.533 22.823,11.145 22.657,11.748C22.46,12.549 22.289,13.351 22.19,13.949C22.19,13.992 22.19,14.032 22.171,14.072C22.393,13.917 22.617,13.765 22.842,13.618C22.93,13.1 23.063,12.493 23.21,11.895L23.221,11.895ZM59.024,51.483C59.024,51.44 59.011,51.403 59.003,51.363C58.845,51.582 58.685,51.798 58.519,52.012C58.594,52.5 58.666,53.099 58.73,53.764C58.778,54.48 58.834,55.38 58.821,56.029L58.821,56.154C59.019,55.946 59.211,55.735 59.403,55.521C59.403,54.942 59.35,54.277 59.313,53.718C59.227,52.821 59.126,52.049 59.024,51.483ZM61.228,18.591L61.35,18.615C61.183,18.382 61.012,18.152 60.838,17.926C60.325,17.84 59.711,17.755 59.048,17.68C58.247,17.611 57.446,17.547 56.807,17.547L56.676,17.547C56.863,17.742 57.045,17.939 57.224,18.14C57.758,18.158 58.383,18.209 58.989,18.26C59.863,18.361 60.664,18.479 61.228,18.591ZM61.11,48.096C61.11,48.056 61.086,48.021 61.073,47.984C60.95,48.224 60.822,48.459 60.693,48.694C60.854,49.21 61.011,49.814 61.158,50.396C61.337,51.173 61.495,51.998 61.585,52.621C61.585,52.663 61.599,52.701 61.604,52.744C61.767,52.508 61.927,52.271 62.085,52.033C61.991,51.499 61.866,50.869 61.727,50.26C61.532,49.496 61.324,48.697 61.11,48.096ZM63.533,22.325L63.658,22.37C63.525,22.114 63.388,21.86 63.249,21.609C62.729,21.438 62.117,21.265 61.513,21.099C60.712,20.904 59.911,20.733 59.31,20.634L59.19,20.616C59.345,20.837 59.494,21.059 59.644,21.286C60.162,21.385 60.768,21.516 61.366,21.665C62.152,21.882 62.956,22.109 63.533,22.325ZM54.986,57.442C54.887,58.304 54.767,59.122 54.657,59.682C54.657,59.725 54.641,59.763 54.631,59.803C54.866,59.637 55.093,59.463 55.32,59.29C55.408,58.777 55.493,58.163 55.568,57.5C55.637,56.699 55.702,55.898 55.702,55.254L55.702,55.131C55.507,55.316 55.309,55.497 55.109,55.679C55.103,56.216 55.055,56.838 54.999,57.442L54.986,57.442ZM57.56,14.44L57.686,14.44C57.475,14.243 57.264,14.05 57.05,13.858C56.471,13.872 55.806,13.909 55.25,13.949C54.353,14.034 53.581,14.133 53.015,14.235L52.894,14.259C53.113,14.416 53.33,14.577 53.543,14.742C54.032,14.667 54.631,14.595 55.298,14.531C56.025,14.489 56.925,14.427 57.574,14.44L57.56,14.44ZM64.051,36.627L63.979,36.553C63.979,36.82 63.96,37.087 63.947,37.354C64.323,37.76 64.732,38.241 65.095,38.689C65.629,39.325 66.102,40.009 66.452,40.503L66.527,40.615C66.572,40.348 66.612,40.057 66.649,39.774C66.334,39.33 65.952,38.812 65.546,38.315C65.082,37.725 64.529,37.087 64.064,36.627L64.051,36.627ZM62.654,44.434C62.635,44.402 62.619,44.37 62.603,44.338C62.518,44.592 62.427,44.846 62.336,45.097C62.603,45.631 62.87,46.251 63.049,46.699C63.29,47.3 63.538,48 63.805,48.836C63.818,48.879 63.829,48.916 63.84,48.956C63.965,48.702 64.088,48.449 64.208,48.19C63.995,47.543 63.789,46.98 63.589,46.48C63.207,45.54 62.918,44.907 62.667,44.434L62.654,44.434ZM66.863,34.218C66.425,33.796 65.904,33.337 65.512,32.998C64.863,32.445 64.16,31.929 63.733,31.617L63.639,31.55C63.682,31.819 63.722,32.086 63.76,32.351C64.155,32.648 64.66,33.032 65.13,33.42C65.6,33.807 66.332,34.469 66.796,34.955L66.901,35.06C66.906,34.787 66.893,34.504 66.877,34.218L66.863,34.218ZM63.645,40.586L63.583,40.498C63.535,40.765 63.484,41.032 63.431,41.299C63.698,41.683 64.008,42.172 64.374,42.778C64.785,43.47 65.146,44.186 65.442,44.776L65.496,44.894C65.584,44.627 65.667,44.36 65.747,44.093C65.493,43.596 65.213,43.038 64.873,42.49C64.385,41.641 63.984,41.021 63.658,40.586L63.645,40.586ZM39.831,63.598C39.404,64.092 38.781,64.8 38.295,65.265L38.191,65.369C38.48,65.369 38.768,65.347 39.054,65.331C39.476,64.893 39.935,64.37 40.275,63.98C40.83,63.328 41.343,62.626 41.655,62.201L41.722,62.105C41.455,62.15 41.188,62.19 40.921,62.225C40.606,62.623 40.224,63.128 39.831,63.598ZM51.607,59.821C51.401,60.567 51.164,61.408 50.947,61.987C50.931,62.03 50.915,62.07 50.902,62.11C51.158,61.979 51.412,61.842 51.663,61.702C51.834,61.184 52.008,60.572 52.171,59.968C52.368,59.167 52.539,58.366 52.638,57.765C52.638,57.722 52.651,57.682 52.657,57.642C52.435,57.797 52.211,57.949 51.986,58.099C51.877,58.614 51.743,59.22 51.596,59.821L51.607,59.821ZM41.324,6.596C40.881,6.914 40.36,7.293 39.866,7.702C39.292,8.18 38.643,8.73 38.183,9.195L38.108,9.267C38.376,9.267 38.643,9.288 38.91,9.302C39.313,8.925 39.794,8.516 40.232,8.151C40.867,7.616 41.567,7.146 42.045,6.796L42.157,6.722C41.874,6.676 41.594,6.633 41.313,6.596L41.324,6.596ZM44.318,8.88C45.007,8.468 45.726,8.108 46.313,7.811L46.431,7.758C46.164,7.67 45.897,7.587 45.63,7.507C45.133,7.758 44.575,8.041 44.027,8.38C43.196,8.882 42.577,9.283 42.141,9.609L42.056,9.67C42.323,9.718 42.59,9.769 42.857,9.822C43.22,9.553 43.709,9.24 44.318,8.88ZM34.58,63.563C33.945,64.097 33.261,64.57 32.767,64.917L32.654,64.995C32.922,65.04 33.213,65.08 33.493,65.118C33.937,64.803 34.457,64.421 34.951,64.015C35.526,63.534 36.175,62.984 36.634,62.519L36.709,62.447C36.442,62.447 36.175,62.428 35.908,62.412C35.499,62.789 35.024,63.197 34.58,63.563ZM32.761,62.052C32.494,62.003 32.227,61.953 31.96,61.897C31.575,62.164 31.087,62.474 30.478,62.839C29.789,63.253 29.07,63.614 28.483,63.908L28.365,63.961C28.632,64.047 28.899,64.132 29.166,64.21C29.663,63.959 30.221,63.675 30.769,63.339C31.599,62.837 32.219,62.433 32.654,62.11L32.761,62.052ZM54.166,11.673L54.289,11.657C54.054,11.494 53.819,11.334 53.578,11.177C53.044,11.27 52.416,11.396 51.805,11.535C51.044,11.729 50.248,11.935 49.641,12.151L49.532,12.189C49.77,12.312 50.005,12.44 50.24,12.568C50.758,12.408 51.361,12.25 51.944,12.101C52.718,11.924 53.549,11.764 54.166,11.673ZM47.876,61.667C47.473,62.583 47.155,63.248 46.898,63.71L46.832,63.833C47.099,63.74 47.366,63.643 47.633,63.545C47.849,63.115 48.103,62.572 48.397,61.899C48.664,61.285 48.917,60.599 49.198,59.789L49.235,59.672C48.99,59.795 48.747,59.912 48.498,60.027C48.29,60.636 48.082,61.178 47.876,61.667ZM43.92,62.936C43.415,63.737 42.975,64.386 42.649,64.805L42.561,64.92C42.847,64.869 43.13,64.816 43.41,64.757C43.696,64.357 44.032,63.849 44.414,63.24C44.855,62.532 45.234,61.811 45.515,61.274L45.568,61.167C45.301,61.25 45.047,61.333 44.786,61.408C44.543,61.87 44.249,62.409 43.92,62.936ZM50.384,9.446L50.515,9.414C50.262,9.286 50.005,9.163 49.745,9.045C49.099,9.259 48.536,9.465 48.039,9.665C47.096,10.058 46.463,10.346 45.99,10.597L45.891,10.648C46.158,10.733 46.399,10.824 46.65,10.915C47.061,10.715 47.585,10.482 48.252,10.202C48.851,9.961 49.55,9.713 50.384,9.446Z" fill="#C3C6C8"/>
</g>
<path d="M50.653,22.302C50.653,22.064 50.583,21.831 50.451,21.634C50.319,21.436 50.131,21.282 49.911,21.191C49.692,21.1 49.45,21.076 49.217,21.123C48.984,21.169 48.77,21.284 48.602,21.452C48.433,21.62 48.319,21.834 48.273,22.067C48.226,22.3 48.25,22.542 48.341,22.761C48.432,22.981 48.586,23.169 48.784,23.301C48.981,23.433 49.214,23.503 49.451,23.503C49.77,23.503 50.076,23.377 50.301,23.151C50.527,22.926 50.653,22.62 50.653,22.302Z" fill="#FFFFFF"/>
<path d="M58.725,49.037C58.724,48.8 58.653,48.567 58.521,48.37C58.388,48.173 58.2,48.019 57.981,47.929C57.761,47.838 57.52,47.815 57.287,47.861C57.054,47.908 56.84,48.023 56.672,48.191C56.504,48.359 56.39,48.573 56.344,48.806C56.298,49.039 56.322,49.281 56.413,49.5C56.504,49.72 56.658,49.907 56.855,50.039C57.053,50.171 57.285,50.242 57.523,50.242C57.842,50.241 58.147,50.114 58.373,49.888C58.598,49.662 58.725,49.356 58.725,49.037Z" fill="#FFFFFF"/>
<path d="M17.817,39.389C17.817,39.152 17.747,38.919 17.615,38.722C17.483,38.524 17.295,38.37 17.075,38.279C16.856,38.188 16.614,38.164 16.381,38.211C16.148,38.257 15.934,38.371 15.766,38.54C15.598,38.708 15.483,38.922 15.437,39.155C15.39,39.388 15.414,39.63 15.505,39.849C15.596,40.069 15.75,40.257 15.948,40.389C16.145,40.521 16.378,40.591 16.615,40.591C16.934,40.591 17.24,40.465 17.465,40.239C17.691,40.014 17.817,39.708 17.817,39.389Z" fill="#FFFFFF"/>
<path d="M38.605,14.834C38.605,14.596 38.534,14.364 38.402,14.166C38.27,13.968 38.083,13.814 37.863,13.723C37.643,13.632 37.402,13.609 37.169,13.655C36.935,13.701 36.721,13.816 36.553,13.984C36.385,14.152 36.271,14.366 36.224,14.599C36.178,14.832 36.202,15.074 36.293,15.294C36.384,15.513 36.538,15.701 36.735,15.833C36.933,15.965 37.165,16.036 37.403,16.036C37.722,16.036 38.028,15.909 38.253,15.684C38.478,15.458 38.605,15.152 38.605,14.834Z" fill="#FFFFFF"/>
<path d="M74.819,33.233C74.819,32.734 74.672,32.247 74.394,31.832C74.117,31.418 73.723,31.094 73.262,30.904C72.802,30.713 72.294,30.663 71.805,30.761C71.316,30.858 70.867,31.098 70.514,31.451C70.162,31.804 69.922,32.254 69.825,32.743C69.728,33.232 69.778,33.739 69.97,34.2C70.161,34.661 70.484,35.054 70.899,35.331C71.314,35.608 71.802,35.755 72.301,35.755C72.632,35.755 72.96,35.689 73.265,35.563C73.571,35.436 73.849,35.25 74.083,35.016C74.317,34.782 74.502,34.504 74.629,34.198C74.755,33.892 74.82,33.564 74.819,33.233Z" fill="#61B4E4"/>
<path d="M0,33.233C0,32.734 0.148,32.247 0.425,31.832C0.702,31.418 1.096,31.094 1.557,30.904C2.018,30.713 2.525,30.663 3.014,30.761C3.503,30.858 3.953,31.098 4.305,31.451C4.658,31.804 4.898,32.254 4.994,32.743C5.092,33.232 5.041,33.739 4.85,34.2C4.659,34.661 4.335,35.054 3.92,35.331C3.505,35.608 3.017,35.755 2.519,35.755C2.188,35.755 1.86,35.689 1.554,35.563C1.248,35.436 0.971,35.25 0.737,35.016C0.503,34.782 0.317,34.504 0.191,34.198C0.065,33.892 0,33.564 0,33.233Z" fill="#61B4E4"/>
</svg>
