<svg width="66" height="68" viewBox="0 0 66 68" fill="none" xmlns="http://www.w3.org/2000/svg" xmlns:xlink="http://www.w3.org/1999/xlink">
<path d="M54.541,53.949L53.46,52.869C58.792,47.551 61.9,40.403 62.152,32.877L63.677,32.931C63.414,40.843 60.147,48.359 54.541,53.949Z" fill="#61B4E4"/>
<path d="M10.328,53.949C4.72,48.36 1.453,40.844 1.191,32.931L2.717,32.877C2.966,40.403 6.072,47.551 11.404,52.869L10.328,53.949Z" fill="#61B4E4"/>
<path d="M61.667,26.37C60.391,19.549 56.769,13.389 51.431,8.957C46.092,4.525 39.371,2.099 32.432,2.099C25.493,2.099 18.772,4.525 13.433,8.957C8.094,13.389 4.473,19.549 3.197,26.37L1.694,26.09C3.031,18.913 6.837,12.43 12.451,7.765C18.066,3.099 25.136,0.545 32.437,0.545C39.737,0.545 46.807,3.099 52.422,7.765C58.037,12.43 61.842,18.913 63.179,26.09L61.667,26.37Z" fill="#61B4E4"/>
<path d="M12.243,60.484C11.123,59.666 11.169,58.239 11.94,57.128C12.711,56.017 14.015,55.423 15.2,56.196C15.553,56.453 15.818,56.812 15.96,57.224C16.101,57.637 16.113,58.083 15.992,58.502L14.614,57.922C14.616,57.817 14.594,57.712 14.55,57.617C14.505,57.522 14.438,57.439 14.355,57.374C13.908,57.095 13.412,57.496 13.114,57.929C12.848,58.315 12.601,58.937 13.056,59.296C13.169,59.366 13.302,59.399 13.435,59.39C13.568,59.381 13.695,59.331 13.798,59.247L13.258,58.863L13.817,58.073L15.631,59.359C14.846,60.484 13.61,61.371 12.243,60.484Z" fill="#333E48"/>
<path d="M14.793,62.083L17.271,57.635L18.533,58.333L16.055,62.784L14.793,62.083Z" fill="#333E48"/>
<path d="M19.921,64.57L16.951,63.277L19.005,58.619L20.365,59.22L18.819,62.727L20.424,63.426L19.921,64.57Z" fill="#333E48"/>
<path d="M20.652,64.812L22.266,59.984L23.636,60.45L22.024,65.278L20.652,64.812Z" fill="#333E48"/>
<path d="M23.85,65.765C23.645,65.653 23.471,65.493 23.342,65.299C23.156,65.021 23.045,64.7 23.019,64.367C23.012,64.29 23.012,64.212 23.019,64.134L24.465,64.134C24.461,64.169 24.461,64.204 24.465,64.239C24.459,64.323 24.485,64.406 24.537,64.472C24.553,64.493 24.575,64.508 24.6,64.516C24.65,64.537 24.706,64.537 24.756,64.516C24.788,64.505 24.818,64.487 24.842,64.463C24.893,64.419 24.933,64.365 24.961,64.304C25.09,64.02 25.185,63.721 25.243,63.415L25.804,61.002L27.201,61.328L26.631,63.743C26.547,64.171 26.41,64.588 26.223,64.982C26.033,65.351 25.727,65.647 25.352,65.825C25.015,65.981 24.636,66.02 24.274,65.937C24.124,65.903 23.981,65.845 23.85,65.765Z" fill="#333E48"/>
<path d="M28.888,62.991L28.851,63.345L30.523,63.519L30.385,64.84L28.713,64.665L28.657,65.182L30.546,65.38L30.395,66.815L27.071,66.473L27.602,61.414L30.926,61.756L30.774,63.191L28.888,62.991Z" fill="#333E48"/>
<path d="M34.817,63.149L33.785,63.168L33.855,66.812L32.413,66.843L32.341,63.198L31.316,63.217L31.286,61.773L34.78,61.705L34.817,63.149Z" fill="#333E48"/>
<path d="M40.577,62.173L39.566,62.385L40.309,65.953L38.895,66.249L38.152,62.679L37.148,62.888L36.853,61.475L40.281,60.76L40.577,62.173Z" fill="#333E48"/>
<path d="M44.098,64.909C43.815,65.013 43.512,65.053 43.211,65.023C42.91,64.994 42.62,64.896 42.363,64.738C41.807,64.382 41.391,63.845 41.185,63.218C40.941,62.605 40.907,61.928 41.089,61.294C41.183,61.004 41.342,60.739 41.554,60.52C41.766,60.301 42.025,60.133 42.312,60.029L42.326,60.029C42.61,59.927 42.914,59.89 43.215,59.921C43.515,59.951 43.805,60.049 44.063,60.206C44.62,60.562 45.036,61.1 45.242,61.727C45.486,62.34 45.52,63.017 45.337,63.651C45.245,63.94 45.086,64.204 44.875,64.421C44.664,64.639 44.405,64.805 44.119,64.906L44.105,64.906L44.098,64.909ZM42.468,61.746C42.406,62.071 42.434,62.406 42.548,62.716C42.663,63.027 42.859,63.3 43.118,63.506C43.194,63.551 43.28,63.579 43.368,63.588C43.457,63.596 43.546,63.585 43.63,63.555C43.712,63.526 43.787,63.479 43.847,63.416C43.908,63.354 43.953,63.278 43.979,63.194C44.054,62.869 44.026,62.529 43.898,62.221C43.796,61.905 43.597,61.63 43.33,61.434C43.253,61.387 43.167,61.359 43.078,61.35C42.989,61.342 42.899,61.354 42.815,61.385C42.73,61.41 42.653,61.455 42.59,61.517C42.526,61.578 42.478,61.653 42.449,61.736L42.468,61.746Z" fill="#333E48"/>
<path d="M47.698,63.106C47.454,63.095 47.216,63.033 46.997,62.925C46.779,62.817 46.585,62.664 46.429,62.478C46.158,62.137 45.927,61.765 45.741,61.371L44.614,59.231L45.893,58.558L47.02,60.698C47.155,60.99 47.32,61.267 47.511,61.525C47.545,61.569 47.589,61.605 47.638,61.629C47.688,61.654 47.743,61.667 47.798,61.667C47.893,61.665 47.986,61.641 48.07,61.597C48.157,61.556 48.233,61.493 48.289,61.416C48.321,61.37 48.342,61.318 48.35,61.263C48.357,61.207 48.352,61.151 48.334,61.099C48.229,60.795 48.094,60.502 47.931,60.225L46.806,58.085L48.084,57.412L49.198,59.552C49.417,59.928 49.592,60.329 49.719,60.745C49.786,60.978 49.803,61.223 49.769,61.464C49.736,61.704 49.653,61.935 49.526,62.142C49.335,62.452 49.065,62.704 48.744,62.873C48.422,63.043 48.061,63.122 47.698,63.104L47.698,63.106Z" fill="#333E48"/>
<path d="M51.878,59.39L51.767,59.469L52.512,60.508L51.347,61.351L48.371,57.224L49.754,56.229C50.097,55.976 50.514,55.843 50.94,55.85C51.239,55.858 51.533,55.936 51.797,56.077C52.061,56.218 52.289,56.419 52.462,56.663C52.636,56.907 52.751,57.188 52.797,57.483C52.844,57.779 52.821,58.082 52.731,58.367C52.731,58.367 52.731,58.367 52.731,58.381L54.415,59.155L53.152,60.061L51.878,59.39ZM50.574,57.35L50.358,57.506L50.954,58.34L51.201,58.163C51.295,58.113 51.368,58.03 51.405,57.93C51.442,57.829 51.439,57.719 51.399,57.62C51.357,57.52 51.294,57.432 51.212,57.361C51.125,57.284 51.012,57.24 50.895,57.238C50.779,57.236 50.665,57.275 50.574,57.35Z" fill="#333E48"/>
<path d="M32.434,56.309C45.947,56.309 56.902,45.354 56.902,31.841C56.902,18.327 45.947,7.373 32.434,7.373C18.921,7.373 7.966,18.327 7.966,31.841C7.966,45.354 18.921,56.309 32.434,56.309Z" transform="rotate(-161.64 32.434 31.841)" fill="#0055B8"/>
<g opacity="0.7" style="mix-blend-mode:multiply">
<path d="M32.432,7.384C29.199,7.352 25.992,7.962 22.996,9.177C20,10.393 17.274,12.19 14.977,14.465C12.679,16.74 10.856,19.448 9.611,22.432C8.366,25.416 7.726,28.618 7.726,31.851C7.726,35.084 8.366,38.285 9.611,41.269C10.856,44.254 12.679,46.961 14.977,49.236C17.274,51.512 20,53.309 22.996,54.524C25.992,55.74 29.199,56.349 32.432,56.318L32.432,7.384Z" fill="#3FBFAD"/>
</g>
<path d="M26.295,25.487L26.297,22.907L17.976,17.166L23.716,25.487L26.295,25.487Z" fill="#FED771"/>
<g style="mix-blend-mode:multiply">
<path d="M17.976,17.166L23.716,25.487L26.295,25.487L17.976,17.166Z" fill="#FADF8D"/>
</g>
<path d="M26.295,25.488L23.716,25.488L17.976,33.807L26.295,28.066L26.295,25.488Z" fill="#FED771"/>
<g style="mix-blend-mode:multiply">
<path d="M17.976,33.805L26.295,28.064L26.295,25.486L17.976,33.805Z" fill="#FADF8D"/>
</g>
<path d="M26.294,25.488L26.294,28.066L34.615,33.807L28.874,25.488L26.294,25.488Z" fill="#FED771"/>
<g style="mix-blend-mode:multiply">
<path d="M34.616,33.805L28.875,25.486L26.295,25.486L34.616,33.805Z" fill="#FADF8D"/>
</g>
<path d="M26.294,25.487L28.874,25.487L34.615,17.166L26.294,22.907L26.294,25.487Z" fill="#FED771"/>
<g style="mix-blend-mode:multiply">
<path d="M34.615,17.166L26.294,22.907L26.294,25.487L34.615,17.166Z" fill="#FADF8D"/>
</g>
<path d="M26.295,25.489L28.71,23.076L26.295,12.449L23.882,23.076L26.295,25.489Z" fill="#FADF8D"/>
<g style="mix-blend-mode:multiply">
<path d="M26.295,12.449L23.882,23.076L26.295,25.489L26.295,12.449Z" fill="#DEBFA5"/>
</g>
<path d="M26.294,25.487L23.882,23.072L13.257,25.487L23.882,27.9L26.294,25.487Z" fill="#FADF8D"/>
<g style="mix-blend-mode:multiply">
<path d="M13.258,25.486L23.882,27.899L26.295,25.486L13.258,25.486Z" fill="#DEBFA5"/>
</g>
<path d="M26.295,25.488L23.882,27.901L26.295,38.526L28.71,27.901L26.295,25.488Z" fill="#FADF8D"/>
<g style="mix-blend-mode:multiply">
<path d="M26.295,38.524L28.71,27.899L26.295,25.486L26.295,38.524Z" fill="#DEBFA5"/>
</g>
<path d="M26.294,25.487L28.709,27.9L39.334,25.487L28.709,23.072L26.294,25.487Z" fill="#FADF8D"/>
<g style="mix-blend-mode:multiply">
<path d="M39.334,25.487L28.709,23.072L26.294,25.487L39.334,25.487Z" fill="#DEBFA5"/>
</g>
<path d="M36.91,23.287C35.851,23.287 34.802,23.495 33.823,23.9C32.844,24.306 31.955,24.9 31.206,25.649C30.456,26.397 29.862,27.287 29.457,28.265C29.051,29.244 28.842,30.293 28.842,31.352L28.842,39.927L7.616,39.927C7.589,42.398 8.052,44.85 8.978,47.14C9.904,49.431 11.276,51.515 13.013,53.271C14.75,55.028 16.819,56.423 19.099,57.375C21.379,58.327 23.825,58.817 26.296,58.817C28.766,58.817 31.213,58.327 33.493,57.375C35.773,56.423 37.841,55.028 39.578,53.271C41.316,51.515 42.687,49.431 43.614,47.14C44.54,44.85 45.003,42.398 44.975,39.927L44.975,31.352C44.975,30.293 44.767,29.244 44.362,28.266C43.957,27.287 43.363,26.398 42.614,25.649C41.865,24.9 40.975,24.306 39.997,23.9C39.018,23.495 37.969,23.287 36.91,23.287Z" fill="#FFFFFF"/>
<path d="M9.654,39.928C9.633,41.323 9.89,42.709 10.409,44.005C10.929,45.3 11.701,46.48 12.681,47.474C13.661,48.468 14.828,49.258 16.116,49.797C17.404,50.336 18.786,50.614 20.182,50.614C21.577,50.614 22.959,50.336 24.247,49.797C25.535,49.258 26.702,48.468 27.682,47.474C28.662,46.48 29.434,45.3 29.954,44.005C30.473,42.709 30.73,41.323 30.71,39.928L9.654,39.928Z" fill="#D1D3D3"/>
<path d="M38.608,30.208C38.608,30.006 38.549,29.809 38.437,29.641C38.325,29.473 38.166,29.341 37.979,29.264C37.793,29.186 37.588,29.166 37.39,29.205C37.192,29.244 37.01,29.341 36.867,29.484C36.724,29.626 36.627,29.808 36.587,30.006C36.548,30.204 36.568,30.409 36.645,30.595C36.722,30.782 36.853,30.941 37.02,31.054C37.188,31.166 37.386,31.226 37.587,31.226C37.858,31.226 38.117,31.119 38.308,30.928C38.499,30.737 38.607,30.478 38.608,30.208Z" fill="#1E252B"/>
<path d="M49.975,33.862C49.974,33.302 49.751,32.765 49.355,32.37C48.959,31.974 48.422,31.752 47.863,31.752L44.975,31.752L44.975,33.862L49.975,33.862Z" fill="#FFB700"/>
<path d="M49.309,33.861C49.309,34.422 49.086,34.959 48.69,35.355C48.294,35.751 47.757,35.974 47.196,35.974L44.975,35.974L44.975,33.861L49.309,33.861Z" fill="#D49000"/>
<path d="M32.432,57.58C27.34,57.58 22.363,56.071 18.13,53.242C13.896,50.414 10.596,46.394 8.648,41.69C6.699,36.987 6.189,31.811 7.182,26.817C8.175,21.823 10.626,17.236 14.226,13.636C17.826,10.036 22.413,7.584 27.406,6.591C32.4,5.597 37.576,6.107 42.28,8.055C46.984,10.003 51.004,13.303 53.833,17.536C56.662,21.769 58.171,26.746 58.171,31.838C58.164,38.662 55.45,45.205 50.624,50.031C45.799,54.857 39.256,57.572 32.432,57.58ZM32.432,8.646C27.844,8.646 23.36,10.006 19.546,12.555C15.731,15.104 12.758,18.726 11.003,22.965C9.248,27.203 8.788,31.867 9.684,36.366C10.579,40.865 12.788,44.998 16.032,48.242C19.276,51.485 23.409,53.694 27.908,54.589C32.408,55.483 37.071,55.024 41.309,53.268C45.548,51.512 49.17,48.539 51.718,44.724C54.266,40.91 55.626,36.425 55.626,31.838C55.619,25.689 53.172,19.794 48.824,15.446C44.476,11.098 38.581,8.653 32.432,8.646Z" fill="#7C6755"/>
<g style="mix-blend-mode:multiply">
<path d="M10.403,24.357L10.447,24.444C10.521,24.211 10.601,24.001 10.68,23.782C10.447,23.316 10.214,22.776 10.058,22.385C9.848,21.863 9.632,21.251 9.399,20.522C9.399,20.487 9.378,20.452 9.369,20.417C9.259,20.638 9.152,20.862 9.047,21.085C9.234,21.649 9.413,22.143 9.588,22.576C9.932,23.393 10.184,23.945 10.403,24.357ZM9.471,35.536L9.553,35.592C9.515,35.359 9.48,35.126 9.448,34.894C9.103,34.637 8.663,34.302 8.253,33.962C7.843,33.622 7.205,33.047 6.8,32.623L6.709,32.53C6.709,32.784 6.728,33.033 6.742,33.284C7.124,33.652 7.58,34.053 7.92,34.349C8.477,34.814 9.089,35.264 9.462,35.536L9.471,35.536ZM9.194,31.167C9.215,31.191 9.236,31.209 9.257,31.23C9.257,30.997 9.273,30.764 9.285,30.531C8.959,30.18 8.6,29.761 8.283,29.379C7.818,28.822 7.405,28.226 7.1,27.797C7.077,27.762 7.058,27.73 7.035,27.697C6.995,27.93 6.961,28.186 6.928,28.431C7.203,28.817 7.533,29.269 7.89,29.702C8.297,30.205 8.779,30.767 9.185,31.167L9.194,31.167ZM9.548,27.716C9.567,27.741 9.585,27.765 9.602,27.79C9.643,27.557 9.688,27.324 9.734,27.092C9.501,26.754 9.231,26.328 8.915,25.799C8.554,25.198 8.239,24.572 7.983,24.059C7.967,24.024 7.953,23.99 7.936,23.957C7.859,24.19 7.787,24.423 7.717,24.656C7.939,25.089 8.183,25.573 8.479,26.053C8.905,26.796 9.255,27.334 9.539,27.716L9.548,27.716ZM10.272,38.911L10.368,38.955C10.293,38.722 10.223,38.503 10.158,38.275C9.76,38.063 9.289,37.809 8.831,37.521C8.132,37.08 7.566,36.696 7.2,36.412L7.1,36.335C7.144,36.582 7.191,36.829 7.242,37.076C7.592,37.325 8.034,37.618 8.565,37.952C9.164,38.336 9.823,38.68 10.263,38.911L10.272,38.911ZM11.572,42.127L11.677,42.158C11.57,41.946 11.467,41.731 11.367,41.517C10.834,41.331 10.361,41.149 9.937,40.968C9.138,40.618 8.556,40.341 8.155,40.117L8.048,40.059C8.127,40.292 8.213,40.525 8.3,40.77C8.675,40.958 9.145,41.177 9.734,41.436C10.261,41.664 10.859,41.89 11.563,42.127L11.572,42.127ZM18.922,50.672C18.731,50.535 18.542,50.393 18.356,50.251C17.93,50.316 17.408,50.379 16.828,50.435C16.204,50.477 15.417,50.523 14.853,50.514L14.746,50.514C14.926,50.684 15.112,50.854 15.298,51.019C15.804,51.019 16.381,50.975 16.868,50.942C17.65,50.866 18.323,50.779 18.817,50.691L18.922,50.672ZM21.866,52.477C21.659,52.37 21.454,52.258 21.249,52.146C20.799,52.286 20.27,52.421 19.763,52.552C19.087,52.705 18.365,52.845 17.825,52.924L17.718,52.938C17.923,53.083 18.128,53.222 18.337,53.358C18.803,53.278 19.353,53.169 19.884,53.048C20.55,52.878 21.246,52.696 21.77,52.51L21.866,52.477ZM13.435,45.129C13.3,44.936 13.17,44.74 13.039,44.542C12.587,44.459 12.061,44.342 11.537,44.214C10.887,44.035 10.154,43.827 9.648,43.636L9.539,43.599C9.655,43.832 9.772,44.042 9.895,44.263C10.361,44.414 10.906,44.568 11.409,44.705C12.108,44.878 12.806,45.025 13.33,45.113L13.435,45.129ZM15.627,47.805C15.464,47.635 15.305,47.461 15.161,47.286C14.695,47.27 14.15,47.228 13.624,47.181C12.871,47.095 12.159,46.99 11.67,46.892L11.563,46.871C11.709,47.074 11.858,47.274 12.012,47.472C12.457,47.547 12.995,47.621 13.572,47.689C14.271,47.749 14.97,47.81 15.531,47.803L15.627,47.805ZM53.302,21.549L53.2,21.516C53.304,21.729 53.406,21.943 53.507,22.159C54.038,22.345 54.511,22.525 54.937,22.706C55.736,23.056 56.318,23.335 56.719,23.559L56.826,23.617C56.747,23.384 56.66,23.151 56.574,22.918C56.202,22.727 55.729,22.508 55.14,22.25C54.604,22.012 54.005,21.786 53.302,21.549ZM25.038,53.823C24.817,53.746 24.595,53.67 24.376,53.59C23.911,53.823 23.37,54.056 22.979,54.21C22.457,54.422 21.847,54.638 21.116,54.871L21.009,54.902C21.242,55.011 21.454,55.118 21.677,55.223C22.243,55.034 22.735,54.857 23.168,54.683C23.992,54.34 24.544,54.089 24.954,53.87L25.038,53.823ZM30.325,7.647C30.697,7.219 31.24,6.602 31.664,6.196L31.755,6.105C31.503,6.105 31.254,6.124 31.002,6.138C30.634,6.52 30.234,6.974 29.938,7.317C29.456,7.88 29.025,8.481 28.734,8.868C28.713,8.896 28.697,8.921 28.678,8.949C28.911,8.912 29.144,8.877 29.377,8.844C29.645,8.493 29.973,8.062 30.325,7.647ZM54.602,24.765L54.506,24.718C54.581,24.951 54.651,25.173 54.716,25.401C55.114,25.613 55.584,25.867 56.043,26.155C56.742,26.596 57.308,26.977 57.673,27.264L57.774,27.338C57.732,27.092 57.683,26.845 57.632,26.6C57.282,26.351 56.84,26.058 56.309,25.722C55.696,25.338 55.044,24.996 54.602,24.765ZM26.75,8.229C27.192,7.531 27.574,6.963 27.858,6.599L27.935,6.497C27.686,6.541 27.441,6.59 27.194,6.639C26.945,6.99 26.652,7.433 26.319,7.962C25.932,8.579 25.59,9.236 25.359,9.676L25.313,9.769C25.546,9.697 25.767,9.627 25.995,9.562C26.207,9.154 26.463,8.686 26.75,8.227L26.75,8.229ZM13.589,18.211C13.589,18.249 13.6,18.284 13.607,18.318C13.745,18.128 13.884,17.939 14.029,17.753C13.964,17.324 13.901,16.805 13.845,16.222C13.803,15.601 13.754,14.825 13.766,14.25L13.766,14.136C13.593,14.317 13.426,14.504 13.258,14.69C13.258,15.195 13.305,15.773 13.337,16.26C13.402,17.047 13.491,17.72 13.589,18.211ZM11.77,21.167L11.802,21.262C11.91,21.055 12.021,20.848 12.133,20.643C11.993,20.193 11.856,19.667 11.728,19.159C11.572,18.484 11.434,17.762 11.355,17.222C11.355,17.184 11.344,17.149 11.339,17.114C11.197,17.317 11.057,17.524 10.92,17.732C11.001,18.197 11.111,18.747 11.232,19.28C11.393,19.958 11.574,20.64 11.76,21.167L11.77,21.167ZM17.098,13.015C17.185,12.263 17.289,11.553 17.385,11.064L17.406,10.957C17.206,11.103 17.005,11.252 16.807,11.404C16.733,11.851 16.658,12.387 16.591,12.964C16.53,13.663 16.474,14.373 16.474,14.925L16.474,15.03C16.644,14.875 16.816,14.719 16.991,14.564C16.998,14.087 17.043,13.542 17.082,13.015L17.098,13.015ZM23.312,9.333C23.661,8.532 23.939,7.952 24.162,7.549L24.22,7.442C23.987,7.524 23.755,7.608 23.51,7.696C23.321,8.069 23.102,8.542 22.844,9.131C22.611,9.664 22.378,10.263 22.145,10.968C22.145,11.006 22.124,11.038 22.113,11.071C22.327,10.966 22.539,10.861 22.755,10.763C22.939,10.23 23.121,9.757 23.303,9.333L23.312,9.333ZM20.066,10.943C20.245,10.291 20.452,9.557 20.643,9.054C20.643,9.014 20.669,8.979 20.68,8.944C20.457,9.061 20.236,9.18 20.017,9.301C19.868,9.755 19.719,10.288 19.574,10.815C19.402,11.513 19.253,12.212 19.167,12.734C19.167,12.771 19.167,12.806 19.15,12.841C19.344,12.706 19.539,12.573 19.735,12.445C19.812,11.993 19.928,11.464 20.056,10.943L20.066,10.943ZM51.285,45.462C51.285,45.425 51.274,45.393 51.267,45.358C51.129,45.549 50.989,45.737 50.845,45.924C50.91,46.35 50.973,46.871 51.029,47.451C51.071,48.075 51.12,48.86 51.108,49.426L51.108,49.536C51.281,49.354 51.448,49.17 51.616,48.984C51.616,48.478 51.569,47.898 51.537,47.412C51.462,46.629 51.374,45.956 51.285,45.462ZM53.207,16.781L53.314,16.802C53.168,16.599 53.019,16.399 52.867,16.201C52.419,16.127 51.884,16.052 51.306,15.987C50.607,15.927 49.909,15.871 49.352,15.871L49.238,15.871C49.401,16.041 49.559,16.213 49.715,16.388C50.181,16.404 50.726,16.448 51.255,16.493C52.016,16.581 52.715,16.684 53.207,16.781ZM53.104,42.509C53.104,42.474 53.083,42.444 53.071,42.411C52.964,42.621 52.853,42.826 52.741,43.031C52.881,43.48 53.018,44.007 53.146,44.514C53.302,45.192 53.439,45.912 53.519,46.455C53.519,46.492 53.53,46.524 53.535,46.562C53.677,46.357 53.817,46.149 53.954,45.942C53.873,45.476 53.763,44.927 53.642,44.396C53.472,43.73 53.29,43.033 53.104,42.509ZM55.216,20.037L55.326,20.077C55.209,19.853 55.091,19.632 54.97,19.413C54.515,19.264 53.982,19.113 53.456,18.968C52.757,18.798 52.058,18.649 51.534,18.563L51.43,18.547C51.565,18.74 51.695,18.933 51.825,19.131C52.277,19.217 52.806,19.332 53.328,19.462C54.012,19.651 54.713,19.849 55.216,20.037ZM47.764,50.658C47.678,51.411 47.573,52.123 47.477,52.612C47.477,52.65 47.463,52.682 47.454,52.717C47.659,52.573 47.857,52.421 48.055,52.27C48.132,51.823 48.206,51.287 48.271,50.71C48.332,50.011 48.388,49.312 48.388,48.751L48.388,48.644C48.218,48.804 48.046,48.963 47.871,49.121C47.866,49.589 47.824,50.132 47.775,50.658L47.764,50.658ZM50.009,13.162L50.118,13.162C49.934,12.99 49.75,12.822 49.564,12.654C49.059,12.666 48.479,12.699 47.994,12.734C47.212,12.808 46.539,12.894 46.045,12.983L45.94,13.004C46.131,13.141 46.32,13.281 46.506,13.425C46.932,13.36 47.454,13.297 48.036,13.241C48.67,13.204 49.455,13.151 50.021,13.162L50.009,13.162ZM55.668,32.509L55.605,32.444C55.605,32.676 55.589,32.909 55.577,33.142C55.906,33.496 56.262,33.915 56.579,34.307C57.045,34.861 57.457,35.457 57.762,35.888L57.827,35.986C57.867,35.753 57.902,35.499 57.934,35.252C57.66,34.866 57.326,34.414 56.972,33.981C56.567,33.466 56.085,32.909 55.68,32.509L55.668,32.509ZM54.45,39.316C54.434,39.288 54.42,39.26 54.406,39.232C54.331,39.454 54.252,39.675 54.173,39.894C54.406,40.36 54.639,40.9 54.795,41.291C55.005,41.815 55.221,42.425 55.454,43.154C55.466,43.192 55.475,43.224 55.484,43.259C55.594,43.038 55.701,42.817 55.806,42.591C55.619,42.027 55.44,41.536 55.265,41.1C54.932,40.28 54.681,39.729 54.462,39.316L54.45,39.316ZM58.121,30.408C57.739,30.04 57.285,29.639 56.942,29.344C56.376,28.862 55.764,28.412 55.391,28.14L55.31,28.081C55.347,28.316 55.382,28.549 55.414,28.78C55.759,29.039 56.199,29.374 56.609,29.712C57.019,30.049 57.657,30.627 58.062,31.051L58.153,31.142C58.158,30.904 58.146,30.657 58.132,30.408L58.121,30.408ZM55.314,35.96L55.261,35.883C55.219,36.116 55.175,36.349 55.128,36.582C55.361,36.917 55.631,37.344 55.95,37.872C56.309,38.476 56.623,39.1 56.882,39.614L56.928,39.717C57.005,39.484 57.077,39.251 57.147,39.018C56.926,38.585 56.681,38.098 56.386,37.621C55.959,36.88 55.61,36.34 55.326,35.96L55.314,35.96ZM34.549,56.027C34.177,56.457 33.634,57.075 33.21,57.48L33.119,57.571C33.371,57.571 33.622,57.552 33.872,57.538C34.24,57.156 34.64,56.7 34.936,56.36C35.42,55.791 35.867,55.179 36.14,54.808L36.198,54.725C35.965,54.764 35.732,54.799 35.5,54.829C35.225,55.176 34.892,55.617 34.549,56.027ZM44.818,52.733C44.638,53.383 44.431,54.117 44.242,54.622C44.228,54.659 44.214,54.694 44.203,54.729C44.426,54.614 44.648,54.496 44.867,54.373C45.016,53.921 45.167,53.388 45.309,52.861C45.481,52.163 45.63,51.464 45.717,50.94C45.717,50.903 45.728,50.868 45.733,50.833C45.54,50.968 45.344,51.101 45.148,51.231C45.053,51.681 44.936,52.209 44.808,52.733L44.818,52.733ZM35.851,6.322C35.465,6.599 35.01,6.93 34.58,7.286C34.079,7.703 33.513,8.183 33.112,8.588L33.047,8.651C33.28,8.651 33.513,8.67 33.746,8.681C34.097,8.353 34.517,7.997 34.899,7.678C35.453,7.212 36.063,6.802 36.48,6.497L36.578,6.432C36.331,6.392 36.086,6.355 35.842,6.322L35.851,6.322ZM38.462,8.313C39.063,7.955 39.689,7.64 40.202,7.382L40.304,7.335C40.071,7.258 39.838,7.186 39.605,7.116C39.172,7.335 38.686,7.582 38.208,7.878C37.484,8.316 36.943,8.665 36.564,8.949L36.489,9.003C36.722,9.045 36.955,9.089 37.188,9.135C37.505,8.9 37.931,8.628 38.462,8.313ZM29.971,55.996C29.416,56.462 28.82,56.874 28.389,57.177L28.291,57.245C28.524,57.284 28.778,57.319 29.023,57.352C29.409,57.077 29.863,56.744 30.294,56.39C30.795,55.971 31.361,55.491 31.762,55.086L31.827,55.023C31.594,55.023 31.361,55.006 31.128,54.992C30.772,55.321 30.357,55.677 29.971,55.996ZM28.385,54.678C28.152,54.636 27.919,54.592 27.686,54.543C27.351,54.776 26.924,55.046 26.393,55.365C25.792,55.726 25.166,56.04 24.654,56.297L24.551,56.343C24.784,56.418 25.017,56.492 25.25,56.56C25.683,56.341 26.17,56.094 26.647,55.801C27.371,55.363 27.912,55.011 28.291,54.729L28.385,54.678ZM47.049,10.749L47.156,10.735C46.951,10.593 46.746,10.454 46.536,10.316C46.071,10.398 45.523,10.507 44.99,10.628C44.326,10.798 43.632,10.978 43.104,11.166L43.008,11.199C43.215,11.306 43.42,11.418 43.625,11.53C44.077,11.39 44.603,11.252 45.111,11.122C45.787,10.968 46.511,10.829 47.049,10.749ZM41.564,54.343C41.212,55.142 40.935,55.721 40.712,56.124L40.653,56.231C40.886,56.15 41.119,56.066 41.352,55.98C41.541,55.605 41.762,55.132 42.018,54.545C42.251,54.01 42.472,53.411 42.717,52.705L42.75,52.603C42.535,52.71 42.323,52.813 42.107,52.913C41.925,53.444 41.743,53.916 41.564,54.343ZM38.115,55.449C37.675,56.148 37.29,56.714 37.006,57.079L36.93,57.179C37.179,57.135 37.426,57.089 37.67,57.037C37.919,56.688 38.213,56.245 38.546,55.714C38.93,55.097 39.261,54.468 39.505,54L39.552,53.907C39.319,53.979 39.098,54.052 38.87,54.117C38.658,54.52 38.401,54.99 38.115,55.449ZM43.751,8.807L43.865,8.779C43.645,8.667 43.421,8.56 43.194,8.458C42.631,8.644 42.139,8.823 41.706,8.998C40.884,9.34 40.332,9.592 39.92,9.811L39.834,9.855C40.067,9.93 40.276,10.009 40.495,10.088C40.854,9.913 41.31,9.711 41.893,9.466C42.414,9.257 43.024,9.04 43.751,8.807Z" fill="#C3C6C8"/>
</g>
<path d="M43.987,20.019C43.987,19.811 43.925,19.609 43.81,19.436C43.695,19.264 43.531,19.13 43.34,19.05C43.148,18.971 42.937,18.95 42.734,18.991C42.531,19.031 42.344,19.131 42.198,19.278C42.051,19.424 41.951,19.611 41.911,19.814C41.87,20.018 41.891,20.228 41.97,20.42C42.05,20.611 42.184,20.775 42.356,20.89C42.529,21.005 42.731,21.067 42.939,21.067C43.217,21.067 43.483,20.956 43.68,20.76C43.876,20.563 43.987,20.297 43.987,20.019Z" fill="#FFFFFF"/>
<path d="M51.025,43.331C51.024,43.124 50.962,42.921 50.847,42.749C50.732,42.577 50.568,42.443 50.376,42.364C50.185,42.285 49.974,42.265 49.771,42.306C49.568,42.346 49.381,42.446 49.235,42.593C49.089,42.74 48.989,42.926 48.949,43.13C48.908,43.333 48.929,43.543 49.009,43.735C49.088,43.926 49.222,44.09 49.395,44.205C49.567,44.32 49.77,44.381 49.977,44.381C50.255,44.381 50.521,44.27 50.718,44.073C50.914,43.876 51.025,43.609 51.025,43.331Z" fill="#FFFFFF"/>
<path d="M15.354,34.919C15.354,34.712 15.292,34.509 15.177,34.337C15.062,34.165 14.898,34.03 14.707,33.951C14.515,33.872 14.305,33.851 14.101,33.891C13.898,33.932 13.711,34.031 13.565,34.178C13.418,34.325 13.318,34.511 13.278,34.715C13.238,34.918 13.258,35.129 13.338,35.32C13.417,35.512 13.551,35.675 13.724,35.791C13.896,35.906 14.099,35.967 14.306,35.967C14.584,35.967 14.85,35.857 15.047,35.66C15.243,35.464 15.354,35.197 15.354,34.919Z" fill="#FFFFFF"/>
<path d="M33.48,13.505C33.48,13.298 33.418,13.095 33.303,12.923C33.188,12.75 33.024,12.616 32.833,12.537C32.641,12.457 32.431,12.437 32.227,12.477C32.024,12.518 31.837,12.617 31.691,12.764C31.544,12.911 31.444,13.097 31.404,13.301C31.363,13.504 31.384,13.715 31.464,13.906C31.543,14.098 31.677,14.261 31.85,14.376C32.022,14.492 32.225,14.553 32.432,14.553C32.71,14.553 32.976,14.443 33.173,14.246C33.369,14.05 33.48,13.783 33.48,13.505Z" fill="#FFFFFF"/>
<path d="M65.058,29.552C65.058,29.117 64.929,28.692 64.688,28.33C64.446,27.969 64.102,27.687 63.7,27.521C63.299,27.354 62.856,27.311 62.43,27.396C62.003,27.481 61.612,27.691 61.304,27.998C60.997,28.306 60.788,28.698 60.703,29.125C60.619,29.551 60.662,29.993 60.829,30.395C60.996,30.797 61.278,31.14 61.64,31.381C62.002,31.622 62.427,31.751 62.862,31.751C63.151,31.751 63.436,31.694 63.703,31.583C63.97,31.473 64.212,31.311 64.416,31.107C64.62,30.902 64.781,30.66 64.892,30.393C65.002,30.126 65.059,29.841 65.058,29.552Z" fill="#61B4E4"/>
<path d="M-0.183,29.552C-0.183,29.117 -0.054,28.692 0.188,28.33C0.43,27.969 0.773,27.687 1.175,27.521C1.577,27.354 2.019,27.311 2.446,27.396C2.872,27.481 3.264,27.691 3.571,27.998C3.879,28.306 4.088,28.698 4.172,29.125C4.257,29.551 4.213,29.993 4.046,30.395C3.88,30.797 3.598,31.14 3.236,31.381C2.874,31.622 2.449,31.751 2.014,31.751C1.725,31.751 1.439,31.694 1.173,31.583C0.906,31.473 0.664,31.311 0.46,31.107C0.256,30.902 0.094,30.66 -0.016,30.393C-0.126,30.126 -0.183,29.841 -0.183,29.552Z" fill="#61B4E4"/>
</svg>
