<svg width="82" height="66" viewBox="0 0 82 66" fill="none" xmlns="http://www.w3.org/2000/svg" xmlns:xlink="http://www.w3.org/1999/xlink">
<path d="M60.768,57.182L21.235,57.182L21.002,56.899C17.708,53.07 15.582,48.377 14.876,43.377C14.17,38.376 14.915,33.278 17.021,28.688C19.126,24.098 22.505,20.208 26.756,17.482C31.007,14.755 35.951,13.306 41.001,13.306C46.052,13.306 50.996,14.755 55.247,17.482C59.497,20.208 62.876,24.098 64.982,28.688C67.088,33.278 67.832,38.376 67.127,43.377C66.421,48.377 64.295,53.07 61.001,56.899L60.768,57.182ZM21.947,55.63L60.053,55.63C63.082,52.006 65.015,47.594 65.625,42.91C66.235,38.227 65.496,33.467 63.497,29.189C61.497,24.91 58.318,21.291 54.334,18.755C50.349,16.219 45.724,14.872 41.001,14.872C36.279,14.872 31.654,16.219 27.669,18.755C23.685,21.291 20.506,24.91 18.506,29.189C16.506,33.467 15.768,38.227 16.378,42.91C16.988,47.594 18.921,52.006 21.95,55.63L21.947,55.63Z" fill="#61B4E4"/>
<rect  x="38.631" y="12.948" width="7.517" height="9.831" fill="#5C6670"/>
<g opacity="0.8" style="mix-blend-mode:multiply">
<rect  x="44.811" y="16.95" width="1.329" height="5.828" fill="#D1D3D3"/>
</g>
<rect  x="38.631" y="12.181" width="7.517" height="1.533" fill="#333E48"/>
<rect  x="46.148" y="16.95" width="11.926" height="5.828" fill="#7D868C"/>
<g opacity="0.8" style="mix-blend-mode:multiply">
<rect  x="46.148" y="16.95" width="11.926" height="1.686" fill="#D1D3D3"/>
</g>
<rect  x="45.561" y="16.181" width="13.101" height="1.533" fill="#333E48"/>
<path d="M58.074,22.012L28.968,22.012L25.516,34.608L58.074,34.608L58.074,22.012Z" fill="#5C6670"/>
<g opacity="0.8" style="mix-blend-mode:multiply">
<path d="M28.757,22.778L28.252,24.621L58.074,24.621L58.074,22.778L28.757,22.778Z" fill="#D1D3D3"/>
</g>
<g opacity="0.8" style="mix-blend-mode:multiply">
<path d="M57.061,27.525L51.037,31.071L26.484,31.071L25.516,34.608L58.074,34.608L58.074,27.525L57.061,27.525Z" fill="#D1D3D3"/>
</g>
<rect  x="28.065" y="22.012" width="30.912" height="1.533" fill="#333E48"/>
<path d="M43.923,27.619C43.923,27.197 43.798,26.786 43.564,26.435C43.329,26.085 42.997,25.812 42.608,25.651C42.218,25.49 41.79,25.448 41.377,25.531C40.964,25.613 40.585,25.816 40.287,26.114C39.989,26.412 39.787,26.792 39.705,27.205C39.623,27.618 39.666,28.046 39.827,28.435C39.989,28.824 40.262,29.157 40.613,29.39C40.963,29.624 41.375,29.748 41.796,29.748C42.076,29.748 42.352,29.693 42.611,29.586C42.869,29.479 43.103,29.322 43.301,29.124C43.498,28.926 43.655,28.692 43.762,28.433C43.868,28.175 43.923,27.898 43.923,27.619Z" fill="#FFFFFF"/>
<path d="M51.037,27.619C51.037,27.197 50.912,26.786 50.678,26.435C50.444,26.085 50.111,25.812 49.722,25.651C49.333,25.49 48.904,25.448 48.491,25.531C48.078,25.613 47.699,25.816 47.401,26.114C47.103,26.412 46.901,26.792 46.819,27.205C46.737,27.618 46.78,28.046 46.941,28.435C47.103,28.824 47.376,29.157 47.727,29.39C48.077,29.624 48.489,29.748 48.91,29.748C49.19,29.748 49.467,29.693 49.725,29.586C49.983,29.479 50.218,29.322 50.415,29.124C50.612,28.926 50.769,28.692 50.876,28.433C50.982,28.175 51.037,27.898 51.037,27.619Z" fill="#FFFFFF"/>
<path d="M14.47,32.995C14.47,36.53 17.845,44.101 22.907,44.101L58.267,44.101C61.18,42.721 69.41,34.071 69.41,29.45L57.061,29.45L51.037,32.995L14.47,32.995Z" fill="#7D868C"/>
<path d="M15.23,36.666C16.497,40.18 19.264,44.101 22.895,44.101L58.267,44.101C59.942,43.306 63.377,40.127 65.98,36.666L15.23,36.666Z" fill="#FF5959"/>
<g opacity="0.8" style="mix-blend-mode:multiply">
<path d="M14.47,32.995C14.47,36.53 17.845,44.101 22.907,44.101L41.106,44.101L41.106,32.995L14.47,32.995Z" fill="#D1D3D3"/>
</g>
<path d="M66.06,14.705C68.502,17.148 70.574,19.934 72.212,22.974C72.626,22.658 73.084,22.405 73.571,22.222C71.864,19.054 69.703,16.151 67.159,13.606L66.06,14.705ZM77.183,32.152C76.69,32.322 76.176,32.418 75.655,32.436C76.148,34.824 76.397,37.257 76.396,39.695C76.398,42.773 75.999,45.838 75.21,48.814L76.711,49.214C78.187,43.637 78.349,37.794 77.183,32.144L77.183,32.152Z" fill="#61B4E4"/>
<path d="M14.85,13.606C12.32,16.136 10.169,19.019 8.465,22.165C8.96,22.331 9.427,22.569 9.851,22.872C11.48,19.874 13.531,17.127 15.943,14.713L14.85,13.606ZM6.359,32.436C5.839,32.392 5.329,32.272 4.843,32.081C3.658,37.753 3.815,43.622 5.3,49.222L6.802,48.822C5.383,43.469 5.231,37.858 6.359,32.436Z" fill="#61B4E4"/>
<path d="M64.198,64.132C68.331,64.132 73.679,61.378 76.078,58.011L80.2,52.234C82.599,48.87 82.602,44.158 80.2,41.762C79.043,40.611 77.476,39.964 75.844,39.964C74.211,39.964 72.645,40.611 71.488,41.762C70.33,42.913 68.764,43.559 67.132,43.559C65.499,43.559 63.933,42.913 62.775,41.762C61.618,40.611 60.052,39.964 58.419,39.964C56.787,39.964 55.22,40.611 54.063,41.762C52.905,42.913 51.339,43.559 49.707,43.559C48.074,43.559 46.508,42.913 45.35,41.762C44.193,40.611 42.627,39.964 40.994,39.964C39.362,39.964 37.796,40.611 36.638,41.762C35.481,42.913 33.914,43.559 32.282,43.559C30.649,43.559 29.083,42.913 27.926,41.762C26.768,40.611 25.202,39.964 23.569,39.964C21.937,39.964 20.371,40.611 19.213,41.762C18.056,42.913 16.49,43.559 14.857,43.559C13.224,43.559 11.658,42.913 10.501,41.762C9.345,40.61 7.78,39.963 6.148,39.961C4.516,39.96 2.95,40.604 1.791,41.753C-0.605,44.149 -0.599,48.85 1.791,52.226L5.913,58.003C8.312,61.37 13.658,64.123 17.794,64.123L64.198,64.132Z" fill="#003E63"/>
<path d="M80.206,50.568C79.048,49.417 77.482,48.771 75.85,48.771C74.217,48.771 72.651,49.417 71.493,50.568C70.336,51.719 68.77,52.366 67.137,52.366C65.505,52.366 63.939,51.719 62.781,50.568C61.624,49.417 60.057,48.771 58.425,48.771C56.792,48.771 55.226,49.417 54.069,50.568C52.911,51.719 51.345,52.366 49.712,52.366C48.08,52.366 46.514,51.719 45.356,50.568C44.199,49.417 42.633,48.771 41,48.771C39.367,48.771 37.801,49.417 36.644,50.568C35.486,51.719 33.92,52.366 32.288,52.366C30.655,52.366 29.089,51.719 27.931,50.568C26.774,49.417 25.208,48.771 23.575,48.771C21.943,48.771 20.376,49.417 19.219,50.568C18.061,51.719 16.495,52.366 14.863,52.366C13.23,52.366 11.664,51.719 10.507,50.568C9.349,49.417 7.783,48.771 6.15,48.771C4.518,48.771 2.952,49.417 1.794,50.568C1.585,50.788 1.395,51.025 1.226,51.278C1.404,51.608 1.601,51.927 1.817,52.234L5.939,58.011C8.338,61.378 13.683,64.132 17.819,64.132L64.198,64.132C68.331,64.132 73.679,61.378 76.078,58.011L80.2,52.234C80.416,51.927 80.613,51.608 80.791,51.278C80.618,51.024 80.422,50.786 80.206,50.568Z" fill="#61B4E4"/>
<g style="mix-blend-mode:multiply">
<path d="M36.644,41.753C35.486,42.905 33.92,43.551 32.288,43.551C30.655,43.551 29.089,42.905 27.931,41.753C26.774,40.602 25.208,39.956 23.575,39.956C21.943,39.956 20.376,40.602 19.219,41.753C18.061,42.905 16.495,43.551 14.863,43.551C13.23,43.551 11.664,42.905 10.507,41.753C9.349,40.601 7.782,39.954 6.149,39.954C4.516,39.954 2.949,40.601 1.791,41.753C-0.605,44.149 -0.599,48.85 1.791,52.226L5.913,58.003C8.312,61.37 13.658,64.123 17.794,64.123L41.095,64.123L41.095,39.968C40.271,39.952 39.453,40.102 38.688,40.408C37.923,40.715 37.228,41.172 36.644,41.753Z" fill="#99DAEA"/>
</g>
<path d="M23.083,5.234L26.526,10.867L24.479,12.119L21.589,9.637L23.523,12.703L21.99,13.649L18.541,8.008L20.471,6.835L23.577,9.419L21.541,6.183L23.083,5.234Z" fill="#333E48"/>
<path d="M30.12,8.539L28.655,9.09L28.76,9.958L26.796,10.696L26.313,3.824L28.391,3.04L32.559,8.53L30.594,9.268L30.12,8.539ZM29.075,6.983L28.224,5.723L28.42,7.23L29.075,6.983Z" fill="#333E48"/>
<path d="M33.788,8.045C33.491,7.936 33.219,7.767 32.99,7.548C32.762,7.329 32.581,7.065 32.459,6.773C32.254,6.247 32.112,5.698 32.036,5.138L31.469,2.049L33.303,1.726L33.87,4.811C33.924,5.225 34.019,5.632 34.154,6.026C34.18,6.093 34.22,6.153 34.272,6.203C34.325,6.252 34.387,6.288 34.455,6.31C34.573,6.346 34.697,6.353 34.818,6.33C34.938,6.309 35.05,6.258 35.145,6.183C35.203,6.139 35.249,6.082 35.28,6.017C35.311,5.952 35.326,5.88 35.324,5.808C35.311,5.391 35.257,4.976 35.162,4.57L34.594,1.484L36.437,1.146L37.004,4.232C37.13,4.784 37.192,5.348 37.189,5.913C37.181,6.228 37.108,6.539 36.973,6.824C36.839,7.11 36.646,7.364 36.408,7.571C36.052,7.88 35.619,8.087 35.156,8.173C34.692,8.258 34.214,8.218 33.771,8.056L33.788,8.045Z" fill="#333E48"/>
<path d="M42.5,2.79L41.163,2.816L41.251,7.545L39.378,7.585L39.29,2.861L37.958,2.887L37.921,1.013L42.463,0.922L42.5,2.79Z" fill="#333E48"/>
<path d="M43.196,7.616L43.829,1.042L45.694,1.22L45.061,7.798L43.196,7.616Z" fill="#333E48"/>
<path d="M49.248,6.296L50.952,7.091C50.483,7.943 49.771,8.51 48.726,8.493C48.541,8.49 48.356,8.468 48.175,8.428C47.972,8.384 47.775,8.317 47.587,8.229C46.094,7.48 46.06,5.918 46.355,4.601C46.69,3.102 47.397,1.831 49.03,1.785C49.422,1.78 49.81,1.865 50.165,2.032C51.113,2.466 51.514,3.284 51.585,4.249L49.705,4.249C49.699,4.144 49.667,4.042 49.612,3.953C49.557,3.863 49.481,3.788 49.39,3.735C48.59,3.366 48.303,4.385 48.161,5.016C48.03,5.601 47.832,6.574 48.729,6.634C48.839,6.634 48.946,6.602 49.039,6.542C49.131,6.482 49.204,6.397 49.248,6.296Z" fill="#333E48"/>
<path d="M54.469,9.561L53.027,8.956L52.516,9.666L50.58,8.854L54.946,3.525L56.996,4.377L56.255,11.227L54.31,10.421L54.469,9.561ZM54.778,7.71L55.02,6.205L54.128,7.437L54.778,7.71Z" fill="#333E48"/>
<path d="M60.166,13.782L56.615,11.531L60.164,5.961L61.79,6.997L59.119,11.193L61.038,12.417L60.166,13.782Z" fill="#333E48"/>
<path d="M6.801,30.774C8.798,30.774 10.418,29.155 10.418,27.158C10.418,25.16 8.798,23.541 6.801,23.541C4.804,23.541 3.184,25.16 3.184,27.158C3.184,29.155 4.804,30.774 6.801,30.774Z" transform="rotate(-1.44 6.801 27.158)" fill="#003E63"/>
<path d="M75.414,30.775C77.411,30.775 79.03,29.155 79.03,27.158C79.03,25.16 77.411,23.541 75.414,23.541C73.416,23.541 71.797,25.16 71.797,27.158C71.797,29.155 73.416,30.775 75.414,30.775Z" transform="rotate(-178.64 75.414 27.158)" fill="#003E63"/>
</svg>
