<svg width="140" height="140" viewBox="0 0 140 140" fill="none" xmlns="http://www.w3.org/2000/svg" xmlns:xlink="http://www.w3.org/1999/xlink">
<path d="M69.225,118.558C96.384,118.558 118.401,96.541 118.401,69.382C118.401,42.223 96.384,20.206 69.225,20.206C42.066,20.206 20.049,42.223 20.049,69.382C20.049,96.541 42.066,118.558 69.225,118.558Z" transform="rotate(-90 69.225 69.382)" fill="#0055B8"/>
<path d="M69.225,110.255C59.109,110.253 49.352,106.499 41.842,99.722C34.332,92.944 29.601,83.622 28.564,73.559L30.961,73.317C31.683,80.326 34.317,87.003 38.575,92.617C42.833,98.232 48.551,102.57 55.106,105.156C61.661,107.743 68.8,108.479 75.745,107.285C82.689,106.091 89.173,103.012 94.487,98.384C99.801,93.757 103.742,87.759 105.88,81.044C108.018,74.33 108.27,67.157 106.61,60.309C104.949,53.461 101.439,47.2 96.464,42.211C91.488,37.221 85.237,33.694 78.393,32.015L78.964,29.669C88.669,32.049 97.167,37.902 102.85,46.122C108.534,54.341 111.01,64.358 109.81,74.279C108.611,84.199 103.819,93.337 96.34,99.965C88.862,106.593 79.214,110.253 69.221,110.251L69.225,110.255Z" fill="#FFFFFF"/>
<path d="M96.554,69.38C96.554,63.975 94.951,58.691 91.948,54.197C88.945,49.702 84.677,46.2 79.683,44.131C74.69,42.063 69.195,41.522 63.894,42.576C58.592,43.631 53.723,46.233 49.901,50.055C46.079,53.877 43.476,58.747 42.422,64.048C41.367,69.349 41.908,74.844 43.977,79.838C46.045,84.832 49.548,89.1 54.042,92.103C58.536,95.106 63.82,96.708 69.225,96.708C72.814,96.708 76.368,96.002 79.683,94.628C82.999,93.255 86.012,91.242 88.549,88.704C91.087,86.166 93.1,83.154 94.473,79.838C95.847,76.522 96.554,72.969 96.554,69.38Z" fill="#61B4E4"/>
<path d="M27.064,58.276L36.118,59.84L35.552,63.128L30.305,63.875L35.286,64.657L34.86,67.124L25.805,65.56L26.34,62.463L31.892,61.584L26.634,60.747L27.064,58.276Z" fill="#FFFFFF"/>
<path d="M37.232,54.1L36.357,56.094L37.342,56.837L36.169,59.511L28.862,53.295L30.109,50.468L39.625,51.673L38.452,54.347L37.232,54.1ZM34.664,53.624L32.58,53.233L34.273,54.507L34.664,53.624Z" fill="#FFFFFF"/>
<path d="M40.384,50.089C39.978,50.259 39.541,50.343 39.101,50.336C38.66,50.328 38.227,50.23 37.827,50.046C37.119,49.699 36.454,49.271 35.844,48.772L32.353,46.152L33.917,44.068L37.408,46.688C37.856,47.056 38.34,47.38 38.851,47.653C38.941,47.697 39.04,47.719 39.14,47.719C39.24,47.719 39.339,47.697 39.43,47.653C39.584,47.578 39.718,47.466 39.821,47.329C39.921,47.194 39.988,47.037 40.016,46.872C40.034,46.772 40.028,46.669 39.998,46.573C39.968,46.476 39.915,46.388 39.844,46.316C39.437,45.905 38.992,45.533 38.515,45.206L35.019,42.587L36.583,40.499L40.079,43.118C40.728,43.563 41.324,44.081 41.854,44.663C42.145,44.992 42.365,45.378 42.5,45.796C42.635,46.215 42.681,46.657 42.636,47.094C42.563,47.746 42.318,48.367 41.925,48.891C41.531,49.416 41.005,49.826 40.399,50.077L40.384,50.089Z" fill="#FFFFFF"/>
<path d="M44.696,36.589L43.296,37.817L47.636,42.766L45.681,44.487L41.338,39.537L39.946,40.757L38.229,38.802L42.984,34.634L44.696,36.589Z" fill="#FFFFFF"/>
<path d="M49.731,41.199L44.77,33.446L46.967,32.046L51.913,39.791L49.731,41.199Z" fill="#FFFFFF"/>
<path d="M55.326,34.661L57.895,34.161C58.059,35.498 57.723,36.722 56.534,37.562C56.325,37.717 56.099,37.848 55.862,37.953C55.596,38.069 55.318,38.156 55.033,38.211C52.742,38.602 51.424,36.859 50.681,35.135C49.833,33.18 49.591,31.158 51.393,29.77C51.833,29.44 52.342,29.216 52.882,29.114C54.306,28.824 55.432,29.419 56.288,30.455L54.165,31.983C54.072,31.868 53.952,31.778 53.815,31.722C53.679,31.666 53.53,31.646 53.383,31.663C52.179,31.901 52.691,33.285 53.047,34.11C53.379,34.892 53.95,36.135 55.002,35.459C55.128,35.372 55.226,35.251 55.283,35.109C55.341,34.967 55.356,34.812 55.326,34.661Z" fill="#FFFFFF"/>
<path d="M63.904,34.329L61.762,34.72L61.707,35.936L58.833,36.46L59.877,26.928L62.919,26.373L67.259,34.923L64.385,35.447L63.904,34.329ZM62.86,31.936L62,29.982L61.895,32.097L62.86,31.936Z" fill="#FFFFFF"/>
<path d="M73.655,35.264L67.791,35.06L68.127,25.876L70.809,25.974L70.555,32.89L73.722,33.008L73.655,35.264Z" fill="#FFFFFF"/>
<path d="M95.205,18.202L95.392,59.644L73.975,59.644C73.956,38.927 86.955,26.432 95.205,18.202Z" fill="#FFFFFF"/>
<g opacity="0.8" style="mix-blend-mode:multiply">
<path d="M95.205,18.202L95.393,59.644L90.904,59.644L90.904,22.538C92.406,20.97 93.86,19.531 95.205,18.202Z" fill="#D1D3D3"/>
</g>
<path d="M95.205,67.565C95.6,67.564 95.978,67.407 96.257,67.128C96.536,66.849 96.694,66.471 96.695,66.076L96.695,18.202C96.675,17.82 96.51,17.461 96.233,17.198C95.956,16.935 95.589,16.788 95.207,16.788C94.825,16.788 94.458,16.935 94.181,17.198C93.904,17.461 93.739,17.82 93.719,18.202L93.719,66.076C93.719,66.47 93.876,66.848 94.154,67.128C94.433,67.407 94.811,67.564 95.205,67.565Z" fill="#493728"/>
<path d="M76.439,32.828L76.626,59.648L61.813,59.648C62.665,49.037 68.619,40.026 76.439,32.828Z" fill="#FFFFFF"/>
<g opacity="0.8" style="mix-blend-mode:multiply">
<path d="M76.439,32.828C75.123,34.035 73.866,35.296 72.67,36.612L72.67,59.648L76.627,59.648L76.439,32.828Z" fill="#D1D3D3"/>
</g>
<path d="M76.439,67.565C76.834,67.564 77.212,67.407 77.491,67.128C77.77,66.849 77.927,66.47 77.928,66.076L77.928,32.988C77.909,32.607 77.744,32.247 77.467,31.984C77.19,31.721 76.823,31.575 76.441,31.575C76.059,31.575 75.692,31.721 75.415,31.984C75.138,32.247 74.973,32.607 74.953,32.988L74.953,66.087C74.956,66.48 75.114,66.855 75.392,67.132C75.67,67.409 76.046,67.564 76.439,67.565Z" fill="#493728"/>
<path d="M109.378,62.862L48.379,62.862L41.146,86.285L109.378,86.285L109.378,62.862Z" fill="#9A6B58"/>
<g opacity="0.8" style="mix-blend-mode:multiply">
<path d="M107.255,71.44L94.63,78.868L43.179,78.868L41.146,86.285L109.378,86.285L109.378,71.44L107.255,71.44Z" fill="#D1D3D3"/>
</g>
<rect  x="46.486" y="62.862" width="64.78" height="3.214" fill="#333E48"/>
<circle cx="75.262" cy="73.086" r="4.461" fill="#FFFFFF"/>
<path d="M90.169,77.547C92.633,77.547 94.63,75.55 94.63,73.086C94.63,70.622 92.633,68.625 90.169,68.625C87.706,68.625 85.708,70.622 85.708,73.086C85.708,75.55 87.706,77.547 90.169,77.547Z" fill="#FFFFFF"/>
<path d="M18,81.124C18,88.525 25.073,104.395 35.68,104.395L109.78,104.395C115.887,101.501 128.938,89.495 128.938,73.696C108.416,73.696 111.289,81.124 95.314,81.124L18,81.124Z" fill="#DEBFA5"/>
<path d="M19.591,88.815C22.246,96.18 28.048,104.395 35.68,104.395L109.78,104.395C113.725,102.526 120.559,96.853 124.91,88.815L19.591,88.815Z" fill="#003E63"/>
<g opacity="0.8" style="mix-blend-mode:multiply">
<path d="M18,81.124C18,88.525 25.073,104.395 35.68,104.395L73.819,104.395L73.819,81.124L18,81.124Z" fill="#D1D3D3"/>
</g>
<g opacity="0.8" style="mix-blend-mode:multiply">
<path d="M58.379,94.902C52.515,85.198 42.741,68.961 20.147,67.968L20.068,67.968C20.068,68.437 20.068,68.906 20.068,69.38C20.061,75.897 21.353,82.351 23.869,88.363C26.385,94.375 30.074,99.825 34.722,104.395L66.781,104.395C63.833,104.395 60.483,98.386 58.379,94.902Z" fill="#D1D3D3"/>
</g>
<path d="M20.057,70.025C20.208,82.965 25.472,95.32 34.698,104.395L64.189,104.395C56.647,104.395 52.112,71.432 20.057,70.025Z" fill="#61B4E4"/>
<path d="M20.667,77.168C22.316,87.511 27.234,97.055 34.699,104.402L53.074,104.402C47.616,95.484 39.688,80.331 20.667,77.168Z" fill="#003E63"/>
</svg>
