<svg width="104" height="104" viewBox="0 0 104 104" fill="none" xmlns="http://www.w3.org/2000/svg" xmlns:xlink="http://www.w3.org/1999/xlink">
<path d="M51.862,87.275C71.936,87.275 88.209,71.001 88.209,50.927C88.209,30.853 71.936,14.58 51.862,14.58C31.788,14.58 15.514,30.853 15.514,50.927C15.514,71.001 31.788,87.275 51.862,87.275Z" transform="rotate(-90 51.862 50.927)" fill="#0055B8"/>
<path d="M51.862,81.138C44.384,81.136 37.173,78.362 31.622,73.352C26.071,68.342 22.575,61.452 21.808,54.015L23.58,53.835C24.113,59.016 26.06,63.951 29.207,68.101C32.354,72.251 36.581,75.457 41.426,77.369C46.271,79.281 51.548,79.825 56.681,78.942C61.814,78.06 66.606,75.784 70.534,72.364C74.461,68.943 77.374,64.51 78.955,59.547C80.535,54.584 80.721,49.282 79.494,44.221C78.267,39.159 75.672,34.532 71.995,30.844C68.317,27.156 63.697,24.549 58.638,23.308L59.06,21.574C66.234,23.333 72.514,27.66 76.715,33.735C80.916,39.81 82.746,47.214 81.859,54.546C80.973,61.879 77.431,68.633 71.903,73.532C66.376,78.431 59.245,81.136 51.859,81.135L51.862,81.138Z" fill="#FFFFFF"/>
<path d="M72.061,50.925C72.061,46.93 70.876,43.025 68.657,39.703C66.437,36.381 63.283,33.792 59.592,32.263C55.901,30.735 51.839,30.335 47.921,31.114C44.003,31.893 40.403,33.817 37.579,36.642C34.754,39.467 32.83,43.066 32.05,46.985C31.271,50.903 31.671,54.964 33.2,58.655C34.729,62.346 37.318,65.501 40.639,67.721C43.961,69.94 47.867,71.125 51.862,71.125C54.514,71.125 57.141,70.602 59.592,69.587C62.042,68.572 64.269,67.084 66.145,65.208C68.021,63.333 69.508,61.106 70.524,58.655C71.539,56.205 72.061,53.578 72.061,50.925Z" fill="#61B4E4"/>
<path d="M20.698,42.718L27.391,43.874L26.972,46.304L23.094,46.856L26.776,47.434L26.461,49.258L19.768,48.102L20.164,45.813L24.267,45.163L20.381,44.545L20.698,42.718Z" fill="#FFFFFF"/>
<path d="M28.215,39.632L27.567,41.106L28.296,41.655L27.429,43.632L22.028,39.037L22.95,36.948L29.983,37.838L29.116,39.814L28.215,39.632ZM26.316,39.28L24.776,38.991L26.027,39.933L26.316,39.28Z" fill="#FFFFFF"/>
<path d="M30.544,36.667C30.244,36.793 29.921,36.855 29.596,36.849C29.27,36.844 28.95,36.771 28.654,36.635C28.131,36.379 27.639,36.063 27.189,35.693L24.608,33.757L25.764,32.217L28.345,34.153C28.676,34.425 29.033,34.664 29.411,34.867C29.478,34.899 29.551,34.916 29.625,34.916C29.699,34.916 29.772,34.899 29.839,34.867C29.953,34.811 30.052,34.729 30.128,34.627C30.202,34.527 30.252,34.411 30.272,34.289C30.286,34.215 30.281,34.14 30.259,34.068C30.237,33.997 30.198,33.932 30.145,33.879C29.844,33.575 29.515,33.3 29.163,33.058L26.579,31.122L27.735,29.579L30.319,31.515C30.799,31.843 31.239,32.226 31.63,32.656C31.846,32.899 32.009,33.185 32.108,33.494C32.208,33.804 32.242,34.13 32.208,34.454C32.155,34.935 31.974,35.394 31.683,35.782C31.392,36.17 31.003,36.472 30.555,36.659L30.544,36.667Z" fill="#FFFFFF"/>
<path d="M33.731,26.689L32.697,27.596L35.904,31.255L34.46,32.526L31.249,28.868L30.22,29.769L28.952,28.324L32.466,25.244L33.731,26.689Z" fill="#FFFFFF"/>
<path d="M37.453,30.096L33.786,24.365L35.41,23.331L39.066,29.055L37.453,30.096Z" fill="#FFFFFF"/>
<path d="M41.589,25.264L43.487,24.894C43.609,25.883 43.36,26.787 42.482,27.408C42.327,27.522 42.16,27.619 41.985,27.697C41.788,27.783 41.582,27.847 41.372,27.888C39.678,28.177 38.705,26.888 38.156,25.614C37.529,24.169 37.349,22.675 38.682,21.649C39.006,21.405 39.383,21.239 39.783,21.164C40.834,20.95 41.667,21.389 42.299,22.155L40.73,23.285C40.662,23.199 40.573,23.133 40.472,23.092C40.371,23.05 40.261,23.035 40.152,23.048C39.262,23.224 39.641,24.247 39.904,24.857C40.15,25.435 40.571,26.354 41.349,25.854C41.442,25.79 41.515,25.7 41.557,25.595C41.6,25.49 41.611,25.375 41.589,25.264Z" fill="#FFFFFF"/>
<path d="M47.929,25.019L46.345,25.308L46.305,26.206L44.181,26.594L44.952,19.548L47.201,19.138L50.408,25.458L48.284,25.845L47.929,25.019ZM47.157,23.25L46.521,21.805L46.443,23.369L47.157,23.25Z" fill="#FFFFFF"/>
<path d="M55.136,25.709L50.801,25.559L51.05,18.771L53.032,18.843L52.844,23.955L55.185,24.042L55.136,25.709Z" fill="#FFFFFF"/>
<path d="M71.064,13.098L71.203,43.73L55.373,43.73C55.358,28.417 64.967,19.181 71.064,13.098Z" fill="#FFFFFF"/>
<g opacity="0.8" style="mix-blend-mode:multiply">
<path d="M71.064,13.098L71.203,43.73L67.885,43.73L67.885,16.303C68.995,15.144 70.07,14.081 71.064,13.098Z" fill="#D1D3D3"/>
</g>
<path d="M71.064,49.585C71.356,49.584 71.636,49.468 71.842,49.261C72.048,49.055 72.164,48.775 72.165,48.484L72.165,13.098C72.151,12.816 72.029,12.551 71.824,12.356C71.619,12.162 71.348,12.054 71.066,12.054C70.783,12.054 70.512,12.162 70.307,12.356C70.103,12.551 69.981,12.816 69.966,13.098L69.966,48.484C69.966,48.775 70.082,49.055 70.288,49.261C70.493,49.468 70.773,49.584 71.064,49.585Z" fill="#493728"/>
<path d="M57.193,23.909L57.332,43.733L46.383,43.733C47.013,35.89 51.414,29.229 57.193,23.909Z" fill="#FFFFFF"/>
<g opacity="0.8" style="mix-blend-mode:multiply">
<path d="M57.193,23.909C56.22,24.801 55.292,25.733 54.408,26.706L54.408,43.733L57.332,43.733L57.193,23.909Z" fill="#D1D3D3"/>
</g>
<path d="M57.193,49.584C57.485,49.584 57.765,49.467 57.971,49.261C58.177,49.055 58.294,48.775 58.294,48.483L58.294,24.027C58.28,23.745 58.158,23.48 57.953,23.285C57.748,23.091 57.477,22.983 57.195,22.983C56.913,22.983 56.641,23.091 56.436,23.285C56.232,23.48 56.11,23.745 56.095,24.027L56.095,48.492C56.097,48.782 56.214,49.059 56.42,49.264C56.625,49.468 56.903,49.584 57.193,49.584Z" fill="#493728"/>
<path d="M81.54,46.108L36.453,46.108L31.107,63.42L81.54,63.42L81.54,46.108Z" fill="#9A6B58"/>
<g opacity="0.8" style="mix-blend-mode:multiply">
<path d="M79.97,52.448L70.639,57.939L32.61,57.939L31.107,63.421L81.54,63.421L81.54,52.448L79.97,52.448Z" fill="#D1D3D3"/>
</g>
<rect  x="35.055" y="46.108" width="47.881" height="2.375" fill="#333E48"/>
<circle cx="56.324" cy="53.665" r="3.297" fill="#FFFFFF"/>
<path d="M67.342,56.962C69.163,56.962 70.639,55.486 70.639,53.665C70.639,51.844 69.163,50.367 67.342,50.367C65.521,50.367 64.045,51.844 64.045,53.665C64.045,55.486 65.521,56.962 67.342,56.962Z" fill="#FFFFFF"/>
<path d="M14,59.606C14,65.076 19.228,76.806 27.068,76.806L81.837,76.806C86.351,74.667 95.997,65.793 95.997,54.115C80.829,54.115 82.953,59.606 71.145,59.606L14,59.606Z" fill="#DEBFA5"/>
<path d="M15.176,65.29C17.138,70.735 21.427,76.806 27.068,76.806L81.837,76.806C84.753,75.425 89.804,71.232 93.021,65.29L15.176,65.29Z" fill="#003E63"/>
<g opacity="0.8" style="mix-blend-mode:multiply">
<path d="M14,59.606C14,65.077 19.228,76.806 27.068,76.806L55.257,76.806L55.257,59.606L14,59.606Z" fill="#D1D3D3"/>
</g>
<g opacity="0.8" style="mix-blend-mode:multiply">
<path d="M43.845,69.79C39.511,62.617 32.286,50.616 15.586,49.882L15.529,49.882C15.529,50.229 15.529,50.576 15.529,50.925C15.523,55.743 16.478,60.513 18.338,64.956C20.197,69.4 22.924,73.429 26.36,76.806L50.056,76.806C47.877,76.806 45.4,72.364 43.845,69.79Z" fill="#D1D3D3"/>
</g>
<path d="M15.52,51.402C15.632,60.967 19.522,70.099 26.342,76.806L48.14,76.806C42.565,76.806 39.213,52.442 15.52,51.402Z" fill="#61B4E4"/>
<path d="M15.971,56.682C17.19,64.327 20.824,71.381 26.342,76.812L39.924,76.812C35.89,70.22 30.03,59.019 15.971,56.682Z" fill="#003E63"/>
</svg>
