<svg width="104" height="104" viewBox="0 0 104 104" fill="none" xmlns="http://www.w3.org/2000/svg" xmlns:xlink="http://www.w3.org/1999/xlink">
<path d="M51.862,87.274C71.936,87.274 88.21,71.001 88.21,50.927C88.21,30.853 71.936,14.579 51.862,14.579C31.788,14.579 15.515,30.853 15.515,50.927C15.515,71.001 31.788,87.274 51.862,87.274Z" transform="rotate(-90 51.862 50.927)" fill="#0055B8"/>
<path d="M51.862,81.137C44.385,81.135 37.174,78.361 31.623,73.351C26.072,68.341 22.575,61.452 21.809,54.014L23.58,53.835C24.114,59.015 26.061,63.95 29.208,68.1C32.355,72.25 36.581,75.456 41.426,77.368C46.271,79.28 51.548,79.824 56.681,78.941C61.814,78.059 66.606,75.783 70.534,72.363C74.462,68.943 77.375,64.509 78.955,59.546C80.535,54.583 80.722,49.282 79.494,44.22C78.267,39.158 75.673,34.531 71.995,30.843C68.317,27.155 63.697,24.548 58.639,23.307L59.061,21.573C66.234,23.333 72.515,27.659 76.715,33.734C80.916,39.809 82.746,47.213 81.86,54.546C80.973,61.878 77.431,68.632 71.904,73.531C66.376,78.43 59.245,81.135 51.859,81.134L51.862,81.137Z" fill="#FFFFFF"/>
<path d="M72.062,50.924C72.062,46.929 70.877,43.024 68.657,39.702C66.438,36.38 63.283,33.791 59.592,32.262C55.901,30.733 51.84,30.333 47.921,31.113C44.003,31.892 40.404,33.816 37.579,36.641C34.754,39.466 32.83,43.065 32.051,46.983C31.271,50.902 31.671,54.963 33.2,58.654C34.729,62.345 37.318,65.5 40.64,67.719C43.962,69.939 47.867,71.124 51.862,71.124C54.515,71.124 57.141,70.601 59.592,69.586C62.043,68.571 64.27,67.083 66.145,65.207C68.021,63.332 69.509,61.105 70.524,58.654C71.539,56.203 72.062,53.577 72.062,50.924Z" fill="#61B4E4"/>
<path d="M20.699,42.718L27.392,43.874L26.973,46.304L23.095,46.856L26.776,47.434L26.461,49.257L19.769,48.101L20.164,45.813L24.268,45.163L20.381,44.544L20.699,42.718Z" fill="#FFFFFF"/>
<path d="M28.215,39.631L27.568,41.105L28.296,41.654L27.429,43.63L22.028,39.036L22.95,36.946L29.984,37.836L29.117,39.813L28.215,39.631ZM26.317,39.278L24.776,38.989L26.028,39.931L26.317,39.278Z" fill="#FFFFFF"/>
<path d="M30.544,36.667C30.244,36.792 29.921,36.854 29.596,36.849C29.271,36.844 28.95,36.771 28.655,36.635C28.132,36.378 27.64,36.062 27.189,35.693L24.609,33.757L25.765,32.216L28.345,34.153C28.677,34.425 29.034,34.664 29.412,34.866C29.478,34.898 29.551,34.915 29.626,34.915C29.7,34.915 29.773,34.898 29.839,34.866C29.953,34.81 30.052,34.728 30.128,34.627C30.203,34.527 30.252,34.411 30.273,34.288C30.286,34.215 30.282,34.139 30.26,34.068C30.238,33.996 30.199,33.931 30.146,33.878C29.845,33.574 29.516,33.299 29.163,33.057L26.58,31.121L27.736,29.578L30.319,31.514C30.799,31.843 31.239,32.226 31.631,32.656C31.847,32.899 32.009,33.184 32.109,33.494C32.208,33.803 32.242,34.13 32.209,34.453C32.156,34.935 31.974,35.394 31.684,35.781C31.393,36.169 31.003,36.472 30.556,36.658L30.544,36.667Z" fill="#FFFFFF"/>
<path d="M33.732,26.688L32.697,27.595L35.905,31.254L34.46,32.525L31.249,28.867L30.221,29.769L28.952,28.324L32.466,25.243L33.732,26.688Z" fill="#FFFFFF"/>
<path d="M37.454,30.095L33.787,24.365L35.411,23.33L39.066,29.055L37.454,30.095Z" fill="#FFFFFF"/>
<path d="M41.589,25.263L43.487,24.893C43.609,25.881 43.36,26.786 42.482,27.407C42.327,27.521 42.16,27.618 41.985,27.696C41.788,27.782 41.583,27.846 41.372,27.887C39.679,28.176 38.705,26.887 38.156,25.613C37.529,24.168 37.35,22.674 38.682,21.648C39.007,21.404 39.383,21.238 39.783,21.162C40.835,20.949 41.667,21.388 42.3,22.154L40.731,23.284C40.662,23.198 40.573,23.132 40.472,23.09C40.371,23.049 40.261,23.034 40.153,23.047C39.263,23.223 39.641,24.246 39.904,24.856C40.15,25.433 40.572,26.352 41.349,25.853C41.442,25.789 41.515,25.699 41.557,25.594C41.6,25.489 41.611,25.374 41.589,25.263Z" fill="#FFFFFF"/>
<path d="M47.929,25.017L46.346,25.306L46.305,26.205L44.181,26.592L44.953,19.547L47.201,19.137L50.409,25.457L48.285,25.844L47.929,25.017ZM47.158,23.249L46.522,21.804L46.444,23.367L47.158,23.249Z" fill="#FFFFFF"/>
<path d="M55.136,25.709L50.802,25.559L51.05,18.771L53.033,18.843L52.845,23.955L55.186,24.041L55.136,25.709Z" fill="#FFFFFF"/>
<path d="M71.065,13.098L71.203,43.729L55.373,43.729C55.359,28.416 64.967,19.181 71.065,13.098Z" fill="#FFFFFF"/>
<g opacity="0.8" style="mix-blend-mode:multiply">
<path d="M71.064,13.098L71.203,43.729L67.886,43.729L67.886,16.302C68.995,15.144 70.07,14.08 71.064,13.098Z" fill="#D1D3D3"/>
</g>
<path d="M71.064,49.584C71.356,49.583 71.636,49.467 71.842,49.26C72.048,49.054 72.165,48.774 72.165,48.483L72.165,13.097C72.151,12.815 72.029,12.55 71.824,12.356C71.62,12.161 71.348,12.053 71.066,12.053C70.784,12.053 70.512,12.161 70.308,12.356C70.103,12.55 69.981,12.815 69.966,13.097L69.966,48.483C69.966,48.774 70.082,49.054 70.288,49.26C70.494,49.467 70.773,49.583 71.064,49.584Z" fill="#493728"/>
<path d="M57.194,23.908L57.333,43.732L46.383,43.732C47.013,35.889 51.414,29.228 57.194,23.908Z" fill="#FFFFFF"/>
<g opacity="0.8" style="mix-blend-mode:multiply">
<path d="M57.194,23.908C56.221,24.8 55.292,25.733 54.408,26.706L54.408,43.732L57.333,43.732L57.194,23.908Z" fill="#D1D3D3"/>
</g>
<path d="M57.194,49.584C57.486,49.583 57.765,49.467 57.972,49.261C58.178,49.054 58.294,48.775 58.295,48.483L58.295,24.027C58.28,23.745 58.158,23.48 57.954,23.285C57.749,23.091 57.478,22.982 57.195,22.982C56.913,22.982 56.642,23.091 56.437,23.285C56.232,23.48 56.11,23.745 56.096,24.027L56.096,48.492C56.098,48.782 56.215,49.059 56.42,49.264C56.626,49.468 56.904,49.583 57.194,49.584Z" fill="#493728"/>
<path d="M81.54,46.107L36.454,46.107L31.108,63.42L81.54,63.42L81.54,46.107Z" fill="#9A6B58"/>
<g opacity="0.8" style="mix-blend-mode:multiply">
<path d="M79.971,52.447L70.64,57.938L32.611,57.938L31.108,63.42L81.54,63.42L81.54,52.447L79.971,52.447Z" fill="#D1D3D3"/>
</g>
<rect  x="35.055" y="46.107" width="47.881" height="2.375" fill="#333E48"/>
<circle cx="56.324" cy="53.664" r="3.297" fill="#FFFFFF"/>
<path d="M67.343,56.962C69.164,56.962 70.64,55.485 70.64,53.664C70.64,51.843 69.164,50.367 67.343,50.367C65.522,50.367 64.045,51.843 64.045,53.664C64.045,55.485 65.522,56.962 67.343,56.962Z" fill="#FFFFFF"/>
<path d="M14,59.606C14,65.076 19.228,76.806 27.068,76.806L81.838,76.806C86.351,74.667 95.998,65.793 95.998,54.115C80.829,54.115 82.953,59.606 71.146,59.606L14,59.606Z" fill="#DEBFA5"/>
<path d="M15.176,65.29C17.138,70.734 21.427,76.806 27.068,76.806L81.837,76.806C84.753,75.424 89.804,71.231 93.021,65.29L15.176,65.29Z" fill="#003E63"/>
<g opacity="0.8" style="mix-blend-mode:multiply">
<path d="M14,59.605C14,65.076 19.228,76.805 27.068,76.805L55.258,76.805L55.258,59.605L14,59.605Z" fill="#D1D3D3"/>
</g>
<g opacity="0.8" style="mix-blend-mode:multiply">
<path d="M43.846,69.788C39.511,62.616 32.287,50.615 15.587,49.881L15.529,49.881C15.529,50.228 15.529,50.574 15.529,50.924C15.523,55.741 16.478,60.511 18.338,64.955C20.197,69.399 22.925,73.427 26.36,76.805L50.056,76.805C47.877,76.805 45.4,72.363 43.846,69.788Z" fill="#D1D3D3"/>
</g>
<path d="M15.52,51.401C15.632,60.966 19.522,70.098 26.342,76.805L48.14,76.805C42.565,76.805 39.213,52.442 15.52,51.401Z" fill="#61B4E4"/>
<path d="M15.971,56.682C17.19,64.327 20.825,71.381 26.343,76.812L39.924,76.812C35.89,70.22 30.03,59.019 15.971,56.682Z" fill="#003E63"/>
</svg>
