<svg width="104" height="104" viewBox="0 0 104 104" fill="none" xmlns="http://www.w3.org/2000/svg" xmlns:xlink="http://www.w3.org/1999/xlink">
<path d="M51.862,87.275C71.936,87.275 88.21,71.002 88.21,50.928C88.21,30.854 71.936,14.58 51.862,14.58C31.788,14.58 15.515,30.854 15.515,50.928C15.515,71.002 31.788,87.275 51.862,87.275Z" transform="rotate(-90 51.862 50.928)" fill="#0055B8"/>
<path d="M51.862,81.138C44.385,81.136 37.174,78.362 31.623,73.352C26.072,68.342 22.575,61.453 21.809,54.015L23.58,53.836C24.114,59.016 26.061,63.951 29.208,68.101C32.355,72.251 36.581,75.457 41.426,77.369C46.271,79.281 51.548,79.825 56.681,78.942C61.814,78.06 66.606,75.784 70.534,72.364C74.462,68.944 77.375,64.51 78.955,59.547C80.535,54.584 80.722,49.283 79.494,44.221C78.267,39.159 75.673,34.532 71.995,30.844C68.317,27.156 63.697,24.549 58.639,23.308L59.061,21.574C66.234,23.334 72.515,27.66 76.715,33.735C80.916,39.81 82.746,47.214 81.86,54.547C80.973,61.879 77.431,68.633 71.904,73.532C66.376,78.431 59.245,81.136 51.859,81.135L51.862,81.138Z" fill="#FFFFFF"/>
<path d="M72.062,50.925C72.062,46.93 70.877,43.025 68.657,39.703C66.438,36.382 63.283,33.793 59.592,32.264C55.901,30.735 51.84,30.335 47.921,31.114C44.003,31.894 40.404,33.817 37.579,36.642C34.754,39.467 32.83,43.067 32.051,46.985C31.271,50.903 31.671,54.965 33.2,58.655C34.729,62.346 37.318,65.501 40.64,67.721C43.962,69.94 47.867,71.125 51.862,71.125C54.515,71.125 57.141,70.602 59.592,69.587C62.043,68.572 64.27,67.084 66.145,65.209C68.021,63.333 69.509,61.106 70.524,58.655C71.539,56.205 72.062,53.578 72.062,50.925Z" fill="#61B4E4"/>
<path d="M20.699,42.719L27.392,43.875L26.973,46.305L23.095,46.857L26.776,47.435L26.461,49.258L19.769,48.102L20.164,45.814L24.268,45.163L20.381,44.545L20.699,42.719Z" fill="#FFFFFF"/>
<path d="M28.215,39.632L27.568,41.106L28.296,41.655L27.429,43.632L22.028,39.037L22.95,36.948L29.984,37.838L29.117,39.814L28.215,39.632ZM26.317,39.28L24.776,38.991L26.028,39.933L26.317,39.28Z" fill="#FFFFFF"/>
<path d="M30.544,36.667C30.244,36.793 29.921,36.855 29.596,36.849C29.271,36.844 28.95,36.771 28.655,36.635C28.132,36.379 27.64,36.063 27.189,35.693L24.609,33.757L25.765,32.217L28.345,34.153C28.677,34.425 29.034,34.664 29.412,34.867C29.478,34.899 29.551,34.916 29.626,34.916C29.7,34.916 29.773,34.899 29.839,34.867C29.953,34.811 30.052,34.729 30.128,34.627C30.203,34.527 30.252,34.411 30.273,34.289C30.286,34.215 30.282,34.14 30.26,34.068C30.238,33.997 30.199,33.932 30.146,33.879C29.845,33.575 29.516,33.3 29.163,33.058L26.58,31.122L27.736,29.579L30.319,31.515C30.799,31.843 31.239,32.226 31.631,32.656C31.847,32.899 32.009,33.185 32.109,33.494C32.208,33.804 32.242,34.13 32.209,34.454C32.156,34.935 31.974,35.394 31.684,35.782C31.393,36.17 31.003,36.472 30.556,36.659L30.544,36.667Z" fill="#FFFFFF"/>
<path d="M33.732,26.689L32.697,27.596L35.905,31.255L34.46,32.526L31.249,28.868L30.221,29.77L28.952,28.325L32.466,25.244L33.732,26.689Z" fill="#FFFFFF"/>
<path d="M37.454,30.096L33.787,24.366L35.411,23.331L39.066,29.056L37.454,30.096Z" fill="#FFFFFF"/>
<path d="M41.589,25.264L43.487,24.895C43.609,25.883 43.36,26.787 42.482,27.409C42.327,27.523 42.16,27.619 41.985,27.698C41.788,27.783 41.583,27.847 41.372,27.888C39.679,28.177 38.705,26.889 38.156,25.614C37.529,24.169 37.35,22.675 38.682,21.649C39.007,21.405 39.383,21.239 39.783,21.164C40.835,20.95 41.667,21.389 42.3,22.155L40.731,23.285C40.662,23.2 40.573,23.133 40.472,23.092C40.371,23.05 40.261,23.035 40.153,23.048C39.263,23.224 39.641,24.247 39.904,24.857C40.15,25.435 40.572,26.354 41.349,25.854C41.442,25.79 41.515,25.7 41.557,25.595C41.6,25.49 41.611,25.375 41.589,25.264Z" fill="#FFFFFF"/>
<path d="M47.929,25.019L46.346,25.308L46.305,26.207L44.181,26.594L44.953,19.549L47.201,19.138L50.409,25.458L48.285,25.845L47.929,25.019ZM47.158,23.25L46.522,21.805L46.444,23.369L47.158,23.25Z" fill="#FFFFFF"/>
<path d="M55.136,25.709L50.802,25.559L51.05,18.771L53.033,18.843L52.845,23.955L55.186,24.042L55.136,25.709Z" fill="#FFFFFF"/>
<path d="M71.065,13.099L71.203,43.73L55.373,43.73C55.359,28.417 64.967,19.182 71.065,13.099Z" fill="#FFFFFF"/>
<g opacity="0.8" style="mix-blend-mode:multiply">
<path d="M71.064,13.099L71.203,43.73L67.886,43.73L67.886,16.303C68.995,15.145 70.07,14.081 71.064,13.099Z" fill="#D1D3D3"/>
</g>
<path d="M71.064,49.585C71.356,49.584 71.636,49.468 71.842,49.261C72.048,49.055 72.165,48.775 72.165,48.484L72.165,13.098C72.151,12.816 72.029,12.551 71.824,12.356C71.62,12.162 71.348,12.054 71.066,12.054C70.784,12.054 70.512,12.162 70.308,12.356C70.103,12.551 69.981,12.816 69.966,13.098L69.966,48.484C69.966,48.775 70.082,49.055 70.288,49.261C70.494,49.468 70.773,49.584 71.064,49.585Z" fill="#493728"/>
<path d="M57.194,23.909L57.333,43.733L46.383,43.733C47.013,35.89 51.414,29.229 57.194,23.909Z" fill="#FFFFFF"/>
<g opacity="0.8" style="mix-blend-mode:multiply">
<path d="M57.194,23.909C56.221,24.801 55.292,25.734 54.408,26.706L54.408,43.733L57.333,43.733L57.194,23.909Z" fill="#D1D3D3"/>
</g>
<path d="M57.194,49.585C57.486,49.584 57.765,49.468 57.972,49.261C58.178,49.055 58.294,48.775 58.295,48.484L58.295,24.028C58.28,23.746 58.158,23.48 57.954,23.286C57.749,23.091 57.478,22.983 57.195,22.983C56.913,22.983 56.642,23.091 56.437,23.286C56.232,23.48 56.11,23.746 56.096,24.028L56.096,48.492C56.098,48.782 56.215,49.06 56.42,49.264C56.626,49.469 56.904,49.584 57.194,49.585Z" fill="#493728"/>
<path d="M81.54,46.108L36.454,46.108L31.108,63.421L81.54,63.421L81.54,46.108Z" fill="#9A6B58"/>
<g opacity="0.8" style="mix-blend-mode:multiply">
<path d="M79.971,52.448L70.64,57.939L32.611,57.939L31.108,63.421L81.54,63.421L81.54,52.448L79.971,52.448Z" fill="#D1D3D3"/>
</g>
<rect  x="35.055" y="46.108" width="47.881" height="2.375" fill="#333E48"/>
<circle cx="56.324" cy="53.665" r="3.297" fill="#FFFFFF"/>
<path d="M67.343,56.962C69.164,56.962 70.64,55.486 70.64,53.665C70.64,51.844 69.164,50.368 67.343,50.368C65.522,50.368 64.045,51.844 64.045,53.665C64.045,55.486 65.522,56.962 67.343,56.962Z" fill="#FFFFFF"/>
<path d="M14,59.606C14,65.077 19.228,76.806 27.068,76.806L81.838,76.806C86.351,74.668 95.998,65.793 95.998,54.116C80.829,54.116 82.953,59.606 71.146,59.606L14,59.606Z" fill="#DEBFA5"/>
<path d="M15.176,65.291C17.138,70.735 21.427,76.806 27.068,76.806L81.837,76.806C84.753,75.425 89.804,71.232 93.021,65.291L15.176,65.291Z" fill="#003E63"/>
<g opacity="0.8" style="mix-blend-mode:multiply">
<path d="M14,59.606C14,65.077 19.228,76.806 27.068,76.806L55.258,76.806L55.258,59.606L14,59.606Z" fill="#D1D3D3"/>
</g>
<g opacity="0.8" style="mix-blend-mode:multiply">
<path d="M43.846,69.79C39.511,62.618 32.287,50.616 15.587,49.882L15.529,49.882C15.529,50.229 15.529,50.576 15.529,50.926C15.523,55.743 16.478,60.513 18.338,64.957C20.197,69.401 22.925,73.429 26.36,76.806L50.056,76.806C47.877,76.806 45.4,72.365 43.846,69.79Z" fill="#D1D3D3"/>
</g>
<path d="M15.52,51.402C15.632,60.967 19.522,70.099 26.342,76.806L48.14,76.806C42.565,76.806 39.213,52.443 15.52,51.402Z" fill="#61B4E4"/>
<path d="M15.971,56.682C17.19,64.327 20.825,71.381 26.343,76.812L39.924,76.812C35.89,70.22 30.03,59.019 15.971,56.682Z" fill="#003E63"/>
</svg>
