<svg width="74" height="56" viewBox="0 0 74 56" fill="none" xmlns="http://www.w3.org/2000/svg" xmlns:xlink="http://www.w3.org/1999/xlink">
<path d="M53.974,48.238L19.502,48.238L19.299,47.991C16.426,44.653 14.573,40.56 13.957,36.2C13.342,31.84 13.991,27.394 15.827,23.391C17.663,19.389 20.61,15.998 24.316,13.62C28.023,11.242 32.334,9.979 36.738,9.979C41.142,9.979 45.453,11.242 49.159,13.62C52.866,15.998 55.812,19.389 57.649,23.391C59.485,27.394 60.134,31.84 59.519,36.2C58.903,40.56 57.049,44.653 54.177,47.991L53.974,48.238ZM20.123,46.884L53.35,46.884C55.992,43.725 57.677,39.877 58.209,35.793C58.741,31.71 58.097,27.559 56.353,23.828C54.609,20.097 51.838,16.941 48.363,14.73C44.889,12.519 40.856,11.345 36.738,11.345C32.62,11.345 28.587,12.519 25.113,14.73C21.638,16.941 18.867,20.097 17.123,23.828C15.379,27.559 14.735,31.71 15.267,35.793C15.799,39.877 17.484,43.725 20.125,46.884L20.123,46.884Z" fill="#61B4E4"/>
<rect  x="34.671" y="9.668" width="6.555" height="8.572" fill="#5C6670"/>
<g opacity="0.8" style="mix-blend-mode:multiply">
<rect  x="40.061" y="13.156" width="1.158" height="5.082" fill="#D1D3D3"/>
</g>
<rect  x="34.671" y="8.998" width="6.555" height="1.337" fill="#333E48"/>
<rect  x="41.227" y="13.156" width="10.399" height="5.082" fill="#7D868C"/>
<g opacity="0.8" style="mix-blend-mode:multiply">
<rect  x="41.227" y="13.156" width="10.399" height="1.47" fill="#D1D3D3"/>
</g>
<rect  x="40.714" y="12.486" width="11.424" height="1.337" fill="#333E48"/>
<path d="M51.626,17.572L26.245,17.572L23.235,28.556L51.626,28.556L51.626,17.572Z" fill="#5C6670"/>
<g opacity="0.8" style="mix-blend-mode:multiply">
<path d="M26.062,18.238L25.621,19.845L51.625,19.845L51.625,18.238L26.062,18.238Z" fill="#D1D3D3"/>
</g>
<g opacity="0.8" style="mix-blend-mode:multiply">
<path d="M50.742,22.377L45.489,25.469L24.079,25.469L23.235,28.553L51.626,28.553L51.626,22.377L50.742,22.377Z" fill="#D1D3D3"/>
</g>
<rect  x="25.457" y="17.572" width="26.955" height="1.337" fill="#333E48"/>
<path d="M39.285,22.46C39.285,22.093 39.176,21.734 38.972,21.428C38.768,21.123 38.478,20.885 38.139,20.745C37.799,20.604 37.426,20.568 37.066,20.639C36.706,20.711 36.375,20.888 36.115,21.148C35.856,21.408 35.679,21.739 35.608,22.099C35.536,22.46 35.573,22.833 35.714,23.172C35.855,23.511 36.094,23.801 36.399,24.005C36.705,24.209 37.064,24.317 37.431,24.317C37.675,24.317 37.916,24.269 38.141,24.175C38.367,24.082 38.571,23.945 38.743,23.773C38.915,23.6 39.052,23.396 39.145,23.17C39.238,22.945 39.286,22.704 39.285,22.46Z" fill="#FFFFFF"/>
<path d="M45.488,22.46C45.488,22.093 45.38,21.734 45.175,21.428C44.971,21.123 44.681,20.885 44.342,20.745C44.002,20.604 43.629,20.568 43.269,20.639C42.909,20.711 42.578,20.888 42.318,21.148C42.059,21.408 41.882,21.739 41.811,22.099C41.739,22.46 41.777,22.833 41.917,23.172C42.058,23.511 42.297,23.801 42.602,24.005C42.908,24.209 43.267,24.317 43.634,24.317C43.878,24.317 44.119,24.269 44.345,24.175C44.57,24.082 44.774,23.945 44.946,23.773C45.119,23.6 45.255,23.396 45.348,23.17C45.441,22.945 45.489,22.704 45.488,22.46Z" fill="#FFFFFF"/>
<path d="M13.604,27.148C13.604,30.23 16.547,36.832 20.96,36.832L51.794,36.832C54.334,35.629 61.51,28.087 61.51,24.057L50.742,24.057L45.489,27.148L13.604,27.148Z" fill="#7D868C"/>
<path d="M14.267,30.35C15.371,33.414 17.784,36.833 20.95,36.833L51.794,36.833C53.254,36.14 56.25,33.367 58.52,30.35L14.267,30.35Z" fill="#FF5959"/>
<g opacity="0.8" style="mix-blend-mode:multiply">
<path d="M13.604,27.148C13.604,30.23 16.547,36.832 20.96,36.832L36.83,36.832L36.83,27.148L13.604,27.148Z" fill="#D1D3D3"/>
</g>
<path d="M58.588,11.2C60.717,13.33 62.524,15.759 63.952,18.411C64.313,18.135 64.712,17.914 65.138,17.755C63.649,14.992 61.765,12.462 59.546,10.242L58.588,11.2ZM68.287,26.414C67.857,26.562 67.409,26.646 66.955,26.662C67.385,28.744 67.601,30.865 67.601,32.991C67.603,35.675 67.255,38.348 66.566,40.942L67.876,41.291C69.163,36.428 69.303,31.333 68.287,26.407L68.287,26.414Z" fill="#61B4E4"/>
<path d="M13.935,10.242C11.728,12.448 9.853,14.962 8.368,17.706C8.799,17.85 9.206,18.057 9.576,18.322C10.996,15.708 12.785,13.312 14.888,11.208L13.935,10.242ZM6.531,26.662C6.078,26.623 5.632,26.519 5.209,26.352C4.176,31.297 4.312,36.416 5.607,41.299L6.917,40.95C5.68,36.282 5.547,31.39 6.531,26.662Z" fill="#61B4E4"/>
<path d="M56.964,54.299C60.569,54.299 65.232,51.898 67.324,48.962L70.918,43.924C73.01,40.991 73.013,36.882 70.918,34.793C69.909,33.789 68.543,33.225 67.12,33.225C65.696,33.225 64.331,33.789 63.321,34.793C62.312,35.796 60.946,36.36 59.523,36.36C58.099,36.36 56.734,35.796 55.724,34.793C54.715,33.789 53.349,33.225 51.926,33.225C50.502,33.225 49.137,33.789 48.127,34.793C47.118,35.796 45.752,36.36 44.329,36.36C42.905,36.36 41.539,35.796 40.53,34.793C39.521,33.789 38.155,33.225 36.732,33.225C35.308,33.225 33.942,33.789 32.933,34.793C31.924,35.796 30.558,36.36 29.135,36.36C27.711,36.36 26.345,35.796 25.336,34.793C24.327,33.789 22.961,33.225 21.538,33.225C20.114,33.225 18.748,33.789 17.739,34.793C16.73,35.796 15.364,36.36 13.941,36.36C12.517,36.36 11.151,35.796 10.142,34.793C9.134,33.788 7.769,33.224 6.346,33.223C4.923,33.221 3.558,33.783 2.547,34.785C0.458,36.874 0.463,40.974 2.547,43.917L6.142,48.954C8.234,51.89 12.895,54.291 16.501,54.291L56.964,54.299Z" fill="#003E63"/>
<path d="M70.924,42.472C69.915,41.468 68.549,40.904 67.125,40.904C65.702,40.904 64.336,41.468 63.327,42.472C62.318,43.476 60.952,44.039 59.528,44.039C58.105,44.039 56.739,43.476 55.73,42.472C54.721,41.468 53.355,40.904 51.931,40.904C50.508,40.904 49.142,41.468 48.133,42.472C47.124,43.476 45.758,44.039 44.334,44.039C42.911,44.039 41.545,43.476 40.536,42.472C39.527,41.468 38.161,40.904 36.737,40.904C35.314,40.904 33.948,41.468 32.939,42.472C31.93,43.476 30.564,44.039 29.14,44.039C27.717,44.039 26.351,43.476 25.342,42.472C24.332,41.468 22.967,40.904 21.543,40.904C20.12,40.904 18.754,41.468 17.745,42.472C16.736,43.476 15.37,44.039 13.946,44.039C12.523,44.039 11.157,43.476 10.148,42.472C9.138,41.468 7.773,40.904 6.349,40.904C4.926,40.904 3.56,41.468 2.551,42.472C2.368,42.663 2.202,42.87 2.056,43.091C2.211,43.378 2.383,43.657 2.571,43.925L6.165,48.962C8.257,51.898 12.918,54.299 16.524,54.299L56.965,54.299C60.569,54.299 65.233,51.898 67.325,48.962L70.919,43.925C71.107,43.657 71.279,43.378 71.434,43.091C71.283,42.869 71.113,42.662 70.924,42.472Z" fill="#61B4E4"/>
<g style="mix-blend-mode:multiply">
<path d="M32.938,34.785C31.929,35.789 30.563,36.353 29.14,36.353C27.716,36.353 26.35,35.789 25.341,34.785C24.332,33.782 22.966,33.218 21.543,33.218C20.119,33.218 18.753,33.782 17.744,34.785C16.735,35.789 15.369,36.353 13.946,36.353C12.522,36.353 11.156,35.789 10.147,34.785C9.138,33.781 7.771,33.217 6.347,33.217C4.923,33.217 3.557,33.781 2.548,34.785C0.458,36.875 0.463,40.974 2.548,43.917L6.142,48.955C8.234,51.89 12.895,54.292 16.501,54.292L36.82,54.292L36.82,33.228C36.101,33.215 35.387,33.345 34.721,33.613C34.054,33.88 33.448,34.279 32.938,34.785Z" fill="#99DAEA"/>
</g>
<path d="M21.113,2.941L24.116,7.853L22.331,8.944L19.811,6.781L21.497,9.454L20.16,10.279L17.152,5.36L18.836,4.338L21.544,6.59L19.769,3.768L21.113,2.941Z" fill="#333E48"/>
<path d="M27.25,5.822L25.973,6.302L26.064,7.06L24.351,7.704L23.931,1.711L25.743,1.027L29.377,5.815L27.664,6.458L27.25,5.822ZM26.339,4.466L25.597,3.367L25.767,4.681L26.339,4.466Z" fill="#333E48"/>
<path d="M30.448,5.392C30.189,5.298 29.952,5.15 29.753,4.959C29.553,4.768 29.396,4.538 29.29,4.283C29.111,3.824 28.987,3.346 28.921,2.857L28.426,0.164L30.025,-0.118L30.52,2.573C30.566,2.933 30.649,3.288 30.768,3.632C30.79,3.69 30.825,3.743 30.871,3.786C30.916,3.829 30.97,3.861 31.03,3.88C31.133,3.911 31.241,3.916 31.347,3.897C31.451,3.878 31.549,3.834 31.631,3.768C31.682,3.73 31.722,3.681 31.75,3.624C31.777,3.567 31.79,3.505 31.787,3.442C31.776,3.078 31.729,2.717 31.646,2.362L31.151,-0.328L32.758,-0.623L33.253,2.068C33.362,2.548 33.416,3.04 33.414,3.533C33.407,3.808 33.343,4.079 33.226,4.328C33.108,4.577 32.941,4.798 32.733,4.979C32.422,5.248 32.045,5.429 31.641,5.504C31.236,5.578 30.82,5.543 30.433,5.402L30.448,5.392Z" fill="#333E48"/>
<path d="M38.045,0.81L36.879,0.833L36.955,4.957L35.322,4.991L35.245,0.872L34.084,0.895L34.052,-0.739L38.012,-0.818L38.045,0.81Z" fill="#333E48"/>
<path d="M38.651,5.018L39.203,-0.715L40.83,-0.559L40.278,5.177L38.651,5.018Z" fill="#333E48"/>
<path d="M43.929,3.867L45.415,4.56C45.006,5.303 44.385,5.798 43.474,5.783C43.312,5.78 43.151,5.761 42.994,5.726C42.817,5.688 42.645,5.63 42.481,5.553C41.179,4.899 41.149,3.538 41.407,2.389C41.699,1.082 42.315,-0.027 43.739,-0.066C44.081,-0.07 44.419,0.003 44.729,0.149C45.556,0.528 45.905,1.241 45.967,2.082L44.328,2.082C44.323,1.991 44.295,1.902 44.247,1.824C44.199,1.746 44.132,1.68 44.053,1.634C43.355,1.313 43.105,2.201 42.981,2.751C42.867,3.261 42.694,4.11 43.476,4.162C43.572,4.162 43.666,4.134 43.747,4.082C43.827,4.029 43.89,3.955 43.929,3.867Z" fill="#333E48"/>
<path d="M48.482,6.714L47.225,6.187L46.779,6.805L45.091,6.098L48.898,1.451L50.685,2.194L50.039,8.167L48.344,7.464L48.482,6.714ZM48.752,5.1L48.962,3.788L48.185,4.862L48.752,5.1Z" fill="#333E48"/>
<path d="M53.45,10.396L50.354,8.433L53.448,3.576L54.866,4.48L52.537,8.138L54.21,9.205L53.45,10.396Z" fill="#333E48"/>
<path d="M6.916,25.211C8.657,25.211 10.069,23.799 10.069,22.057C10.069,20.315 8.657,18.903 6.916,18.903C5.174,18.903 3.762,20.315 3.762,22.057C3.762,23.799 5.174,25.211 6.916,25.211Z" transform="rotate(-1.44 6.916 22.057)" fill="#003E63"/>
<path d="M66.746,25.211C68.487,25.211 69.899,23.8 69.899,22.058C69.899,20.316 68.487,18.904 66.746,18.904C65.004,18.904 63.592,20.316 63.592,22.058C63.592,23.8 65.004,25.211 66.746,25.211Z" transform="rotate(-178.64 66.746 22.058)" fill="#003E63"/>
</svg>
