<svg width="140" height="140" viewBox="0 0 140 140" fill="none" xmlns="http://www.w3.org/2000/svg" xmlns:xlink="http://www.w3.org/1999/xlink">
<path d="M69.225,117.843C96.384,117.843 118.401,95.826 118.401,68.667C118.401,41.507 96.384,19.491 69.225,19.491C42.066,19.491 20.049,41.507 20.049,68.667C20.049,95.826 42.066,117.843 69.225,117.843Z" transform="rotate(-90 69.225 68.667)" fill="#0055B8"/>
<path d="M69.225,109.54C59.109,109.537 49.352,105.784 41.842,99.006C34.332,92.228 29.601,82.906 28.564,72.843L30.961,72.601C31.683,79.61 34.317,86.287 38.575,91.902C42.833,97.516 48.551,101.854 55.106,104.44C61.661,107.027 68.8,107.763 75.745,106.569C82.689,105.375 89.173,102.296 94.487,97.669C99.801,93.041 103.742,87.043 105.88,80.328C108.018,73.614 108.27,66.441 106.61,59.593C104.949,52.745 101.439,46.484 96.464,41.495C91.488,36.505 85.237,32.978 78.393,31.299L78.964,28.953C88.669,31.334 97.167,37.187 102.85,45.406C108.534,53.626 111.01,63.642 109.81,73.563C108.611,83.484 103.819,92.622 96.34,99.25C88.862,105.878 79.214,109.537 69.221,109.536L69.225,109.54Z" fill="#FFFFFF"/>
<path d="M96.554,68.664C96.554,63.259 94.951,57.975 91.948,53.481C88.945,48.986 84.677,45.484 79.683,43.415C74.69,41.347 69.195,40.806 63.894,41.86C58.592,42.915 53.723,45.517 49.901,49.339C46.079,53.161 43.476,58.031 42.422,63.332C41.367,68.633 41.908,74.128 43.977,79.122C46.045,84.116 49.548,88.384 54.042,91.387C58.536,94.39 63.82,95.992 69.225,95.992C72.814,95.992 76.368,95.286 79.683,93.912C82.999,92.539 86.012,90.526 88.549,87.988C91.087,85.45 93.1,82.438 94.473,79.122C95.847,75.806 96.554,72.253 96.554,68.664Z" fill="#61B4E4"/>
<path d="M27.064,57.56L36.118,59.124L35.552,62.412L30.305,63.159L35.286,63.941L34.86,66.408L25.805,64.844L26.34,61.747L31.892,60.868L26.634,60.031L27.064,57.56Z" fill="#FFFFFF"/>
<path d="M37.233,53.385L36.357,55.378L37.342,56.121L36.169,58.796L28.862,52.579L30.109,49.752L39.626,50.957L38.453,53.631L37.233,53.385ZM34.664,52.908L32.58,52.517L34.273,53.791L34.664,52.908Z" fill="#FFFFFF"/>
<path d="M40.384,49.373C39.978,49.543 39.541,49.627 39.101,49.62C38.661,49.612 38.227,49.514 37.827,49.33C37.119,48.983 36.454,48.555 35.845,48.056L32.354,45.436L33.917,43.352L37.409,45.972C37.857,46.34 38.34,46.664 38.851,46.937C38.942,46.981 39.041,47.003 39.141,47.003C39.241,47.003 39.34,46.981 39.43,46.937C39.584,46.862 39.718,46.75 39.821,46.613C39.922,46.478 39.989,46.321 40.016,46.155C40.035,46.056 40.029,45.953 39.999,45.857C39.969,45.76 39.916,45.672 39.844,45.6C39.437,45.189 38.992,44.817 38.515,44.49L35.02,41.87L36.584,39.783L40.079,42.402C40.728,42.847 41.324,43.365 41.854,43.947C42.146,44.276 42.366,44.662 42.5,45.08C42.635,45.499 42.681,45.941 42.636,46.378C42.564,47.03 42.318,47.651 41.925,48.175C41.532,48.7 41.005,49.11 40.4,49.361L40.384,49.373Z" fill="#FFFFFF"/>
<path d="M44.696,35.873L43.296,37.101L47.636,42.051L45.681,43.771L41.338,38.821L39.946,40.041L38.229,38.086L42.984,33.918L44.696,35.873Z" fill="#FFFFFF"/>
<path d="M49.732,40.483L44.771,32.73L46.968,31.33L51.914,39.075L49.732,40.483Z" fill="#FFFFFF"/>
<path d="M55.326,33.946L57.895,33.445C58.059,34.782 57.723,36.006 56.534,36.847C56.325,37.001 56.099,37.132 55.862,37.238C55.596,37.353 55.318,37.44 55.033,37.496C52.742,37.887 51.424,36.143 50.681,34.419C49.833,32.464 49.591,30.443 51.393,29.055C51.833,28.724 52.342,28.5 52.882,28.398C54.306,28.109 55.432,28.703 56.288,29.739L54.165,31.268C54.072,31.152 53.952,31.062 53.815,31.006C53.679,30.95 53.53,30.93 53.383,30.947C52.179,31.185 52.691,32.569 53.047,33.394C53.379,34.176 53.95,35.42 55.002,34.743C55.128,34.657 55.226,34.535 55.283,34.393C55.341,34.251 55.356,34.096 55.326,33.946Z" fill="#FFFFFF"/>
<path d="M63.904,33.613L61.761,34.004L61.707,35.22L58.833,35.744L59.877,26.212L62.919,25.657L67.258,34.208L64.385,34.732L63.904,33.613ZM62.86,31.221L62,29.266L61.894,31.381L62.86,31.221Z" fill="#FFFFFF"/>
<path d="M73.656,34.548L67.791,34.344L68.127,25.161L70.809,25.258L70.555,32.175L73.722,32.292L73.656,34.548Z" fill="#FFFFFF"/>
<path d="M95.205,17.486L95.393,58.928L73.976,58.928C73.956,38.211 86.956,25.716 95.205,17.486Z" fill="#FFFFFF"/>
<g opacity="0.8" style="mix-blend-mode:multiply">
<path d="M95.205,17.486L95.393,58.928L90.904,58.928L90.904,21.822C92.406,20.254 93.86,18.815 95.205,17.486Z" fill="#D1D3D3"/>
</g>
<path d="M95.204,66.85C95.599,66.849 95.977,66.691 96.257,66.412C96.536,66.133 96.693,65.755 96.694,65.36L96.694,17.486C96.675,17.105 96.509,16.745 96.232,16.482C95.956,16.219 95.588,16.073 95.206,16.073C94.825,16.073 94.457,16.219 94.18,16.482C93.904,16.745 93.738,17.105 93.719,17.486L93.719,65.36C93.719,65.755 93.875,66.133 94.154,66.412C94.432,66.691 94.81,66.849 95.204,66.85Z" fill="#493728"/>
<path d="M76.439,32.112L76.626,58.932L61.813,58.932C62.665,48.321 68.619,39.31 76.439,32.112Z" fill="#FFFFFF"/>
<g opacity="0.8" style="mix-blend-mode:multiply">
<path d="M76.439,32.112C75.123,33.319 73.866,34.58 72.67,35.896L72.67,58.932L76.627,58.932L76.439,32.112Z" fill="#D1D3D3"/>
</g>
<path d="M76.439,66.849C76.834,66.848 77.212,66.691 77.491,66.412C77.77,66.133 77.927,65.754 77.928,65.36L77.928,32.272C77.909,31.891 77.744,31.532 77.467,31.269C77.19,31.006 76.823,30.859 76.441,30.859C76.059,30.859 75.692,31.006 75.415,31.269C75.138,31.532 74.973,31.891 74.953,32.272L74.953,65.371C74.956,65.764 75.114,66.139 75.392,66.416C75.67,66.693 76.046,66.848 76.439,66.849Z" fill="#493728"/>
<path d="M109.378,62.146L48.379,62.146L41.146,85.569L109.378,85.569L109.378,62.146Z" fill="#9A6B58"/>
<g opacity="0.8" style="mix-blend-mode:multiply">
<path d="M107.255,70.724L94.631,78.153L43.18,78.153L41.146,85.569L109.378,85.569L109.378,70.724L107.255,70.724Z" fill="#D1D3D3"/>
</g>
<rect  x="46.486" y="62.146" width="64.78" height="3.214" fill="#333E48"/>
<circle cx="75.262" cy="72.37" r="4.461" fill="#FFFFFF"/>
<path d="M90.17,76.831C92.634,76.831 94.631,74.834 94.631,72.37C94.631,69.906 92.634,67.909 90.17,67.909C87.706,67.909 85.709,69.906 85.709,72.37C85.709,74.834 87.706,76.831 90.17,76.831Z" fill="#FFFFFF"/>
<path d="M18.001,80.408C18.001,87.809 25.074,103.679 35.681,103.679L109.781,103.679C115.888,100.786 128.938,88.779 128.938,72.98C108.416,72.98 111.29,80.408 95.315,80.408L18.001,80.408Z" fill="#DEBFA5"/>
<path d="M19.592,88.099C22.246,95.464 28.048,103.679 35.68,103.679L109.78,103.679C113.725,101.81 120.559,96.137 124.911,88.099L19.592,88.099Z" fill="#003E63"/>
<g opacity="0.8" style="mix-blend-mode:multiply">
<path d="M18.001,80.408C18.001,87.809 25.074,103.679 35.681,103.679L73.82,103.679L73.82,80.408L18.001,80.408Z" fill="#D1D3D3"/>
</g>
<g opacity="0.8" style="mix-blend-mode:multiply">
<path d="M58.379,94.186C52.515,84.482 42.741,68.246 20.147,67.252L20.068,67.252C20.068,67.722 20.068,68.191 20.068,68.664C20.061,75.181 21.353,81.635 23.869,87.647C26.385,93.659 30.074,99.11 34.722,103.679L66.781,103.679C63.833,103.679 60.483,97.67 58.379,94.186Z" fill="#D1D3D3"/>
</g>
<path d="M20.057,69.309C20.208,82.249 25.472,94.604 34.698,103.679L64.189,103.679C56.647,103.679 52.112,70.716 20.057,69.309Z" fill="#61B4E4"/>
<path d="M20.667,76.452C22.316,86.795 27.234,96.339 34.699,103.686L53.074,103.686C47.616,94.769 39.688,79.615 20.667,76.452Z" fill="#003E63"/>
</svg>
