<svg width="92" height="90" viewBox="0 0 92 90" fill="none" xmlns="http://www.w3.org/2000/svg" xmlns:xlink="http://www.w3.org/1999/xlink">
<path d="M45.233,76.503C62.737,76.503 76.927,62.313 76.927,44.809C76.927,27.304 62.737,13.114 45.233,13.114C27.728,13.114 13.538,27.304 13.538,44.809C13.538,62.313 27.728,76.503 45.233,76.503Z" transform="rotate(-90 45.233 44.809)" fill="#0055B8"/>
<path d="M45.232,71.151C38.712,71.149 32.424,68.73 27.584,64.362C22.744,59.994 19.695,53.986 19.026,47.5L20.571,47.344C21.037,51.862 22.734,56.165 25.478,59.783C28.222,63.402 31.908,66.198 36.133,67.865C40.357,69.532 44.958,70.006 49.434,69.237C53.91,68.467 58.089,66.483 61.514,63.5C64.939,60.518 67.479,56.652 68.857,52.324C70.235,47.997 70.397,43.374 69.327,38.96C68.257,34.547 65.995,30.512 62.788,27.296C59.581,24.08 55.552,21.807 51.141,20.725L51.509,19.213C57.764,20.747 63.241,24.519 66.904,29.817C70.567,35.114 72.163,41.57 71.39,47.964C70.617,54.358 67.528,60.247 62.708,64.519C57.888,68.791 51.671,71.149 45.23,71.149L45.232,71.151Z" fill="#FFFFFF"/>
<path d="M62.846,44.807C62.846,41.323 61.813,37.918 59.878,35.021C57.942,32.125 55.192,29.867 51.973,28.534C48.755,27.201 45.213,26.852 41.796,27.532C38.38,28.211 35.241,29.889 32.778,32.352C30.315,34.816 28.637,37.954 27.958,41.371C27.278,44.787 27.627,48.329 28.96,51.547C30.293,54.766 32.551,57.517 35.447,59.452C38.344,61.387 41.749,62.42 45.233,62.42C47.546,62.42 49.836,61.965 51.973,61.08C54.11,60.194 56.052,58.897 57.687,57.262C59.323,55.626 60.62,53.684 61.505,51.547C62.391,49.41 62.846,47.12 62.846,44.807Z" fill="#61B4E4"/>
<path d="M18.059,37.65L23.895,38.658L23.53,40.777L20.148,41.259L23.359,41.763L23.084,43.353L17.248,42.345L17.593,40.349L21.171,39.782L17.782,39.243L18.059,37.65Z" fill="#FFFFFF"/>
<path d="M24.613,34.96L24.048,36.245L24.683,36.724L23.927,38.447L19.218,34.441L20.022,32.619L26.155,33.395L25.399,35.119L24.613,34.96ZM22.957,34.653L21.614,34.401L22.705,35.222L22.957,34.653Z" fill="#FFFFFF"/>
<path d="M26.643,32.374C26.382,32.484 26.1,32.538 25.817,32.533C25.533,32.529 25.253,32.465 24.996,32.347C24.539,32.123 24.111,31.847 23.718,31.525L21.468,29.837L22.476,28.494L24.726,30.182C25.015,30.42 25.326,30.628 25.656,30.805C25.714,30.833 25.778,30.847 25.842,30.847C25.907,30.847 25.97,30.833 26.029,30.805C26.128,30.756 26.214,30.684 26.281,30.595C26.345,30.509 26.389,30.408 26.407,30.301C26.418,30.236 26.415,30.17 26.395,30.108C26.376,30.046 26.342,29.989 26.296,29.943C26.033,29.678 25.746,29.438 25.439,29.227L23.186,27.539L24.194,26.193L26.447,27.882C26.865,28.168 27.249,28.502 27.591,28.877C27.779,29.089 27.921,29.338 28.008,29.608C28.094,29.877 28.124,30.162 28.095,30.444C28.048,30.864 27.89,31.264 27.637,31.602C27.383,31.941 27.044,32.205 26.654,32.367L26.643,32.374Z" fill="#FFFFFF"/>
<path d="M29.424,23.674L28.522,24.465L31.319,27.655L30.059,28.764L27.259,25.574L26.362,26.36L25.256,25.1L28.32,22.414L29.424,23.674Z" fill="#FFFFFF"/>
<path d="M32.668,26.645L29.471,21.648L30.887,20.746L34.074,25.738L32.668,26.645Z" fill="#FFFFFF"/>
<path d="M36.275,22.431L37.931,22.109C38.037,22.971 37.82,23.759 37.054,24.301C36.919,24.4 36.774,24.485 36.62,24.553C36.449,24.628 36.27,24.683 36.086,24.719C34.61,24.971 33.76,23.847 33.282,22.736C32.735,21.476 32.579,20.174 33.74,19.279C34.024,19.066 34.352,18.921 34.7,18.856C35.618,18.669 36.343,19.052 36.895,19.72L35.527,20.705C35.467,20.631 35.39,20.573 35.302,20.537C35.213,20.501 35.118,20.488 35.023,20.499C34.247,20.652 34.577,21.544 34.806,22.076C35.02,22.58 35.388,23.381 36.066,22.945C36.147,22.89 36.211,22.811 36.248,22.72C36.285,22.628 36.295,22.528 36.275,22.431Z" fill="#FFFFFF"/>
<path d="M41.802,22.218L40.422,22.47L40.386,23.253L38.534,23.591L39.207,17.448L41.167,17.09L43.964,22.601L42.112,22.938L41.802,22.218ZM41.13,20.676L40.575,19.416L40.507,20.779L41.13,20.676Z" fill="#FFFFFF"/>
<path d="M48.087,22.82L44.308,22.689L44.524,16.77L46.253,16.833L46.089,21.29L48.13,21.366L48.087,22.82Z" fill="#FFFFFF"/>
<path d="M61.977,11.824L62.098,38.534L48.294,38.534C48.281,25.182 56.66,17.128 61.977,11.824Z" fill="#FFFFFF"/>
<g opacity="0.8" style="mix-blend-mode:multiply">
<path d="M61.976,11.824L62.097,38.534L59.204,38.534L59.204,14.619C60.172,13.608 61.109,12.681 61.976,11.824Z" fill="#D1D3D3"/>
</g>
<path d="M61.977,43.638C62.231,43.638 62.475,43.536 62.655,43.356C62.835,43.176 62.936,42.933 62.937,42.678L62.937,11.823C62.925,11.577 62.818,11.346 62.64,11.176C62.461,11.007 62.224,10.912 61.978,10.912C61.732,10.912 61.496,11.007 61.317,11.176C61.139,11.346 61.032,11.577 61.02,11.823L61.02,42.678C61.02,42.932 61.12,43.176 61.3,43.356C61.479,43.536 61.723,43.638 61.977,43.638Z" fill="#493728"/>
<path d="M49.882,21.25L50.003,38.536L40.455,38.536C41.004,31.697 44.842,25.889 49.882,21.25Z" fill="#FFFFFF"/>
<g opacity="0.8" style="mix-blend-mode:multiply">
<path d="M49.882,21.25C49.034,22.028 48.224,22.841 47.453,23.689L47.453,38.536L50.003,38.536L49.882,21.25Z" fill="#D1D3D3"/>
</g>
<path d="M49.881,43.64C50.136,43.639 50.38,43.537 50.559,43.358C50.739,43.178 50.841,42.934 50.841,42.679L50.841,21.354C50.829,21.108 50.722,20.877 50.544,20.707C50.365,20.538 50.129,20.443 49.883,20.443C49.637,20.443 49.4,20.538 49.221,20.707C49.043,20.877 48.936,21.108 48.924,21.354L48.924,42.687C48.926,42.94 49.027,43.182 49.207,43.36C49.386,43.538 49.628,43.639 49.881,43.64Z" fill="#493728"/>
<path d="M71.111,40.607L31.796,40.607L27.135,55.704L71.111,55.704L71.111,40.607Z" fill="#9A6B58"/>
<g opacity="0.8" style="mix-blend-mode:multiply">
<path d="M69.742,46.135L61.606,50.922L28.445,50.922L27.135,55.703L71.111,55.703L71.111,46.135L69.742,46.135Z" fill="#D1D3D3"/>
</g>
<rect  x="30.578" y="40.607" width="41.751" height="2.071" fill="#333E48"/>
<circle cx="49.123" cy="47.197" r="2.875" fill="#FFFFFF"/>
<path d="M58.731,50.072C60.318,50.072 61.606,48.785 61.606,47.197C61.606,45.609 60.318,44.322 58.731,44.322C57.143,44.322 55.855,45.609 55.855,47.197C55.855,48.785 57.143,50.072 58.731,50.072Z" fill="#FFFFFF"/>
<path d="M12.218,52.377C12.218,57.148 16.776,67.375 23.612,67.375L71.37,67.375C75.306,65.511 83.718,57.772 83.718,47.59C70.491,47.59 72.343,52.377 62.047,52.377L12.218,52.377Z" fill="#DEBFA5"/>
<path d="M13.244,57.334C14.955,62.081 18.695,67.375 23.613,67.375L71.371,67.375C73.914,66.171 78.318,62.515 81.123,57.334L13.244,57.334Z" fill="#003E63"/>
<g opacity="0.8" style="mix-blend-mode:multiply">
<path d="M12.218,52.377C12.218,57.147 16.776,67.375 23.612,67.375L48.193,67.375L48.193,52.377L12.218,52.377Z" fill="#D1D3D3"/>
</g>
<g opacity="0.8" style="mix-blend-mode:multiply">
<path d="M38.244,61.257C34.464,55.003 28.164,44.538 13.602,43.898L13.552,43.898C13.552,44.201 13.552,44.503 13.552,44.808C13.547,49.009 14.38,53.168 16.001,57.043C17.623,60.918 20.001,64.431 22.996,67.376L43.659,67.376C41.759,67.376 39.599,63.503 38.244,61.257Z" fill="#D1D3D3"/>
</g>
<path d="M13.544,45.223C13.642,53.563 17.034,61.526 22.981,67.374L41.988,67.374C37.127,67.374 34.204,46.13 13.544,45.223Z" fill="#61B4E4"/>
<path d="M13.937,49.826C15,56.493 18.169,62.644 22.98,67.379L34.823,67.379C31.306,61.631 26.195,51.865 13.937,49.826Z" fill="#003E63"/>
</svg>
