<svg width="76" height="78" viewBox="0 0 76 78" fill="none" xmlns="http://www.w3.org/2000/svg" xmlns:xlink="http://www.w3.org/1999/xlink">
<path d="M62.758,61.214L61.518,59.974C67.634,53.876 71.198,45.679 71.486,37.048L73.236,37.109C72.934,46.184 69.188,54.803 62.758,61.214Z" fill="#61B4E4"/>
<path d="M12.054,61.214C5.623,54.804 1.876,46.184 1.576,37.109L3.325,37.048C3.611,45.678 7.174,53.876 13.288,59.974L12.054,61.214Z" fill="#61B4E4"/>
<path d="M70.931,29.585C69.467,21.763 65.314,14.699 59.191,9.616C53.068,4.533 45.361,1.751 37.403,1.751C29.445,1.751 21.738,4.533 15.615,9.616C9.492,14.699 5.339,21.763 3.875,29.585L2.153,29.265C3.686,21.034 8.05,13.599 14.489,8.249C20.928,2.898 29.036,-0.031 37.408,-0.031C45.781,-0.031 53.889,2.898 60.328,8.249C66.767,13.599 71.131,21.034 72.664,29.265L70.931,29.585Z" fill="#61B4E4"/>
<path d="M14.249,68.708C12.964,67.771 13.018,66.134 13.902,64.86C14.786,63.585 16.282,62.904 17.641,63.791C18.045,64.086 18.349,64.497 18.512,64.97C18.674,65.443 18.687,65.955 18.549,66.435L16.968,65.77C16.971,65.65 16.946,65.53 16.895,65.421C16.843,65.312 16.767,65.217 16.672,65.143C16.159,64.822 15.59,65.282 15.248,65.778C14.944,66.222 14.661,66.935 15.181,67.346C15.312,67.426 15.464,67.464 15.616,67.454C15.769,67.444 15.915,67.387 16.033,67.29L15.414,66.849L16.055,65.944L18.135,67.418C17.235,68.708 15.817,69.726 14.249,68.708Z" fill="#333E48"/>
<path d="M17.174,70.541L20.016,65.439L21.463,66.24L18.621,71.345L17.174,70.541Z" fill="#333E48"/>
<path d="M23.055,73.396L19.65,71.914L22.005,66.572L23.565,67.261L21.792,71.283L23.632,72.084L23.055,73.396Z" fill="#333E48"/>
<path d="M23.894,73.671L25.745,68.134L27.315,68.668L25.467,74.205L23.894,73.671Z" fill="#333E48"/>
<path d="M27.561,74.766C27.326,74.638 27.127,74.454 26.979,74.232C26.765,73.913 26.638,73.545 26.607,73.163C26.6,73.074 26.6,72.985 26.607,72.896L28.266,72.896C28.261,72.936 28.261,72.977 28.266,73.016C28.26,73.113 28.289,73.208 28.349,73.284C28.368,73.307 28.393,73.325 28.421,73.334C28.478,73.358 28.543,73.358 28.6,73.334C28.637,73.321 28.671,73.3 28.699,73.273C28.757,73.223 28.803,73.161 28.835,73.091C28.983,72.765 29.091,72.423 29.158,72.071L29.802,69.304L31.404,69.678L30.75,72.448C30.653,72.939 30.496,73.416 30.283,73.868C30.065,74.292 29.714,74.631 29.284,74.835C28.897,75.014 28.462,75.059 28.047,74.964C27.875,74.924 27.711,74.858 27.561,74.766Z" fill="#333E48"/>
<path d="M33.338,71.585L33.295,71.991L35.213,72.191L35.055,73.705L33.138,73.505L33.074,74.098L35.24,74.325L35.066,75.97L31.255,75.578L31.864,69.777L35.675,70.169L35.501,71.814L33.338,71.585Z" fill="#333E48"/>
<path d="M40.138,71.767L38.955,71.788L39.035,75.968L37.382,76.003L37.299,71.823L36.124,71.844L36.089,70.188L40.095,70.111L40.138,71.767Z" fill="#333E48"/>
<path d="M46.743,70.645L45.584,70.888L46.436,74.98L44.815,75.319L43.963,71.225L42.812,71.465L42.472,69.844L46.404,69.024L46.743,70.645Z" fill="#333E48"/>
<path d="M50.782,73.783C50.457,73.903 50.109,73.948 49.764,73.915C49.419,73.881 49.087,73.769 48.792,73.588C48.154,73.179 47.677,72.563 47.44,71.844C47.161,71.141 47.122,70.365 47.331,69.638C47.438,69.305 47.621,69.001 47.864,68.75C48.107,68.499 48.404,68.306 48.733,68.187L48.749,68.187C49.075,68.07 49.423,68.028 49.768,68.063C50.113,68.098 50.446,68.21 50.741,68.39C51.38,68.799 51.857,69.415 52.093,70.135C52.374,70.837 52.412,71.614 52.202,72.341C52.096,72.672 51.915,72.975 51.673,73.224C51.43,73.474 51.134,73.664 50.806,73.78L50.79,73.78L50.782,73.783ZM48.912,70.156C48.841,70.528 48.873,70.913 49.004,71.269C49.135,71.625 49.361,71.938 49.657,72.175C49.745,72.227 49.843,72.258 49.945,72.268C50.046,72.278 50.149,72.265 50.245,72.231C50.339,72.198 50.424,72.143 50.494,72.072C50.563,72 50.615,71.913 50.645,71.817C50.731,71.444 50.699,71.054 50.552,70.701C50.435,70.339 50.207,70.023 49.9,69.798C49.812,69.745 49.714,69.712 49.611,69.702C49.509,69.693 49.406,69.706 49.31,69.742C49.213,69.771 49.124,69.823 49.052,69.893C48.979,69.963 48.923,70.05 48.891,70.145L48.912,70.156Z" fill="#333E48"/>
<path d="M54.911,71.716C54.631,71.703 54.358,71.632 54.107,71.508C53.857,71.384 53.635,71.209 53.455,70.995C53.144,70.604 52.88,70.178 52.667,69.726L51.375,67.272L52.841,66.5L54.134,68.954C54.289,69.288 54.478,69.606 54.697,69.902C54.736,69.953 54.786,69.994 54.842,70.022C54.899,70.05 54.962,70.065 55.026,70.065C55.135,70.063 55.241,70.035 55.338,69.985C55.438,69.938 55.524,69.866 55.589,69.777C55.626,69.725 55.649,69.664 55.658,69.601C55.667,69.538 55.661,69.474 55.64,69.414C55.52,69.065 55.365,68.73 55.178,68.412L53.888,65.957L55.354,65.186L56.631,67.64C56.882,68.071 57.083,68.53 57.229,69.008C57.305,69.275 57.325,69.556 57.286,69.832C57.248,70.108 57.153,70.373 57.007,70.61C56.789,70.965 56.479,71.254 56.11,71.449C55.741,71.643 55.327,71.734 54.911,71.713L54.911,71.716Z" fill="#333E48"/>
<path d="M59.705,67.453L59.577,67.544L60.431,68.735L59.096,69.702L55.683,64.969L57.269,63.829C57.662,63.539 58.14,63.386 58.629,63.393C58.972,63.403 59.308,63.492 59.611,63.654C59.914,63.816 60.176,64.046 60.375,64.325C60.574,64.605 60.705,64.927 60.759,65.267C60.812,65.606 60.786,65.953 60.683,66.281C60.683,66.281 60.683,66.281 60.683,66.297L62.614,67.183L61.166,68.222L59.705,67.453ZM58.209,65.113L57.961,65.292L58.645,66.249L58.928,66.046C59.036,65.989 59.12,65.894 59.162,65.778C59.204,65.663 59.201,65.537 59.155,65.423C59.107,65.309 59.034,65.208 58.941,65.127C58.841,65.038 58.712,64.988 58.578,64.985C58.443,64.983 58.313,65.028 58.209,65.113Z" fill="#333E48"/>
<path d="M37.405,63.92C52.903,63.92 65.466,51.357 65.466,35.86C65.466,20.362 52.903,7.799 37.405,7.799C21.908,7.799 9.345,20.362 9.345,35.86C9.345,51.357 21.908,63.92 37.405,63.92Z" transform="rotate(-161.64 37.405 35.86)" fill="#0055B8"/>
<g opacity="0.7" style="mix-blend-mode:multiply">
<path d="M37.403,7.812C33.695,7.776 30.017,8.475 26.581,9.869C23.145,11.263 20.019,13.324 17.385,15.933C14.75,18.542 12.659,21.648 11.231,25.07C9.804,28.492 9.069,32.163 9.069,35.871C9.069,39.579 9.804,43.25 11.231,46.673C12.659,50.095 14.75,53.2 17.385,55.809C20.019,58.419 23.145,60.48 26.581,61.874C30.017,63.267 33.695,63.966 37.403,63.93L37.403,7.812Z" fill="#3FBFAD"/>
</g>
<path d="M30.365,28.576L30.368,25.616L20.825,19.033L27.409,28.576L30.365,28.576Z" fill="#FED771"/>
<g style="mix-blend-mode:multiply">
<path d="M20.825,19.033L27.409,28.576L30.365,28.576L20.825,19.033Z" fill="#FADF8D"/>
</g>
<path d="M30.365,28.576L27.409,28.576L20.825,38.116L30.365,31.532L30.365,28.576Z" fill="#FED771"/>
<g style="mix-blend-mode:multiply">
<path d="M20.825,38.116L30.365,31.532L30.365,28.576L20.825,38.116Z" fill="#FADF8D"/>
</g>
<path d="M30.365,28.576L30.365,31.532L39.908,38.116L33.325,28.576L30.365,28.576Z" fill="#FED771"/>
<g style="mix-blend-mode:multiply">
<path d="M39.908,38.116L33.325,28.576L30.365,28.576L39.908,38.116Z" fill="#FADF8D"/>
</g>
<path d="M30.365,28.576L33.325,28.576L39.908,19.033L30.365,25.616L30.365,28.576Z" fill="#FED771"/>
<g style="mix-blend-mode:multiply">
<path d="M39.908,19.033L30.365,25.616L30.365,28.576L39.908,19.033Z" fill="#FADF8D"/>
</g>
<path d="M30.365,28.576L33.135,25.809L30.365,13.622L27.598,25.809L30.365,28.576Z" fill="#FADF8D"/>
<g style="mix-blend-mode:multiply">
<path d="M30.365,13.622L27.598,25.809L30.365,28.576L30.365,13.622Z" fill="#DEBFA5"/>
</g>
<path d="M30.365,28.576L27.598,25.806L15.414,28.576L27.598,31.343L30.365,28.576Z" fill="#FADF8D"/>
<g style="mix-blend-mode:multiply">
<path d="M15.414,28.576L27.598,31.343L30.365,28.576L15.414,28.576Z" fill="#DEBFA5"/>
</g>
<path d="M30.365,28.576L27.598,31.343L30.365,43.527L33.135,31.343L30.365,28.576Z" fill="#FADF8D"/>
<g style="mix-blend-mode:multiply">
<path d="M30.365,43.527L33.135,31.343L30.365,28.576L30.365,43.527Z" fill="#DEBFA5"/>
</g>
<path d="M30.365,28.576L33.135,31.343L45.32,28.576L33.135,25.806L30.365,28.576Z" fill="#FADF8D"/>
<g style="mix-blend-mode:multiply">
<path d="M45.32,28.576L33.135,25.806L30.365,28.576L45.32,28.576Z" fill="#DEBFA5"/>
</g>
<path d="M42.539,26.052C41.324,26.051 40.121,26.29 38.999,26.755C37.876,27.22 36.856,27.901 35.997,28.76C35.138,29.619 34.456,30.639 33.991,31.761C33.527,32.883 33.287,34.086 33.287,35.301L33.287,45.135L8.945,45.135C8.913,47.969 9.444,50.78 10.506,53.407C11.569,56.033 13.141,58.423 15.134,60.438C17.126,62.453 19.498,64.052 22.113,65.144C24.728,66.236 27.533,66.798 30.367,66.798C33.2,66.798 36.005,66.236 38.62,65.144C41.235,64.052 43.607,62.453 45.599,60.438C47.592,58.423 49.165,56.033 50.227,53.407C51.289,50.78 51.82,47.969 51.788,45.135L51.788,35.301C51.789,34.086 51.55,32.883 51.085,31.761C50.62,30.639 49.939,29.619 49.08,28.76C48.221,27.901 47.201,27.22 46.079,26.755C44.957,26.29 43.754,26.051 42.539,26.052Z" fill="#FFFFFF"/>
<path d="M11.282,45.135C11.258,46.736 11.553,48.325 12.149,49.811C12.745,51.297 13.63,52.649 14.754,53.789C15.877,54.93 17.216,55.835 18.693,56.453C20.17,57.072 21.755,57.39 23.356,57.39C24.956,57.39 26.541,57.072 28.018,56.453C29.495,55.835 30.834,54.93 31.957,53.789C33.081,52.649 33.966,51.297 34.562,49.811C35.158,48.325 35.453,46.736 35.429,45.135L11.282,45.135Z" fill="#D1D3D3"/>
<path d="M44.486,33.987C44.487,33.755 44.419,33.529 44.29,33.336C44.162,33.144 43.98,32.993 43.766,32.904C43.552,32.815 43.317,32.792 43.09,32.837C42.863,32.881 42.654,32.993 42.49,33.156C42.326,33.32 42.215,33.528 42.169,33.755C42.124,33.982 42.147,34.217 42.235,34.431C42.324,34.645 42.474,34.828 42.666,34.957C42.859,35.085 43.085,35.154 43.316,35.154C43.626,35.154 43.923,35.031 44.143,34.812C44.362,34.594 44.486,34.297 44.486,33.987Z" fill="#1E252B"/>
<path d="M57.523,38.178C57.522,37.536 57.267,36.92 56.812,36.466C56.358,36.013 55.742,35.758 55.1,35.758L51.789,35.758L51.789,38.178L57.523,38.178Z" fill="#FFB700"/>
<path d="M56.759,38.178C56.759,38.82 56.504,39.436 56.049,39.891C55.595,40.345 54.979,40.6 54.337,40.6L51.789,40.6L51.789,38.178L56.759,38.178Z" fill="#D49000"/>
<path d="M37.403,65.378C31.564,65.378 25.856,63.647 21.001,60.404C16.146,57.16 12.362,52.55 10.127,47.156C7.892,41.761 7.307,35.826 8.446,30.099C9.585,24.372 12.396,19.112 16.525,14.983C20.653,10.854 25.914,8.042 31.64,6.903C37.367,5.763 43.303,6.348 48.697,8.582C54.092,10.816 58.702,14.6 61.946,19.455C65.19,24.31 66.922,30.018 66.922,35.856C66.913,43.683 63.801,51.186 58.267,56.721C52.733,62.255 45.23,65.369 37.403,65.378ZM37.403,9.26C32.142,9.26 26.999,10.82 22.625,13.743C18.251,16.666 14.841,20.82 12.828,25.681C10.815,30.541 10.289,35.89 11.315,41.049C12.342,46.209 14.875,50.949 18.595,54.669C22.316,58.389 27.056,60.922 32.216,61.948C37.375,62.974 42.724,62.447 47.584,60.433C52.444,58.419 56.599,55.01 59.521,50.635C62.443,46.26 64.003,41.117 64.003,35.856C63.994,28.805 61.189,22.044 56.202,17.058C51.216,12.072 44.455,9.268 37.403,9.26Z" fill="#7C6755"/>
<g style="mix-blend-mode:multiply">
<path d="M12.139,27.28L12.19,27.379C12.275,27.112 12.366,26.872 12.457,26.621C12.19,26.086 11.923,25.467 11.744,25.018C11.503,24.42 11.255,23.717 10.988,22.881C10.988,22.841 10.964,22.801 10.953,22.761C10.828,23.015 10.705,23.271 10.585,23.528C10.798,24.174 11.004,24.74 11.204,25.237C11.6,26.175 11.888,26.808 12.139,27.28ZM11.071,40.101L11.164,40.165C11.122,39.898 11.081,39.63 11.044,39.363C10.649,39.07 10.144,38.685 9.674,38.295C9.204,37.905 8.472,37.245 8.007,36.759L7.903,36.652C7.903,36.944 7.925,37.229 7.941,37.518C8.379,37.94 8.902,38.399 9.292,38.738C9.93,39.273 10.633,39.788 11.06,40.101L11.071,40.101ZM10.753,35.09C10.777,35.117 10.801,35.138 10.825,35.162C10.825,34.895 10.844,34.628 10.857,34.361C10.483,33.958 10.072,33.477 9.709,33.039C9.174,32.4 8.702,31.717 8.352,31.225C8.325,31.185 8.304,31.148 8.277,31.11C8.232,31.377 8.192,31.671 8.154,31.952C8.469,32.395 8.849,32.913 9.257,33.41C9.725,33.987 10.278,34.631 10.742,35.09L10.753,35.09ZM11.159,31.132C11.18,31.161 11.202,31.188 11.22,31.217C11.268,30.95 11.319,30.683 11.373,30.416C11.106,30.029 10.796,29.54 10.432,28.934C10.018,28.245 9.658,27.526 9.364,26.938C9.345,26.898 9.329,26.858 9.311,26.821C9.223,27.088 9.14,27.355 9.06,27.622C9.313,28.119 9.594,28.675 9.933,29.225C10.422,30.077 10.822,30.694 11.148,31.132L11.159,31.132ZM11.99,43.971L12.099,44.021C12.014,43.754 11.933,43.503 11.859,43.242C11.402,42.998 10.862,42.707 10.336,42.376C9.535,41.871 8.886,41.431 8.467,41.105L8.352,41.017C8.403,41.3 8.456,41.583 8.515,41.866C8.915,42.152 9.423,42.488 10.032,42.87C10.718,43.311 11.474,43.706 11.979,43.971L11.99,43.971ZM13.48,47.659L13.6,47.694C13.477,47.451 13.36,47.205 13.245,46.959C12.633,46.746 12.091,46.537 11.605,46.329C10.689,45.928 10.021,45.611 9.562,45.354L9.439,45.287C9.53,45.555 9.629,45.822 9.727,46.102C10.157,46.318 10.697,46.569 11.373,46.866C11.976,47.128 12.663,47.387 13.469,47.659L13.48,47.659ZM21.909,57.459C21.69,57.301 21.474,57.138 21.26,56.975C20.771,57.05 20.173,57.122 19.508,57.186C18.792,57.234 17.89,57.288 17.243,57.277L17.12,57.277C17.326,57.472 17.54,57.667 17.753,57.857C18.333,57.857 18.995,57.806 19.554,57.768C20.451,57.68 21.223,57.581 21.789,57.48L21.909,57.459ZM25.285,59.529C25.048,59.406 24.812,59.278 24.577,59.149C24.062,59.31 23.456,59.464 22.873,59.614C22.099,59.79 21.271,59.951 20.651,60.041L20.528,60.057C20.763,60.223 20.998,60.383 21.239,60.538C21.773,60.447 22.403,60.322 23.012,60.183C23.776,59.988 24.575,59.78 25.176,59.566L25.285,59.529ZM15.617,51.102C15.462,50.88 15.312,50.656 15.163,50.429C14.644,50.333 14.041,50.199 13.44,50.052C12.695,49.847 11.853,49.609 11.274,49.39L11.148,49.347C11.282,49.614 11.415,49.855 11.557,50.108C12.091,50.282 12.716,50.458 13.293,50.616C14.094,50.813 14.896,50.982 15.496,51.083L15.617,51.102ZM18.13,54.171C17.943,53.976 17.761,53.775 17.596,53.575C17.062,53.556 16.437,53.508 15.833,53.455C14.97,53.356 14.153,53.236 13.592,53.124L13.469,53.1C13.638,53.332 13.808,53.562 13.985,53.789C14.495,53.874 15.112,53.96 15.774,54.037C16.575,54.107 17.377,54.176 18.02,54.168L18.13,54.171ZM61.337,24.059L61.219,24.022C61.339,24.266 61.456,24.512 61.572,24.759C62.181,24.973 62.723,25.178 63.212,25.387C64.128,25.787 64.796,26.108 65.255,26.364L65.378,26.431C65.287,26.164 65.188,25.897 65.089,25.63C64.662,25.411 64.12,25.16 63.444,24.863C62.83,24.591 62.144,24.332 61.337,24.059ZM28.923,61.072C28.669,60.984 28.416,60.896 28.165,60.805C27.63,61.072 27.011,61.339 26.562,61.516C25.964,61.759 25.264,62.007 24.425,62.274L24.302,62.309C24.569,62.434 24.812,62.557 25.069,62.678C25.718,62.461 26.281,62.258 26.778,62.058C27.724,61.665 28.357,61.377 28.827,61.126L28.923,61.072ZM34.986,8.117C35.413,7.625 36.036,6.918 36.522,6.453L36.626,6.349C36.337,6.349 36.052,6.37 35.763,6.386C35.341,6.824 34.882,7.345 34.543,7.737C33.99,8.384 33.496,9.073 33.162,9.516C33.138,9.548 33.119,9.578 33.098,9.61C33.365,9.567 33.632,9.527 33.899,9.49C34.206,9.086 34.583,8.592 34.986,8.117ZM62.827,27.748L62.718,27.694C62.803,27.961 62.883,28.215 62.958,28.477C63.415,28.72 63.954,29.011 64.481,29.342C65.282,29.847 65.931,30.285 66.35,30.614L66.465,30.699C66.417,30.416 66.361,30.133 66.302,29.852C65.901,29.567 65.394,29.23 64.785,28.845C64.083,28.405 63.335,28.012 62.827,27.748ZM30.886,8.784C31.394,7.983 31.832,7.332 32.157,6.915L32.246,6.797C31.96,6.848 31.679,6.904 31.396,6.96C31.111,7.364 30.774,7.871 30.392,8.477C29.949,9.185 29.556,9.938 29.292,10.443L29.238,10.55C29.505,10.467 29.759,10.387 30.021,10.312C30.264,9.845 30.558,9.308 30.886,8.782L30.886,8.784ZM15.793,20.232C15.793,20.275 15.806,20.315 15.814,20.355C15.972,20.136 16.132,19.919 16.298,19.706C16.223,19.214 16.151,18.619 16.087,17.951C16.039,17.238 15.983,16.348 15.996,15.689L15.996,15.558C15.798,15.766 15.606,15.98 15.414,16.194C15.414,16.773 15.467,17.435 15.504,17.994C15.579,18.896 15.681,19.668 15.793,20.232ZM13.707,23.621L13.744,23.731C13.867,23.493 13.995,23.255 14.124,23.02C13.963,22.505 13.806,21.901 13.659,21.319C13.48,20.544 13.322,19.716 13.232,19.097C13.232,19.054 13.218,19.014 13.213,18.974C13.05,19.206 12.89,19.444 12.732,19.682C12.826,20.216 12.951,20.846 13.09,21.458C13.274,22.235 13.483,23.018 13.696,23.621L13.707,23.621ZM19.818,14.273C19.917,13.41 20.037,12.596 20.146,12.035L20.17,11.912C19.941,12.08 19.711,12.251 19.484,12.425C19.399,12.938 19.313,13.552 19.236,14.214C19.166,15.016 19.102,15.83 19.102,16.463L19.102,16.583C19.296,16.405 19.494,16.227 19.695,16.049C19.703,15.502 19.754,14.877 19.799,14.273L19.818,14.273ZM26.944,10.05C27.344,9.132 27.662,8.467 27.919,8.005L27.986,7.882C27.718,7.975 27.451,8.071 27.171,8.173C26.955,8.6 26.703,9.142 26.407,9.818C26.14,10.43 25.873,11.116 25.606,11.925C25.606,11.968 25.582,12.006 25.568,12.043C25.814,11.923 26.057,11.803 26.306,11.69C26.517,11.079 26.725,10.537 26.933,10.05L26.944,10.05ZM23.221,11.896C23.426,11.148 23.664,10.307 23.883,9.73C23.883,9.685 23.912,9.645 23.926,9.604C23.669,9.738 23.416,9.874 23.165,10.013C22.994,10.534 22.823,11.146 22.657,11.749C22.459,12.55 22.289,13.352 22.19,13.95C22.19,13.993 22.19,14.033 22.171,14.073C22.393,13.918 22.617,13.766 22.841,13.619C22.93,13.101 23.063,12.494 23.21,11.896L23.221,11.896ZM59.024,51.484C59.024,51.441 59.011,51.404 59.003,51.364C58.845,51.583 58.685,51.799 58.519,52.013C58.594,52.501 58.666,53.1 58.73,53.765C58.778,54.481 58.834,55.381 58.821,56.03L58.821,56.155C59.019,55.947 59.211,55.736 59.403,55.522C59.403,54.943 59.35,54.278 59.312,53.719C59.227,52.822 59.125,52.05 59.024,51.484ZM61.227,18.592L61.35,18.616C61.183,18.383 61.012,18.153 60.837,17.927C60.325,17.841 59.71,17.756 59.048,17.681C58.247,17.612 57.445,17.548 56.807,17.548L56.676,17.548C56.863,17.743 57.045,17.94 57.224,18.141C57.758,18.159 58.383,18.21 58.989,18.261C59.863,18.362 60.664,18.48 61.227,18.592ZM61.11,48.097C61.11,48.057 61.086,48.022 61.072,47.985C60.95,48.225 60.821,48.46 60.693,48.695C60.853,49.211 61.011,49.815 61.158,50.397C61.337,51.174 61.494,51.999 61.585,52.622C61.585,52.664 61.599,52.702 61.604,52.745C61.767,52.509 61.927,52.272 62.085,52.034C61.991,51.5 61.866,50.87 61.727,50.261C61.532,49.497 61.324,48.698 61.11,48.097ZM63.532,22.326L63.658,22.371C63.524,22.115 63.388,21.861 63.249,21.61C62.728,21.439 62.117,21.266 61.513,21.1C60.712,20.905 59.911,20.734 59.31,20.635L59.19,20.616C59.344,20.838 59.494,21.06 59.644,21.287C60.162,21.386 60.768,21.517 61.366,21.666C62.152,21.882 62.955,22.11 63.532,22.326ZM54.986,57.443C54.887,58.305 54.767,59.123 54.657,59.683C54.657,59.726 54.641,59.764 54.63,59.804C54.865,59.638 55.092,59.464 55.319,59.291C55.408,58.778 55.493,58.164 55.568,57.501C55.637,56.7 55.701,55.899 55.701,55.255L55.701,55.132C55.506,55.317 55.309,55.498 55.108,55.68C55.103,56.217 55.055,56.839 54.999,57.443L54.986,57.443ZM57.56,14.441L57.686,14.441C57.475,14.244 57.264,14.051 57.05,13.859C56.471,13.873 55.805,13.91 55.25,13.95C54.353,14.035 53.581,14.134 53.014,14.236L52.894,14.26C53.113,14.417 53.33,14.578 53.543,14.743C54.032,14.668 54.63,14.596 55.298,14.532C56.025,14.489 56.925,14.428 57.574,14.441L57.56,14.441ZM64.051,36.628L63.978,36.554C63.978,36.821 63.96,37.088 63.946,37.355C64.323,37.761 64.732,38.242 65.095,38.69C65.629,39.326 66.102,40.01 66.452,40.504L66.526,40.616C66.572,40.349 66.612,40.058 66.649,39.775C66.334,39.331 65.952,38.813 65.546,38.316C65.081,37.726 64.529,37.088 64.064,36.628L64.051,36.628ZM62.654,44.435C62.635,44.403 62.619,44.371 62.603,44.339C62.517,44.593 62.427,44.847 62.336,45.098C62.603,45.632 62.87,46.252 63.049,46.7C63.289,47.301 63.538,48.001 63.805,48.837C63.818,48.88 63.829,48.917 63.84,48.957C63.965,48.703 64.088,48.45 64.208,48.191C63.994,47.544 63.789,46.981 63.588,46.481C63.207,45.541 62.918,44.908 62.667,44.435L62.654,44.435ZM66.863,34.219C66.425,33.797 65.904,33.338 65.511,32.999C64.862,32.446 64.16,31.93 63.733,31.618L63.639,31.551C63.682,31.82 63.722,32.087 63.759,32.352C64.155,32.649 64.659,33.033 65.13,33.421C65.6,33.808 66.331,34.47 66.796,34.956L66.9,35.061C66.906,34.788 66.892,34.505 66.876,34.219L66.863,34.219ZM63.645,40.587L63.583,40.499C63.535,40.766 63.484,41.033 63.431,41.3C63.698,41.684 64.008,42.173 64.374,42.779C64.785,43.471 65.146,44.187 65.442,44.777L65.495,44.895C65.584,44.628 65.666,44.361 65.747,44.094C65.493,43.597 65.212,43.039 64.873,42.491C64.384,41.642 63.984,41.022 63.658,40.587L63.645,40.587ZM39.831,63.599C39.404,64.093 38.781,64.801 38.295,65.266L38.191,65.37C38.479,65.37 38.768,65.348 39.054,65.332C39.476,64.894 39.935,64.371 40.274,63.981C40.83,63.329 41.343,62.627 41.655,62.202L41.722,62.106C41.455,62.151 41.188,62.191 40.921,62.226C40.606,62.624 40.224,63.129 39.831,63.599ZM51.607,59.822C51.401,60.568 51.164,61.409 50.947,61.988C50.931,62.031 50.915,62.071 50.902,62.111C51.158,61.98 51.412,61.843 51.663,61.703C51.834,61.185 52.008,60.573 52.17,59.969C52.368,59.168 52.539,58.367 52.638,57.766C52.638,57.723 52.651,57.683 52.657,57.643C52.435,57.798 52.21,57.95 51.986,58.1C51.877,58.615 51.743,59.221 51.596,59.822L51.607,59.822ZM41.324,6.597C40.881,6.915 40.36,7.294 39.866,7.703C39.291,8.181 38.642,8.731 38.183,9.196L38.108,9.268C38.375,9.268 38.642,9.289 38.909,9.303C39.313,8.926 39.794,8.517 40.232,8.151C40.867,7.617 41.567,7.147 42.045,6.797L42.157,6.723C41.874,6.677 41.594,6.634 41.313,6.597L41.324,6.597ZM44.318,8.881C45.007,8.469 45.726,8.109 46.313,7.812L46.431,7.759C46.164,7.671 45.897,7.588 45.629,7.508C45.133,7.759 44.574,8.042 44.027,8.381C43.196,8.883 42.577,9.284 42.141,9.61L42.056,9.671C42.323,9.719 42.59,9.77 42.857,9.823C43.22,9.554 43.709,9.241 44.318,8.881ZM34.58,63.564C33.944,64.098 33.261,64.571 32.766,64.918L32.654,64.996C32.921,65.041 33.212,65.081 33.493,65.119C33.936,64.804 34.457,64.422 34.951,64.016C35.525,63.535 36.175,62.985 36.634,62.52L36.709,62.448C36.442,62.448 36.175,62.429 35.907,62.413C35.499,62.79 35.023,63.198 34.58,63.564ZM32.761,62.053C32.494,62.004 32.227,61.954 31.96,61.898C31.575,62.165 31.086,62.475 30.478,62.84C29.788,63.254 29.07,63.615 28.482,63.909L28.365,63.962C28.632,64.048 28.899,64.133 29.166,64.211C29.663,63.96 30.221,63.676 30.769,63.34C31.599,62.838 32.219,62.434 32.654,62.111L32.761,62.053ZM54.166,11.674L54.288,11.658C54.053,11.495 53.818,11.335 53.578,11.178C53.044,11.271 52.416,11.397 51.805,11.535C51.043,11.73 50.247,11.936 49.641,12.152L49.532,12.19C49.769,12.313 50.004,12.441 50.239,12.569C50.758,12.409 51.361,12.251 51.943,12.102C52.718,11.925 53.549,11.765 54.166,11.674ZM47.876,61.668C47.472,62.584 47.155,63.249 46.898,63.711L46.831,63.834C47.098,63.741 47.366,63.644 47.633,63.546C47.849,63.116 48.103,62.573 48.396,61.9C48.664,61.286 48.917,60.6 49.198,59.79L49.235,59.673C48.989,59.796 48.746,59.913 48.498,60.028C48.29,60.637 48.081,61.179 47.876,61.668ZM43.92,62.937C43.415,63.738 42.975,64.387 42.649,64.806L42.561,64.921C42.846,64.87 43.129,64.817 43.41,64.758C43.696,64.358 44.032,63.85 44.414,63.241C44.855,62.533 45.234,61.812 45.515,61.275L45.568,61.168C45.301,61.251 45.047,61.334 44.785,61.409C44.542,61.871 44.249,62.41 43.92,62.937ZM50.384,9.447L50.514,9.415C50.262,9.287 50.005,9.164 49.745,9.046C49.099,9.26 48.535,9.466 48.039,9.666C47.096,10.058 46.463,10.347 45.99,10.598L45.891,10.649C46.158,10.734 46.399,10.825 46.65,10.916C47.061,10.716 47.585,10.483 48.252,10.203C48.851,9.962 49.55,9.714 50.384,9.447Z" fill="#C3C6C8"/>
</g>
<path d="M50.653,22.302C50.653,22.064 50.583,21.832 50.451,21.634C50.319,21.437 50.131,21.283 49.911,21.192C49.692,21.101 49.45,21.077 49.217,21.123C48.984,21.17 48.77,21.284 48.602,21.452C48.433,21.62 48.319,21.834 48.273,22.068C48.226,22.301 48.25,22.542 48.341,22.762C48.432,22.982 48.586,23.169 48.784,23.301C48.981,23.433 49.214,23.504 49.451,23.504C49.77,23.504 50.076,23.377 50.301,23.152C50.527,22.926 50.653,22.621 50.653,22.302Z" fill="#FFFFFF"/>
<path d="M58.725,49.037C58.724,48.8 58.653,48.568 58.521,48.37C58.389,48.173 58.201,48.019 57.981,47.929C57.761,47.838 57.52,47.815 57.287,47.862C57.054,47.908 56.84,48.023 56.672,48.191C56.504,48.359 56.39,48.573 56.344,48.807C56.298,49.04 56.322,49.281 56.413,49.501C56.504,49.72 56.658,49.908 56.855,50.04C57.053,50.171 57.285,50.242 57.523,50.242C57.842,50.241 58.148,50.114 58.373,49.888C58.598,49.662 58.725,49.356 58.725,49.037Z" fill="#FFFFFF"/>
<path d="M17.817,39.39C17.817,39.153 17.747,38.92 17.615,38.723C17.483,38.525 17.295,38.371 17.076,38.28C16.856,38.189 16.614,38.165 16.381,38.212C16.148,38.258 15.934,38.372 15.766,38.541C15.598,38.709 15.483,38.923 15.437,39.156C15.39,39.389 15.414,39.631 15.505,39.85C15.596,40.07 15.75,40.258 15.948,40.39C16.146,40.522 16.378,40.592 16.616,40.592C16.934,40.592 17.24,40.466 17.465,40.24C17.691,40.015 17.817,39.709 17.817,39.39Z" fill="#FFFFFF"/>
<path d="M38.605,14.834C38.605,14.596 38.535,14.364 38.402,14.166C38.27,13.969 38.083,13.815 37.863,13.724C37.643,13.633 37.402,13.609 37.169,13.655C36.936,13.702 36.721,13.816 36.553,13.984C36.385,14.152 36.271,14.366 36.224,14.6C36.178,14.833 36.202,15.074 36.293,15.294C36.384,15.514 36.538,15.701 36.735,15.833C36.933,15.965 37.165,16.036 37.403,16.036C37.722,16.036 38.028,15.909 38.253,15.684C38.478,15.458 38.605,15.153 38.605,14.834Z" fill="#FFFFFF"/>
<path d="M74.819,33.234C74.819,32.735 74.672,32.247 74.394,31.833C74.117,31.418 73.723,31.095 73.262,30.904C72.802,30.713 72.294,30.664 71.805,30.761C71.316,30.859 70.867,31.099 70.514,31.452C70.162,31.805 69.922,32.254 69.825,32.743C69.728,33.233 69.778,33.74 69.97,34.2C70.161,34.661 70.484,35.055 70.899,35.331C71.314,35.608 71.802,35.756 72.301,35.755C72.632,35.755 72.96,35.69 73.265,35.563C73.571,35.436 73.849,35.251 74.083,35.016C74.317,34.782 74.502,34.504 74.629,34.198C74.755,33.893 74.82,33.565 74.819,33.234Z" fill="#61B4E4"/>
<path d="M0,33.234C0,32.735 0.148,32.247 0.425,31.833C0.702,31.418 1.096,31.095 1.557,30.904C2.018,30.713 2.525,30.664 3.014,30.761C3.503,30.859 3.953,31.099 4.305,31.452C4.658,31.805 4.898,32.254 4.995,32.743C5.091,33.233 5.041,33.74 4.85,34.2C4.659,34.661 4.335,35.055 3.92,35.331C3.505,35.608 3.017,35.756 2.519,35.755C2.188,35.755 1.86,35.69 1.554,35.563C1.248,35.436 0.971,35.251 0.737,35.016C0.503,34.782 0.317,34.504 0.191,34.198C0.065,33.893 0,33.565 0,33.234Z" fill="#61B4E4"/>
</svg>
