<svg width="92" height="92" viewBox="0 0 92 92" fill="none" xmlns="http://www.w3.org/2000/svg" xmlns:xlink="http://www.w3.org/1999/xlink">
<path d="M45.234,77.356C62.738,77.356 76.928,63.166 76.928,45.662C76.928,28.158 62.738,13.968 45.234,13.968C27.729,13.968 13.539,28.158 13.539,45.662C13.539,63.166 27.729,77.356 45.234,77.356Z" transform="rotate(-90 45.234 45.662)" fill="#0055B8"/>
<path d="M45.233,72.005C38.713,72.003 32.425,69.584 27.585,65.216C22.745,60.847 19.696,54.84 19.027,48.354L20.572,48.198C21.038,52.715 22.735,57.018 25.479,60.637C28.223,64.256 31.909,67.051 36.134,68.718C40.358,70.385 44.959,70.86 49.435,70.09C53.911,69.321 58.09,67.336 61.515,64.354C64.94,61.371 67.48,57.506 68.858,53.178C70.236,48.85 70.398,44.228 69.328,39.814C68.258,35.4 65.996,31.365 62.789,28.15C59.582,24.934 55.553,22.661 51.142,21.578L51.51,20.066C57.765,21.601 63.242,25.373 66.905,30.67C70.568,35.968 72.164,42.424 71.391,48.818C70.618,55.212 67.529,61.101 62.709,65.373C57.889,69.645 51.672,72.003 45.231,72.002L45.233,72.005Z" fill="#FFFFFF"/>
<path d="M62.847,45.66C62.847,42.177 61.814,38.771 59.879,35.875C57.943,32.978 55.193,30.721 51.974,29.388C48.756,28.054 45.214,27.706 41.797,28.385C38.381,29.065 35.242,30.742 32.779,33.206C30.316,35.669 28.638,38.807 27.959,42.224C27.279,45.641 27.628,49.182 28.961,52.401C30.294,55.619 32.552,58.37 35.448,60.305C38.345,62.241 41.75,63.274 45.234,63.274C47.547,63.274 49.837,62.818 51.974,61.933C54.111,61.048 56.053,59.75 57.688,58.115C59.324,56.479 60.621,54.538 61.506,52.401C62.392,50.264 62.847,47.973 62.847,45.66Z" fill="#61B4E4"/>
<path d="M18.059,38.504L23.895,39.512L23.53,41.631L20.148,42.112L23.359,42.616L23.084,44.206L17.248,43.198L17.593,41.203L21.171,40.636L17.782,40.096L18.059,38.504Z" fill="#FFFFFF"/>
<path d="M24.614,35.814L24.049,37.099L24.684,37.577L23.928,39.301L19.219,35.294L20.023,33.473L26.156,34.249L25.4,35.972L24.614,35.814ZM22.958,35.506L21.615,35.254L22.706,36.076L22.958,35.506Z" fill="#FFFFFF"/>
<path d="M26.644,33.228C26.383,33.338 26.101,33.392 25.818,33.387C25.534,33.382 25.254,33.319 24.996,33.2C24.54,32.977 24.112,32.701 23.719,32.379L21.469,30.691L22.477,29.347L24.727,31.036C25.016,31.273 25.327,31.482 25.657,31.658C25.715,31.686 25.779,31.701 25.843,31.701C25.908,31.701 25.971,31.686 26.03,31.658C26.129,31.609 26.215,31.538 26.282,31.449C26.346,31.362 26.39,31.261 26.408,31.154C26.419,31.09 26.416,31.024 26.396,30.962C26.377,30.899 26.343,30.843 26.297,30.796C26.034,30.531 25.747,30.292 25.44,30.081L23.187,28.392L24.195,27.047L26.448,28.735C26.866,29.022 27.25,29.356 27.592,29.73C27.78,29.943 27.922,30.191 28.008,30.461C28.095,30.731 28.125,31.016 28.096,31.298C28.049,31.718 27.891,32.118 27.638,32.456C27.384,32.794 27.045,33.058 26.655,33.22L26.644,33.228Z" fill="#FFFFFF"/>
<path d="M29.425,24.527L28.522,25.319L31.319,28.509L30.06,29.617L27.26,26.427L26.363,27.214L25.257,25.954L28.321,23.268L29.425,24.527Z" fill="#FFFFFF"/>
<path d="M32.669,27.498L29.472,22.502L30.888,21.6L34.075,26.591L32.669,27.498Z" fill="#FFFFFF"/>
<path d="M36.276,23.285L37.932,22.962C38.038,23.824 37.821,24.613 37.055,25.155C36.92,25.254 36.775,25.338 36.621,25.407C36.45,25.481 36.271,25.537 36.087,25.573C34.611,25.825 33.761,24.701 33.283,23.59C32.736,22.33 32.58,21.027 33.741,20.133C34.025,19.92 34.353,19.775 34.701,19.709C35.619,19.523 36.344,19.906 36.896,20.574L35.528,21.559C35.468,21.484 35.391,21.426 35.303,21.39C35.214,21.354 35.119,21.341 35.024,21.352C34.248,21.506 34.578,22.398 34.807,22.93C35.021,23.434 35.389,24.235 36.067,23.799C36.148,23.743 36.212,23.665 36.249,23.573C36.286,23.482 36.295,23.382 36.276,23.285Z" fill="#FFFFFF"/>
<path d="M41.803,23.071L40.422,23.323L40.387,24.107L38.535,24.444L39.208,18.301L41.168,17.943L43.965,23.454L42.113,23.792L41.803,23.071ZM41.131,21.529L40.576,20.269L40.508,21.632L41.131,21.529Z" fill="#FFFFFF"/>
<path d="M48.088,23.673L44.309,23.542L44.525,17.623L46.254,17.686L46.09,22.144L48.131,22.219L48.088,23.673Z" fill="#FFFFFF"/>
<path d="M61.978,12.676L62.098,39.386L48.295,39.386C48.282,26.033 56.661,17.98 61.978,12.676Z" fill="#FFFFFF"/>
<g opacity="0.8" style="mix-blend-mode:multiply">
<path d="M61.977,12.678L62.098,39.388L59.205,39.388L59.205,15.472C60.173,14.462 61.11,13.534 61.977,12.678Z" fill="#D1D3D3"/>
</g>
<path d="M61.978,44.492C62.232,44.491 62.476,44.39 62.656,44.21C62.836,44.03 62.937,43.786 62.938,43.532L62.938,12.677C62.926,12.431 62.819,12.199 62.641,12.03C62.462,11.86 62.225,11.766 61.979,11.766C61.733,11.766 61.496,11.86 61.318,12.03C61.14,12.199 61.033,12.431 61.021,12.677L61.021,43.532C61.021,43.786 61.121,44.03 61.301,44.21C61.48,44.39 61.724,44.491 61.978,44.492Z" fill="#493728"/>
<path d="M49.882,22.104L50.003,39.389L40.455,39.389C41.004,32.551 44.842,26.742 49.882,22.104Z" fill="#FFFFFF"/>
<g opacity="0.8" style="mix-blend-mode:multiply">
<path d="M49.882,22.104C49.034,22.881 48.224,23.694 47.453,24.543L47.453,39.389L50.003,39.389L49.882,22.104Z" fill="#D1D3D3"/>
</g>
<path d="M49.882,44.493C50.137,44.492 50.381,44.391 50.56,44.211C50.74,44.031 50.842,43.787 50.842,43.533L50.842,22.208C50.83,21.962 50.723,21.73 50.545,21.561C50.366,21.391 50.13,21.297 49.884,21.297C49.637,21.297 49.401,21.391 49.222,21.561C49.044,21.73 48.937,21.962 48.925,22.208L48.925,43.54C48.927,43.793 49.028,44.035 49.208,44.214C49.387,44.392 49.629,44.492 49.882,44.493Z" fill="#493728"/>
<path d="M71.112,41.461L31.797,41.461L27.136,56.557L71.112,56.557L71.112,41.461Z" fill="#9A6B58"/>
<g opacity="0.8" style="mix-blend-mode:multiply">
<path d="M69.743,46.988L61.607,51.776L28.446,51.776L27.136,56.556L71.112,56.556L71.112,46.988L69.743,46.988Z" fill="#D1D3D3"/>
</g>
<rect  x="30.578" y="41.461" width="41.751" height="2.071" fill="#333E48"/>
<circle cx="49.124" cy="48.051" r="2.875" fill="#FFFFFF"/>
<path d="M58.732,50.926C60.319,50.926 61.607,49.639 61.607,48.051C61.607,46.463 60.319,45.176 58.732,45.176C57.144,45.176 55.856,46.463 55.856,48.051C55.856,49.639 57.144,50.926 58.732,50.926Z" fill="#FFFFFF"/>
<path d="M12.219,53.231C12.219,58.001 16.777,68.229 23.613,68.229L71.371,68.229C75.307,66.364 83.719,58.626 83.719,48.443C70.492,48.443 72.344,53.231 62.048,53.231L12.219,53.231Z" fill="#DEBFA5"/>
<path d="M13.244,58.186C14.955,62.933 18.695,68.227 23.613,68.227L71.371,68.227C73.914,67.023 78.318,63.366 81.123,58.186L13.244,58.186Z" fill="#003E63"/>
<g opacity="0.8" style="mix-blend-mode:multiply">
<path d="M12.219,53.23C12.219,58 16.777,68.228 23.613,68.228L48.194,68.228L48.194,53.23L12.219,53.23Z" fill="#D1D3D3"/>
</g>
<g opacity="0.8" style="mix-blend-mode:multiply">
<path d="M38.244,62.111C34.464,55.857 28.164,45.392 13.602,44.752L13.552,44.752C13.552,45.054 13.552,45.357 13.552,45.662C13.547,49.862 14.38,54.022 16.001,57.896C17.623,61.771 20.001,65.284 22.996,68.229L43.659,68.229C41.759,68.229 39.599,64.356 38.244,62.111Z" fill="#D1D3D3"/>
</g>
<path d="M13.545,46.074C13.643,54.414 17.035,62.377 22.982,68.226L41.989,68.226C37.128,68.226 34.205,46.981 13.545,46.074Z" fill="#61B4E4"/>
<path d="M13.938,50.678C15.001,57.344 18.17,63.495 22.981,68.231L34.824,68.231C31.307,62.483 26.196,52.716 13.938,50.678Z" fill="#003E63"/>
</svg>
