<svg width="24" height="18" viewBox="0 0 24 18" fill="none" xmlns="http://www.w3.org/2000/svg" xmlns:xlink="http://www.w3.org/1999/xlink">
<path d="M3.414,8.586C2.633,7.805 1.367,7.805 0.586,8.586C-0.195,9.367 -0.195,10.633 0.586,11.414L3.414,8.586ZM23.414,3.414C24.195,2.633 24.195,1.367 23.414,0.586C22.633,-0.195 21.367,-0.195 20.586,0.586L23.414,3.414ZM8.219,15.781L6.805,14.367L6.805,14.367L8.219,15.781ZM9.633,17.195L23.414,3.414L20.586,0.586L6.805,14.367L9.633,17.195ZM0.586,11.414L6.367,17.196L9.196,14.367L3.414,8.586L0.586,11.414ZM6.805,14.367C7.465,13.707 8.535,13.707 9.196,14.367L6.367,17.195C7.269,18.097 8.731,18.097 9.633,17.195L6.805,14.367Z" fill="#FFFFFF"/>
</svg>
