<svg width="18" height="10" viewBox="0 0 18 10" fill="none" xmlns="http://www.w3.org/2000/svg" xmlns:xlink="http://www.w3.org/1999/xlink">
<path d="M2.199,0.597C1.722,0.119 0.948,0.119 0.471,0.597C-0.007,1.074 -0.007,1.848 0.471,2.325L2.199,0.597ZM16.869,2.325C17.347,1.848 17.347,1.074 16.869,0.597C16.392,0.119 15.618,0.119 15.14,0.597L16.869,2.325ZM9.794,9.4L16.869,2.325L15.14,0.597L8.065,7.672L9.794,9.4ZM0.471,2.325L7.546,9.4L9.274,7.672L2.199,0.597L0.471,2.325ZM8.065,7.672C8.399,7.338 8.941,7.338 9.274,7.672L7.546,9.4C8.167,10.021 9.173,10.021 9.794,9.4L8.065,7.672Z" transform="rotate(0 8.67 5.128)" fill="#323232"/>
</svg>
