<svg width="28" height="16" viewBox="0 0 28 16" fill="none" xmlns="http://www.w3.org/2000/svg" xmlns:xlink="http://www.w3.org/1999/xlink">
<path d="M3.414,0.586C2.633,-0.195 1.367,-0.195 0.586,0.586C-0.195,1.367 -0.195,2.633 0.586,3.414L3.414,0.586ZM27.414,3.414C28.195,2.633 28.195,1.367 27.414,0.586C26.633,-0.195 25.367,-0.195 24.586,0.586L27.414,3.414ZM15.839,14.989L27.414,3.414L24.586,0.586L13.011,12.161L15.839,14.989ZM0.586,3.414L12.161,14.989L14.989,12.161L3.414,0.586L0.586,3.414ZM13.011,12.161C13.557,11.614 14.443,11.614 14.989,12.161L12.161,14.989C13.176,16.005 14.824,16.005 15.839,14.989L13.011,12.161Z" transform="rotate(-180 14 8)" fill="#323232"/>
</svg>
