<svg width="42" height="24" viewBox="0 0 42 24" fill="none" xmlns="http://www.w3.org/2000/svg" xmlns:xlink="http://www.w3.org/1999/xlink">
<path d="M5.562,0.188C4.423,-0.951 2.577,-0.951 1.438,0.188C0.299,1.327 0.299,3.173 1.438,4.312L5.562,0.188ZM40.562,4.312C41.701,3.173 41.701,1.327 40.562,0.188C39.423,-0.951 37.577,-0.951 36.438,0.188L40.562,4.312ZM23.683,21.192L40.562,4.312L36.438,0.188L19.558,17.067L23.683,21.192ZM1.438,4.312L18.317,21.192L22.442,17.067L5.562,0.188L1.438,4.312ZM19.558,17.067C20.354,16.271 21.646,16.271 22.442,17.067L18.317,21.192C19.799,22.674 22.201,22.674 23.683,21.192L19.558,17.067Z" transform="rotate(0 21 11)" fill="#000000"/>
</svg>
