<svg width="28" height="18" viewBox="0 0 28 18" fill="none" xmlns="http://www.w3.org/2000/svg" xmlns:xlink="http://www.w3.org/1999/xlink">
<path d="M3.414,1.256C2.633,0.475 1.367,0.475 0.586,1.256C-0.195,2.037 -0.195,3.303 0.586,4.084L3.414,1.256ZM27.414,4.084C28.195,3.303 28.195,2.037 27.414,1.256C26.633,0.475 25.367,0.475 24.586,1.256L27.414,4.084ZM15.839,15.659L27.414,4.084L24.586,1.256L13.011,12.83L15.839,15.659ZM0.586,4.084L12.161,15.659L14.989,12.83L3.414,1.256L0.586,4.084ZM13.011,12.83C13.557,12.284 14.443,12.284 14.989,12.83L12.161,15.659C13.176,16.675 14.824,16.675 15.839,15.659L13.011,12.83Z" transform="rotate(0 14 8.67)" fill="#323232"/>
</svg>
