<svg width="18" height="12" viewBox="0 0 18 12" fill="none" xmlns="http://www.w3.org/2000/svg" xmlns:xlink="http://www.w3.org/1999/xlink">
<path d="M2.508,1.116C2.03,0.639 1.256,0.639 0.779,1.116C0.301,1.593 0.301,2.367 0.779,2.845L2.508,1.116ZM17.177,2.845C17.655,2.367 17.655,1.593 17.177,1.116C16.7,0.639 15.926,0.639 15.449,1.116L17.177,2.845ZM10.102,9.92L17.177,2.845L15.449,1.116L8.374,8.191L10.102,9.92ZM0.779,2.845L7.854,9.92L9.583,8.191L2.508,1.116L0.779,2.845ZM8.374,8.191C8.707,7.857 9.249,7.857 9.583,8.191L7.854,9.92C8.475,10.541 9.481,10.541 10.102,9.92L8.374,8.191Z" transform="rotate(0 8.978 5.648)" fill="#323232"/>
</svg>
