<svg width="28" height="16" viewBox="0 0 28 16" fill="none" xmlns="http://www.w3.org/2000/svg" xmlns:xlink="http://www.w3.org/1999/xlink">
<path d="M3.288,0.586C2.507,-0.195 1.24,-0.195 0.459,0.586C-0.322,1.367 -0.322,2.633 0.459,3.414L3.288,0.586ZM27.288,3.414C28.069,2.633 28.069,1.367 27.288,0.586C26.507,-0.195 25.24,-0.195 24.459,0.586L27.288,3.414ZM15.713,14.989L27.288,3.414L24.459,0.586L12.885,12.161L15.713,14.989ZM0.459,3.414L12.034,14.989L14.863,12.161L3.288,0.586L0.459,3.414ZM12.885,12.161C13.431,11.614 14.316,11.614 14.863,12.161L12.034,14.989C13.05,16.005 14.697,16.005 15.713,14.989L12.885,12.161Z" transform="rotate(0 13.874 8)" fill="#323232"/>
</svg>
