<svg width="32" height="20" viewBox="0 0 32 20" fill="none" xmlns="http://www.w3.org/2000/svg" xmlns:xlink="http://www.w3.org/1999/xlink">
<path d="M3.124,0.806C2.238,-0.081 0.8,-0.081 -0.087,0.806C-0.974,1.693 -0.974,3.131 -0.087,4.018L3.124,0.806ZM30.378,4.018C31.265,3.131 31.265,1.693 30.378,0.806C29.491,-0.081 28.053,-0.081 27.166,0.806L30.378,4.018ZM17.234,17.162L30.378,4.018L27.166,0.806L14.022,13.95L17.234,17.162ZM-0.087,4.018L13.057,17.162L16.268,13.95L3.124,0.806L-0.087,4.018ZM14.022,13.95C14.643,13.33 15.648,13.33 16.268,13.95L13.057,17.162C14.21,18.316 16.081,18.316 17.234,17.162L14.022,13.95Z" transform="rotate(0 15.145 9.226)" fill="#000000"/>
</svg>
