<svg width="20" height="12" viewBox="0 0 20 12" fill="none" xmlns="http://www.w3.org/2000/svg" xmlns:xlink="http://www.w3.org/1999/xlink">
<path d="M3.13,0.7C2.642,0.212 1.85,0.212 1.362,0.7C0.874,1.188 0.874,1.98 1.362,2.468L3.13,0.7ZM18.13,2.468C18.618,1.98 18.618,1.188 18.13,0.7C17.642,0.212 16.85,0.212 16.362,0.7L18.13,2.468ZM10.896,9.702L18.13,2.468L16.362,0.7L9.128,7.934L10.896,9.702ZM1.362,2.468L8.596,9.702L10.364,7.934L3.13,0.7L1.362,2.468ZM9.128,7.934C9.469,7.593 10.023,7.593 10.364,7.934L8.596,9.702C9.231,10.337 10.261,10.337 10.896,9.702L9.128,7.934Z" transform="rotate(0 9.746 5.334)" fill="#103BE9"/>
</svg>
