<svg width="18" height="10" viewBox="0 0 18 10" fill="none" xmlns="http://www.w3.org/2000/svg" xmlns:xlink="http://www.w3.org/1999/xlink">
<path d="M1.515,-0.359C1.038,-0.836 0.264,-0.836 -0.214,-0.359C-0.691,0.119 -0.691,0.893 -0.214,1.37L1.515,-0.359ZM16.185,1.37C16.663,0.893 16.663,0.119 16.185,-0.359C15.708,-0.836 14.934,-0.836 14.456,-0.359L16.185,1.37ZM9.11,8.445L16.185,1.37L14.456,-0.359L7.381,6.716L9.11,8.445ZM-0.214,1.37L6.861,8.445L8.59,6.716L1.515,-0.359L-0.214,1.37ZM7.381,6.716C7.715,6.383 8.256,6.383 8.59,6.716L6.861,8.445C7.482,9.066 8.489,9.066 9.11,8.445L7.381,6.716Z" transform="rotate(0 7.986 4.173)" fill="#323232"/>
</svg>
