<svg width="50" height="48" viewBox="0 0 50 48" fill="none" xmlns="http://www.w3.org/2000/svg" xmlns:xlink="http://www.w3.org/1999/xlink">
<path d="M35.477,15.54C35.337,15.52 35.197,15.52 35.057,15.54C31.957,15.44 29.497,12.9 29.497,9.78C29.497,6.6 32.077,4 35.277,4C38.457,4 41.057,6.58 41.057,9.78C41.037,12.9 38.577,15.44 35.477,15.54Z" fill="#0C0507"/>
<path d="M41.997,29.4C39.757,30.9 36.617,31.46 33.717,31.08C34.477,29.44 34.877,27.62 34.897,25.7C34.897,23.7 34.457,21.8 33.617,20.14C36.577,19.74 39.717,20.3 41.977,21.8C45.137,23.88 45.137,27.3 41.997,29.4Z" fill="#0C0507"/>
<path d="M13.297,15.54C13.437,15.52 13.577,15.52 13.717,15.54C16.817,15.44 19.277,12.9 19.277,9.78C19.277,6.58 16.697,4 13.497,4C10.317,4 7.737,6.58 7.737,9.78C7.737,12.9 10.197,15.44 13.297,15.54Z" fill="#0C0507"/>
<path d="M13.517,25.7C13.517,27.64 13.937,29.48 14.697,31.14C11.877,31.44 8.937,30.84 6.777,29.42C3.617,27.32 3.617,23.9 6.777,21.8C8.917,20.36 11.937,19.78 14.777,20.1C13.957,21.78 13.517,23.68 13.517,25.7Z" fill="#0C0507"/>
<path d="M24.657,31.74C24.497,31.72 24.317,31.72 24.137,31.74C20.457,31.62 17.517,28.6 17.517,24.88C17.537,21.08 20.597,18 24.417,18C28.217,18 31.297,21.08 31.297,24.88C31.277,28.6 28.357,31.62 24.657,31.74Z" fill="#0C0507"/>
<path d="M18.157,35.88C15.137,37.9 15.137,41.22 18.157,43.22C21.597,45.52 27.237,45.52 30.677,43.22C33.697,41.2 33.697,37.88 30.677,35.88C27.257,33.58 21.617,33.58 18.157,35.88Z" fill="#0C0507"/>
</svg>
