<svg width="30" height="30" viewBox="0 0 30 30" fill="none" xmlns="http://www.w3.org/2000/svg" xmlns:xlink="http://www.w3.org/1999/xlink">
<path d="M21.68,9.003C21.594,8.991 21.509,8.991 21.423,9.003C19.528,8.942 18.024,7.389 18.024,5.482C18.024,3.538 19.601,1.949 21.557,1.949C23.501,1.949 25.09,3.526 25.09,5.482C25.078,7.389 23.575,8.942 21.68,9.003Z" fill="#0C0507"/>
<path d="M25.665,17.475C24.296,18.392 22.377,18.734 20.604,18.502C21.069,17.499 21.313,16.387 21.325,15.213C21.325,13.991 21.056,12.829 20.543,11.815C22.352,11.57 24.272,11.913 25.653,12.829C27.585,14.101 27.585,16.191 25.665,17.475Z" fill="#0C0507"/>
<path d="M8.122,9.003C8.208,8.991 8.293,8.991 8.379,9.003C10.274,8.942 11.777,7.389 11.777,5.482C11.777,3.526 10.2,1.949 8.244,1.949C6.301,1.949 4.724,3.526 4.724,5.482C4.724,7.389 6.227,8.942 8.122,9.003Z" fill="#0C0507"/>
<path d="M8.257,15.212C8.257,16.397 8.514,17.522 8.978,18.537C7.254,18.72 5.457,18.353 4.137,17.485C2.206,16.202 2.206,14.111 4.137,12.828C5.445,11.948 7.291,11.593 9.027,11.789C8.526,12.816 8.257,13.977 8.257,15.212Z" fill="#0C0507"/>
<path d="M15.066,18.904C14.968,18.892 14.858,18.892 14.748,18.904C12.499,18.831 10.702,16.985 10.702,14.711C10.714,12.388 12.584,10.506 14.919,10.506C17.242,10.506 19.125,12.388 19.125,14.711C19.112,16.985 17.328,18.831 15.066,18.904Z" fill="#0C0507"/>
<path d="M11.093,21.435C9.247,22.67 9.247,24.699 11.093,25.922C13.196,27.328 16.643,27.328 18.746,25.922C20.592,24.687 20.592,22.658 18.746,21.435C16.655,20.029 13.208,20.029 11.093,21.435Z" fill="#0C0507"/>
</svg>
