<svg width="60" height="60" viewBox="0 0 60 60" fill="none" xmlns="http://www.w3.org/2000/svg" xmlns:xlink="http://www.w3.org/1999/xlink">
<path d="M55,15L55,21.05C55,25 52.5,27.5 48.55,27.5L40,27.5L40,10.025C40,7.25 42.275,4.975 45.05,5C47.775,5.025 50.275,6.125 52.075,7.925C53.875,9.75 55,12.25 55,15Z" fill="#103BE9"/>
<g opacity="0.4">
<path d="M5,17.5L5,52.5C5,54.575 7.35,55.75 9,54.5L13.275,51.3C14.275,50.55 15.675,50.65 16.575,51.55L20.725,55.725C21.7,56.7 23.3,56.7 24.275,55.725L28.475,51.525C29.35,50.65 30.75,50.55 31.725,51.3L36,54.5C37.65,55.725 40,54.55 40,52.5L40,10C40,7.25 42.25,5 45,5L17.5,5L15,5C7.5,5 5,9.475 5,15L5,17.5Z" fill="#103BE9"/>
</g>
<path d="M30,30.65L22.5,30.65C21.475,30.65 20.625,31.5 20.625,32.525C20.625,33.55 21.475,34.4 22.5,34.4L30,34.4C31.025,34.4 31.875,33.55 31.875,32.525C31.875,31.5 31.025,30.65 30,30.65Z" fill="#103BE9"/>
<path d="M22.5,24.4L30,24.4C31.025,24.4 31.875,23.55 31.875,22.525C31.875,21.5 31.025,20.65 30,20.65L22.5,20.65C21.475,20.65 20.625,21.5 20.625,22.525C20.625,23.55 21.475,24.4 22.5,24.4Z" fill="#103BE9"/>
<path d="M14.925,20.025C13.525,20.025 12.425,21.15 12.425,22.525C12.425,23.9 13.55,25.025 14.925,25.025C16.3,25.025 17.425,23.9 17.425,22.525C17.425,21.15 16.3,20.025 14.925,20.025Z" fill="#103BE9"/>
<path d="M14.925,30.025C13.525,30.025 12.425,31.15 12.425,32.525C12.425,33.9 13.55,35.025 14.925,35.025C16.3,35.025 17.425,33.9 17.425,32.525C17.425,31.15 16.3,30.025 14.925,30.025Z" fill="#103BE9"/>
</svg>
