<svg width="102" height="104" viewBox="0 0 102 104" fill="none" xmlns="http://www.w3.org/2000/svg" xmlns:xlink="http://www.w3.org/1999/xlink">
<path d="M92.928,25.883L92.928,36.168C92.928,42.883 88.678,47.133 81.963,47.133L67.428,47.133L67.428,17.425C67.428,12.708 71.295,8.883 76.013,8.883C80.645,8.925 84.895,10.795 87.955,13.855C91.015,16.958 92.928,21.208 92.928,25.883Z" fill="#103BE9"/>
<g opacity="0.4">
<path d="M7.928,30.133L7.928,89.633C7.928,93.16 11.923,95.158 14.728,93.033L21.995,87.593C23.695,86.318 26.075,86.488 27.605,88.018L34.66,95.115C36.318,96.773 39.038,96.773 40.695,95.115L47.835,87.975C49.323,86.488 51.703,86.318 53.36,87.593L60.628,93.033C63.433,95.115 67.428,93.118 67.428,89.633L67.428,17.383C67.428,12.708 71.253,8.883 75.928,8.883L29.178,8.883L24.928,8.883C12.178,8.883 7.928,16.49 7.928,25.883L7.928,30.133Z" fill="#103BE9"/>
</g>
<path d="M50.428,41.82L24.928,41.82C23.185,41.82 21.74,40.375 21.74,38.633C21.74,36.89 23.185,35.445 24.928,35.445L50.428,35.445C52.17,35.445 53.615,36.89 53.615,38.633C53.615,40.375 52.17,41.82 50.428,41.82Z" fill="#103BE9"/>
<path d="M47.24,58.82L28.115,58.82C26.373,58.82 24.928,57.375 24.928,55.633C24.928,53.89 26.373,52.445 28.115,52.445L47.24,52.445C48.983,52.445 50.428,53.89 50.428,55.633C50.428,57.375 48.983,58.82 47.24,58.82Z" fill="#103BE9"/>
</svg>
