<svg width="2880" height="304" viewBox="0 0 2880 304" fill="none" xmlns="http://www.w3.org/2000/svg" xmlns:xlink="http://www.w3.org/1999/xlink">
<path d="M0,80.004L195.995,30.359C315.448,0.101 441.102,5.013 557.828,44.503L617.542,64.705C723.046,100.397 837.818,97.312 941.252,56.003L941.252,56.003C1046.196,14.09 1162.756,11.545 1269.43,48.837L1306.288,61.722C1414.096,99.412 1531.626,98.634 1638.926,59.521L1638.926,59.521C1732.772,25.313 1834.776,20.318 1931.516,45.194L1987.492,59.588C2104.88,89.774 2228.78,82.472 2341.8,38.707L2341.8,38.707C2442.6,-0.319 2552.28,-10.443 2658.52,9.476L2880,51.004L2880,303.004L0,303.004L0,80.004Z" fill="url(#pf_0_18_2713)"/>
<defs>
<linearGradient id="pf_0_18_2713" x1="0" y1="141.004" x2="2880" y2="141.004" gradientUnits="userSpaceOnUse">
<stop stop-color="#0052D4"/>
<stop offset="0.5" stop-color="#4364F7"/>
<stop offset="1" stop-color="#6FB1FC"/>
</linearGradient>
</defs>
</svg>
