<svg width="2880" height="292" viewBox="0 0 2880 292" fill="none" xmlns="http://www.w3.org/2000/svg" xmlns:xlink="http://www.w3.org/1999/xlink">
<path d="M0,41.788L96.839,21.544C249.512,-10.373 407.536,-6.097 558.26,34.027L632.654,53.831C766.986,89.592 908.716,86.451 1041.332,44.774L1041.332,44.774C1175.918,2.478 1319.846,-0.116 1455.868,37.302L1555.754,64.78C1661.182,93.782 1770.654,105.297 1879.81,98.865L2054.94,88.546C2117.5,84.86 2179.6,75.298 2240.38,59.988L2309.36,42.612C2472.48,1.523 2643.34,2.249 2806.1,44.721L2880,64.004L2880,282.032L0,291.004L0,41.788Z" fill="url(#pf_0_18_1395)"/>
<defs>
<linearGradient id="pf_0_18_1395" x1="-151.105" y1="129.512" x2="3497.428" y2="129.512" gradientUnits="userSpaceOnUse">
<stop stop-color="#0052D4" stop-opacity="0.5"/>
<stop offset="0.5" stop-color="#4364F7" stop-opacity="0.5"/>
<stop offset="1" stop-color="#6FB1FC" stop-opacity="0.5"/>
</linearGradient>
</defs>
</svg>
