<svg width="2880" height="296" viewBox="0 0 2880 296" fill="none" xmlns="http://www.w3.org/2000/svg" xmlns:xlink="http://www.w3.org/1999/xlink">
<path d="M0,-0.996L196.052,39.789C318.532,65.269 445.106,63.635 566.888,35.003L566.888,35.003C668.118,11.202 772.834,6.017 875.92,19.7L953.428,29.989C1042.732,41.843 1133.23,41.575 1222.464,29.192L1274.596,21.957C1384.022,6.772 1495.26,10.847 1603.282,33.997L1603.282,33.997C1735.558,62.346 1872.374,62.031 2004.52,33.074L2008.36,32.235C2108.8,10.222 2212.14,4.403 2314.42,14.998L2416.26,25.546C2484.58,32.621 2553.42,32.64 2621.74,25.604L2880,-0.996L2880,295.004L0,295.004L0,-0.996Z" fill="url(#pf_0_25_2126)"/>
<defs>
<linearGradient id="pf_0_25_2126" x1="0" y1="147.004" x2="2880" y2="147.004" gradientUnits="userSpaceOnUse">
<stop stop-color="#103BE9" stop-opacity="0.8"/>
<stop offset="0.5" stop-color="#4266F6" stop-opacity="0.8"/>
<stop offset="1" stop-color="#6FB1FC" stop-opacity="0.8"/>
</linearGradient>
</defs>
</svg>
