<svg width="3840" height="376" viewBox="0 0 3840 376" fill="none" xmlns="http://www.w3.org/2000/svg" xmlns:xlink="http://www.w3.org/1999/xlink">
<path d="M0,99.315L262.012,37.556C421.274,0.017 587.712,6.138 743.784,55.272L823.902,80.494C964.826,124.859 1116.518,121.003 1255.006,69.534L1255.006,69.534C1395.528,17.309 1549.58,14.127 1692.14,60.504L1741.876,76.684C1886.084,123.597 2041.6,122.625 2185.2,73.912L2185.2,73.912C2310.72,31.333 2445.74,25.108 2574.64,55.955L2651.18,74.268C2807.42,111.656 2971.2,102.561 3122.34,48.102L3122.34,48.102C3257.12,-0.459 3402.22,-13.049 3543.36,11.575L3840,63.333L3840,376L0,376L0,99.315Z" fill="url(#pf_0_203_6742)"/>
<defs>
<linearGradient id="pf_0_203_6742" x1="0" y1="175" x2="3840" y2="175" gradientUnits="userSpaceOnUse">
<stop stop-color="#0052D4"/>
<stop offset="0.5" stop-color="#4364F7"/>
<stop offset="1" stop-color="#6FB1FC"/>
</linearGradient>
</defs>
</svg>
