<svg width="30" height="30" viewBox="0 0 30 30" fill="none" xmlns="http://www.w3.org/2000/svg" xmlns:xlink="http://www.w3.org/1999/xlink">
<path d="M24.308,14.389C24.308,20.297 19.519,25.086 13.611,25.086L13.611,26.92C20.532,26.92 26.142,21.31 26.142,14.389L24.308,14.389ZM13.611,25.086C7.704,25.086 2.914,20.297 2.914,14.389L1.081,14.389C1.081,21.31 6.691,26.92 13.611,26.92L13.611,25.086ZM2.914,14.389C2.914,8.481 7.704,3.692 13.611,3.692L13.611,1.859C6.691,1.859 1.081,7.469 1.081,14.389L2.914,14.389ZM13.611,3.692C19.519,3.692 24.308,8.481 24.308,14.389L26.142,14.389C26.142,7.469 20.532,1.859 13.611,1.859L13.611,3.692Z" fill="#FFFFFF"/>
<path d="M25.799,27.873C26.157,28.231 26.738,28.231 27.096,27.873C27.454,27.515 27.454,26.934 27.096,26.576L25.799,27.873ZM24.651,24.131C24.293,23.773 23.712,23.773 23.354,24.131C22.996,24.489 22.996,25.07 23.354,25.428L24.651,24.131ZM27.096,26.576L24.651,24.131L23.354,25.428L25.799,27.873L27.096,26.576Z" fill="#FFFFFF"/>
</svg>
