<svg width="30" height="30" viewBox="0 0 30 30" fill="none" xmlns="http://www.w3.org/2000/svg" xmlns:xlink="http://www.w3.org/1999/xlink">
<path d="M24.117,14.592C24.117,20.5 19.328,25.289 13.42,25.289L13.42,27.123C20.341,27.123 25.951,21.513 25.951,14.592L24.117,14.592ZM13.42,25.289C7.513,25.289 2.724,20.5 2.724,14.592L0.89,14.592C0.89,21.513 6.5,27.123 13.42,27.123L13.42,25.289ZM2.724,14.592C2.724,8.685 7.513,3.895 13.42,3.895L13.42,2.062C6.5,2.062 0.89,7.672 0.89,14.592L2.724,14.592ZM13.42,3.895C19.328,3.895 24.117,8.685 24.117,14.592L25.951,14.592C25.951,7.672 20.341,2.062 13.42,2.062L13.42,3.895Z" fill="#FFFFFF"/>
<path d="M25.608,28.076C25.966,28.434 26.547,28.434 26.905,28.076C27.263,27.718 27.263,27.137 26.905,26.779L25.608,28.076ZM24.46,24.334C24.102,23.976 23.521,23.976 23.163,24.334C22.805,24.692 22.805,25.273 23.163,25.631L24.46,24.334ZM26.905,26.779L24.46,24.334L23.163,25.631L25.608,28.076L26.905,26.779Z" fill="#FFFFFF"/>
</svg>
