<svg width="50" height="48" viewBox="0 0 50 48" fill="none" xmlns="http://www.w3.org/2000/svg" xmlns:xlink="http://www.w3.org/1999/xlink">
<path d="M40.869,23C40.869,32.665 33.034,40.5 23.369,40.5L23.369,43.5C34.69,43.5 43.869,34.322 43.869,23L40.869,23ZM23.369,40.5C13.704,40.5 5.869,32.665 5.869,23L2.869,23C2.869,34.322 12.047,43.5 23.369,43.5L23.369,40.5ZM5.869,23C5.869,13.335 13.704,5.5 23.369,5.5L23.369,2.5C12.047,2.5 2.869,11.678 2.869,23L5.869,23ZM23.369,5.5C33.034,5.5 40.869,13.335 40.869,23L43.869,23C43.869,11.678 34.69,2.5 23.369,2.5L23.369,5.5Z" fill="#FFFFFF"/>
<path d="M43.308,45.061C43.894,45.646 44.844,45.646 45.429,45.061C46.015,44.475 46.015,43.525 45.429,42.939L43.308,45.061ZM41.429,38.939C40.844,38.354 39.894,38.354 39.308,38.939C38.722,39.525 38.722,40.475 39.308,41.061L41.429,38.939ZM45.429,42.939L41.429,38.939L39.308,41.061L43.308,45.061L45.429,42.939Z" fill="#FFFFFF"/>
</svg>
