<svg width="50" height="48" viewBox="0 0 50 48" fill="none" xmlns="http://www.w3.org/2000/svg" xmlns:xlink="http://www.w3.org/1999/xlink">
<path d="M40.868,23C40.868,32.665 33.033,40.5 23.368,40.5L23.368,43.5C34.69,43.5 43.868,34.322 43.868,23L40.868,23ZM23.368,40.5C13.703,40.5 5.868,32.665 5.868,23L2.868,23C2.868,34.322 12.047,43.5 23.368,43.5L23.368,40.5ZM5.868,23C5.868,13.335 13.703,5.5 23.368,5.5L23.368,2.5C12.047,2.5 2.868,11.678 2.868,23L5.868,23ZM23.368,5.5C33.033,5.5 40.868,13.335 40.868,23L43.868,23C43.868,11.678 34.69,2.5 23.368,2.5L23.368,5.5Z" fill="#FFFFFF"/>
<path d="M43.308,45.061C43.894,45.646 44.843,45.646 45.429,45.061C46.015,44.475 46.015,43.525 45.429,42.939L43.308,45.061ZM41.429,38.939C40.843,38.354 39.894,38.354 39.308,38.939C38.722,39.525 38.722,40.475 39.308,41.061L41.429,38.939ZM45.429,42.939L41.429,38.939L39.308,41.061L43.308,45.061L45.429,42.939Z" fill="#FFFFFF"/>
</svg>
