<svg width="30" height="32" viewBox="0 0 30 32" fill="none" xmlns="http://www.w3.org/2000/svg" xmlns:xlink="http://www.w3.org/1999/xlink">
<line x1="11.321" y1="10.582" x2="25.991" y2="10.582" stroke="#FFFFFF" stroke-width="1.222" stroke-miterlimit="3.999327" stroke-linecap="round" stroke-linejoin="round"/>
<line x1="3.986" y1="17.916" x2="18.656" y2="17.916" stroke="#FFFFFF" stroke-width="1.222" stroke-miterlimit="3.999327" stroke-linecap="round" stroke-linejoin="round"/>
<path d="M21.354,9.107C20.877,8.63 20.102,8.63 19.625,9.107C19.148,9.584 19.148,10.358 19.625,10.836L21.354,9.107ZM28.689,10.836C29.166,10.358 29.166,9.584 28.689,9.107C28.211,8.63 27.437,8.63 26.96,9.107L28.689,10.836ZM25.128,14.397L28.689,10.836L26.96,9.107L23.399,12.668L25.128,14.397ZM19.625,10.836L23.186,14.397L24.915,12.668L21.354,9.107L19.625,10.836ZM23.399,12.668C23.818,12.249 24.496,12.249 24.915,12.668L23.186,14.397C23.722,14.933 24.592,14.933 25.128,14.397L23.399,12.668Z" transform="rotate(-180 24.157 11.805)" fill="#FFFFFF"/>
<path d="M3.017,16.441C2.539,15.964 1.765,15.964 1.288,16.441C0.81,16.918 0.81,17.692 1.288,18.17L3.017,16.441ZM10.351,18.17C10.829,17.692 10.829,16.918 10.351,16.441C9.874,15.964 9.1,15.964 8.623,16.441L10.351,18.17ZM6.79,21.731L10.351,18.17L8.623,16.441L5.062,20.002L6.79,21.731ZM1.288,18.17L4.849,21.731L6.578,20.002L3.017,16.441L1.288,18.17ZM5.062,20.002C5.48,19.583 6.159,19.583 6.578,20.002L4.849,21.731C5.385,22.267 6.254,22.267 6.79,21.731L5.062,20.002Z" transform="rotate(-180 5.82 19.139)" fill="#FFFFFF"/>
</svg>
