<svg width="48" height="48" viewBox="0 0 48 48" fill="none" xmlns="http://www.w3.org/2000/svg" xmlns:xlink="http://www.w3.org/1999/xlink">
<line x1="18" y1="16" x2="42" y2="16" stroke="#FFFFFF" stroke-width="2" stroke-miterlimit="3.999327" stroke-linecap="round" stroke-linejoin="round"/>
<line x1="6" y1="28" x2="30" y2="28" stroke="#FFFFFF" stroke-width="2" stroke-miterlimit="3.999327" stroke-linecap="round" stroke-linejoin="round"/>
<path d="M34.414,13.586C33.633,12.805 32.367,12.805 31.586,13.586C30.805,14.367 30.805,15.633 31.586,16.414L34.414,13.586ZM46.414,16.414C47.195,15.633 47.195,14.367 46.414,13.586C45.633,12.805 44.367,12.805 43.586,13.586L46.414,16.414ZM40.588,22.24L46.414,16.414L43.586,13.586L37.76,19.412L40.588,22.24ZM31.586,16.414L37.412,22.24L40.24,19.412L34.414,13.586L31.586,16.414ZM37.76,19.412C38.445,18.727 39.555,18.727 40.24,19.412L37.412,22.24C38.289,23.117 39.711,23.117 40.588,22.24L37.76,19.412Z" transform="rotate(-180 39 18)" fill="#FFFFFF"/>
<path d="M4.414,25.586C3.633,24.805 2.367,24.805 1.586,25.586C0.805,26.367 0.805,27.633 1.586,28.414L4.414,25.586ZM16.414,28.414C17.195,27.633 17.195,26.367 16.414,25.586C15.633,24.805 14.367,24.805 13.586,25.586L16.414,28.414ZM10.588,34.24L16.414,28.414L13.586,25.586L7.76,31.412L10.588,34.24ZM1.586,28.414L7.412,34.24L10.24,31.412L4.414,25.586L1.586,28.414ZM7.76,31.412C8.445,30.727 9.555,30.727 10.24,31.412L7.412,34.24C8.289,35.117 9.711,35.117 10.588,34.24L7.76,31.412Z" transform="rotate(-180 9 30)" fill="#FFFFFF"/>
</svg>
