<svg width="30" height="30" viewBox="0 0 30 30" fill="none" xmlns="http://www.w3.org/2000/svg" xmlns:xlink="http://www.w3.org/1999/xlink">
<line x1="11.561" y1="9.018" x2="26.23" y2="9.018" stroke="#FFFFFF" stroke-width="1.222" stroke-miterlimit="3.999327" stroke-linecap="round" stroke-linejoin="round"/>
<line x1="4.226" y1="16.352" x2="18.896" y2="16.352" stroke="#FFFFFF" stroke-width="1.222" stroke-miterlimit="3.999327" stroke-linecap="round" stroke-linejoin="round"/>
<path d="M21.594,7.543C21.116,7.065 20.342,7.065 19.865,7.543C19.387,8.02 19.387,8.794 19.865,9.271L21.594,7.543ZM28.929,9.271C29.406,8.794 29.406,8.02 28.929,7.543C28.451,7.065 27.677,7.065 27.2,7.543L28.929,9.271ZM25.368,12.833L28.929,9.271L27.2,7.543L23.639,11.104L25.368,12.833ZM19.865,9.271L23.426,12.833L25.155,11.104L21.594,7.543L19.865,9.271ZM23.639,11.104C24.057,10.685 24.736,10.685 25.155,11.104L23.426,12.833C23.962,13.369 24.831,13.369 25.368,12.833L23.639,11.104Z" transform="rotate(-180 24.397 10.241)" fill="#FFFFFF"/>
<path d="M3.256,14.877C2.779,14.399 2.005,14.399 1.527,14.877C1.05,15.354 1.05,16.128 1.527,16.605L3.256,14.877ZM10.591,16.605C11.069,16.128 11.069,15.354 10.591,14.877C10.114,14.399 9.34,14.399 8.862,14.877L10.591,16.605ZM7.03,20.166L10.591,16.605L8.862,14.877L5.301,18.438L7.03,20.166ZM1.527,16.605L5.088,20.166L6.817,18.438L3.256,14.877L1.527,16.605ZM5.301,18.438C5.72,18.019 6.399,18.019 6.817,18.438L5.088,20.166C5.625,20.703 6.494,20.703 7.03,20.166L5.301,18.438Z" transform="rotate(-180 6.059 17.575)" fill="#FFFFFF"/>
</svg>
