<svg width="60" height="60" viewBox="0 0 60 60" fill="none" xmlns="http://www.w3.org/2000/svg" xmlns:xlink="http://www.w3.org/1999/xlink">
<g opacity="0.4">
<path d="M55,19.525L55,40.475C55,47.5 51.775,52.325 46.1,54.15C44.45,54.725 42.55,55 40.475,55L19.525,55C17.45,55 15.55,54.725 13.9,54.15C8.225,52.325 5,47.5 5,40.475L5,19.525C5,10.425 10.425,5 19.525,5L40.475,5C49.575,5 55,10.425 55,19.525Z" fill="#103BE9"/>
</g>
<path d="M46.1,54.15C44.45,54.725 42.55,55 40.475,55L19.525,55C17.45,55 15.55,54.725 13.9,54.15C14.775,47.55 21.675,42.425 30,42.425C38.325,42.425 45.225,47.55 46.1,54.15Z" fill="#103BE9"/>
<path d="M38.95,28.95C38.95,33.9 34.95,37.925 30,37.925C25.05,37.925 21.05,33.9 21.05,28.95C21.05,24 25.05,20 30,20C34.95,20 38.95,24 38.95,28.95Z" fill="#103BE9"/>
</svg>
