<svg width="36" height="42" viewBox="0 0 36 42" fill="none" xmlns="http://www.w3.org/2000/svg" xmlns:xlink="http://www.w3.org/1999/xlink">
<path d="M35.24,12.9C33.14,3.66 25.08,-0.5 18,-0.5C18,-0.5 18,-0.5 17.98,-0.5C10.92,-0.5 2.84,3.64 0.74,12.88C-1.6,23.2 4.72,31.94 10.44,37.44C12.56,39.48 15.28,40.5 18,40.5C20.72,40.5 23.44,39.48 25.54,37.44C31.26,31.94 37.58,23.22 35.24,12.9ZM18,22.92C14.52,22.92 11.7,20.1 11.7,16.62C11.7,13.14 14.52,10.32 18,10.32C21.48,10.32 24.3,13.14 24.3,16.62C24.3,20.1 21.48,22.92 18,22.92Z" fill="#0C0507"/>
</svg>
