<svg width="24" height="26" viewBox="0 0 24 26" fill="none" xmlns="http://www.w3.org/2000/svg" xmlns:xlink="http://www.w3.org/1999/xlink">
<path d="M21.878,7.568C20.594,1.92 15.668,-0.623 11.34,-0.623C11.34,-0.623 11.34,-0.623 11.328,-0.623C7.012,-0.623 2.074,1.908 0.79,7.555C-0.64,13.864 3.223,19.206 6.719,22.568C8.015,23.815 9.677,24.438 11.34,24.438C13.003,24.438 14.665,23.815 15.949,22.568C19.445,19.206 23.308,13.876 21.878,7.568ZM11.34,13.692C9.213,13.692 7.489,11.969 7.489,9.841C7.489,7.714 9.213,5.991 11.34,5.991C13.467,5.991 15.191,7.714 15.191,9.841C15.191,11.969 13.467,13.692 11.34,13.692Z" fill="#0C0507"/>
</svg>
