<svg width="44" height="12" viewBox="0 0 44 12" fill="none" xmlns="http://www.w3.org/2000/svg" xmlns:xlink="http://www.w3.org/1999/xlink">
<path d="M1.39,11.721L38.997,10.409C39.37,10.051 39.722,9.671 40.049,9.27L42.957,5.727C42.997,5.678 43.023,5.617 43.03,5.554C43.037,5.49 43.026,5.425 42.997,5.368C42.968,5.311 42.923,5.263 42.868,5.23C42.812,5.198 42.749,5.183 42.685,5.186L28.191,5.863C26.171,3.151 23.577,0.59 19.538,0.59L9.197,0.59L9.194,0.603L6.503,0.603L6.816,1.236C6.994,1.597 7.27,1.901 7.612,2.113C7.953,2.326 8.348,2.439 8.751,2.439L7.32,6.505C7.113,7.093 6.739,7.608 6.245,7.988C5.75,8.368 5.156,8.595 4.535,8.644L1.487,8.882C1.354,8.892 1.225,8.934 1.11,9.003C0.995,9.072 0.899,9.167 0.827,9.28C0.755,9.393 0.711,9.521 0.698,9.655C0.685,9.788 0.703,9.922 0.751,10.047L1.39,11.721ZM19.538,1.557C23.013,1.557 25.282,3.693 27.03,5.935L19.444,6.309L18.637,1.558L19.538,1.557ZM13.006,1.557L17.942,1.557L18.755,6.342L11.192,6.716L13.006,1.557Z" fill="#FFFFFF"/>
</svg>
