<svg width="20" height="34" viewBox="0 0 20 34" fill="none" xmlns="http://www.w3.org/2000/svg" xmlns:xlink="http://www.w3.org/1999/xlink">
<path d="M17.455,0L18.455,0C18.455,-0.552 18.007,-1 17.455,-1L17.455,0ZM12.694,0L12.694,-1L12.694,0ZM4.76,8L3.76,8L4.76,8ZM4.76,12.8L4.76,13.8C5.313,13.8 5.76,13.352 5.76,12.8L4.76,12.8ZM0,12.8L0,11.8C-0.552,11.8 -1,12.248 -1,12.8L0,12.8ZM0,19.2L-1,19.2C-1,19.752 -0.552,20.2 0,20.2L0,19.2ZM4.76,19.2L5.76,19.2C5.76,18.648 5.313,18.2 4.76,18.2L4.76,19.2ZM4.76,32L3.76,32C3.76,32.552 4.208,33 4.76,33L4.76,32ZM11.107,32L11.107,33C11.66,33 12.107,32.552 12.107,32L11.107,32ZM11.107,19.2L11.107,18.2C10.555,18.2 10.107,18.648 10.107,19.2L11.107,19.2ZM15.868,19.2L15.868,20.2C16.327,20.2 16.728,19.887 16.838,19.441L15.868,19.2ZM17.455,12.8L18.425,13.041C18.499,12.742 18.432,12.426 18.242,12.184C18.053,11.942 17.762,11.8 17.455,11.8L17.455,12.8ZM11.107,12.8L10.107,12.8C10.107,13.352 10.555,13.8 11.107,13.8L11.107,12.8ZM12.694,6.4L12.694,7.4L12.694,6.4ZM17.455,6.4L17.455,7.4C18.007,7.4 18.455,6.952 18.455,6.4L17.455,6.4ZM17.455,-1L12.694,-1L12.694,1L17.455,1L17.455,-1ZM12.694,-1C10.322,-1 8.049,-0.05 6.374,1.639L7.794,3.047C9.095,1.735 10.858,1 12.694,1L12.694,-1ZM6.374,1.639C4.7,3.327 3.76,5.616 3.76,8L5.76,8C5.76,6.141 6.493,4.359 7.794,3.047L6.374,1.639ZM3.76,8L3.76,12.8L5.76,12.8L5.76,8L3.76,8ZM4.76,11.8L0,11.8L0,13.8L4.76,13.8L4.76,11.8ZM-1,12.8L-1,19.2L1,19.2L1,12.8L-1,12.8ZM0,20.2L4.76,20.2L4.76,18.2L0,18.2L0,20.2ZM3.76,19.2L3.76,32L5.76,32L5.76,19.2L3.76,19.2ZM4.76,33L11.107,33L11.107,31L4.76,31L4.76,33ZM12.107,32L12.107,19.2L10.107,19.2L10.107,32L12.107,32ZM11.107,20.2L15.868,20.2L15.868,18.2L11.107,18.2L11.107,20.2ZM16.838,19.441L18.425,13.041L16.484,12.559L14.897,18.959L16.838,19.441ZM17.455,11.8L11.107,11.8L11.107,13.8L17.455,13.8L17.455,11.8ZM12.107,12.8L12.107,8L10.107,8L10.107,12.8L12.107,12.8ZM12.107,8C12.107,7.838 12.171,7.685 12.282,7.573L10.862,6.164C10.378,6.653 10.107,7.313 10.107,8L12.107,8ZM12.282,7.573C12.393,7.461 12.541,7.4 12.694,7.4L12.694,5.4C12.005,5.4 11.347,5.676 10.862,6.164L12.282,7.573ZM12.694,7.4L17.455,7.4L17.455,5.4L12.694,5.4L12.694,7.4ZM18.455,6.4L18.455,0L16.455,0L16.455,6.4L18.455,6.4Z" fill="#000000"/>
</svg>
