<svg width="28" height="30" viewBox="0 0 28 30" fill="none" xmlns="http://www.w3.org/2000/svg" xmlns:xlink="http://www.w3.org/1999/xlink">
<path d="M7.086,28.131C5.628,28.131 4.28,27.766 3.043,27.037C1.806,26.308 0.823,25.325 0.094,24.088C-0.635,22.851 -1,21.503 -1,20.045L-1,8.717C-1,7.258 -0.635,5.911 0.094,4.674C0.823,3.437 1.806,2.454 3.043,1.725C4.28,0.995 5.628,0.631 7.086,0.631L18.414,0.631C19.872,0.631 21.22,0.995 22.457,1.725C23.694,2.454 24.677,3.437 25.406,4.674C26.135,5.911 26.5,7.258 26.5,8.717L26.5,20.045C26.5,21.503 26.135,22.851 25.406,24.088C24.677,25.325 23.694,26.308 22.457,27.037C21.22,27.766 19.872,28.131 18.414,28.131L7.086,28.131ZM7.086,25.631L18.414,25.631C19.43,25.631 20.367,25.383 21.227,24.889C22.086,24.394 22.763,23.717 23.258,22.857C23.753,21.998 24,21.06 24,20.045L24,8.717C24,7.701 23.753,6.764 23.258,5.904C22.763,5.045 22.086,4.368 21.227,3.873C20.367,3.378 19.43,3.131 18.414,3.131L7.086,3.131C6.07,3.131 5.133,3.378 4.273,3.873C3.414,4.368 2.737,5.045 2.242,5.904C1.747,6.764 1.5,7.701 1.5,8.717L1.5,20.045C1.5,21.06 1.747,21.998 2.242,22.857C2.737,23.717 3.414,24.394 4.273,24.889C5.133,25.383 6.07,25.631 7.086,25.631ZM20.133,22.896C19.82,22.896 19.553,22.786 19.332,22.564C19.111,22.343 19,22.076 19,21.764C19,21.451 19.111,21.184 19.332,20.963C19.553,20.741 19.82,20.631 20.133,20.631C20.445,20.631 20.712,20.741 20.934,20.963C21.155,21.184 21.266,21.451 21.266,21.764C21.266,22.076 21.155,22.343 20.934,22.564C20.712,22.786 20.445,22.896 20.133,22.896ZM12.75,21.881C11.396,21.881 10.146,21.542 9,20.865C7.854,20.188 6.943,19.277 6.266,18.131C5.589,16.985 5.25,15.735 5.25,14.381C5.25,13.027 5.589,11.777 6.266,10.631C6.943,9.485 7.854,8.574 9,7.896C10.146,7.219 11.396,6.881 12.75,6.881C14.104,6.881 15.354,7.219 16.5,7.896C17.646,8.574 18.557,9.485 19.234,10.631C19.911,11.777 20.25,13.027 20.25,14.381C20.25,15.735 19.911,16.985 19.234,18.131C18.557,19.277 17.646,20.188 16.5,20.865C15.354,21.542 14.104,21.881 12.75,21.881ZM12.75,19.381C13.661,19.381 14.501,19.159 15.27,18.717C16.038,18.274 16.643,17.669 17.086,16.9C17.529,16.132 17.75,15.292 17.75,14.381C17.75,13.469 17.529,12.63 17.086,11.861C16.643,11.093 16.038,10.488 15.27,10.045C14.501,9.602 13.661,9.381 12.75,9.381C11.839,9.381 10.999,9.602 10.23,10.045C9.462,10.488 8.857,11.093 8.414,11.861C7.971,12.63 7.75,13.469 7.75,14.381C7.75,15.292 7.971,16.132 8.414,16.9C8.857,17.669 9.462,18.274 10.23,18.717C10.999,19.159 11.839,19.381 12.75,19.381Z" fill="#FFFFFF" fill-opacity="0.85"/>
</svg>
