<svg width="48" height="56" viewBox="0 0 48 56" fill="none" xmlns="http://www.w3.org/2000/svg" xmlns:xlink="http://www.w3.org/1999/xlink">
<path d="M46.987,18.533C44.187,6.213 33.44,0.666 24,0.666C24,0.666 24,0.666 23.974,0.666C14.56,0.666 3.787,6.186 0.987,18.506C-2.133,32.266 6.294,43.919 13.92,51.253C16.747,53.973 20.374,55.333 24,55.333C27.627,55.333 31.254,53.973 34.054,51.253C41.68,43.919 50.107,32.293 46.987,18.533ZM24,31.893C19.36,31.893 15.6,28.133 15.6,23.493C15.6,18.853 19.36,15.093 24,15.093C28.64,15.093 32.4,18.853 32.4,23.493C32.4,28.133 28.64,31.893 24,31.893Z" fill="#103BE9"/>
</svg>
