<svg width="16" height="34" viewBox="0 0 16 34" fill="none" xmlns="http://www.w3.org/2000/svg" xmlns:xlink="http://www.w3.org/1999/xlink">
<path d="M2.164,0.228C1.801,-0.188 1.169,-0.23 0.753,0.134C0.338,0.497 0.295,1.129 0.659,1.545L2.164,0.228ZM14.588,15.945L15.341,16.603C15.671,16.226 15.671,15.663 15.341,15.286L14.588,15.945ZM0.659,30.345C0.295,30.761 0.338,31.393 0.753,31.756C1.169,32.12 1.801,32.078 2.164,31.662L0.659,30.345ZM0.659,1.545L13.836,16.603L15.341,15.286L2.164,0.228L0.659,1.545ZM13.836,15.286L0.659,30.345L2.164,31.662L15.341,16.603L13.836,15.286Z" transform="rotate(-180 8 15.945)" fill="#FFFFFF"/>
</svg>
