<svg width="70" height="20" viewBox="0 0 70 20" fill="none" xmlns="http://www.w3.org/2000/svg" xmlns:xlink="http://www.w3.org/1999/xlink">
<path d="M0.25,18.22L61.775,16.074C62.386,15.489 62.961,14.866 63.496,14.211L68.253,8.415C68.32,8.334 68.362,8.235 68.373,8.131C68.385,8.026 68.366,7.921 68.319,7.827C68.272,7.733 68.199,7.655 68.108,7.602C68.017,7.549 67.913,7.524 67.808,7.529L44.097,8.636C40.793,4.2 36.549,0.01 29.94,0.01L13.022,0.01L13.017,0.031L8.616,0.031L9.127,1.067C9.419,1.658 9.869,2.155 10.429,2.503C10.988,2.851 11.633,3.035 12.292,3.035L9.951,9.688C9.613,10.65 9.001,11.492 8.193,12.113C7.384,12.734 6.412,13.107 5.395,13.186L0.409,13.576C0.191,13.593 -0.02,13.661 -0.208,13.774C-0.395,13.887 -0.554,14.042 -0.671,14.227C-0.788,14.412 -0.86,14.622 -0.882,14.84C-0.903,15.058 -0.874,15.278 -0.796,15.482L0.25,18.22ZM29.94,1.592C35.625,1.592 39.338,5.087 42.198,8.754L29.787,9.367L28.466,1.594L29.94,1.592ZM19.255,1.592L27.33,1.592L28.659,9.42L16.286,10.032L19.255,1.592Z" fill="#FFFFFF"/>
</svg>
