<svg width="30" height="26" viewBox="0 0 30 26" fill="none" xmlns="http://www.w3.org/2000/svg" xmlns:xlink="http://www.w3.org/1999/xlink">
<path d="M29,21.678C27.88,21.183 26.708,20.857 25.484,20.701C26.109,21.092 26.656,21.58 27.125,22.166C27.594,22.752 27.945,23.41 28.18,24.139C26.956,23.41 25.654,22.902 24.273,22.615C23.701,23.24 23.023,23.722 22.242,24.061C21.461,24.399 20.641,24.568 19.781,24.568C18.661,24.568 17.633,24.295 16.695,23.748C15.758,23.201 15.009,22.453 14.449,21.502C13.889,20.551 13.609,19.529 13.609,18.436C13.609,17.941 13.661,17.472 13.766,17.029C11.266,17.133 8.896,17.771 6.656,18.943C4.495,20.037 2.633,21.535 1.07,23.436C0.523,22.498 0.25,21.469 0.25,20.35C0.25,19.308 0.497,18.331 0.992,17.42C1.487,16.508 2.151,15.779 2.984,15.232C1.995,15.258 1.07,15.519 0.211,16.014L0.211,15.936C0.211,14.451 0.68,13.143 1.617,12.01C2.555,10.877 3.727,10.167 5.133,9.881C4.612,9.751 4.078,9.686 3.531,9.686C3.141,9.686 2.75,9.712 2.359,9.764C2.75,8.54 3.473,7.531 4.527,6.736C5.582,5.942 6.773,5.532 8.102,5.506C7.034,4.673 5.849,4.021 4.547,3.553C3.245,3.084 1.891,2.85 0.484,2.85C-0.01,2.876 -0.505,2.915 -1,2.967C0.38,2.081 1.865,1.404 3.453,0.936C5.068,0.441 6.721,0.193 8.414,0.193C11.148,0.193 13.661,0.727 15.953,1.795C18.036,2.758 19.859,4.126 21.422,5.896C22.88,7.537 24.013,9.412 24.82,11.521C25.576,13.579 25.953,15.636 25.953,17.693L25.914,18.514C27.138,19.373 28.167,20.428 29,21.678Z" fill="#FFFFFF" fill-opacity="0.85"/>
</svg>
