<svg width="22" height="28" viewBox="0 0 22 28" fill="none" xmlns="http://www.w3.org/2000/svg" xmlns:xlink="http://www.w3.org/1999/xlink">
<path d="M21.428,9.132C20.144,3.484 15.218,0.941 10.89,0.941C10.89,0.941 10.89,0.941 10.878,0.941C6.562,0.941 1.623,3.472 0.34,9.12C-1.091,15.428 2.773,20.77 6.269,24.132C7.565,25.379 9.227,26.003 10.89,26.003C12.552,26.003 14.215,25.379 15.499,24.132C18.995,20.77 22.858,15.44 21.428,9.132ZM10.89,15.257C8.763,15.257 7.039,13.533 7.039,11.406C7.039,9.279 8.763,7.555 10.89,7.555C13.017,7.555 14.741,9.279 14.741,11.406C14.741,13.533 13.017,15.257 10.89,15.257Z" fill="#0C0507"/>
</svg>
