<svg width="32" height="26" viewBox="0 0 32 26" fill="none" xmlns="http://www.w3.org/2000/svg" xmlns:xlink="http://www.w3.org/1999/xlink">
<path d="M31,19.868C30.87,16.951 28.826,12.941 24.867,7.837C20.779,2.524 17.328,-0.132 14.516,-0.132C12.771,-0.132 11.286,1.483 10.063,4.712L7.641,13.618C6.755,16.847 5.792,18.462 4.75,18.462C4.542,18.462 3.76,17.993 2.406,17.055L1,18.891C2.484,20.194 3.943,21.496 5.375,22.798C7.354,24.49 8.839,25.389 9.828,25.493C12.172,25.727 13.604,24.126 14.125,20.688C14.698,17.016 15.102,14.725 15.336,13.813C16.013,10.74 16.755,9.204 17.563,9.204C18.188,9.204 19.131,10.2 20.395,12.192C21.658,14.184 22.328,15.701 22.406,16.743C22.589,18.462 21.924,19.321 20.414,19.321C19.685,19.321 18.943,19.152 18.188,18.813C19.646,23.657 22.458,26.014 26.625,25.884C29.698,25.779 31.156,23.774 31,19.868Z" fill="#FFFFFF" fill-opacity="0.85"/>
</svg>
