<svg width="32" height="26" viewBox="0 0 32 26" fill="none" xmlns="http://www.w3.org/2000/svg" xmlns:xlink="http://www.w3.org/1999/xlink">
<path d="M31,22.057C29.88,21.562 28.708,21.236 27.484,21.08C28.109,21.471 28.656,21.959 29.125,22.545C29.594,23.131 29.945,23.788 30.18,24.518C28.956,23.788 27.654,23.281 26.273,22.994C25.701,23.619 25.023,24.101 24.242,24.439C23.461,24.778 22.641,24.947 21.781,24.947C20.661,24.947 19.633,24.674 18.695,24.127C17.758,23.58 17.009,22.831 16.449,21.881C15.889,20.93 15.609,19.908 15.609,18.814C15.609,18.32 15.661,17.851 15.766,17.408C13.266,17.512 10.896,18.15 8.656,19.322C6.495,20.416 4.633,21.913 3.07,23.814C2.523,22.877 2.25,21.848 2.25,20.728C2.25,19.687 2.497,18.71 2.992,17.799C3.487,16.887 4.151,16.158 4.984,15.611C3.995,15.637 3.07,15.898 2.211,16.393L2.211,16.314C2.211,14.83 2.68,13.521 3.617,12.389C4.555,11.256 5.727,10.546 7.133,10.26C6.612,10.13 6.078,10.064 5.531,10.064C5.141,10.064 4.75,10.09 4.359,10.143C4.75,8.919 5.473,7.91 6.527,7.115C7.582,6.321 8.773,5.911 10.102,5.885C9.034,5.051 7.849,4.4 6.547,3.932C5.245,3.463 3.891,3.229 2.484,3.229C1.99,3.255 1.495,3.294 1,3.346C2.38,2.46 3.865,1.783 5.453,1.314C7.068,0.82 8.721,0.572 10.414,0.572C13.148,0.572 15.661,1.106 17.953,2.174C20.036,3.137 21.859,4.505 23.422,6.275C24.88,7.916 26.013,9.791 26.82,11.9C27.576,13.958 27.953,16.015 27.953,18.072L27.914,18.893C29.138,19.752 30.167,20.807 31,22.057Z" fill="#FFFFFF" fill-opacity="0.85"/>
</svg>
