<svg width="42" height="34" viewBox="0 0 42 34" fill="none" xmlns="http://www.w3.org/2000/svg" xmlns:xlink="http://www.w3.org/1999/xlink">
<path d="M39.941,13.807C40.754,13.807 41.4,13.161 41.4,12.348L41.4,10.409C41.4,1.863 38.795,-0.742 30.249,-0.742L10.864,-0.742C2.318,-0.742 -0.287,1.863 -0.287,10.409L-0.287,11.389C-0.287,12.202 0.359,12.848 1.172,12.848C3.048,12.848 4.569,14.369 4.569,16.245C4.569,18.121 3.048,19.622 1.172,19.622C0.359,19.622 -0.287,20.268 -0.287,21.081L-0.287,22.061C-0.287,30.607 2.318,33.212 10.864,33.212L30.249,33.212C38.795,33.212 41.4,30.607 41.4,22.061C41.4,21.248 40.754,20.602 39.941,20.602C38.065,20.602 36.544,19.08 36.544,17.204C36.544,15.328 38.065,13.807 39.941,13.807ZM14.303,9.721C15.45,9.721 16.388,10.659 16.388,11.806C16.388,12.952 15.471,13.89 14.303,13.89C13.157,13.89 12.219,12.952 12.219,11.806C12.219,10.659 13.136,9.721 14.303,9.721ZM26.81,24.312C25.642,24.312 24.704,23.374 24.704,22.228C24.704,21.081 25.642,20.143 26.789,20.143C27.935,20.143 28.873,21.081 28.873,22.228C28.873,23.374 27.977,24.312 26.81,24.312ZM28.686,10.972L14.658,25C14.345,25.312 13.949,25.458 13.553,25.458C13.157,25.458 12.761,25.312 12.448,25C11.844,24.395 11.844,23.395 12.448,22.79L26.476,8.763C27.081,8.158 28.081,8.158 28.686,8.763C29.29,9.367 29.29,10.367 28.686,10.972Z" fill="#103BE9"/>
</svg>
