<svg width="32" height="26" viewBox="0 0 32 26" fill="none" xmlns="http://www.w3.org/2000/svg" xmlns:xlink="http://www.w3.org/1999/xlink">
<path d="M31,22.178C29.88,21.683 28.708,21.357 27.484,21.201C28.109,21.592 28.656,22.08 29.125,22.666C29.594,23.252 29.945,23.91 30.18,24.639C28.956,23.91 27.654,23.402 26.273,23.115C25.701,23.74 25.023,24.222 24.242,24.561C23.461,24.899 22.641,25.068 21.781,25.068C20.661,25.068 19.633,24.795 18.695,24.248C17.758,23.701 17.009,22.953 16.449,22.002C15.889,21.051 15.609,20.029 15.609,18.936C15.609,18.441 15.661,17.972 15.766,17.529C13.266,17.633 10.896,18.271 8.656,19.443C6.495,20.537 4.633,22.035 3.07,23.936C2.523,22.998 2.25,21.969 2.25,20.85C2.25,19.808 2.497,18.831 2.992,17.92C3.487,17.008 4.151,16.279 4.984,15.732C3.995,15.758 3.07,16.019 2.211,16.514L2.211,16.436C2.211,14.951 2.68,13.643 3.617,12.51C4.555,11.377 5.727,10.667 7.133,10.381C6.612,10.251 6.078,10.186 5.531,10.186C5.141,10.186 4.75,10.212 4.359,10.264C4.75,9.04 5.473,8.031 6.527,7.236C7.582,6.442 8.773,6.032 10.102,6.006C9.034,5.173 7.849,4.521 6.547,4.053C5.245,3.584 3.891,3.35 2.484,3.35C1.99,3.376 1.495,3.415 1,3.467C2.38,2.581 3.865,1.904 5.453,1.436C7.068,0.941 8.721,0.693 10.414,0.693C13.148,0.693 15.661,1.227 17.953,2.295C20.036,3.258 21.859,4.626 23.422,6.396C24.88,8.037 26.013,9.912 26.82,12.021C27.576,14.079 27.953,16.136 27.953,18.193L27.914,19.014C29.138,19.873 30.167,20.928 31,22.178Z" fill="#FFFFFF" fill-opacity="0.85"/>
</svg>
