<svg width="40" height="34" viewBox="0 0 40 34" fill="none" xmlns="http://www.w3.org/2000/svg" xmlns:xlink="http://www.w3.org/1999/xlink">
<path d="M30,-1L10,-1C4,-1 0,2 0,9L0,23C0,30 4,33 10,33L30,33C36,33 40,30 40,23L40,9C40,2 36,-1 30,-1ZM8.5,21C8.5,21.82 7.82,22.5 7,22.5C6.18,22.5 5.5,21.82 5.5,21L5.5,11C5.5,10.18 6.18,9.5 7,9.5C7.82,9.5 8.5,10.18 8.5,11L8.5,21ZM20,22C16.68,22 14,19.32 14,16C14,12.68 16.68,10 20,10C23.32,10 26,12.68 26,16C26,19.32 23.32,22 20,22ZM34.5,21C34.5,21.82 33.82,22.5 33,22.5C32.18,22.5 31.5,21.82 31.5,21L31.5,11C31.5,10.18 32.18,9.5 33,9.5C33.82,9.5 34.5,10.18 34.5,11L34.5,21Z" fill="#0C0507"/>
</svg>
