<svg width="20" height="36" viewBox="0 0 20 36" fill="none" xmlns="http://www.w3.org/2000/svg" xmlns:xlink="http://www.w3.org/1999/xlink">
<path d="M15.063,34.26C12.536,34.26 10.622,33.583 9.32,32.229C7.94,30.796 7.25,28.635 7.25,25.744L7.25,20.51L1,20.51L1,14.26L7.25,14.26L7.25,-0.74L13.5,-0.74L13.5,14.26L18.5,14.26L19.75,20.51L13.5,20.51L13.5,24.689C13.5,25.835 13.715,26.675 14.145,27.209C14.574,27.743 15.297,28.01 16.313,28.01L19.75,28.01L19.75,33.986C18.474,34.169 16.911,34.26 15.063,34.26Z" fill="#FFFFFF" fill-opacity="0.85"/>
</svg>
