<svg width="30" height="26" viewBox="0 0 30 26" fill="none" xmlns="http://www.w3.org/2000/svg" xmlns:xlink="http://www.w3.org/1999/xlink">
<path d="M29,19.368C28.87,16.451 26.826,12.441 22.867,7.337C18.779,2.024 15.328,-0.632 12.516,-0.632C10.771,-0.632 9.286,0.983 8.063,4.212L5.641,13.118C4.755,16.347 3.792,17.962 2.75,17.962C2.542,17.962 1.76,17.493 0.406,16.555L-1,18.391C0.484,19.694 1.943,20.996 3.375,22.298C5.354,23.99 6.839,24.889 7.828,24.993C10.172,25.227 11.604,23.626 12.125,20.188C12.698,16.516 13.102,14.225 13.336,13.313C14.013,10.24 14.755,8.704 15.563,8.704C16.188,8.704 17.132,9.7 18.395,11.692C19.658,13.684 20.328,15.201 20.406,16.243C20.589,17.962 19.924,18.821 18.414,18.821C17.685,18.821 16.943,18.652 16.188,18.313C17.646,23.157 20.458,25.514 24.625,25.384C27.698,25.279 29.156,23.274 29,19.368Z" fill="#FFFFFF" fill-opacity="0.85"/>
</svg>
