<svg width="32" height="26" viewBox="0 0 32 26" fill="none" xmlns="http://www.w3.org/2000/svg" xmlns:xlink="http://www.w3.org/1999/xlink">
<path d="M31,19.747C30.87,16.83 28.826,12.82 24.867,7.716C20.779,2.403 17.328,-0.253 14.516,-0.253C12.771,-0.253 11.286,1.361 10.063,4.591L7.641,13.497C6.755,16.726 5.792,18.341 4.75,18.341C4.542,18.341 3.76,17.872 2.406,16.934L1,18.77C2.484,20.072 3.943,21.374 5.375,22.676C7.354,24.369 8.839,25.268 9.828,25.372C12.172,25.606 13.604,24.005 14.125,20.567C14.698,16.895 15.102,14.604 15.336,13.692C16.013,10.619 16.755,9.083 17.563,9.083C18.188,9.083 19.131,10.079 20.395,12.071C21.658,14.063 22.328,15.58 22.406,16.622C22.589,18.341 21.924,19.2 20.414,19.2C19.685,19.2 18.943,19.031 18.188,18.692C19.646,23.536 22.458,25.893 26.625,25.762C29.698,25.658 31.156,23.653 31,19.747Z" fill="#FFFFFF" fill-opacity="0.85"/>
</svg>
