<svg width="30" height="28" viewBox="0 0 30 28" fill="none" xmlns="http://www.w3.org/2000/svg" xmlns:xlink="http://www.w3.org/1999/xlink">
<path d="M9.086,26.51C7.628,26.51 6.28,26.145 5.043,25.416C3.806,24.687 2.823,23.704 2.094,22.467C1.365,21.23 1,19.882 1,18.424L1,7.096C1,5.637 1.365,4.29 2.094,3.053C2.823,1.816 3.806,0.833 5.043,0.104C6.28,-0.626 7.628,-0.99 9.086,-0.99L20.414,-0.99C21.872,-0.99 23.22,-0.626 24.457,0.104C25.694,0.833 26.677,1.816 27.406,3.053C28.135,4.29 28.5,5.637 28.5,7.096L28.5,18.424C28.5,19.882 28.135,21.23 27.406,22.467C26.677,23.704 25.694,24.687 24.457,25.416C23.22,26.145 21.872,26.51 20.414,26.51L9.086,26.51ZM9.086,24.01L20.414,24.01C21.43,24.01 22.367,23.762 23.227,23.268C24.086,22.773 24.763,22.096 25.258,21.236C25.753,20.377 26,19.439 26,18.424L26,7.096C26,6.08 25.753,5.143 25.258,4.283C24.763,3.424 24.086,2.747 23.227,2.252C22.367,1.757 21.43,1.51 20.414,1.51L9.086,1.51C8.07,1.51 7.133,1.757 6.273,2.252C5.414,2.747 4.737,3.424 4.242,4.283C3.747,5.143 3.5,6.08 3.5,7.096L3.5,18.424C3.5,19.439 3.747,20.377 4.242,21.236C4.737,22.096 5.414,22.773 6.273,23.268C7.133,23.762 8.07,24.01 9.086,24.01ZM22.133,21.275C21.82,21.275 21.553,21.165 21.332,20.943C21.111,20.722 21,20.455 21,20.143C21,19.83 21.111,19.563 21.332,19.342C21.553,19.12 21.82,19.01 22.133,19.01C22.445,19.01 22.712,19.12 22.934,19.342C23.155,19.563 23.266,19.83 23.266,20.143C23.266,20.455 23.155,20.722 22.934,20.943C22.712,21.165 22.445,21.275 22.133,21.275ZM14.75,20.26C13.396,20.26 12.146,19.921 11,19.244C9.854,18.567 8.943,17.656 8.266,16.51C7.589,15.364 7.25,14.114 7.25,12.76C7.25,11.406 7.589,10.156 8.266,9.01C8.943,7.864 9.854,6.952 11,6.275C12.146,5.598 13.396,5.26 14.75,5.26C16.104,5.26 17.354,5.598 18.5,6.275C19.646,6.952 20.557,7.864 21.234,9.01C21.911,10.156 22.25,11.406 22.25,12.76C22.25,14.114 21.911,15.364 21.234,16.51C20.557,17.656 19.646,18.567 18.5,19.244C17.354,19.921 16.104,20.26 14.75,20.26ZM14.75,17.76C15.661,17.76 16.501,17.538 17.27,17.096C18.038,16.653 18.643,16.048 19.086,15.279C19.529,14.511 19.75,13.671 19.75,12.76C19.75,11.848 19.529,11.008 19.086,10.24C18.643,9.472 18.038,8.867 17.27,8.424C16.501,7.981 15.661,7.76 14.75,7.76C13.839,7.76 12.999,7.981 12.23,8.424C11.462,8.867 10.857,9.472 10.414,10.24C9.971,11.008 9.75,11.848 9.75,12.76C9.75,13.671 9.971,14.511 10.414,15.279C10.857,16.048 11.462,16.653 12.23,17.096C12.999,17.538 13.839,17.76 14.75,17.76Z" fill="#FFFFFF" fill-opacity="0.85"/>
</svg>
