<svg width="24" height="26" viewBox="0 0 24 26" fill="none" xmlns="http://www.w3.org/2000/svg" xmlns:xlink="http://www.w3.org/1999/xlink">
<path d="M21.99,7.568C20.707,1.92 15.78,-0.623 11.452,-0.623C11.452,-0.623 11.452,-0.623 11.44,-0.623C7.125,-0.623 2.186,1.908 0.902,7.555C-0.528,13.864 3.335,19.206 6.831,22.568C8.127,23.815 9.79,24.438 11.452,24.438C13.115,24.438 14.778,23.815 16.061,22.568C19.558,19.206 23.421,13.876 21.99,7.568ZM11.452,13.692C9.325,13.692 7.602,11.969 7.602,9.841C7.602,7.714 9.325,5.991 11.452,5.991C13.58,5.991 15.303,7.714 15.303,9.841C15.303,11.969 13.58,13.692 11.452,13.692Z" fill="#0C0507"/>
</svg>
