<svg width="22" height="34" viewBox="0 0 22 34" fill="none" xmlns="http://www.w3.org/2000/svg" xmlns:xlink="http://www.w3.org/1999/xlink">
<path d="M19.455,0L20.455,0C20.455,-0.552 20.007,-1 19.455,-1L19.455,0ZM14.694,0L14.694,-1L14.694,0ZM6.76,8L5.76,8L6.76,8ZM6.76,12.8L6.76,13.8C7.313,13.8 7.76,13.352 7.76,12.8L6.76,12.8ZM2,12.8L2,11.8C1.448,11.8 1,12.248 1,12.8L2,12.8ZM2,19.2L1,19.2C1,19.752 1.448,20.2 2,20.2L2,19.2ZM6.76,19.2L7.76,19.2C7.76,18.648 7.313,18.2 6.76,18.2L6.76,19.2ZM6.76,32L5.76,32C5.76,32.552 6.208,33 6.76,33L6.76,32ZM13.107,32L13.107,33C13.66,33 14.107,32.552 14.107,32L13.107,32ZM13.107,19.2L13.107,18.2C12.555,18.2 12.107,18.648 12.107,19.2L13.107,19.2ZM17.868,19.2L17.868,20.2C18.327,20.2 18.728,19.887 18.838,19.441L17.868,19.2ZM19.455,12.8L20.425,13.041C20.499,12.742 20.432,12.426 20.242,12.184C20.053,11.942 19.762,11.8 19.455,11.8L19.455,12.8ZM13.107,12.8L12.107,12.8C12.107,13.352 12.555,13.8 13.107,13.8L13.107,12.8ZM14.694,6.4L14.694,7.4L14.694,6.4ZM19.455,6.4L19.455,7.4C20.007,7.4 20.455,6.952 20.455,6.4L19.455,6.4ZM19.455,-1L14.694,-1L14.694,1L19.455,1L19.455,-1ZM14.694,-1C12.322,-1 10.049,-0.05 8.374,1.639L9.794,3.047C11.095,1.735 12.858,1 14.694,1L14.694,-1ZM8.374,1.639C6.7,3.327 5.76,5.616 5.76,8L7.76,8C7.76,6.141 8.493,4.359 9.794,3.047L8.374,1.639ZM5.76,8L5.76,12.8L7.76,12.8L7.76,8L5.76,8ZM6.76,11.8L2,11.8L2,13.8L6.76,13.8L6.76,11.8ZM1,12.8L1,19.2L3,19.2L3,12.8L1,12.8ZM2,20.2L6.76,20.2L6.76,18.2L2,18.2L2,20.2ZM5.76,19.2L5.76,32L7.76,32L7.76,19.2L5.76,19.2ZM6.76,33L13.107,33L13.107,31L6.76,31L6.76,33ZM14.107,32L14.107,19.2L12.107,19.2L12.107,32L14.107,32ZM13.107,20.2L17.868,20.2L17.868,18.2L13.107,18.2L13.107,20.2ZM18.838,19.441L20.425,13.041L18.484,12.559L16.897,18.959L18.838,19.441ZM19.455,11.8L13.107,11.8L13.107,13.8L19.455,13.8L19.455,11.8ZM14.107,12.8L14.107,8L12.107,8L12.107,12.8L14.107,12.8ZM14.107,8C14.107,7.838 14.171,7.685 14.282,7.573L12.862,6.164C12.378,6.653 12.107,7.313 12.107,8L14.107,8ZM14.282,7.573C14.393,7.461 14.541,7.4 14.694,7.4L14.694,5.4C14.005,5.4 13.347,5.676 12.862,6.164L14.282,7.573ZM14.694,7.4L19.455,7.4L19.455,5.4L14.694,5.4L14.694,7.4ZM20.455,6.4L20.455,0L18.455,0L18.455,6.4L20.455,6.4Z" fill="#000000"/>
</svg>
