<svg width="44" height="12" viewBox="0 0 44 12" fill="none" xmlns="http://www.w3.org/2000/svg" xmlns:xlink="http://www.w3.org/1999/xlink">
<path d="M1.618,10.465L39.507,9.143C39.884,8.782 40.238,8.399 40.567,7.995L43.497,4.426C43.538,4.376 43.564,4.315 43.571,4.251C43.578,4.187 43.567,4.122 43.538,4.064C43.509,4.006 43.463,3.958 43.407,3.926C43.352,3.893 43.288,3.877 43.223,3.88L28.621,4.562C26.586,1.83 23.972,-0.75 19.902,-0.75L9.483,-0.75L9.48,-0.737L6.77,-0.737L7.085,-0.099C7.264,0.265 7.542,0.571 7.886,0.785C8.23,0.999 8.628,1.113 9.034,1.113L7.592,5.21C7.383,5.802 7.007,6.321 6.509,6.704C6.011,7.086 5.412,7.316 4.786,7.365L1.716,7.604C1.581,7.615 1.451,7.657 1.336,7.726C1.22,7.796 1.122,7.891 1.05,8.005C0.978,8.119 0.934,8.249 0.921,8.383C0.907,8.517 0.925,8.653 0.973,8.779L1.618,10.465ZM19.902,0.224C23.403,0.224 25.69,2.376 27.451,4.635L19.808,5.012L18.994,0.226L19.902,0.224ZM13.321,0.224L18.294,0.224L19.113,5.045L11.493,5.422L13.321,0.224Z" fill="#000000"/>
</svg>
