<svg width="98" height="26" viewBox="0 0 98 26" fill="none" xmlns="http://www.w3.org/2000/svg" xmlns:xlink="http://www.w3.org/1999/xlink">
<path d="M2.546,24.515L88.389,21.52C89.243,20.704 90.045,19.836 90.791,18.921L97.429,10.834C97.522,10.721 97.58,10.584 97.597,10.438C97.613,10.292 97.586,10.145 97.521,10.014C97.455,9.883 97.352,9.774 97.226,9.7C97.099,9.627 96.954,9.591 96.808,9.598L63.725,11.143C59.114,4.953 53.192,-0.893 43.971,-0.893L20.367,-0.893L20.359,-0.863L14.218,-0.863L14.932,0.582C15.339,1.406 15.967,2.1 16.748,2.585C17.528,3.071 18.429,3.328 19.348,3.328L16.082,12.61C15.609,13.952 14.757,15.128 13.628,15.995C12.499,16.861 11.143,17.381 9.725,17.492L2.768,18.035C2.464,18.059 2.169,18.153 1.907,18.311C1.646,18.469 1.424,18.686 1.261,18.944C1.098,19.202 0.997,19.495 0.967,19.799C0.936,20.103 0.977,20.41 1.087,20.695L2.546,24.515ZM43.971,1.315C51.904,1.315 57.084,6.191 61.074,11.308L43.757,12.162L41.915,1.318L43.971,1.315ZM29.062,1.315L40.329,1.315L42.184,12.237L24.92,13.091L29.062,1.315Z" fill="#103BE9"/>
</svg>
