<svg width="54" height="54" viewBox="0 0 54 54" fill="none" xmlns="http://www.w3.org/2000/svg" xmlns:xlink="http://www.w3.org/1999/xlink">
<path d="M51.492,22.64L47.866,18.426C47.172,17.626 46.612,16.133 46.612,15.066L46.612,10.533C46.612,7.706 44.292,5.386 41.466,5.386L36.932,5.386C35.892,5.386 34.372,4.826 33.572,4.133L29.359,0.506C27.519,-1.067 24.506,-1.067 22.639,0.506L18.452,4.16C17.652,4.826 16.132,5.386 15.092,5.386L10.479,5.386C7.652,5.386 5.332,7.706 5.332,10.533L5.332,15.093C5.332,16.133 4.772,17.626 4.106,18.426L0.506,22.666C-1.041,24.506 -1.041,27.493 0.506,29.333L4.106,33.573C4.772,34.373 5.332,35.866 5.332,36.906L5.332,41.466C5.332,44.293 7.652,46.613 10.479,46.613L15.092,46.613C16.132,46.613 17.652,47.173 18.452,47.866L22.666,51.493C24.506,53.066 27.519,53.066 29.386,51.493L33.599,47.866C34.399,47.173 35.892,46.613 36.959,46.613L41.492,46.613C44.319,46.613 46.639,44.293 46.639,41.466L46.639,36.933C46.639,35.893 47.199,34.373 47.892,33.573L51.519,29.36C53.066,27.52 53.066,24.48 51.492,22.64ZM37.092,20.96L24.212,33.84C23.839,34.213 23.332,34.426 22.799,34.426C22.266,34.426 21.759,34.213 21.386,33.84L14.932,27.386C14.159,26.613 14.159,25.333 14.932,24.56C15.706,23.786 16.986,23.786 17.759,24.56L22.799,29.6L34.266,18.133C35.039,17.36 36.319,17.36 37.092,18.133C37.866,18.906 37.866,20.186 37.092,20.96Z" fill="#103BE9"/>
</svg>
