<svg width="18" height="36" viewBox="0 0 18 36" fill="none" xmlns="http://www.w3.org/2000/svg" xmlns:xlink="http://www.w3.org/1999/xlink">
<path d="M13.063,35.881C10.536,35.881 8.622,35.204 7.32,33.85C5.94,32.417 5.25,30.256 5.25,27.365L5.25,22.131L-1,22.131L-1,15.881L5.25,15.881L5.25,0.881L11.5,0.881L11.5,15.881L16.5,15.881L17.75,22.131L11.5,22.131L11.5,26.31C11.5,27.456 11.715,28.296 12.145,28.83C12.574,29.364 13.297,29.631 14.313,29.631L17.75,29.631L17.75,35.607C16.474,35.79 14.911,35.881 13.063,35.881Z" fill="#FFFFFF" fill-opacity="0.85"/>
</svg>
