<svg width="40" height="34" viewBox="0 0 40 34" fill="none" xmlns="http://www.w3.org/2000/svg" xmlns:xlink="http://www.w3.org/1999/xlink">
<path d="M38.6,13.68C39.38,13.68 40,13.06 40,12.28L40,10.42C40,2.22 37.5,-0.28 29.3,-0.28L10.7,-0.28C2.5,-0.28 0,2.22 0,10.42L0,11.36C0,12.14 0.62,12.76 1.4,12.76C3.2,12.76 4.66,14.22 4.66,16.02C4.66,17.82 3.2,19.26 1.4,19.26C0.62,19.26 0,19.88 0,20.66L0,21.6C0,29.8 2.5,32.3 10.7,32.3L29.3,32.3C37.5,32.3 40,29.8 40,21.6C40,20.82 39.38,20.2 38.6,20.2C36.8,20.2 35.34,18.74 35.34,16.94C35.34,15.14 36.8,13.68 38.6,13.68ZM14,9.76C15.1,9.76 16,10.66 16,11.76C16,12.86 15.12,13.76 14,13.76C12.9,13.76 12,12.86 12,11.76C12,10.66 12.88,9.76 14,9.76ZM26,23.76C24.88,23.76 23.98,22.86 23.98,21.76C23.98,20.66 24.88,19.76 25.98,19.76C27.08,19.76 27.98,20.66 27.98,21.76C27.98,22.86 27.12,23.76 26,23.76ZM27.8,10.96L14.34,24.42C14.04,24.72 13.66,24.86 13.28,24.86C12.9,24.86 12.52,24.72 12.22,24.42C11.64,23.84 11.64,22.88 12.22,22.3L25.68,8.84C26.26,8.26 27.22,8.26 27.8,8.84C28.38,9.42 28.38,10.38 27.8,10.96Z" fill="#103BE9"/>
</svg>
