<svg width="20" height="36" viewBox="0 0 20 36" fill="none" xmlns="http://www.w3.org/2000/svg" xmlns:xlink="http://www.w3.org/1999/xlink">
<path d="M15.063,34.381C12.536,34.381 10.622,33.704 9.32,32.35C7.94,30.917 7.25,28.756 7.25,25.865L7.25,20.631L1,20.631L1,14.381L7.25,14.381L7.25,-0.619L13.5,-0.619L13.5,14.381L18.5,14.381L19.75,20.631L13.5,20.631L13.5,24.81C13.5,25.956 13.715,26.796 14.145,27.33C14.574,27.864 15.297,28.131 16.313,28.131L19.75,28.131L19.75,34.107C18.474,34.29 16.911,34.381 15.063,34.381Z" fill="#FFFFFF" fill-opacity="0.85"/>
</svg>
