<svg width="22" height="28" viewBox="0 0 22 28" fill="none" xmlns="http://www.w3.org/2000/svg" xmlns:xlink="http://www.w3.org/1999/xlink">
<path d="M21.002,9.132C19.718,3.484 14.792,0.941 10.464,0.941C10.464,0.941 10.464,0.941 10.452,0.941C6.136,0.941 1.198,3.472 -0.086,9.12C-1.516,15.428 2.347,20.77 5.843,24.132C7.139,25.379 8.802,26.003 10.464,26.003C12.127,26.003 13.789,25.379 15.073,24.132C18.569,20.77 22.432,15.44 21.002,9.132ZM10.464,15.257C8.337,15.257 6.613,13.533 6.613,11.406C6.613,9.279 8.337,7.555 10.464,7.555C12.591,7.555 14.315,9.279 14.315,11.406C14.315,13.533 12.591,15.257 10.464,15.257Z" fill="#0C0507"/>
</svg>
