<svg width="26" height="22" viewBox="0 0 26 22" fill="none" xmlns="http://www.w3.org/2000/svg" xmlns:xlink="http://www.w3.org/1999/xlink">
<path d="M18.675,0.738L6.45,0.738C2.783,0.738 0.338,2.572 0.338,6.851L0.338,15.408C0.338,19.687 2.783,21.521 6.45,21.521L18.675,21.521C22.343,21.521 24.788,19.687 24.788,15.408L24.788,6.851C24.788,2.572 22.343,0.738 18.675,0.738ZM5.533,14.186C5.533,14.687 5.118,15.103 4.617,15.103C4.115,15.103 3.7,14.687 3.7,14.186L3.7,8.073C3.7,7.572 4.115,7.156 4.617,7.156C5.118,7.156 5.533,7.572 5.533,8.073L5.533,14.186ZM12.563,14.797C10.533,14.797 8.895,13.159 8.895,11.129C8.895,9.1 10.533,7.462 12.563,7.462C14.592,7.462 16.23,9.1 16.23,11.129C16.23,13.159 14.592,14.797 12.563,14.797ZM21.426,14.186C21.426,14.687 21.01,15.103 20.509,15.103C20.008,15.103 19.592,14.687 19.592,14.186L19.592,8.073C19.592,7.572 20.008,7.156 20.509,7.156C21.01,7.156 21.426,7.572 21.426,8.073L21.426,14.186Z" fill="#0C0507"/>
</svg>
