<svg width="30" height="28" viewBox="0 0 30 28" fill="none" xmlns="http://www.w3.org/2000/svg" xmlns:xlink="http://www.w3.org/1999/xlink">
<path d="M9.086,26.631C7.628,26.631 6.28,26.266 5.043,25.537C3.806,24.808 2.823,23.825 2.094,22.588C1.365,21.351 1,20.003 1,18.545L1,7.217C1,5.758 1.365,4.411 2.094,3.174C2.823,1.937 3.806,0.954 5.043,0.225C6.28,-0.505 7.628,-0.869 9.086,-0.869L20.414,-0.869C21.872,-0.869 23.22,-0.505 24.457,0.225C25.694,0.954 26.677,1.937 27.406,3.174C28.135,4.411 28.5,5.758 28.5,7.217L28.5,18.545C28.5,20.003 28.135,21.351 27.406,22.588C26.677,23.825 25.694,24.808 24.457,25.537C23.22,26.266 21.872,26.631 20.414,26.631L9.086,26.631ZM9.086,24.131L20.414,24.131C21.43,24.131 22.367,23.883 23.227,23.389C24.086,22.894 24.763,22.217 25.258,21.357C25.753,20.498 26,19.56 26,18.545L26,7.217C26,6.201 25.753,5.264 25.258,4.404C24.763,3.545 24.086,2.868 23.227,2.373C22.367,1.878 21.43,1.631 20.414,1.631L9.086,1.631C8.07,1.631 7.133,1.878 6.273,2.373C5.414,2.868 4.737,3.545 4.242,4.404C3.747,5.264 3.5,6.201 3.5,7.217L3.5,18.545C3.5,19.56 3.747,20.498 4.242,21.357C4.737,22.217 5.414,22.894 6.273,23.389C7.133,23.883 8.07,24.131 9.086,24.131ZM22.133,21.396C21.82,21.396 21.553,21.286 21.332,21.064C21.111,20.843 21,20.576 21,20.264C21,19.951 21.111,19.684 21.332,19.463C21.553,19.241 21.82,19.131 22.133,19.131C22.445,19.131 22.712,19.241 22.934,19.463C23.155,19.684 23.266,19.951 23.266,20.264C23.266,20.576 23.155,20.843 22.934,21.064C22.712,21.286 22.445,21.396 22.133,21.396ZM14.75,20.381C13.396,20.381 12.146,20.042 11,19.365C9.854,18.688 8.943,17.777 8.266,16.631C7.589,15.485 7.25,14.235 7.25,12.881C7.25,11.527 7.589,10.277 8.266,9.131C8.943,7.985 9.854,7.074 11,6.396C12.146,5.719 13.396,5.381 14.75,5.381C16.104,5.381 17.354,5.719 18.5,6.396C19.646,7.074 20.557,7.985 21.234,9.131C21.911,10.277 22.25,11.527 22.25,12.881C22.25,14.235 21.911,15.485 21.234,16.631C20.557,17.777 19.646,18.688 18.5,19.365C17.354,20.042 16.104,20.381 14.75,20.381ZM14.75,17.881C15.661,17.881 16.501,17.659 17.27,17.217C18.038,16.774 18.643,16.169 19.086,15.4C19.529,14.632 19.75,13.792 19.75,12.881C19.75,11.969 19.529,11.13 19.086,10.361C18.643,9.593 18.038,8.988 17.27,8.545C16.501,8.102 15.661,7.881 14.75,7.881C13.839,7.881 12.999,8.102 12.23,8.545C11.462,8.988 10.857,9.593 10.414,10.361C9.971,11.13 9.75,11.969 9.75,12.881C9.75,13.792 9.971,14.632 10.414,15.4C10.857,16.169 11.462,16.774 12.23,17.217C12.999,17.659 13.839,17.881 14.75,17.881Z" fill="#FFFFFF" fill-opacity="0.85"/>
</svg>
