<svg width="12" height="394" viewBox="0 0 12 394" fill="none" xmlns="http://www.w3.org/2000/svg" xmlns:xlink="http://www.w3.org/1999/xlink">
<path d="M0.667,6C0.667,8.946 3.054,11.333 6,11.333C8.946,11.333 11.333,8.946 11.333,6C11.333,3.054 8.946,0.667 6,0.667C3.054,0.667 0.667,3.054 0.667,6ZM0.667,388C0.667,390.946 3.054,393.334 6,393.334C8.946,393.334 11.333,390.946 11.333,388C11.333,385.054 8.946,382.666 6,382.666C3.054,382.666 0.667,385.054 0.667,388ZM5,6L5,388L7,388L7,6L5,6Z" transform="rotate(0 6 197)" fill="#D1D3D3"/>
</svg>
