<svg width="24" height="22" viewBox="0 0 24 22" fill="none" xmlns="http://www.w3.org/2000/svg" xmlns:xlink="http://www.w3.org/1999/xlink">
<path d="M17.799,-0.742L5.574,-0.742C1.906,-0.742 -0.539,1.092 -0.539,5.37L-0.539,13.928C-0.539,18.206 1.906,20.04 5.574,20.04L17.799,20.04C21.466,20.04 23.911,18.206 23.911,13.928L23.911,5.37C23.911,1.092 21.466,-0.742 17.799,-0.742ZM4.657,12.705C4.657,13.206 4.241,13.622 3.74,13.622C3.239,13.622 2.823,13.206 2.823,12.705L2.823,6.593C2.823,6.092 3.239,5.676 3.74,5.676C4.241,5.676 4.657,6.092 4.657,6.593L4.657,12.705ZM11.686,13.316C9.657,13.316 8.019,11.678 8.019,9.649C8.019,7.62 9.657,5.982 11.686,5.982C13.716,5.982 15.354,7.62 15.354,9.649C15.354,11.678 13.716,13.316 11.686,13.316ZM20.549,12.705C20.549,13.206 20.134,13.622 19.633,13.622C19.131,13.622 18.716,13.206 18.716,12.705L18.716,6.593C18.716,6.092 19.131,5.676 19.633,5.676C20.134,5.676 20.549,6.092 20.549,6.593L20.549,12.705Z" fill="#0C0507"/>
</svg>
