<svg width="64" height="64" viewBox="0 0 64 64" fill="none" xmlns="http://www.w3.org/2000/svg" xmlns:xlink="http://www.w3.org/1999/xlink">
<path d="M23.681,12.266C21.547,3.039 7.654,3.013 5.521,12.266C4.267,17.679 7.707,22.266 10.694,25.119C12.881,27.173 16.321,27.173 18.507,25.119C21.494,22.266 24.907,17.679 23.681,12.266ZM14.694,16.533C13.227,16.533 12.027,15.333 12.027,13.866C12.027,12.399 13.201,11.199 14.667,11.199L14.694,11.199C16.187,11.199 17.361,12.399 17.361,13.866C17.361,15.333 16.187,16.533 14.694,16.533Z" fill="#103BE9"/>
<path d="M58.427,44.266C56.293,35.039 42.347,35.013 40.187,44.266C38.933,49.679 42.373,54.266 45.387,57.119C47.573,59.173 51.04,59.173 53.227,57.119C56.24,54.266 59.68,49.679 58.427,44.266ZM49.413,48.533C47.947,48.533 46.747,47.333 46.747,45.866C46.747,44.399 47.92,43.199 49.387,43.199L49.413,43.199C50.88,43.199 52.08,44.399 52.08,45.866C52.08,47.333 50.88,48.533 49.413,48.533Z" fill="#103BE9"/>
<path d="M31.999,52.667L24.852,52.667C21.759,52.667 19.065,50.801 17.999,47.921C16.905,45.041 17.705,41.867 20.025,39.814L41.332,21.174C42.612,20.054 42.639,18.534 42.265,17.494C41.865,16.454 40.852,15.334 39.145,15.334L31.999,15.334C30.905,15.334 29.999,14.427 29.999,13.334C29.999,12.241 30.905,11.334 31.999,11.334L39.145,11.334C42.239,11.334 44.932,13.201 45.999,16.081C47.092,18.961 46.292,22.134 43.972,24.187L22.665,42.827C21.385,43.947 21.359,45.467 21.732,46.507C22.132,47.547 23.145,48.667 24.852,48.667L31.999,48.667C33.092,48.667 33.999,49.574 33.999,50.667C33.999,51.761 33.092,52.667 31.999,52.667Z" fill="#103BE9"/>
</svg>
