<svg width="48" height="48" viewBox="0 0 48 48" fill="none" xmlns="http://www.w3.org/2000/svg" xmlns:xlink="http://www.w3.org/1999/xlink">
<path d="M42.54,18.36C41.96,17.44 41.34,16.58 40.7,15.78C39.96,14.84 38.56,14.76 37.72,15.6L31.72,21.6C32.16,22.92 32.24,24.44 31.84,26.02C31.14,28.84 28.86,31.12 26.04,31.82C24.46,32.22 22.94,32.14 21.62,31.7C21.62,31.7 18.76,34.56 16.7,36.62C15.7,37.62 16.02,39.38 17.36,39.9C19.5,40.72 21.72,41.14 24,41.14C27.56,41.14 31.02,40.1 34.18,38.16C37.4,36.16 40.3,33.22 42.64,29.48C44.54,26.46 44.44,21.38 42.54,18.36Z" fill="#D9D9D9"/>
<path d="M28.04,19.96L19.96,28.04C18.94,27 18.28,25.56 18.28,24C18.28,20.86 20.84,18.28 24,18.28C25.56,18.28 27,18.94 28.04,19.96Z" fill="#D9D9D9"/>
<path d="M36.5,11.5L29.72,18.28C28.26,16.8 26.24,15.92 24,15.92C19.52,15.92 15.92,19.54 15.92,24C15.92,26.24 16.82,28.26 18.28,29.72L11.52,36.5L11.5,36.5C9.28,34.7 7.24,32.4 5.5,29.68C3.5,26.54 3.5,21.44 5.5,18.3C7.82,14.66 10.66,11.8 13.82,9.84C16.98,7.92 20.44,6.86 24,6.86C28.46,6.86 32.78,8.5 36.5,11.5Z" fill="#D9D9D9"/>
<path d="M29.72,24C29.72,27.14 27.16,29.72 24,29.72C23.88,29.72 23.78,29.72 23.66,29.68L29.68,23.66C29.72,23.78 29.72,23.88 29.72,24Z" fill="#D9D9D9"/>
<path d="M43.54,4.46C42.94,3.86 41.96,3.86 41.36,4.46L4.46,41.38C3.86,41.98 3.86,42.96 4.46,43.56C4.76,43.84 5.14,44 5.54,44C5.94,44 6.32,43.84 6.62,43.54L43.54,6.62C44.16,6.02 44.16,5.06 43.54,4.46Z" fill="#D9D9D9"/>
</svg>
