<svg width="98" height="98" viewBox="0 0 98 98" fill="none" xmlns="http://www.w3.org/2000/svg" xmlns:xlink="http://www.w3.org/1999/xlink">
<path d="M31.471,25.696C29.876,24.101 27.291,24.101 25.696,25.696C24.101,27.291 24.101,29.876 25.696,31.471L31.471,25.696ZM66.529,72.304C68.124,73.899 70.709,73.899 72.304,72.304C73.899,70.709 73.899,68.124 72.304,66.529L66.529,72.304ZM25.696,31.471L66.529,72.304L72.304,66.529L31.471,25.696L25.696,31.471Z" fill="#BDBDBD"/>
<path d="M72.304,31.471C73.899,29.876 73.899,27.291 72.304,25.696C70.709,24.101 68.124,24.101 66.529,25.696L72.304,31.471ZM25.696,66.529C24.101,68.124 24.101,70.709 25.696,72.304C27.291,73.899 29.876,73.899 31.471,72.304L25.696,66.529ZM66.529,25.696L25.696,66.529L31.471,72.304L72.304,31.471L66.529,25.696Z" fill="#BDBDBD"/>
</svg>
